<svg version="1.1" xmlns="http://www.w3.org/2000/svg" xmlns:xlink="http://www.w3.org/1999/xlink" width="500" height="500"><g data-paper-data="{&quot;description&quot;:&quot;Logo for Suzuki Shun\n====================\n\nThis logo was generated by MarkMaker at http://emblemmatic.org/markmaker/ and may be composed of elements designed by others.\n\nThe font is Schoolbell designed by Font Diner and released under the APACHE2 license via Google Fonts: https://www.google.com/fonts/specimen/Schoolbell. The font includes this copyright statement: Copyright (c) 2010 by Font Diner, Inc. (diner@fontdiner.com) All rights reserved.\n\nMarkMaker uses semantic data from the Princeton University WordNet database http://wordnet.princeton.edu and font descriptions from Google Fonts https://www.google.com/fonts.&quot;}" fill="none" fill-rule="nonzero" stroke="none" stroke-width="none" stroke-linecap="butt" stroke-linejoin="miter" stroke-miterlimit="10" stroke-dasharray="" stroke-dashoffset="0" font-family="none" font-weight="none" font-size="none" text-anchor="none" style="mix-blend-mode: normal"><path d="M50,250c0,-110.45695 89.54305,-200 200,-200c110.45695,0 200,89.54305 200,200c0,110.45695 -89.54305,200 -200,200c-110.45695,0 -200,-89.54305 -200,-200z" fill="none" stroke="#e08f3d" stroke-width="3.5"></path><g data-paper-data="{&quot;elementType&quot;:&quot;logo&quot;}" fill="#e08f3d" stroke="none" stroke-width="1"><g data-paper-data="{&quot;elementType&quot;:&quot;text&quot;}"><g data-paper-data="{&quot;baseline&quot;:79.69970703125,&quot;elementType&quot;:&quot;row&quot;}"><g data-paper-data="{&quot;baselineProportion&quot;:0.9489414694894147,&quot;fontSize&quot;:100,&quot;baseline&quot;:74.4140625,&quot;elementType&quot;:&quot;word&quot;}"><path d="M102.33294,256.84533c-1.09457,-1.14018 -2.25755,-2.20054 -3.48894,-3.18109c-1.23139,-0.98055 -2.45138,-1.9611 -3.65996,-2.94165c-1.20859,-0.98055 -2.38297,-2.00671 -3.52314,-3.07847c-1.14018,-1.07177 -2.18914,-2.24615 -3.14689,-3.52314c-1.00335,-1.3226 -1.79008,-2.77063 -2.36016,-4.34407c-0.57009,-1.57344 -0.6727,-3.20389 -0.30785,-4.89135c0.36486,-1.82428 1.25419,-3.42053 2.66801,-4.78874c1.41382,-1.36821 2.94165,-2.43998 4.58351,-3.2153c1.77867,-0.77532 3.58015,-1.3112 5.40443,-1.60765c1.82428,-0.29645 3.67137,-0.47887 5.54125,-0.54728c1.86989,-0.06841 3.75118,-0.06841 5.64387,0c1.89269,0.06841 3.77398,0.05701 5.64387,-0.03421c0.86653,-0.04561 1.51643,0.20523 1.9497,0.75252c0.43327,0.54728 0.6499,1.16298 0.6499,1.84708c0,0.68411 -0.21663,1.3112 -0.6499,1.88129c-0.43327,0.57009 -1.08317,0.87794 -1.9497,0.92354c-1.3226,0.09121 -2.63381,0.12542 -3.93361,0.10262c-1.2998,-0.0228 -2.611,-0.05701 -3.93361,-0.10262c-1.77867,-0.04561 -3.56875,-0.0228 -5.37023,0.06841c-1.80148,0.09121 -3.56875,0.45607 -5.30182,1.09457c-0.59289,0.22804 -1.23139,0.51308 -1.9155,0.85513c-0.68411,0.34205 -1.3112,0.76392 -1.88129,1.2656c-0.57009,0.50168 -1.03756,1.04896 -1.40242,1.64185c-0.36486,0.59289 -0.52448,1.23139 -0.47887,1.9155c0.04561,0.6385 0.20523,1.2656 0.47887,1.88129c0.27364,0.61569 0.6271,1.21999 1.06036,1.81288c0.43327,0.59289 0.90074,1.16298 1.40242,1.71026c0.50168,0.54728 0.98055,1.04896 1.43662,1.50503c1.04896,1.04896 2.14353,2.00671 3.28371,2.87324c1.14018,0.86653 2.28035,1.75587 3.42053,2.66801c1.18578,0.95775 2.38297,2.01811 3.59155,3.18109c1.20859,1.16298 2.25755,2.41717 3.14689,3.76258c0.88934,1.34541 1.55064,2.77063 1.98391,4.27566c0.43327,1.50503 0.49028,3.10128 0.17103,4.78874c-0.31925,1.59625 -0.92354,2.95306 -1.81288,4.07043c-0.88934,1.11737 -1.9383,2.12073 -3.14689,3.01006c-1.20859,0.88934 -2.48558,1.68746 -3.83099,2.39437c-1.34541,0.70691 -2.63381,1.42522 -3.8652,2.15493c-0.77532,0.45607 -1.49363,0.54728 -2.15493,0.27364c-0.6613,-0.27364 -1.16298,-0.70691 -1.50503,-1.2998c-0.34205,-0.59289 -0.47887,-1.24279 -0.41046,-1.9497c0.06841,-0.70691 0.49028,-1.2884 1.2656,-1.74447c1.09457,-0.6385 2.18914,-1.23139 3.28371,-1.77867c1.09457,-0.54728 2.16633,-1.16298 3.2153,-1.84708c1.00335,-0.6385 1.88129,-1.40242 2.63381,-2.29175c0.75252,-0.88934 1.12877,-1.9269 1.12877,-3.11268c-0.04561,-1.18578 -0.42187,-2.32596 -1.12877,-3.42053c-0.70691,-1.09457 -1.51643,-2.09792 -2.42857,-3.01006z" data-paper-data="{&quot;elementType&quot;:&quot;letter&quot;,&quot;baseline&quot;:72.6806640625,&quot;baselineProportion&quot;:0.9646791963707062,&quot;fontSize&quot;:100}"></path><path d="M147.14185,251.4409c0.04561,3.9222 0.31925,7.84441 0.82093,11.76661c0.50168,3.9222 1.16298,7.7988 1.98391,11.62979c0.18243,0.86653 0.03421,1.58484 -0.44467,2.15493c-0.47887,0.57009 -1.03756,0.94635 -1.67606,1.12877c-0.6385,0.18243 -1.277,0.13682 -1.9155,-0.13682c-0.6385,-0.27364 -1.04896,-0.84373 -1.23139,-1.71026c-0.54728,-2.5996 -1.02616,-5.15359 -1.43662,-7.66198c-0.18243,0.22804 -0.34205,0.44467 -0.47887,0.6499c-0.13682,0.20523 -0.29645,0.42187 -0.47887,0.6499c-0.91214,1.09457 -1.9611,2.04091 -3.14689,2.83904c-1.18578,0.79812 -2.45138,1.41382 -3.79679,1.84708c-1.34541,0.43327 -2.72502,0.6727 -4.13884,0.71831c-1.41382,0.04561 -2.80483,-0.11402 -4.17304,-0.47887c-2.41717,-0.68411 -4.26426,-1.86989 -5.54125,-3.55735c-1.277,-1.68746 -2.18914,-3.61436 -2.73642,-5.78069c-0.54728,-2.16633 -0.86653,-4.42388 -0.95775,-6.77264c-0.09121,-2.34876 -0.15962,-4.5265 -0.20523,-6.53321c0,-0.86653 0.27364,-1.51643 0.82093,-1.9497c0.54728,-0.43327 1.16298,-0.6499 1.84708,-0.6499c0.68411,0 1.3112,0.21663 1.88129,0.6499c0.57009,0.43327 0.87794,1.08317 0.92354,1.9497c0.04561,1.82428 0.07981,3.67137 0.10262,5.54125c0.0228,1.86989 0.21663,3.62576 0.58149,5.26761c0.18243,0.91214 0.38766,1.69886 0.61569,2.36016c0.22804,0.6613 0.59289,1.35681 1.09457,2.08652c0.22804,0.31925 0.35345,0.50168 0.37626,0.54728c0.0228,0.04561 0.07981,0.09121 0.17103,0.13682c0.68411,0.54728 1.14018,0.87794 1.36821,0.99195c0.22804,0.11402 0.50168,0.21663 0.82093,0.30785c1.9155,0.54728 3.85379,0.49028 5.8149,-0.17103c1.9611,-0.6613 3.53454,-1.85849 4.72033,-3.59155c0.68411,-1.09457 1.19718,-2.23474 1.53924,-3.42053c0.34205,-1.18578 0.58149,-2.38297 0.71831,-3.59155c0.13682,-1.20859 0.23944,-2.43998 0.30785,-3.69417c0.06841,-1.25419 0.19383,-2.49698 0.37626,-3.72837c0,-1.36821 0.35345,-2.26895 1.06036,-2.70222c0.70691,-0.43327 1.44802,-0.58149 2.22334,-0.44467c0.45607,0.13682 0.82093,0.29645 1.09457,0.47887l0.54728,0.47887c0.50168,0.82093 0.68411,1.61905 0.54728,2.39437z" data-paper-data="{&quot;elementType&quot;:&quot;letter&quot;,&quot;baseline&quot;:39.328125,&quot;baselineProportion&quot;:0.9125351219070063,&quot;fontSize&quot;:100}"></path><path d="M179.70527,267.58579c0.86653,0 1.52784,0.27364 1.98391,0.82093c0.45607,0.54728 0.68411,1.16298 0.68411,1.84708c0,0.68411 -0.22804,1.3112 -0.68411,1.88129c-0.45607,0.57009 -1.11737,0.85513 -1.98391,0.85513c-1.9155,0.04561 -3.83099,0.04561 -5.74649,0c-1.9155,-0.04561 -3.83099,-0.06841 -5.74649,-0.06841c-1.9155,0 -3.79679,0.0114 -5.64387,0.03421c-1.84708,0.0228 -3.72837,-0.07981 -5.64387,-0.30785c-0.68411,-0.09121 -1.24279,-0.33065 -1.67606,-0.71831c-0.43327,-0.38766 -0.71831,-0.83233 -0.85513,-1.33401c-0.13682,-0.50168 -0.11402,-1.02616 0.06841,-1.57344c0.18243,-0.54728 0.54728,-1.02616 1.09457,-1.43662c1.9155,-1.45942 3.69417,-3.05567 5.33602,-4.78874c1.64185,-1.73307 3.39772,-3.35212 5.26761,-4.85715c1.00335,-0.82093 2.01811,-1.59625 3.04427,-2.32596c1.02616,-0.72971 1.99531,-1.55064 2.90745,-2.46278c0.18243,-0.18243 0.36486,-0.34205 0.54728,-0.47887c0.18243,-0.13682 0.38766,-0.29645 0.61569,-0.47887c-2.87324,-0.22804 -5.73508,-0.38766 -8.58552,-0.47887c-2.85044,-0.09121 -5.71228,-0.45607 -8.58552,-1.09457c-0.86653,-0.18243 -1.43662,-0.59289 -1.71026,-1.23139c-0.27364,-0.6385 -0.31925,-1.277 -0.13682,-1.9155c0.18243,-0.6385 0.57009,-1.18578 1.16298,-1.64185c0.59289,-0.45607 1.3226,-0.59289 2.18914,-0.41046c1.77867,0.36486 3.56875,0.6271 5.37023,0.78672c1.80148,0.15962 3.61436,0.28504 5.43864,0.37626c1.82428,0.09121 3.64856,0.18243 5.47284,0.27364c1.82428,0.09121 3.62576,0.27364 5.40443,0.54728c0.31925,0.04561 0.6271,0.19383 0.92354,0.44467c0.29645,0.25084 0.53588,0.53588 0.71831,0.85513c0.18243,0.31925 0.30785,0.6613 0.37626,1.02616c0.06841,0.36486 0.03421,0.70691 -0.10262,1.02616c-0.50168,1.23139 -1.17438,2.28035 -2.01811,3.14689c-0.84373,0.86653 -1.74447,1.73307 -2.70222,2.5996c-1.00335,0.91214 -2.00671,1.76727 -3.01006,2.5654c-1.00335,0.79812 -2.02951,1.60765 -3.07847,2.42857c-1.18578,0.91214 -2.31456,1.88129 -3.38632,2.90745c-1.07177,1.02616 -2.13213,2.06372 -3.18109,3.11268c0.72971,0 1.45942,-0.0114 2.18914,-0.03421c0.72971,-0.0228 1.45942,-0.0114 2.18914,0.03421c1.9155,0 3.83099,0.0114 5.74649,0.03421c1.9155,0.0228 3.83099,0.03421 5.74649,0.03421z" data-paper-data="{&quot;elementType&quot;:&quot;letter&quot;,&quot;baseline&quot;:43.17801339285714,&quot;baselineProportion&quot;:1.0926743159752865,&quot;fontSize&quot;:100}"></path><path d="M216.51014,252.79445c0.04561,3.92683 0.31925,7.87681 0.82093,11.84993c0.50168,3.97312 1.16298,7.91684 1.98391,11.83114c0.18243,0.88505 0.03421,1.58832 -0.44467,2.1098c-0.47887,0.52149 -1.03756,0.84104 -1.67606,0.95867c-0.6385,0.11763 -1.277,0.00722 -1.9155,-0.33123c-0.6385,-0.33844 -1.04896,-0.95019 -1.23139,-1.83524c-0.54728,-2.65515 -1.02616,-5.25774 -1.43662,-7.80779c-0.18243,0.20952 -0.34205,0.40995 -0.47887,0.6013c-0.13682,0.19135 -0.29645,0.39178 -0.47887,0.6013c-0.91214,1.00199 -1.9611,1.84188 -3.14689,2.51965c-1.18578,0.67778 -2.45138,1.16502 -3.79679,1.46174c-1.34541,0.29672 -2.72502,0.39614 -4.13884,0.29825c-1.41382,-0.09788 -2.80483,-0.39869 -4.17304,-0.9024c-2.41717,-0.92943 -4.26426,-2.30268 -5.54125,-4.11974c-1.277,-1.81707 -2.18914,-3.83654 -2.73642,-6.05842c-0.54728,-2.22188 -0.86653,-4.51183 -0.95775,-6.86985c-0.09121,-2.35802 -0.15962,-4.5427 -0.20523,-6.55404c0,-0.86653 0.27364,-1.48866 0.82093,-1.86638c0.54728,-0.37772 1.16298,-0.53187 1.84708,-0.46244c0.68411,0.06943 1.3112,0.34971 1.88129,0.84084c0.57009,0.49113 0.87794,1.17227 0.92354,2.04343c0.04561,1.82891 0.07981,3.67947 0.10262,5.55167c0.0228,1.8722 0.21663,3.64775 0.58149,5.32663c0.18243,0.93066 0.38766,1.73821 0.61569,2.42265c0.22804,0.68445 0.59289,1.41698 1.09457,2.19761c0.22804,0.34239 0.35345,0.53755 0.37626,0.58547c0.0228,0.04792 0.07981,0.09931 0.17103,0.15418c0.68411,0.61672 1.14018,0.99365 1.36821,1.13082c0.22804,0.13716 0.50168,0.26755 0.82093,0.39117c1.9155,0.74169 3.85379,0.88141 5.8149,0.41914c1.9611,-0.46227 3.53454,-1.49976 4.72033,-3.11248c0.68411,-1.02514 1.19718,-2.11324 1.53924,-3.26431c0.34205,-1.15107 0.58149,-2.32395 0.71831,-3.51865c0.13682,-1.1947 0.23944,-2.41568 0.30785,-3.66293c0.06841,-1.24725 0.19383,-2.47731 0.37626,-3.69019c0,-1.36821 0.35345,-2.23308 1.06036,-2.5946c0.70691,-0.36152 1.44802,-0.43453 2.22334,-0.21902c0.45607,0.18311 0.82093,0.37976 1.09457,0.58996l0.54728,0.53442c0.50168,0.87184 0.68411,1.68848 0.54728,2.44991z" data-paper-data="{&quot;elementType&quot;:&quot;letter&quot;,&quot;baseline&quot;:39.328125,&quot;baselineProportion&quot;:0.9125351219070063,&quot;fontSize&quot;:100}"></path><path d="M225.88239,260.81314c-0.18243,-0.54728 -0.20523,-1.11737 -0.06841,-1.71026c-0.31925,-5.51845 -0.6613,-11.0027 -1.02616,-16.45274c-0.36486,-5.45004 -0.34205,-10.93429 0.06841,-16.45274c0.09121,-0.77532 0.37626,-1.42522 0.85513,-1.9497c0.47887,-0.52448 1.10597,-0.78672 1.88129,-0.78672c0.72971,0 1.39101,0.26224 1.98391,0.78672c0.59289,0.52448 0.84373,1.17438 0.75252,1.9497c-0.36486,4.97117 -0.41046,9.88532 -0.13682,14.74247c0.27364,4.85715 0.57009,9.77131 0.88934,14.74247c2.55399,-1.59625 5.11939,-3.14689 7.69619,-4.65192c2.5768,-1.50503 5.09659,-3.10128 7.55937,-4.78874c0.72971,-0.50168 1.42522,-0.6271 2.08652,-0.37626c0.6613,0.25084 1.16298,0.6727 1.50503,1.2656c0.34205,0.59289 0.46747,1.25419 0.37626,1.98391c-0.09121,0.72971 -0.50168,1.34541 -1.23139,1.84708c-2.46278,1.68746 -4.95976,3.2723 -7.49095,4.75453c-2.53119,1.48223 -5.07378,2.99866 -7.62778,4.5493c3.05567,2.05232 6.08854,4.12744 9.0986,6.22536c3.01006,2.09792 5.95172,4.30986 8.82496,6.63582c0.59289,0.50168 0.86653,1.15158 0.82093,1.9497c-0.04561,0.79812 -0.31925,1.44802 -0.82093,1.9497c-0.59289,0.54728 -1.24279,0.79812 -1.9497,0.75252c-0.70691,-0.04561 -1.35681,-0.29645 -1.9497,-0.75252c-2.64521,-2.14353 -5.33602,-4.17304 -8.07244,-6.08854c-2.73642,-1.9155 -5.51845,-3.83099 -8.34609,-5.74649c0.04561,1.73307 0.05701,3.48894 0.03421,5.26761c-0.0228,1.77867 -0.07981,3.53454 -0.17103,5.26761c-0.04561,0.91214 -0.35345,1.58484 -0.92354,2.01811c-0.57009,0.43327 -1.19718,0.6499 -1.88129,0.6499c-0.68411,0 -1.2998,-0.21663 -1.84708,-0.6499c-0.54728,-0.43327 -0.79812,-1.10597 -0.75252,-2.01811c0.09121,-2.46278 0.12542,-4.93696 0.10262,-7.42254c-0.0228,-2.48558 -0.10262,-4.98257 -0.23944,-7.49095z" data-paper-data="{&quot;elementType&quot;:&quot;letter&quot;,&quot;baseline&quot;:74.4140625,&quot;baselineProportion&quot;:0.9489414694894147,&quot;fontSize&quot;:100}"></path><path d="M255.1621,274.90571c0.36486,-2.18914 0.78672,-4.34407 1.2656,-6.4648c0.47887,-2.12073 0.83233,-4.27566 1.06036,-6.4648c0.18243,-2.14353 0.21663,-4.25286 0.10262,-6.32798c-0.11402,-2.07512 0.0114,-4.18445 0.37626,-6.32798c0.09121,-0.72971 0.51308,-1.277 1.2656,-1.64185c0.75252,-0.36486 1.44802,-0.45607 2.08652,-0.27364c0.77532,0.22804 1.3112,0.6613 1.60765,1.2998c0.29645,0.6385 0.39906,1.3226 0.30785,2.05232c-0.18243,1.04896 -0.26224,2.12073 -0.23944,3.2153c0.0228,1.09457 0.05701,2.18914 0.10262,3.28371c0,2.09792 -0.13682,4.19585 -0.41046,6.29377c-0.27364,2.18914 -0.6271,4.33267 -1.06036,6.43059c-0.43327,2.09792 -0.83233,4.21865 -1.19718,6.36218c-0.13682,0.72971 -0.57009,1.277 -1.2998,1.64185c-0.72971,0.36486 -1.41382,0.45607 -2.05232,0.27364c-0.77532,-0.22804 -1.3226,-0.6613 -1.64185,-1.2998c-0.31925,-0.6385 -0.41046,-1.3226 -0.27364,-2.05232M258.44581,243.43686c-0.31925,-0.09121 -0.6385,-0.23944 -0.95775,-0.44467c-0.31925,-0.20523 -0.54728,-0.46747 -0.68411,-0.78672c-0.13682,-0.36486 -0.25084,-0.68411 -0.34205,-0.95775c-0.09121,-0.27364 -0.13682,-0.59289 -0.13682,-0.95775c0,-0.41046 0.06841,-0.82093 0.20523,-1.23139c0.18243,-0.82093 0.54728,-1.41382 1.09457,-1.77867c0.18243,-0.27364 0.43327,-0.47887 0.75252,-0.61569c0.50168,-0.31925 1.07177,-0.49028 1.71026,-0.51308c0.6385,-0.0228 1.20859,0.14822 1.71026,0.51308c0.22804,0.18243 0.45607,0.37626 0.68411,0.58149c0.22804,0.20523 0.41046,0.46747 0.54728,0.78672c0.09121,0.22804 0.19383,0.47887 0.30785,0.75252c0.11402,0.27364 0.14822,0.54728 0.10262,0.82093c-0.04561,0.31925 -0.09121,0.61569 -0.13682,0.88934c-0.04561,0.27364 -0.15962,0.52448 -0.34205,0.75252c-0.22804,0.31925 -0.41046,0.54728 -0.54728,0.68411c-0.13682,0.13682 -0.36486,0.31925 -0.68411,0.54728c-0.18243,0.18243 -0.45607,0.31925 -0.82093,0.41046c-0.95775,0.54728 -1.77867,0.72971 -2.46278,0.54728z" data-paper-data="{&quot;elementType&quot;:&quot;letter&quot;,&quot;baseline&quot;:56.30170036764707,&quot;baselineProportion&quot;:0.9346153846153845,&quot;fontSize&quot;:100}"></path></g><g data-paper-data="{&quot;baselineProportion&quot;:0.9230877986710024,&quot;fontSize&quot;:100,&quot;baseline&quot;:79.69970703125,&quot;elementType&quot;:&quot;word&quot;}"><path d="M305.93686,256.84533c-1.09457,-1.14018 -2.25755,-2.20054 -3.48894,-3.18109c-1.23139,-0.98055 -2.45138,-1.9611 -3.65996,-2.94165c-1.20859,-0.98055 -2.38297,-2.00671 -3.52314,-3.07847c-1.14018,-1.07177 -2.18914,-2.24615 -3.14689,-3.52314c-1.00335,-1.3226 -1.79008,-2.77063 -2.36016,-4.34407c-0.57009,-1.57344 -0.6727,-3.20389 -0.30785,-4.89135c0.36486,-1.82428 1.25419,-3.42053 2.66801,-4.78874c1.41382,-1.36821 2.94165,-2.43998 4.58351,-3.2153c1.77867,-0.77532 3.58015,-1.3112 5.40443,-1.60765c1.82428,-0.29645 3.67137,-0.47887 5.54125,-0.54728c1.86989,-0.06841 3.75118,-0.06841 5.64387,0c1.89269,0.06841 3.77398,0.05701 5.64387,-0.03421c0.86653,-0.04561 1.51643,0.20523 1.9497,0.75252c0.43327,0.54728 0.6499,1.16298 0.6499,1.84708c0,0.68411 -0.21663,1.3112 -0.6499,1.88129c-0.43327,0.57009 -1.08317,0.87794 -1.9497,0.92354c-1.3226,0.09121 -2.63381,0.12542 -3.93361,0.10262c-1.2998,-0.0228 -2.611,-0.05701 -3.93361,-0.10262c-1.77867,-0.04561 -3.56875,-0.0228 -5.37023,0.06841c-1.80148,0.09121 -3.56875,0.45607 -5.30182,1.09457c-0.59289,0.22804 -1.23139,0.51308 -1.9155,0.85513c-0.68411,0.34205 -1.3112,0.76392 -1.88129,1.2656c-0.57009,0.50168 -1.03756,1.04896 -1.40242,1.64185c-0.36486,0.59289 -0.52448,1.23139 -0.47887,1.9155c0.04561,0.6385 0.20523,1.2656 0.47887,1.88129c0.27364,0.61569 0.6271,1.21999 1.06036,1.81288c0.43327,0.59289 0.90074,1.16298 1.40242,1.71026c0.50168,0.54728 0.98055,1.04896 1.43662,1.50503c1.04896,1.04896 2.14353,2.00671 3.28371,2.87324c1.14018,0.86653 2.28035,1.75587 3.42053,2.66801c1.18578,0.95775 2.38297,2.01811 3.59155,3.18109c1.20859,1.16298 2.25755,2.41717 3.14689,3.76258c0.88934,1.34541 1.55064,2.77063 1.98391,4.27566c0.43327,1.50503 0.49028,3.10128 0.17103,4.78874c-0.31925,1.59625 -0.92354,2.95306 -1.81288,4.07043c-0.88934,1.11737 -1.9383,2.12073 -3.14689,3.01006c-1.20859,0.88934 -2.48558,1.68746 -3.83099,2.39437c-1.34541,0.70691 -2.63381,1.42522 -3.8652,2.15493c-0.77532,0.45607 -1.49363,0.54728 -2.15493,0.27364c-0.6613,-0.27364 -1.16298,-0.70691 -1.50503,-1.2998c-0.34205,-0.59289 -0.47887,-1.24279 -0.41046,-1.9497c0.06841,-0.70691 0.49028,-1.2884 1.2656,-1.74447c1.09457,-0.6385 2.18914,-1.23139 3.28371,-1.77867c1.09457,-0.54728 2.16633,-1.16298 3.2153,-1.84708c1.00335,-0.6385 1.88129,-1.40242 2.63381,-2.29175c0.75252,-0.88934 1.12877,-1.9269 1.12877,-3.11268c-0.04561,-1.18578 -0.42187,-2.32596 -1.12877,-3.42053c-0.70691,-1.09457 -1.51643,-2.09792 -2.42857,-3.01006z" data-paper-data="{&quot;elementType&quot;:&quot;letter&quot;,&quot;baseline&quot;:72.6806640625,&quot;baselineProportion&quot;:0.9646791963707062,&quot;fontSize&quot;:100}"></path><path d="M322.49221,274.22161c-0.6385,-0.22804 -1.17438,-0.6727 -1.60765,-1.33401c-0.43327,-0.6613 -0.51308,-1.33401 -0.23944,-2.01811c0.77532,-2.14353 1.2998,-4.30986 1.57344,-6.499c0.27364,-2.18914 0.45607,-4.42388 0.54728,-6.70423c0.04561,-0.68411 0.06841,-1.35681 0.06841,-2.01811c0,-0.6613 0.0228,-1.33401 0.06841,-2.01811c-0.13682,-0.54728 -0.09121,-1.07177 0.13682,-1.57344c0.09121,-1.3226 0.18243,-2.65661 0.27364,-4.00202c0.09121,-1.34541 0.22804,-2.67941 0.41046,-4.00202c0.22804,-2.00671 0.46747,-4.00202 0.71831,-5.98592c0.25084,-1.98391 0.42187,-4.00202 0.51308,-6.05433c0.09121,-1.86989 0.19383,-3.72837 0.30785,-5.57546c0.11402,-1.84708 0.58149,-3.61436 1.40242,-5.30182c0.41046,-0.77532 0.95775,-1.21999 1.64185,-1.33401c0.68411,-0.11402 1.3226,0 1.9155,0.34205c0.59289,0.34205 1.03756,0.85513 1.33401,1.53924c0.29645,0.68411 0.23944,1.41382 -0.17103,2.18914c-0.36486,0.77532 -0.61569,1.57344 -0.75252,2.39437c-0.13682,0.82093 -0.21663,1.66466 -0.23944,2.53119c-0.0228,0.86653 -0.03421,1.73307 -0.03421,2.5996c0,0.86653 -0.0228,1.71026 -0.06841,2.53119c-0.22804,2.05232 -0.45607,4.09323 -0.68411,6.12274c-0.22804,2.02951 -0.45607,4.07043 -0.68411,6.12274c1.9155,-0.95775 4.03622,-1.48223 6.36218,-1.57344c1.82428,-0.04561 3.68277,0.26224 5.57546,0.92354c1.89269,0.6613 3.43193,1.72167 4.61771,3.18109c0.68411,0.86653 1.23139,1.81288 1.64185,2.83904c0.41046,1.02616 0.74111,2.09792 0.99195,3.2153c0.25084,1.11737 0.42187,2.23474 0.51308,3.35212c0.09121,1.11737 0.18243,2.20054 0.27364,3.2495c0.13682,2.14353 0.19383,4.27566 0.17103,6.39639c-0.0228,2.12073 -0.07981,4.27566 -0.17103,6.4648c0,0.86653 -0.29645,1.51643 -0.88934,1.9497c-0.59289,0.43327 -1.23139,0.6499 -1.9155,0.6499c-0.68411,0 -1.2998,-0.21663 -1.84708,-0.6499c-0.54728,-0.43327 -0.79812,-1.08317 -0.75252,-1.9497c0.04561,-1.82428 0.09121,-3.64856 0.13682,-5.47284c0.04561,-1.82428 0.0228,-3.64856 -0.06841,-5.47284c-0.09121,-0.91214 -0.15962,-1.84708 -0.20523,-2.80483c-0.04561,-0.95775 -0.15962,-1.9155 -0.34205,-2.87324c-0.09121,-0.45607 -0.17103,-0.90074 -0.23944,-1.33401c-0.06841,-0.43327 -0.17103,-0.87794 -0.30785,-1.33401c-0.04561,-0.36486 -0.15962,-0.75252 -0.34205,-1.16298c-0.13682,-0.41046 -0.22804,-0.6385 -0.27364,-0.68411c-0.09121,-0.13682 -0.15962,-0.26224 -0.20523,-0.37626c-0.04561,-0.11402 -0.11402,-0.23944 -0.20523,-0.37626c-0.41046,-0.45607 -0.6613,-0.70691 -0.75252,-0.75252c-0.18243,-0.13682 -0.34205,-0.23944 -0.47887,-0.30785c-0.13682,-0.06841 -0.27364,-0.14822 -0.41046,-0.23944c-0.50168,-0.27364 -1.07177,-0.50168 -1.71026,-0.68411c-0.6385,-0.18243 -1.25419,-0.27364 -1.84708,-0.27364c-1.55064,-0.09121 -2.99866,0.18243 -4.34407,0.82093c-1.34541,0.6385 -2.54259,1.61905 -3.59155,2.94165c-0.09121,3.14689 -0.25084,6.25956 -0.47887,9.33804c-0.22804,3.07847 -0.88934,6.12274 -1.98391,9.13281c-0.22804,0.68411 -0.6499,1.23139 -1.2656,1.64185c-0.61569,0.41046 -1.3112,0.50168 -2.08652,0.27364z" data-paper-data="{&quot;elementType&quot;:&quot;letter&quot;,&quot;baseline&quot;:79.69970703125,&quot;baselineProportion&quot;:0.9784205005245017,&quot;fontSize&quot;:100}"></path><path d="M384.54058,251.4409c0.04561,3.9222 0.31925,7.84441 0.82093,11.76661c0.50168,3.9222 1.16298,7.7988 1.98391,11.62979c0.18243,0.86653 0.03421,1.58484 -0.44467,2.15493c-0.47887,0.57009 -1.03756,0.94635 -1.67606,1.12877c-0.6385,0.18243 -1.277,0.13682 -1.9155,-0.13682c-0.6385,-0.27364 -1.04896,-0.84373 -1.23139,-1.71026c-0.54728,-2.5996 -1.02616,-5.15359 -1.43662,-7.66198c-0.18243,0.22804 -0.34205,0.44467 -0.47887,0.6499c-0.13682,0.20523 -0.29645,0.42187 -0.47887,0.6499c-0.91214,1.09457 -1.9611,2.04091 -3.14689,2.83904c-1.18578,0.79812 -2.45138,1.41382 -3.79679,1.84708c-1.34541,0.43327 -2.72502,0.6727 -4.13884,0.71831c-1.41382,0.04561 -2.80483,-0.11402 -4.17304,-0.47887c-2.41717,-0.68411 -4.26426,-1.86989 -5.54125,-3.55735c-1.277,-1.68746 -2.18914,-3.61436 -2.73642,-5.78069c-0.54728,-2.16633 -0.86653,-4.42388 -0.95775,-6.77264c-0.09121,-2.34876 -0.15962,-4.5265 -0.20523,-6.53321c0,-0.86653 0.27364,-1.51643 0.82093,-1.9497c0.54728,-0.43327 1.16298,-0.6499 1.84708,-0.6499c0.68411,0 1.3112,0.21663 1.88129,0.6499c0.57009,0.43327 0.87794,1.08317 0.92354,1.9497c0.04561,1.82428 0.07981,3.67137 0.10262,5.54125c0.0228,1.86989 0.21663,3.62576 0.58149,5.26761c0.18243,0.91214 0.38766,1.69886 0.61569,2.36016c0.22804,0.6613 0.59289,1.35681 1.09457,2.08652c0.22804,0.31925 0.35345,0.50168 0.37626,0.54728c0.0228,0.04561 0.07981,0.09121 0.17103,0.13682c0.68411,0.54728 1.14018,0.87794 1.36821,0.99195c0.22804,0.11402 0.50168,0.21663 0.82093,0.30785c1.9155,0.54728 3.85379,0.49028 5.8149,-0.17103c1.9611,-0.6613 3.53454,-1.85849 4.72033,-3.59155c0.68411,-1.09457 1.19718,-2.23474 1.53924,-3.42053c0.34205,-1.18578 0.58149,-2.38297 0.71831,-3.59155c0.13682,-1.20859 0.23944,-2.43998 0.30785,-3.69417c0.06841,-1.25419 0.19383,-2.49698 0.37626,-3.72837c0,-1.36821 0.35345,-2.26895 1.06036,-2.70222c0.70691,-0.43327 1.44802,-0.58149 2.22334,-0.44467c0.45607,0.13682 0.82093,0.29645 1.09457,0.47887l0.54728,0.47887c0.50168,0.82093 0.68411,1.61905 0.54728,2.39437z" data-paper-data="{&quot;elementType&quot;:&quot;letter&quot;,&quot;baseline&quot;:39.328125,&quot;baselineProportion&quot;:0.9125351219070063,&quot;fontSize&quot;:100}"></path><path d="M393.02348,269.02241c0,-1.9611 0.13682,-3.94501 0.41046,-5.95172c0.31925,-2.41717 0.6385,-4.82294 0.95775,-7.21731c0.31925,-2.39437 0.45607,-4.82294 0.41046,-7.28572c0,-0.86653 0.27364,-1.52784 0.82093,-1.98391c0.54728,-0.45607 1.16298,-0.68411 1.84708,-0.68411c0.68411,0 1.3226,0.22804 1.9155,0.68411c0.59289,0.45607 0.88934,1.11737 0.88934,1.98391c1.77867,-0.13682 3.46613,-0.20523 5.06238,-0.20523c1.82428,0.04561 3.37492,0.57009 4.65192,1.57344c1.277,1.00335 2.23474,2.34876 2.87324,4.03622c0.54728,1.55064 0.86653,3.14689 0.95775,4.78874c0.09121,1.64185 0.15962,3.28371 0.20523,4.92556c0.04561,2.32596 0.11402,4.64052 0.20523,6.94367c0.09121,2.30316 0.13682,4.61771 0.13682,6.94367c0,0.91214 -0.28504,1.58484 -0.85513,2.01811c-0.57009,0.43327 -1.18578,0.6499 -1.84708,0.6499c-0.6613,0 -1.277,-0.21663 -1.84708,-0.6499c-0.57009,-0.43327 -0.85513,-1.10597 -0.85513,-2.01811c0,-2.18914 -0.03421,-4.33267 -0.10262,-6.43059c-0.06841,-2.09792 -0.14822,-4.24145 -0.23944,-6.43059c-0.09121,-1.18578 -0.12542,-2.40577 -0.10262,-3.65996c0.0228,-1.25419 -0.07981,-2.40577 -0.30785,-3.45473c-0.13682,-0.6385 -0.27364,-1.19718 -0.41046,-1.67606c-0.13682,-0.47887 -0.38766,-0.94635 -0.75252,-1.40242c-0.09121,-0.18243 -0.28504,-0.34205 -0.58149,-0.47887c-0.29645,-0.13682 -0.55869,-0.20523 -0.78672,-0.20523c-0.68411,0 -1.3226,0.04561 -1.9155,0.13682c-0.59289,0.09121 -1.20859,0.22804 -1.84708,0.41046c-0.27364,0.09121 -0.54728,0.18243 -0.82093,0.27364c-0.27364,0.09121 -0.52448,0.20523 -0.75252,0.34205c-0.45607,1.64185 -0.78672,3.20389 -0.99195,4.68612c-0.20523,1.48223 -0.39906,2.97586 -0.58149,4.48089c-0.13682,1.09457 -0.21663,2.20054 -0.23944,3.31791c-0.0228,1.11737 -0.06841,2.22334 -0.13682,3.31791c-0.06841,1.09457 -0.20523,2.18914 -0.41046,3.28371c-0.20523,1.09457 -0.55869,2.14353 -1.06036,3.14689c-0.41046,0.77532 -0.95775,1.21999 -1.64185,1.33401c-0.68411,0.11402 -1.3112,0 -1.88129,-0.34205c-0.57009,-0.34205 -1.00335,-0.85513 -1.2998,-1.53924c-0.29645,-0.68411 -0.26224,-1.41382 0.10262,-2.18914c0.41046,-0.82093 0.6385,-1.71026 0.68411,-2.66801c0.04561,-0.95775 0.09121,-1.89269 0.13682,-2.80483z" data-paper-data="{&quot;elementType&quot;:&quot;letter&quot;,&quot;baseline&quot;:42.3828125,&quot;baselineProportion&quot;:0.8645418326693227,&quot;fontSize&quot;:100}"></path></g></g></g></g></g></svg>