<?xml version="1.0" encoding="utf-8" standalone="no"?>
<!DOCTYPE svg PUBLIC "-//W3C//DTD SVG 1.1//EN"
  "http://www.w3.org/Graphics/SVG/1.1/DTD/svg11.dtd">
<svg xmlns:xlink="http://www.w3.org/1999/xlink" width="432pt" height="432pt" viewBox="0 0 432 432" xmlns="http://www.w3.org/2000/svg" version="1.1">
 <metadata>
  <rdf:RDF xmlns:dc="http://purl.org/dc/elements/1.1/" xmlns:cc="http://creativecommons.org/ns#" xmlns:rdf="http://www.w3.org/1999/02/22-rdf-syntax-ns#">
   <cc:Work>
    <dc:type rdf:resource="http://purl.org/dc/dcmitype/StillImage"/>
    <dc:date>2022-08-03T16:02:06.544255</dc:date>
    <dc:format>image/svg+xml</dc:format>
    <dc:creator>
     <cc:Agent>
      <dc:title>Matplotlib v3.5.1, https://matplotlib.org/</dc:title>
     </cc:Agent>
    </dc:creator>
   </cc:Work>
  </rdf:RDF>
 </metadata>
 <defs>
  <style type="text/css">*{stroke-linejoin: round; stroke-linecap: butt}</style>
 </defs>
 <g id="figure_1">
  <g id="patch_1">
   <path d="M 0 432 
L 432 432 
L 432 0 
L 0 0 
z
" style="fill: #ffffff"/>
  </g>
  <g id="axes_1">
   <g id="patch_2">
    <path d="M 50.48 391 
L 421.2 391 
L 421.2 25.92 
L 50.48 25.92 
z
" style="fill: #ffffff"/>
   </g>
   <g id="matplotlib.axis_1">
    <g id="xtick_1">
     <g id="line2d_1">
      <defs>
       <path id="m716db31357" d="M 0 0 
L 0 3.5 
" style="stroke: #000000; stroke-width: 0.8"/>
      </defs>
      <g>
       <use xlink:href="#m716db31357" x="50.48" y="391" style="stroke: #000000; stroke-width: 0.8"/>
      </g>
     </g>
     <g id="text_1">
      <!-- 0 -->
      <g transform="translate(47.29875 405.598437)scale(0.1 -0.1)">
       <defs>
        <path id="DejaVuSans-30" d="M 2034 4250 
Q 1547 4250 1301 3770 
Q 1056 3291 1056 2328 
Q 1056 1369 1301 889 
Q 1547 409 2034 409 
Q 2525 409 2770 889 
Q 3016 1369 3016 2328 
Q 3016 3291 2770 3770 
Q 2525 4250 2034 4250 
z
M 2034 4750 
Q 2819 4750 3233 4129 
Q 3647 3509 3647 2328 
Q 3647 1150 3233 529 
Q 2819 -91 2034 -91 
Q 1250 -91 836 529 
Q 422 1150 422 2328 
Q 422 3509 836 4129 
Q 1250 4750 2034 4750 
z
" transform="scale(0.015625)"/>
       </defs>
       <use xlink:href="#DejaVuSans-30"/>
      </g>
     </g>
    </g>
    <g id="xtick_2">
     <g id="line2d_2">
      <g>
       <use xlink:href="#m716db31357" x="124.698218" y="391" style="stroke: #000000; stroke-width: 0.8"/>
      </g>
     </g>
     <g id="text_2">
      <!-- 200 -->
      <g transform="translate(115.154468 405.598437)scale(0.1 -0.1)">
       <defs>
        <path id="DejaVuSans-32" d="M 1228 531 
L 3431 531 
L 3431 0 
L 469 0 
L 469 531 
Q 828 903 1448 1529 
Q 2069 2156 2228 2338 
Q 2531 2678 2651 2914 
Q 2772 3150 2772 3378 
Q 2772 3750 2511 3984 
Q 2250 4219 1831 4219 
Q 1534 4219 1204 4116 
Q 875 4013 500 3803 
L 500 4441 
Q 881 4594 1212 4672 
Q 1544 4750 1819 4750 
Q 2544 4750 2975 4387 
Q 3406 4025 3406 3419 
Q 3406 3131 3298 2873 
Q 3191 2616 2906 2266 
Q 2828 2175 2409 1742 
Q 1991 1309 1228 531 
z
" transform="scale(0.015625)"/>
       </defs>
       <use xlink:href="#DejaVuSans-32"/>
       <use xlink:href="#DejaVuSans-30" x="63.623047"/>
       <use xlink:href="#DejaVuSans-30" x="127.246094"/>
      </g>
     </g>
    </g>
    <g id="xtick_3">
     <g id="line2d_3">
      <g>
       <use xlink:href="#m716db31357" x="198.916436" y="391" style="stroke: #000000; stroke-width: 0.8"/>
      </g>
     </g>
     <g id="text_3">
      <!-- 400 -->
      <g transform="translate(189.372686 405.598437)scale(0.1 -0.1)">
       <defs>
        <path id="DejaVuSans-34" d="M 2419 4116 
L 825 1625 
L 2419 1625 
L 2419 4116 
z
M 2253 4666 
L 3047 4666 
L 3047 1625 
L 3713 1625 
L 3713 1100 
L 3047 1100 
L 3047 0 
L 2419 0 
L 2419 1100 
L 313 1100 
L 313 1709 
L 2253 4666 
z
" transform="scale(0.015625)"/>
       </defs>
       <use xlink:href="#DejaVuSans-34"/>
       <use xlink:href="#DejaVuSans-30" x="63.623047"/>
       <use xlink:href="#DejaVuSans-30" x="127.246094"/>
      </g>
     </g>
    </g>
    <g id="xtick_4">
     <g id="line2d_4">
      <g>
       <use xlink:href="#m716db31357" x="273.134655" y="391" style="stroke: #000000; stroke-width: 0.8"/>
      </g>
     </g>
     <g id="text_4">
      <!-- 600 -->
      <g transform="translate(263.590905 405.598437)scale(0.1 -0.1)">
       <defs>
        <path id="DejaVuSans-36" d="M 2113 2584 
Q 1688 2584 1439 2293 
Q 1191 2003 1191 1497 
Q 1191 994 1439 701 
Q 1688 409 2113 409 
Q 2538 409 2786 701 
Q 3034 994 3034 1497 
Q 3034 2003 2786 2293 
Q 2538 2584 2113 2584 
z
M 3366 4563 
L 3366 3988 
Q 3128 4100 2886 4159 
Q 2644 4219 2406 4219 
Q 1781 4219 1451 3797 
Q 1122 3375 1075 2522 
Q 1259 2794 1537 2939 
Q 1816 3084 2150 3084 
Q 2853 3084 3261 2657 
Q 3669 2231 3669 1497 
Q 3669 778 3244 343 
Q 2819 -91 2113 -91 
Q 1303 -91 875 529 
Q 447 1150 447 2328 
Q 447 3434 972 4092 
Q 1497 4750 2381 4750 
Q 2619 4750 2861 4703 
Q 3103 4656 3366 4563 
z
" transform="scale(0.015625)"/>
       </defs>
       <use xlink:href="#DejaVuSans-36"/>
       <use xlink:href="#DejaVuSans-30" x="63.623047"/>
       <use xlink:href="#DejaVuSans-30" x="127.246094"/>
      </g>
     </g>
    </g>
    <g id="xtick_5">
     <g id="line2d_5">
      <g>
       <use xlink:href="#m716db31357" x="347.352873" y="391" style="stroke: #000000; stroke-width: 0.8"/>
      </g>
     </g>
     <g id="text_5">
      <!-- 800 -->
      <g transform="translate(337.809123 405.598437)scale(0.1 -0.1)">
       <defs>
        <path id="DejaVuSans-38" d="M 2034 2216 
Q 1584 2216 1326 1975 
Q 1069 1734 1069 1313 
Q 1069 891 1326 650 
Q 1584 409 2034 409 
Q 2484 409 2743 651 
Q 3003 894 3003 1313 
Q 3003 1734 2745 1975 
Q 2488 2216 2034 2216 
z
M 1403 2484 
Q 997 2584 770 2862 
Q 544 3141 544 3541 
Q 544 4100 942 4425 
Q 1341 4750 2034 4750 
Q 2731 4750 3128 4425 
Q 3525 4100 3525 3541 
Q 3525 3141 3298 2862 
Q 3072 2584 2669 2484 
Q 3125 2378 3379 2068 
Q 3634 1759 3634 1313 
Q 3634 634 3220 271 
Q 2806 -91 2034 -91 
Q 1263 -91 848 271 
Q 434 634 434 1313 
Q 434 1759 690 2068 
Q 947 2378 1403 2484 
z
M 1172 3481 
Q 1172 3119 1398 2916 
Q 1625 2713 2034 2713 
Q 2441 2713 2670 2916 
Q 2900 3119 2900 3481 
Q 2900 3844 2670 4047 
Q 2441 4250 2034 4250 
Q 1625 4250 1398 4047 
Q 1172 3844 1172 3481 
z
" transform="scale(0.015625)"/>
       </defs>
       <use xlink:href="#DejaVuSans-38"/>
       <use xlink:href="#DejaVuSans-30" x="63.623047"/>
       <use xlink:href="#DejaVuSans-30" x="127.246094"/>
      </g>
     </g>
    </g>
    <g id="text_6">
     <!-- Iteration -->
     <g transform="translate(214.631406 419.276563)scale(0.1 -0.1)">
      <defs>
       <path id="DejaVuSans-49" d="M 628 4666 
L 1259 4666 
L 1259 0 
L 628 0 
L 628 4666 
z
" transform="scale(0.015625)"/>
       <path id="DejaVuSans-74" d="M 1172 4494 
L 1172 3500 
L 2356 3500 
L 2356 3053 
L 1172 3053 
L 1172 1153 
Q 1172 725 1289 603 
Q 1406 481 1766 481 
L 2356 481 
L 2356 0 
L 1766 0 
Q 1100 0 847 248 
Q 594 497 594 1153 
L 594 3053 
L 172 3053 
L 172 3500 
L 594 3500 
L 594 4494 
L 1172 4494 
z
" transform="scale(0.015625)"/>
       <path id="DejaVuSans-65" d="M 3597 1894 
L 3597 1613 
L 953 1613 
Q 991 1019 1311 708 
Q 1631 397 2203 397 
Q 2534 397 2845 478 
Q 3156 559 3463 722 
L 3463 178 
Q 3153 47 2828 -22 
Q 2503 -91 2169 -91 
Q 1331 -91 842 396 
Q 353 884 353 1716 
Q 353 2575 817 3079 
Q 1281 3584 2069 3584 
Q 2775 3584 3186 3129 
Q 3597 2675 3597 1894 
z
M 3022 2063 
Q 3016 2534 2758 2815 
Q 2500 3097 2075 3097 
Q 1594 3097 1305 2825 
Q 1016 2553 972 2059 
L 3022 2063 
z
" transform="scale(0.015625)"/>
       <path id="DejaVuSans-72" d="M 2631 2963 
Q 2534 3019 2420 3045 
Q 2306 3072 2169 3072 
Q 1681 3072 1420 2755 
Q 1159 2438 1159 1844 
L 1159 0 
L 581 0 
L 581 3500 
L 1159 3500 
L 1159 2956 
Q 1341 3275 1631 3429 
Q 1922 3584 2338 3584 
Q 2397 3584 2469 3576 
Q 2541 3569 2628 3553 
L 2631 2963 
z
" transform="scale(0.015625)"/>
       <path id="DejaVuSans-61" d="M 2194 1759 
Q 1497 1759 1228 1600 
Q 959 1441 959 1056 
Q 959 750 1161 570 
Q 1363 391 1709 391 
Q 2188 391 2477 730 
Q 2766 1069 2766 1631 
L 2766 1759 
L 2194 1759 
z
M 3341 1997 
L 3341 0 
L 2766 0 
L 2766 531 
Q 2569 213 2275 61 
Q 1981 -91 1556 -91 
Q 1019 -91 701 211 
Q 384 513 384 1019 
Q 384 1609 779 1909 
Q 1175 2209 1959 2209 
L 2766 2209 
L 2766 2266 
Q 2766 2663 2505 2880 
Q 2244 3097 1772 3097 
Q 1472 3097 1187 3025 
Q 903 2953 641 2809 
L 641 3341 
Q 956 3463 1253 3523 
Q 1550 3584 1831 3584 
Q 2591 3584 2966 3190 
Q 3341 2797 3341 1997 
z
" transform="scale(0.015625)"/>
       <path id="DejaVuSans-69" d="M 603 3500 
L 1178 3500 
L 1178 0 
L 603 0 
L 603 3500 
z
M 603 4863 
L 1178 4863 
L 1178 4134 
L 603 4134 
L 603 4863 
z
" transform="scale(0.015625)"/>
       <path id="DejaVuSans-6f" d="M 1959 3097 
Q 1497 3097 1228 2736 
Q 959 2375 959 1747 
Q 959 1119 1226 758 
Q 1494 397 1959 397 
Q 2419 397 2687 759 
Q 2956 1122 2956 1747 
Q 2956 2369 2687 2733 
Q 2419 3097 1959 3097 
z
M 1959 3584 
Q 2709 3584 3137 3096 
Q 3566 2609 3566 1747 
Q 3566 888 3137 398 
Q 2709 -91 1959 -91 
Q 1206 -91 779 398 
Q 353 888 353 1747 
Q 353 2609 779 3096 
Q 1206 3584 1959 3584 
z
" transform="scale(0.015625)"/>
       <path id="DejaVuSans-6e" d="M 3513 2113 
L 3513 0 
L 2938 0 
L 2938 2094 
Q 2938 2591 2744 2837 
Q 2550 3084 2163 3084 
Q 1697 3084 1428 2787 
Q 1159 2491 1159 1978 
L 1159 0 
L 581 0 
L 581 3500 
L 1159 3500 
L 1159 2956 
Q 1366 3272 1645 3428 
Q 1925 3584 2291 3584 
Q 2894 3584 3203 3211 
Q 3513 2838 3513 2113 
z
" transform="scale(0.015625)"/>
      </defs>
      <use xlink:href="#DejaVuSans-49"/>
      <use xlink:href="#DejaVuSans-74" x="29.492188"/>
      <use xlink:href="#DejaVuSans-65" x="68.701172"/>
      <use xlink:href="#DejaVuSans-72" x="130.224609"/>
      <use xlink:href="#DejaVuSans-61" x="171.337891"/>
      <use xlink:href="#DejaVuSans-74" x="232.617188"/>
      <use xlink:href="#DejaVuSans-69" x="271.826172"/>
      <use xlink:href="#DejaVuSans-6f" x="299.609375"/>
      <use xlink:href="#DejaVuSans-6e" x="360.791016"/>
     </g>
    </g>
   </g>
   <g id="matplotlib.axis_2">
    <g id="ytick_1">
     <g id="line2d_6">
      <defs>
       <path id="m4eebf308e6" d="M 0 0 
L -3.5 0 
" style="stroke: #000000; stroke-width: 0.8"/>
      </defs>
      <g>
       <use xlink:href="#m4eebf308e6" x="50.48" y="391" style="stroke: #000000; stroke-width: 0.8"/>
      </g>
     </g>
     <g id="text_7">
      <!-- 0 -->
      <g transform="translate(37.1175 394.799219)scale(0.1 -0.1)">
       <use xlink:href="#DejaVuSans-30"/>
      </g>
     </g>
    </g>
    <g id="ytick_2">
     <g id="line2d_7">
      <g>
       <use xlink:href="#m4eebf308e6" x="50.48" y="317.910911" style="stroke: #000000; stroke-width: 0.8"/>
      </g>
     </g>
     <g id="text_8">
      <!-- 200 -->
      <g transform="translate(24.3925 321.71013)scale(0.1 -0.1)">
       <use xlink:href="#DejaVuSans-32"/>
       <use xlink:href="#DejaVuSans-30" x="63.623047"/>
       <use xlink:href="#DejaVuSans-30" x="127.246094"/>
      </g>
     </g>
    </g>
    <g id="ytick_3">
     <g id="line2d_8">
      <g>
       <use xlink:href="#m4eebf308e6" x="50.48" y="244.821822" style="stroke: #000000; stroke-width: 0.8"/>
      </g>
     </g>
     <g id="text_9">
      <!-- 400 -->
      <g transform="translate(24.3925 248.621041)scale(0.1 -0.1)">
       <use xlink:href="#DejaVuSans-34"/>
       <use xlink:href="#DejaVuSans-30" x="63.623047"/>
       <use xlink:href="#DejaVuSans-30" x="127.246094"/>
      </g>
     </g>
    </g>
    <g id="ytick_4">
     <g id="line2d_9">
      <g>
       <use xlink:href="#m4eebf308e6" x="50.48" y="171.732733" style="stroke: #000000; stroke-width: 0.8"/>
      </g>
     </g>
     <g id="text_10">
      <!-- 600 -->
      <g transform="translate(24.3925 175.531951)scale(0.1 -0.1)">
       <use xlink:href="#DejaVuSans-36"/>
       <use xlink:href="#DejaVuSans-30" x="63.623047"/>
       <use xlink:href="#DejaVuSans-30" x="127.246094"/>
      </g>
     </g>
    </g>
    <g id="ytick_5">
     <g id="line2d_10">
      <g>
       <use xlink:href="#m4eebf308e6" x="50.48" y="98.643644" style="stroke: #000000; stroke-width: 0.8"/>
      </g>
     </g>
     <g id="text_11">
      <!-- 800 -->
      <g transform="translate(24.3925 102.442862)scale(0.1 -0.1)">
       <use xlink:href="#DejaVuSans-38"/>
       <use xlink:href="#DejaVuSans-30" x="63.623047"/>
       <use xlink:href="#DejaVuSans-30" x="127.246094"/>
      </g>
     </g>
    </g>
    <g id="text_12">
     <!-- Time [ms] -->
     <g transform="translate(18.312812 233.659219)rotate(-90)scale(0.1 -0.1)">
      <defs>
       <path id="DejaVuSans-54" d="M -19 4666 
L 3928 4666 
L 3928 4134 
L 2272 4134 
L 2272 0 
L 1638 0 
L 1638 4134 
L -19 4134 
L -19 4666 
z
" transform="scale(0.015625)"/>
       <path id="DejaVuSans-6d" d="M 3328 2828 
Q 3544 3216 3844 3400 
Q 4144 3584 4550 3584 
Q 5097 3584 5394 3201 
Q 5691 2819 5691 2113 
L 5691 0 
L 5113 0 
L 5113 2094 
Q 5113 2597 4934 2840 
Q 4756 3084 4391 3084 
Q 3944 3084 3684 2787 
Q 3425 2491 3425 1978 
L 3425 0 
L 2847 0 
L 2847 2094 
Q 2847 2600 2669 2842 
Q 2491 3084 2119 3084 
Q 1678 3084 1418 2786 
Q 1159 2488 1159 1978 
L 1159 0 
L 581 0 
L 581 3500 
L 1159 3500 
L 1159 2956 
Q 1356 3278 1631 3431 
Q 1906 3584 2284 3584 
Q 2666 3584 2933 3390 
Q 3200 3197 3328 2828 
z
" transform="scale(0.015625)"/>
       <path id="DejaVuSans-20" transform="scale(0.015625)"/>
       <path id="DejaVuSans-5b" d="M 550 4863 
L 1875 4863 
L 1875 4416 
L 1125 4416 
L 1125 -397 
L 1875 -397 
L 1875 -844 
L 550 -844 
L 550 4863 
z
" transform="scale(0.015625)"/>
       <path id="DejaVuSans-73" d="M 2834 3397 
L 2834 2853 
Q 2591 2978 2328 3040 
Q 2066 3103 1784 3103 
Q 1356 3103 1142 2972 
Q 928 2841 928 2578 
Q 928 2378 1081 2264 
Q 1234 2150 1697 2047 
L 1894 2003 
Q 2506 1872 2764 1633 
Q 3022 1394 3022 966 
Q 3022 478 2636 193 
Q 2250 -91 1575 -91 
Q 1294 -91 989 -36 
Q 684 19 347 128 
L 347 722 
Q 666 556 975 473 
Q 1284 391 1588 391 
Q 1994 391 2212 530 
Q 2431 669 2431 922 
Q 2431 1156 2273 1281 
Q 2116 1406 1581 1522 
L 1381 1569 
Q 847 1681 609 1914 
Q 372 2147 372 2553 
Q 372 3047 722 3315 
Q 1072 3584 1716 3584 
Q 2034 3584 2315 3537 
Q 2597 3491 2834 3397 
z
" transform="scale(0.015625)"/>
       <path id="DejaVuSans-5d" d="M 1947 4863 
L 1947 -844 
L 622 -844 
L 622 -397 
L 1369 -397 
L 1369 4416 
L 622 4416 
L 622 4863 
L 1947 4863 
z
" transform="scale(0.015625)"/>
      </defs>
      <use xlink:href="#DejaVuSans-54"/>
      <use xlink:href="#DejaVuSans-69" x="57.958984"/>
      <use xlink:href="#DejaVuSans-6d" x="85.742188"/>
      <use xlink:href="#DejaVuSans-65" x="183.154297"/>
      <use xlink:href="#DejaVuSans-20" x="244.677734"/>
      <use xlink:href="#DejaVuSans-5b" x="276.464844"/>
      <use xlink:href="#DejaVuSans-6d" x="315.478516"/>
      <use xlink:href="#DejaVuSans-73" x="412.890625"/>
      <use xlink:href="#DejaVuSans-5d" x="464.990234"/>
     </g>
    </g>
   </g>
   <g id="line2d_11">
    <path d="M 50.48 391 
L 50.851091 390.296591 
L 51.222182 390.296042 
L 51.593273 389.572168 
L 51.964364 389.571693 
L 52.335455 388.847892 
L 52.706547 388.847417 
L 53.077638 388.219874 
L 53.448729 388.219216 
L 54.190911 387.226593 
L 54.562002 386.490696 
L 54.933093 386.490184 
L 55.304184 385.973736 
L 55.675275 385.973188 
L 56.788549 384.421507 
L 57.15964 384.420959 
L 57.901822 383.385908 
L 58.272913 383.385286 
L 59.015095 382.26505 
L 59.386186 382.264758 
L 59.757277 381.440715 
L 60.128368 381.44024 
L 60.499459 380.686252 
L 60.870551 380.685777 
L 61.241642 379.943923 
L 61.612733 379.943704 
L 61.983824 379.437818 
L 62.354915 379.437306 
L 63.097097 378.31791 
L 63.468188 378.317362 
L 64.21037 377.297294 
L 64.581461 376.568706 
L 64.952553 376.568194 
L 65.323644 376.0497 
L 65.694735 376.049188 
L 66.436917 375.05028 
L 66.808008 375.049658 
L 67.179099 374.301263 
L 67.55019 374.300641 
L 68.663463 372.797016 
L 69.034555 372.796468 
L 70.147828 371.160917 
L 70.518919 371.160369 
L 70.89001 370.33998 
L 71.261101 370.339505 
L 71.632192 369.842536 
L 72.003283 369.841988 
L 72.374374 369.109416 
L 72.745465 369.108795 
L 73.487648 368.097644 
L 73.858739 368.097132 
L 74.600921 366.978796 
L 74.972012 366.978248 
L 75.714194 365.941442 
L 76.085285 365.217239 
L 76.456376 365.216727 
L 76.827467 364.70039 
L 77.198559 364.699878 
L 77.940741 363.660588 
L 78.311832 363.66004 
L 78.682923 363.144688 
L 79.054014 362.264878 
L 79.796196 362.26433 
L 80.909469 360.716084 
L 81.280561 360.715609 
L 81.651652 360.113245 
L 82.022743 359.280578 
L 82.764925 359.279993 
L 83.136016 358.76413 
L 83.507107 358.03905 
L 83.878198 358.038575 
L 84.249289 357.519569 
L 84.62038 357.519058 
L 85.733654 355.881277 
L 86.104745 355.880693 
L 86.846927 354.850502 
L 87.218018 354.849917 
L 87.589109 354.117345 
L 87.9602 354.116797 
L 88.702382 353.080102 
L 89.073473 353.079626 
L 90.186747 351.53149 
L 90.557838 351.530942 
L 90.928929 351.013434 
L 91.30002 350.132126 
L 92.042202 350.131578 
L 92.784384 348.998551 
L 93.155475 348.99793 
L 93.526567 348.162193 
L 93.897658 348.161717 
L 94.268749 347.646257 
L 94.63984 347.645745 
L 95.010931 346.921286 
L 95.382022 346.920701 
L 96.495295 345.374173 
L 96.866386 345.373698 
L 97.608569 344.349683 
L 97.97966 344.349135 
L 98.721842 343.22751 
L 99.092933 343.226925 
L 99.464024 342.507217 
L 99.835115 342.506815 
L 100.948388 340.976585 
L 101.319479 340.976 
L 102.061662 339.937843 
L 102.432753 339.937295 
L 103.174935 338.909625 
L 103.546026 338.030839 
L 104.288208 338.030254 
L 104.659299 337.404611 
L 105.03039 337.404136 
L 105.401481 336.567778 
L 105.772573 336.56712 
L 106.143664 335.842442 
L 106.514755 335.841894 
L 107.256937 334.80348 
L 107.628028 334.802932 
L 108.37021 333.769087 
L 108.741301 333.768502 
L 109.483483 332.648631 
L 109.854575 332.64812 
L 110.967848 331.096731 
L 111.338939 331.096219 
L 112.081121 330.062812 
L 112.452212 330.062337 
L 113.565485 328.509048 
L 113.936577 328.5085 
L 114.678759 327.479808 
L 115.04985 327.479332 
L 115.792032 326.354089 
L 116.163123 326.353541 
L 116.534214 325.636062 
L 116.905305 325.635697 
L 117.647487 324.630283 
L 118.018579 324.629772 
L 119.131852 323.079369 
L 119.502943 323.078785 
L 120.245125 321.962093 
L 120.616216 321.961581 
L 120.987307 321.237597 
L 121.358398 321.237342 
L 121.729489 320.475242 
L 122.100581 320.474986 
L 122.471672 319.76266 
L 122.842763 319.762404 
L 123.213854 319.047958 
L 123.584945 319.047702 
L 123.956036 318.302815 
L 124.327127 318.302559 
L 124.698218 317.592498 
L 125.069309 317.592242 
L 125.811491 316.551198 
L 126.182583 316.550686 
L 127.295856 315.004487 
L 127.666947 315.004085 
L 128.038038 314.401611 
L 128.409129 314.401027 
L 128.78022 313.579359 
L 129.151311 313.578848 
L 129.893493 312.543285 
L 130.264585 312.542773 
L 131.377858 310.994965 
L 131.748949 310.994344 
L 132.491131 309.956552 
L 132.862222 309.956041 
L 133.604404 308.839861 
L 133.975495 308.839239 
L 135.088769 307.311933 
L 135.45986 307.311422 
L 136.202042 306.275932 
L 136.573133 306.275384 
L 137.315315 305.24311 
L 137.686406 305.242598 
L 138.79968 303.691831 
L 139.170771 303.691319 
L 139.541862 303.088261 
L 139.912953 302.234178 
L 140.655135 302.233557 
L 141.397317 301.190393 
L 141.768408 301.189845 
L 142.881682 299.645728 
L 143.252773 299.645217 
L 143.623864 298.93216 
L 143.994955 298.931611 
L 144.737137 297.898095 
L 145.108228 297.897583 
L 145.479319 297.205722 
L 145.85041 297.205211 
L 146.963684 295.555699 
L 147.334775 295.555151 
L 147.705866 294.940655 
L 148.076957 294.940143 
L 148.819139 293.713635 
L 149.19023 293.713123 
L 149.561321 293.103926 
L 149.932412 293.103378 
L 150.303504 292.372743 
L 150.674595 292.372231 
L 151.045686 291.646858 
L 151.416777 291.646237 
L 152.158959 290.552642 
L 152.53005 290.55213 
L 153.272232 289.324708 
L 153.643323 289.324197 
L 154.014414 288.706704 
L 154.385506 288.706192 
L 155.127688 287.486116 
L 155.498779 287.485604 
L 155.86987 286.983153 
L 156.240961 286.982532 
L 156.983143 285.665393 
L 157.354234 285.664882 
L 157.725325 285.120514 
L 158.096416 285.120259 
L 158.467508 284.318362 
L 158.838599 284.317813 
L 159.20969 283.705546 
L 159.580781 283.705034 
L 160.322963 282.488796 
L 160.694054 282.48832 
L 161.065145 281.877113 
L 161.436236 281.876638 
L 162.178418 280.53549 
L 162.54951 280.534868 
L 163.291692 279.696427 
L 163.662783 279.089166 
L 164.033874 279.088655 
L 164.404965 278.475437 
L 164.776056 278.474852 
L 165.518238 277.252547 
L 165.889329 277.251926 
L 166.26042 276.645323 
L 166.631512 276.644848 
L 167.373694 275.523296 
L 167.744785 275.522748 
L 168.115876 274.914866 
L 168.486967 274.914317 
L 169.229149 273.700015 
L 169.60024 273.699431 
L 169.971331 273.094034 
L 170.342422 273.093559 
L 171.084605 271.861971 
L 171.455696 271.861423 
L 171.826787 271.252919 
L 172.197878 271.252335 
L 172.94006 269.918057 
L 173.311151 269.917545 
L 173.682242 269.302793 
L 174.053333 269.302281 
L 174.424424 268.788794 
L 174.795516 267.853254 
L 175.537698 267.852705 
L 175.908789 267.243325 
L 176.27988 267.242814 
L 177.022062 266.016269 
L 177.393153 266.015721 
L 177.764244 265.407437 
L 178.135335 265.406962 
L 178.506426 264.892597 
L 178.877518 263.942476 
L 179.6197 263.941891 
L 180.361882 262.719695 
L 180.732973 262.71922 
L 181.104064 262.106734 
L 181.475155 262.106222 
L 182.217337 260.879093 
L 182.588428 260.878545 
L 182.95952 260.268653 
L 183.330611 260.268104 
L 184.072793 259.043716 
L 184.443884 259.043204 
L 184.814975 258.433057 
L 185.186066 258.432545 
L 185.557157 257.726504 
L 185.928248 257.725737 
L 186.67043 256.61175 
L 187.041522 256.611092 
L 187.783704 255.38568 
L 188.154795 255.385169 
L 188.525886 254.773303 
L 188.896977 254.772792 
L 189.639159 253.552752 
L 190.01025 253.552131 
L 190.752432 252.432625 
L 191.123524 252.432114 
L 191.494615 251.848351 
L 191.865706 251.847657 
L 192.236797 251.100028 
L 192.607888 251.099736 
L 192.978979 250.278617 
L 193.35007 250.278032 
L 193.721161 249.701322 
L 194.092252 249.700847 
L 195.205526 248.185382 
L 195.576617 248.184943 
L 196.318799 247.034996 
L 196.68989 247.034411 
L 197.060981 246.278378 
L 197.432072 246.27772 
L 197.803163 245.761857 
L 198.174254 245.037398 
L 198.545345 245.037142 
L 198.916436 244.311404 
L 199.287528 244.311148 
L 199.658619 243.548975 
L 200.02971 243.54872 
L 200.400801 242.735275 
L 201.142983 242.734653 
L 201.514074 242.234212 
L 201.885165 241.524992 
L 202.256256 241.524444 
L 202.627347 241.025794 
L 202.998438 240.316281 
L 203.36953 240.31577 
L 203.740621 239.706865 
L 204.111712 239.70639 
L 204.482803 239.094415 
L 204.853894 239.093903 
L 205.596076 237.86882 
L 205.967167 237.868236 
L 206.338258 237.143594 
L 206.709349 237.143119 
L 207.08044 236.534506 
L 207.451532 236.533994 
L 208.193714 235.310117 
L 208.564805 235.309569 
L 208.935896 234.802441 
L 209.306987 234.071002 
L 209.678078 234.0706 
L 210.049169 233.350124 
L 210.42026 233.349868 
L 210.791351 232.600997 
L 211.162442 232.600084 
L 211.533534 232.031852 
L 211.904625 232.031341 
L 212.275716 231.422545 
L 212.646807 231.42207 
L 213.388989 230.299385 
L 213.76008 230.298727 
L 214.502262 229.11103 
L 214.873353 229.110518 
L 215.244444 228.497593 
L 215.615536 228.497081 
L 216.357718 227.272803 
L 216.728809 227.272328 
L 217.0999 226.544872 
L 217.470991 226.54436 
L 217.842082 225.935199 
L 218.213173 225.934651 
L 218.955355 224.706279 
L 219.326446 224.705804 
L 219.697538 224.097995 
L 220.068629 224.097411 
L 220.43972 223.587468 
L 220.810811 222.637968 
L 221.552993 222.637383 
L 222.295175 221.410473 
L 222.666266 221.409961 
L 223.037357 220.797292 
L 223.408448 220.796817 
L 224.150631 219.677713 
L 224.521722 219.677202 
L 225.263904 218.458478 
L 225.634995 218.458003 
L 226.006086 217.840181 
L 226.377177 217.839669 
L 227.119359 216.616925 
L 227.49045 216.616267 
L 227.861542 216.00104 
L 228.232633 216.000492 
L 228.603724 215.271172 
L 228.974815 215.270551 
L 229.716997 214.043751 
L 230.088088 214.043276 
L 230.459179 213.430241 
L 230.83027 213.429656 
L 231.572452 212.292171 
L 231.943544 212.291622 
L 232.314635 211.362989 
L 232.685726 211.362441 
L 233.056817 210.752987 
L 233.427908 210.752512 
L 233.798999 210.140099 
L 234.17009 210.139624 
L 234.912272 208.917611 
L 235.283363 208.917063 
L 235.654454 208.297779 
L 236.025546 208.297084 
L 236.767728 207.195376 
L 237.138819 207.194864 
L 237.50991 206.558003 
L 237.881001 206.557454 
L 238.623183 205.335368 
L 238.994274 205.3289 
L 239.365365 204.606816 
L 239.736456 204.606341 
L 240.107548 203.988336 
L 240.478639 203.987788 
L 241.220821 202.766872 
L 241.591912 202.766397 
L 241.963003 202.151206 
L 242.334094 202.150621 
L 243.076276 201.046281 
L 243.447367 201.045587 
L 243.818458 200.083771 
L 244.18955 200.083296 
L 244.560641 199.469055 
L 244.931732 199.468507 
L 245.302823 198.857555 
L 245.673914 198.857044 
L 246.416096 197.636164 
L 246.787187 197.635689 
L 247.529369 196.514977 
L 247.90046 196.514465 
L 248.271552 195.904829 
L 248.642643 195.904318 
L 249.384825 194.713989 
L 249.755916 194.713477 
L 250.127007 194.104974 
L 250.498098 194.104462 
L 250.869189 193.367469 
L 251.24028 193.36692 
L 251.982462 192.150974 
L 252.353554 192.150426 
L 252.724645 191.537245 
L 253.095736 191.536733 
L 253.837918 190.315085 
L 254.209009 190.314537 
L 254.5801 189.807445 
L 254.951191 189.080501 
L 255.322282 189.079916 
L 255.693373 188.604143 
L 256.064464 188.603704 
L 257.177738 187.181062 
L 257.548829 187.18055 
L 258.291011 186.027095 
L 258.662102 186.02662 
L 259.404284 184.875467 
L 259.775375 184.874918 
L 260.146466 184.119652 
L 260.517558 184.119068 
L 260.888649 183.381014 
L 261.25974 183.380502 
L 261.630831 182.654874 
L 262.001922 182.654362 
L 262.373013 182.043228 
L 262.744104 182.04268 
L 263.486286 180.812408 
L 263.857377 180.811859 
L 264.228468 180.27089 
L 264.59956 180.270415 
L 265.341742 179.045406 
L 265.712833 179.044858 
L 266.083924 178.440922 
L 266.455015 178.440338 
L 267.197197 177.339068 
L 267.568288 177.338556 
L 268.31047 176.112633 
L 268.681562 176.112012 
L 269.052653 175.501206 
L 269.423744 175.500695 
L 270.165926 174.275612 
L 270.537017 174.275137 
L 271.279199 173.163269 
L 271.65029 173.162757 
L 272.021381 172.513288 
L 272.392472 172.512813 
L 272.763564 171.704045 
L 273.134655 171.703424 
L 273.505746 171.093605 
L 273.876837 171.092874 
L 274.619019 169.866841 
L 274.99011 169.866257 
L 275.361201 169.258302 
L 275.732292 169.25768 
L 276.474474 168.030149 
L 276.845566 168.029601 
L 277.216657 167.42033 
L 277.587748 167.419855 
L 277.958839 166.913275 
L 278.32993 166.187756 
L 278.701021 166.187317 
L 279.072112 165.59906 
L 279.443203 165.598512 
L 280.185385 164.370542 
L 280.556476 164.369957 
L 280.927568 163.760942 
L 281.298659 163.760467 
L 282.040841 162.537723 
L 282.411932 162.537248 
L 282.783023 161.928672 
L 283.154114 161.92816 
L 283.525205 161.214445 
L 283.896296 161.213861 
L 284.267387 160.691164 
L 284.638478 159.969227 
L 285.00957 159.968971 
L 285.380661 159.238263 
L 285.751752 159.238007 
L 286.122843 158.483508 
L 286.493934 158.483289 
L 286.865025 157.709641 
L 287.236116 157.709385 
L 287.607207 156.974036 
L 287.978298 156.973853 
L 288.349389 156.520335 
L 288.72048 156.51986 
L 289.462663 155.403424 
L 289.833754 155.402913 
L 290.204845 154.677723 
L 290.575936 154.677467 
L 291.689209 153.170114 
L 292.0603 153.169566 
L 293.173574 151.660897 
L 293.544665 151.660203 
L 294.286847 150.658956 
L 294.657938 150.658408 
L 295.029029 150.159136 
L 295.40012 149.457079 
L 295.771211 149.456713 
L 296.513393 148.429044 
L 296.884484 148.428679 
L 297.997758 146.892273 
L 298.368849 146.891907 
L 299.111031 145.863215 
L 299.482122 145.862813 
L 300.595395 144.33452 
L 300.966486 144.334155 
L 301.337578 143.71308 
L 301.708669 143.712642 
L 302.821942 142.222209 
L 303.193033 142.22188 
L 304.306306 140.679445 
L 304.677397 140.679079 
L 305.048488 140.162449 
L 305.41958 139.451438 
L 305.790671 139.451073 
L 306.161762 138.704029 
L 306.532853 138.703554 
L 306.903944 138.1013 
L 307.275035 138.100825 
L 307.646126 137.218311 
L 308.017217 137.217836 
L 308.388308 136.701352 
L 308.759399 136.700803 
L 309.501582 135.66345 
L 309.872673 135.662938 
L 310.985946 134.113121 
L 311.357037 134.112573 
L 312.099219 133.082199 
L 312.47031 133.081724 
L 313.212492 131.744669 
L 313.583584 131.74434 
L 313.954675 131.045024 
L 314.325766 131.044768 
L 314.696857 130.290525 
L 315.067948 130.290196 
L 315.81013 129.459794 
L 316.181221 129.459465 
L 316.552312 129.04008 
L 316.923403 128.1534 
L 317.294494 128.152925 
L 317.665586 127.636039 
L 318.036677 127.635527 
L 318.407768 127.119007 
L 318.778859 126.390053 
L 319.14995 126.389577 
L 319.892132 125.352626 
L 320.263223 125.352114 
L 321.005405 124.320133 
L 321.376496 124.319512 
L 322.48977 122.768488 
L 322.860861 122.767977 
L 323.603043 121.753719 
L 323.974134 121.753208 
L 324.716316 120.423461 
L 325.087407 120.423169 
L 325.458498 119.904565 
L 325.82959 119.90409 
L 326.571772 118.868162 
L 326.942863 118.86765 
L 328.056136 117.318162 
L 328.427227 117.317504 
L 328.798318 116.583543 
L 329.169409 116.583032 
L 329.911592 115.489473 
L 330.282683 115.488925 
L 331.024865 114.490856 
L 331.395956 114.490345 
L 332.509229 112.933584 
L 332.88032 112.933072 
L 333.622503 111.904818 
L 333.993594 111.904161 
L 335.106867 110.358546 
L 335.477958 110.358034 
L 335.849049 109.754866 
L 336.22014 108.8968 
L 336.962322 108.896252 
L 337.704505 107.861603 
L 338.075596 107.860945 
L 338.817778 106.827831 
L 339.188869 106.82721 
L 339.55996 106.307583 
L 339.931051 105.580712 
L 340.302142 105.580091 
L 341.044324 104.553774 
L 341.415415 104.553225 
L 342.157598 103.463467 
L 342.528689 103.462919 
L 343.270871 102.427758 
L 343.641962 102.427283 
L 344.755235 100.779672 
L 345.126326 100.779197 
L 345.497417 100.171352 
L 345.868509 100.170804 
L 346.610691 98.946671 
L 346.981782 98.946013 
L 347.352873 98.444768 
L 347.723964 97.610237 
L 348.466146 97.609689 
L 349.208328 96.386141 
L 349.579419 96.385593 
L 349.950511 95.772156 
L 350.321602 95.771535 
L 350.692693 95.040388 
L 351.063784 95.03984 
L 351.805966 93.819362 
L 352.177057 93.818887 
L 352.548148 93.206912 
L 352.919239 93.2064 
L 354.032513 91.696635 
L 354.403604 91.696014 
L 355.145786 90.65285 
L 355.516877 90.652302 
L 356.259059 89.634317 
L 356.63015 89.633696 
L 357.743423 88.136173 
L 358.114515 88.135516 
L 358.856697 87.021382 
L 359.227788 87.020907 
L 359.598879 86.276056 
L 359.96997 86.275654 
L 360.341061 85.556713 
L 360.712152 85.556494 
L 361.083243 85.146976 
L 361.454334 84.428072 
L 361.825425 84.427852 
L 362.196517 83.707523 
L 362.567608 83.707194 
L 362.938699 82.959529 
L 363.30979 82.95931 
L 363.680881 82.229771 
L 364.051972 82.229515 
L 364.423063 81.522927 
L 364.794154 81.522634 
L 365.165245 80.802049 
L 365.536336 80.80172 
L 365.907427 80.057746 
L 366.278519 80.057527 
L 367.020701 79.052442 
L 367.391792 79.051931 
L 368.505065 77.543481 
L 368.876156 77.54297 
L 369.989429 75.99487 
L 370.360521 75.994358 
L 370.731612 75.371712 
L 371.102703 75.371274 
L 371.473794 74.530859 
L 371.844885 74.530384 
L 372.587067 73.493834 
L 372.958158 73.493286 
L 373.329249 72.765209 
L 373.70034 72.764661 
L 374.071431 72.266595 
L 374.442523 71.539907 
L 374.813614 71.539432 
L 375.555796 70.535882 
L 375.926887 70.535371 
L 376.297978 70.025794 
L 376.669069 69.317524 
L 377.04016 69.316939 
L 377.411251 68.813867 
L 377.782342 68.813319 
L 378.895616 67.316089 
L 379.266707 67.315614 
L 379.637798 66.546095 
L 380.008889 66.545876 
L 380.37998 65.818932 
L 380.751071 65.818676 
L 381.122162 65.087968 
L 381.493253 65.087748 
L 382.235435 63.949094 
L 382.606527 63.948655 
L 382.977618 63.111091 
L 383.348709 63.110579 
L 383.7198 62.595484 
L 384.090891 62.595009 
L 384.461982 61.870586 
L 384.833073 61.870111 
L 385.946346 60.319124 
L 386.317437 60.318649 
L 387.05962 59.307315 
L 387.430711 59.306767 
L 388.172893 58.205534 
L 388.543984 58.205022 
L 389.657257 56.641098 
L 390.028348 56.640623 
L 390.770531 55.608459 
L 391.141622 55.607947 
L 392.254895 54.057655 
L 392.625986 54.057143 
L 392.997077 53.34204 
L 393.368168 53.341528 
L 393.739259 52.735217 
L 394.11035 52.734706 
L 394.481441 51.875543 
L 394.852533 51.874995 
L 395.223624 51.151779 
L 395.594715 51.151231 
L 396.336897 50.120492 
L 396.707988 50.11987 
L 397.821261 48.575498 
L 398.192352 48.574913 
L 398.934535 47.342193 
L 399.305626 47.341608 
L 399.676717 46.606953 
L 400.047808 46.606478 
L 400.418899 46.088021 
L 400.78999 46.087545 
L 401.532172 45.055747 
L 401.903263 45.055235 
L 403.016537 43.506441 
L 403.387628 43.505856 
L 404.12981 42.471938 
L 404.500901 42.471426 
L 405.243083 41.336608 
L 405.614174 41.33606 
L 405.985265 40.502699 
L 406.356356 40.502187 
L 407.098539 39.466003 
L 407.46963 39.465455 
L 408.211812 38.431683 
L 408.582903 38.431025 
L 409.696176 36.883656 
L 410.067267 36.883144 
L 410.809449 35.762067 
L 411.180541 35.761555 
L 411.922723 34.742292 
L 412.293814 34.741743 
L 413.035996 33.702709 
L 413.407087 33.702234 
L 414.52036 32.154207 
L 414.891451 32.153659 
L 415.633634 31.118863 
L 416.004725 31.118352 
L 416.746907 29.982803 
L 417.117998 29.982182 
L 417.489089 29.14692 
L 417.86018 29.146372 
L 418.602362 28.118885 
L 418.973453 28.118301 
L 419.344545 27.496751 
L 419.715636 27.496312 
L 420.828909 26.040487 
L 421.2 26.040122 
L 421.2 26.040122 
" clip-path="url(#pb67bdd7c68)" style="fill: none; stroke: #1f77b4; stroke-width: 1.5; stroke-linecap: square"/>
   </g>
   <g id="line2d_12">
    <path d="M 50.48 391 
L 87.589109 354.117345 
L 124.698218 317.592498 
L 161.807327 281.152873 
L 198.916436 244.311404 
L 236.025546 208.297084 
L 273.134655 171.703424 
L 310.243764 135.144554 
L 347.352873 98.444768 
L 384.461982 61.870586 
" clip-path="url(#pb67bdd7c68)" style="fill: none"/>
    <defs>
     <path id="mce2038ed7a" d="M -5 5 
L 5 5 
L 5 -5 
L -5 -5 
z
" style="stroke: #1f77b4; stroke-linejoin: miter"/>
    </defs>
    <g clip-path="url(#pb67bdd7c68)">
     <use xlink:href="#mce2038ed7a" x="50.48" y="391" style="fill: #1f77b4; stroke: #1f77b4; stroke-linejoin: miter"/>
     <use xlink:href="#mce2038ed7a" x="87.589109" y="354.117345" style="fill: #1f77b4; stroke: #1f77b4; stroke-linejoin: miter"/>
     <use xlink:href="#mce2038ed7a" x="124.698218" y="317.592498" style="fill: #1f77b4; stroke: #1f77b4; stroke-linejoin: miter"/>
     <use xlink:href="#mce2038ed7a" x="161.807327" y="281.152873" style="fill: #1f77b4; stroke: #1f77b4; stroke-linejoin: miter"/>
     <use xlink:href="#mce2038ed7a" x="198.916436" y="244.311404" style="fill: #1f77b4; stroke: #1f77b4; stroke-linejoin: miter"/>
     <use xlink:href="#mce2038ed7a" x="236.025546" y="208.297084" style="fill: #1f77b4; stroke: #1f77b4; stroke-linejoin: miter"/>
     <use xlink:href="#mce2038ed7a" x="273.134655" y="171.703424" style="fill: #1f77b4; stroke: #1f77b4; stroke-linejoin: miter"/>
     <use xlink:href="#mce2038ed7a" x="310.243764" y="135.144554" style="fill: #1f77b4; stroke: #1f77b4; stroke-linejoin: miter"/>
     <use xlink:href="#mce2038ed7a" x="347.352873" y="98.444768" style="fill: #1f77b4; stroke: #1f77b4; stroke-linejoin: miter"/>
     <use xlink:href="#mce2038ed7a" x="384.461982" y="61.870586" style="fill: #1f77b4; stroke: #1f77b4; stroke-linejoin: miter"/>
    </g>
   </g>
   <g id="line2d_13">
    <path d="M 50.48 391 
L 51.222182 390.146173 
L 51.593273 389.656403 
L 51.964364 389.65253 
L 53.448729 387.82808 
L 53.81982 387.824096 
L 54.933093 386.494862 
L 56.046366 385.498328 
L 57.15964 384.280701 
L 57.530731 383.79316 
L 57.901822 383.789104 
L 59.015095 382.329588 
L 59.386186 382.32575 
L 60.128368 381.444515 
L 60.870551 380.475646 
L 61.241642 380.470786 
L 61.612733 379.844522 
L 62.726006 378.650648 
L 63.097097 378.646665 
L 64.21037 377.093156 
L 64.581461 377.089392 
L 65.323644 376.049261 
L 65.694735 376.045059 
L 66.808008 374.711841 
L 67.55019 374.054075 
L 68.292372 373.089373 
L 68.663463 373.08528 
L 69.405646 372.07771 
L 69.776737 372.07369 
L 70.89001 370.569041 
L 71.261101 370.565168 
L 71.632192 369.864134 
L 72.003283 369.860114 
L 73.487648 368.242616 
L 73.858739 367.722477 
L 74.22983 367.71864 
L 75.343103 366.165826 
L 75.714194 366.161879 
L 76.456376 365.129715 
L 76.827467 365.125732 
L 77.940741 363.702943 
L 78.682923 362.959079 
L 79.054014 362.956265 
L 79.425105 362.590235 
L 80.538378 361.024155 
L 80.909469 361.020171 
L 81.651652 359.991223 
L 82.022743 359.987276 
L 82.764925 358.955478 
L 83.136016 358.951567 
L 83.878198 358.094744 
L 84.249289 357.696445 
L 84.62038 357.479224 
L 85.733654 355.943074 
L 86.104745 355.938945 
L 86.846927 354.903418 
L 87.218018 354.899508 
L 88.331291 353.347717 
L 88.702382 353.343661 
L 89.444565 352.313543 
L 89.815656 352.309523 
L 90.186747 351.71403 
L 90.928929 350.861884 
L 91.30002 350.857828 
L 92.042202 349.819853 
L 92.413293 349.81565 
L 93.526567 348.269524 
L 93.897658 348.265431 
L 95.010931 346.900638 
L 95.382022 346.896655 
L 95.753113 346.384849 
L 96.124204 346.147528 
L 96.495295 345.626549 
L 96.866386 345.29827 
L 97.608569 344.266544 
L 97.97966 344.262707 
L 98.721842 343.230177 
L 99.092933 343.226231 
L 100.206206 341.67338 
L 100.577297 341.669469 
L 101.319479 340.835815 
L 102.061662 339.905866 
L 102.432753 339.901993 
L 103.546026 338.371982 
L 103.917117 338.367962 
L 104.659299 337.336383 
L 105.03039 337.332436 
L 105.401481 336.812736 
L 105.772573 336.488257 
L 106.514755 335.46786 
L 106.885846 335.463913 
L 107.256937 335.155916 
L 107.999119 334.009039 
L 108.37021 334.005055 
L 109.112392 332.972416 
L 109.483483 332.968542 
L 110.596757 331.419273 
L 110.967848 331.415399 
L 111.71003 330.38181 
L 112.081121 330.377936 
L 113.194394 328.862105 
L 113.565485 328.858122 
L 113.936577 328.503055 
L 114.678759 327.466103 
L 115.04985 327.462083 
L 116.163123 325.933133 
L 116.534214 325.929259 
L 116.905305 325.406234 
L 117.276396 325.081645 
L 117.647487 324.564247 
L 118.018579 324.560081 
L 118.38967 324.046411 
L 119.131852 323.326557 
L 119.874034 322.292054 
L 120.245125 322.28807 
L 120.987307 321.249913 
L 121.358398 321.245966 
L 122.100581 320.215775 
L 122.471672 320.211938 
L 123.584945 318.665117 
L 123.956036 318.661061 
L 124.327127 318.130251 
L 124.698218 317.897316 
L 126.182583 316.341359 
L 126.553674 315.825752 
L 126.924765 315.821805 
L 128.409129 313.939761 
L 128.78022 313.935742 
L 129.893493 312.552604 
L 130.264585 312.305087 
L 130.635676 311.781806 
L 131.006767 311.777896 
L 132.12004 310.225155 
L 132.491131 310.221317 
L 133.233313 309.188094 
L 133.604404 309.18411 
L 134.346587 308.146574 
L 134.717678 308.142737 
L 135.830951 306.592737 
L 136.202042 306.588936 
L 136.944224 305.662422 
L 137.315315 305.139543 
L 137.686406 305.135559 
L 138.428589 304.106392 
L 138.79968 304.102409 
L 139.170771 303.58333 
L 139.541862 303.255343 
L 140.284044 302.213238 
L 140.655135 302.209328 
L 141.397317 301.179759 
L 141.768408 301.175775 
L 142.139499 300.573777 
L 143.252773 299.354688 
L 143.623864 299.350595 
L 144.737137 297.800083 
L 145.108228 297.796136 
L 145.85041 296.778845 
L 146.221502 296.774972 
L 146.963684 295.738276 
L 147.334775 295.734256 
L 148.819139 293.868876 
L 149.19023 293.864747 
L 150.674595 291.968012 
L 151.045686 291.963773 
L 151.787868 290.933107 
L 152.158959 290.92916 
L 152.901141 289.706416 
L 153.272232 289.702579 
L 153.643323 289.10884 
L 154.014414 289.104783 
L 154.756597 287.875754 
L 155.127688 287.87199 
L 155.498779 287.260453 
L 155.86987 287.25647 
L 156.612052 286.02459 
L 156.983143 286.020424 
L 157.354234 285.41013 
L 157.725325 285.406073 
L 158.467508 284.176276 
L 158.838599 284.172037 
L 159.20969 283.888598 
L 159.951872 282.839623 
L 160.322963 282.835749 
L 161.065145 281.624444 
L 161.436236 281.614394 
L 161.807327 280.891324 
L 162.178418 280.887231 
L 162.54951 280.27014 
L 162.920601 280.26612 
L 163.291692 279.653012 
L 163.662783 279.649138 
L 164.404965 278.422192 
L 164.776056 278.418318 
L 165.147147 277.804954 
L 165.518238 277.800971 
L 166.26042 276.690967 
L 166.631512 276.687166 
L 167.373694 275.452728 
L 167.744785 275.448635 
L 168.115876 274.838122 
L 168.486967 274.834394 
L 169.229149 273.600541 
L 169.60024 273.596594 
L 169.971331 272.986337 
L 170.342422 272.982354 
L 170.713514 272.373302 
L 171.084605 272.205197 
L 171.455696 271.869974 
L 171.826787 271.250654 
L 172.197878 271.24667 
L 172.94006 269.901685 
L 173.311151 269.897592 
L 173.682242 269.286494 
L 174.053333 269.282693 
L 174.424424 268.669513 
L 174.795516 268.665566 
L 175.537698 267.434855 
L 175.908789 267.431018 
L 176.27988 266.820468 
L 176.650971 266.816485 
L 178.135335 264.869245 
L 178.506426 264.865262 
L 178.877518 264.254749 
L 179.248609 264.250912 
L 179.990791 263.028204 
L 180.361882 263.024221 
L 180.732973 262.410565 
L 181.104064 262.406764 
L 181.846246 261.178027 
L 182.217337 261.174153 
L 182.588428 260.561338 
L 182.95952 260.557501 
L 184.072793 259.097948 
L 184.443884 259.093855 
L 185.186066 257.867091 
L 185.557157 257.863181 
L 185.928248 257.250804 
L 186.299339 257.246784 
L 186.67043 256.634773 
L 187.041522 256.63068 
L 187.783704 255.4026 
L 188.154795 255.398763 
L 188.525886 255.119526 
L 188.896977 254.537116 
L 189.268068 254.17295 
L 189.639159 253.581074 
L 190.01025 253.5772 
L 190.381341 252.965993 
L 190.752432 252.962009 
L 191.494615 251.734369 
L 191.865706 251.730422 
L 192.236797 251.119616 
L 192.607888 251.115523 
L 193.35007 249.890367 
L 193.721161 249.886384 
L 194.092252 249.295313 
L 194.463343 249.29111 
L 194.834434 248.551923 
L 195.205526 248.547867 
L 195.947708 247.316901 
L 196.318799 247.313137 
L 196.68989 246.700504 
L 197.060981 246.696411 
L 197.803163 245.468989 
L 198.174254 245.465006 
L 198.545345 244.849961 
L 198.916436 244.846014 
L 199.658619 243.633028 
L 200.02971 243.628898 
L 201.142983 242.162621 
L 201.514074 242.158492 
L 201.885165 241.544361 
L 202.256256 241.540487 
L 202.998438 240.313248 
L 203.36953 240.309155 
L 203.740621 239.696815 
L 204.111712 239.692978 
L 204.482803 239.077714 
L 204.853894 239.073621 
L 205.596076 237.863814 
L 205.967167 237.859574 
L 206.338258 237.251729 
L 206.709349 237.247709 
L 207.451532 236.021676 
L 207.822623 236.017803 
L 208.193714 235.406047 
L 208.564805 235.40199 
L 209.306987 234.173655 
L 209.678078 234.169708 
L 210.049169 233.555541 
L 210.42026 233.55163 
L 211.162442 232.330677 
L 211.533534 232.326584 
L 211.904625 231.729044 
L 212.275716 231.724988 
L 213.017898 230.497786 
L 213.388989 230.493802 
L 213.76008 229.880292 
L 214.131171 229.876126 
L 214.873353 228.651884 
L 215.244444 228.647901 
L 215.615536 228.033441 
L 215.986627 228.029494 
L 216.728809 226.800684 
L 217.0999 226.796152 
L 217.470991 226.079075 
L 217.842082 226.073959 
L 218.213173 225.557219 
L 218.584264 225.553857 
L 219.326446 224.459238 
L 219.697538 224.455328 
L 220.43972 223.230355 
L 220.810811 223.226335 
L 221.181902 222.61743 
L 221.552993 222.613446 
L 222.295175 221.270142 
L 222.666266 221.266012 
L 223.037357 220.66025 
L 223.408448 220.656267 
L 223.77954 219.929688 
L 224.150631 219.925851 
L 224.521722 219.317275 
L 224.892813 219.313437 
L 225.634995 218.084335 
L 226.006086 218.080388 
L 226.377177 217.469692 
L 226.748268 217.465636 
L 227.49045 216.235912 
L 227.861542 216.231307 
L 228.232633 215.511416 
L 228.603724 215.50736 
L 228.974815 214.893923 
L 229.345906 214.889793 
L 230.459179 213.550801 
L 230.83027 212.933381 
L 231.201361 212.929434 
L 231.572452 212.319396 
L 231.943544 212.315523 
L 232.685726 211.080938 
L 233.056817 211.076991 
L 233.427908 210.463335 
L 233.798999 210.459425 
L 234.17009 209.85147 
L 234.541181 209.847523 
L 235.283363 208.507362 
L 235.654454 208.503488 
L 236.025546 207.888809 
L 236.396637 207.884789 
L 236.767728 207.274239 
L 237.138819 207.270439 
L 237.881001 206.077478 
L 238.252092 206.073568 
L 238.623183 205.464115 
L 238.994274 205.460131 
L 239.736456 204.117266 
L 240.107548 204.113428 
L 240.478639 203.517679 
L 240.84973 203.513806 
L 241.591912 202.619853 
L 241.963003 202.178468 
L 242.334094 202.174375 
L 243.076276 200.946222 
L 243.447367 200.942276 
L 243.818458 200.311224 
L 244.18955 200.307314 
L 244.560641 199.939274 
L 244.931732 199.332013 
L 245.302823 199.04587 
L 245.673914 198.428998 
L 246.045005 198.424905 
L 246.787187 197.082258 
L 247.158278 197.078238 
L 247.529369 196.466921 
L 247.90046 196.462865 
L 248.271552 195.848076 
L 248.642643 195.844202 
L 249.013734 195.229048 
L 249.384825 195.225064 
L 250.127007 193.998702 
L 250.498098 193.994756 
L 250.869189 193.270626 
L 251.24028 193.266569 
L 251.611371 192.656312 
L 251.982462 192.652219 
L 252.724645 191.427976 
L 253.095736 191.42487 
L 253.466827 191.065637 
L 253.837918 190.473689 
L 254.209009 190.469705 
L 254.951191 189.238885 
L 255.322282 189.234902 
L 255.693373 188.620844 
L 256.064464 188.616897 
L 256.806647 187.389731 
L 257.177738 187.385748 
L 257.548829 186.770996 
L 257.91992 186.766976 
L 258.291011 186.06342 
L 258.662102 186.059619 
L 259.033193 185.317656 
L 259.404284 185.313928 
L 260.146466 184.080111 
L 260.517558 184.076055 
L 260.888649 183.465432 
L 261.25974 183.461448 
L 262.001922 182.117742 
L 262.373013 182.113905 
L 262.744104 181.502624 
L 263.115195 181.498787 
L 263.486286 180.884364 
L 263.857377 180.88049 
L 264.228468 180.174961 
L 264.59956 180.170101 
L 265.341742 179.15281 
L 265.712833 179.148863 
L 266.455015 177.928056 
L 266.826106 177.924 
L 267.197197 177.31038 
L 267.568288 177.306434 
L 268.31047 176.082484 
L 268.681562 176.078647 
L 269.052653 175.344978 
L 269.423744 175.340922 
L 269.794835 174.733953 
L 270.165926 174.72997 
L 270.537017 174.004561 
L 270.908108 174.000724 
L 271.65029 172.770744 
L 272.021381 172.766907 
L 272.392472 172.149085 
L 272.763564 172.14459 
L 273.134655 171.43018 
L 273.505746 171.426124 
L 274.247928 170.190772 
L 274.619019 170.186825 
L 274.99011 169.572585 
L 275.361201 169.568492 
L 276.103383 168.453554 
L 276.474474 168.450156 
L 277.216657 167.319175 
L 277.587748 167.315155 
L 277.958839 166.701718 
L 278.32993 166.697918 
L 279.072112 165.571834 
L 279.443203 165.56796 
L 280.185385 164.338931 
L 280.556476 164.334874 
L 280.927568 163.724544 
L 281.298659 163.720743 
L 281.66975 163.018284 
L 282.040841 163.014374 
L 282.411932 162.264955 
L 282.783023 162.260971 
L 283.525205 161.031723 
L 283.896296 161.0216 
L 284.267387 160.301307 
L 284.638478 160.297323 
L 285.00957 159.690136 
L 285.380661 159.686116 
L 286.122843 158.458585 
L 286.493934 158.454601 
L 286.865025 157.847304 
L 287.236116 157.843394 
L 287.607207 157.563426 
L 287.978298 156.954631 
L 288.349389 156.598577 
L 288.72048 156.027861 
L 289.091572 156.02406 
L 289.833754 154.800183 
L 290.204845 154.796346 
L 290.575936 154.184189 
L 290.947027 154.180351 
L 291.318118 153.570715 
L 291.689209 153.566659 
L 292.431391 152.219225 
L 292.802482 152.214949 
L 293.173574 151.600709 
L 293.544665 151.59636 
L 293.915756 150.986614 
L 294.286847 150.982558 
L 295.029029 149.63337 
L 295.40012 149.62935 
L 295.771211 149.025268 
L 296.142302 149.021395 
L 296.513393 148.408506 
L 296.884484 148.404486 
L 297.626667 147.182875 
L 297.997758 147.178928 
L 298.368849 146.563116 
L 298.73994 146.559169 
L 299.482122 145.429395 
L 299.853213 145.426325 
L 300.224304 144.985634 
L 300.595395 144.37154 
L 300.966486 144.367483 
L 301.708669 143.141012 
L 302.07976 143.137029 
L 302.450851 142.527027 
L 302.821942 142.523044 
L 303.564124 141.295841 
L 303.935215 141.291858 
L 304.306306 140.681235 
L 304.677397 140.677288 
L 305.048488 140.391474 
L 305.790671 139.280227 
L 306.161762 139.270068 
L 306.532853 138.541406 
L 306.903944 138.537532 
L 307.646126 137.320087 
L 308.017217 137.316031 
L 308.388308 136.703362 
L 308.759399 136.699305 
L 309.501582 135.473309 
L 309.872673 135.469252 
L 310.243764 134.856729 
L 310.614855 134.851576 
L 311.357037 134.014158 
L 313.583584 131.582375 
L 313.954675 131.578391 
L 314.325766 130.968938 
L 315.067948 130.356378 
L 315.81013 129.242793 
L 316.181221 129.238846 
L 316.552312 128.511756 
L 316.923403 128.507699 
L 317.294494 127.783752 
L 317.665586 127.779805 
L 318.036677 127.171229 
L 318.407768 127.167245 
L 319.14995 125.935694 
L 319.521041 125.931711 
L 319.892132 125.324194 
L 320.263223 125.320248 
L 320.634314 124.709479 
L 321.005405 124.705568 
L 321.747588 123.493349 
L 322.118679 123.489293 
L 323.231952 121.995498 
L 323.603043 121.991478 
L 323.974134 121.381367 
L 324.345225 121.37742 
L 325.087407 120.149779 
L 325.458498 120.145832 
L 325.82959 119.537987 
L 326.200681 119.533931 
L 326.942863 118.306582 
L 327.313954 118.302599 
L 328.056136 117.731809 
L 329.169409 116.354921 
L 329.540501 115.741447 
L 329.911592 115.737464 
L 330.282683 115.124247 
L 330.653774 115.120227 
L 331.395956 113.898469 
L 331.767047 113.894523 
L 332.138138 113.283754 
L 332.509229 113.279697 
L 333.251411 112.07676 
L 333.622503 112.072339 
L 333.993594 111.536632 
L 334.364685 111.533306 
L 335.106867 110.422974 
L 335.477958 110.418917 
L 336.22014 109.200522 
L 336.591231 109.196539 
L 336.962322 108.581969 
L 337.333413 108.577876 
L 338.075596 107.462829 
L 338.446687 107.458882 
L 338.817778 106.853595 
L 339.55996 106.2596 
L 339.931051 105.877344 
L 340.302142 105.264273 
L 340.673233 105.260435 
L 341.415415 104.032612 
L 341.786507 104.028665 
L 342.157598 103.414388 
L 342.528689 103.410258 
L 343.270871 102.182544 
L 343.641962 102.178561 
L 344.013053 101.568596 
L 344.384144 101.564539 
L 344.755235 100.955634 
L 345.868509 100.070781 
L 346.610691 99.003388 
L 346.981782 98.999295 
L 347.352873 98.38648 
L 347.723964 98.382241 
L 348.466146 97.155659 
L 348.837237 97.151566 
L 349.208328 96.541528 
L 349.579419 96.537362 
L 350.321602 95.303363 
L 350.692693 95.299014 
L 351.063784 94.57905 
L 351.434875 94.575139 
L 352.177057 93.529783 
L 352.548148 93.525982 
L 352.919239 92.913751 
L 353.29033 92.909841 
L 354.032513 91.682493 
L 354.403604 91.678473 
L 354.774695 91.068508 
L 355.145786 91.064561 
L 355.887968 89.837907 
L 356.259059 89.833887 
L 356.63015 89.221766 
L 357.001241 89.217855 
L 358.485606 87.227603 
L 358.856697 87.22362 
L 359.227788 86.608063 
L 359.598879 86.60408 
L 360.341061 85.378705 
L 360.712152 85.374758 
L 361.083243 84.760919 
L 361.454334 84.756863 
L 362.196517 83.417834 
L 362.567608 83.413961 
L 362.938699 83.285433 
L 363.680881 82.07654 
L 364.051972 82.072666 
L 364.423063 81.460582 
L 364.794154 81.456562 
L 365.165245 80.845464 
L 365.536336 80.841371 
L 366.278519 79.621441 
L 366.64961 79.617238 
L 367.020701 79.002449 
L 367.391792 78.998576 
L 368.133974 77.77744 
L 368.505065 77.773456 
L 369.618338 76.325708 
L 369.989429 76.321651 
L 370.360521 75.714171 
L 370.731612 75.710115 
L 371.473794 74.48368 
L 371.844885 74.479806 
L 372.215976 73.879014 
L 372.587067 73.875103 
L 373.329249 72.643625 
L 373.70034 72.639606 
L 374.071431 72.028435 
L 374.442523 72.024342 
L 374.813614 71.300577 
L 375.184705 71.296484 
L 375.926887 70.067125 
L 376.297978 70.063142 
L 376.669069 69.454785 
L 377.04016 69.450582 
L 377.782342 68.225609 
L 378.153433 68.221699 
L 378.524525 67.614548 
L 378.895616 67.610674 
L 379.637798 66.403718 
L 380.008889 66.399698 
L 380.751071 65.394905 
L 381.122162 65.390849 
L 381.864344 64.163062 
L 382.235435 64.159188 
L 382.606527 63.551343 
L 382.977618 63.547396 
L 383.348709 62.935823 
L 383.7198 62.931876 
L 384.461982 61.590362 
L 384.833073 61.586379 
L 385.204164 60.978095 
L 385.575255 60.974112 
L 385.946346 60.700174 
L 386.317437 59.882672 
L 386.688529 59.878689 
L 387.05962 59.261598 
L 387.430711 59.257541 
L 388.172893 58.034761 
L 388.543984 58.030814 
L 388.915075 57.417633 
L 389.286166 57.41354 
L 390.028348 56.190577 
L 390.399439 56.186484 
L 390.770531 55.576336 
L 391.141622 55.572317 
L 391.883804 54.444406 
L 392.254895 54.440934 
L 392.625986 54.096611 
L 393.368168 52.890714 
L 393.739259 52.886768 
L 394.11035 52.276985 
L 394.481441 52.273075 
L 395.223624 50.927761 
L 395.594715 50.92396 
L 395.965806 50.2029 
L 396.336897 50.199026 
L 396.707988 49.584603 
L 397.079079 49.580473 
L 397.45017 48.971568 
L 397.821261 48.967621 
L 398.192352 48.574986 
L 398.563443 47.962975 
L 398.934535 47.958845 
L 399.676717 46.734128 
L 400.047808 46.730218 
L 400.418899 46.120838 
L 400.78999 46.116818 
L 401.532172 44.891479 
L 401.903263 44.887532 
L 402.274354 44.279248 
L 402.645445 44.275301 
L 403.016537 43.665044 
L 404.12981 42.799889 
L 404.871992 41.710934 
L 405.243083 41.706951 
L 405.985265 40.472622 
L 406.356356 40.467945 
L 406.727447 39.75116 
L 407.098539 39.747104 
L 407.46963 39.139989 
L 407.840721 39.136042 
L 408.582903 37.911033 
L 408.953994 37.907049 
L 409.696176 36.790613 
L 410.067267 36.78663 
L 410.438358 36.178967 
L 410.809449 36.174911 
L 411.551632 34.950047 
L 411.922723 34.945991 
L 412.293814 34.333102 
L 412.664905 34.329156 
L 413.407087 33.100491 
L 413.778178 33.096362 
L 414.149269 32.488992 
L 414.52036 32.485118 
L 414.891451 32.195027 
L 415.633634 31.146089 
L 416.004725 31.14196 
L 416.746907 29.915269 
L 417.117998 29.911432 
L 417.489089 29.290321 
L 417.86018 29.285424 
L 418.231271 28.568639 
L 418.602362 28.564765 
L 418.973453 27.958382 
L 419.344545 27.670338 
L 419.715636 27.057485 
L 420.086727 27.053502 
L 420.828909 25.816396 
L 421.2 25.812413 
L 421.2 25.812413 
" clip-path="url(#pb67bdd7c68)" style="fill: none; stroke: #ff7f0e; stroke-width: 1.5; stroke-linecap: square"/>
   </g>
   <g id="line2d_14">
    <path d="M 50.48 391 
L 87.589109 354.387044 
L 124.698218 317.897316 
L 161.807327 280.891324 
L 198.916436 244.846014 
L 236.025546 207.888809 
L 273.134655 171.43018 
L 310.243764 134.856729 
L 347.352873 98.38648 
L 384.461982 61.590362 
" clip-path="url(#pb67bdd7c68)" style="fill: none"/>
    <defs>
     <path id="m901510029d" d="M 0 4.5 
C 1.193414 4.5 2.338109 4.025852 3.181981 3.181981 
C 4.025852 2.338109 4.5 1.193414 4.5 0 
C 4.5 -1.193414 4.025852 -2.338109 3.181981 -3.181981 
C 2.338109 -4.025852 1.193414 -4.5 0 -4.5 
C -1.193414 -4.5 -2.338109 -4.025852 -3.181981 -3.181981 
C -4.025852 -2.338109 -4.5 -1.193414 -4.5 0 
C -4.5 1.193414 -4.025852 2.338109 -3.181981 3.181981 
C -2.338109 4.025852 -1.193414 4.5 0 4.5 
z
" style="stroke: #ff7f0e"/>
    </defs>
    <g clip-path="url(#pb67bdd7c68)">
     <use xlink:href="#m901510029d" x="50.48" y="391" style="fill: #ff7f0e; stroke: #ff7f0e"/>
     <use xlink:href="#m901510029d" x="87.589109" y="354.387044" style="fill: #ff7f0e; stroke: #ff7f0e"/>
     <use xlink:href="#m901510029d" x="124.698218" y="317.897316" style="fill: #ff7f0e; stroke: #ff7f0e"/>
     <use xlink:href="#m901510029d" x="161.807327" y="280.891324" style="fill: #ff7f0e; stroke: #ff7f0e"/>
     <use xlink:href="#m901510029d" x="198.916436" y="244.846014" style="fill: #ff7f0e; stroke: #ff7f0e"/>
     <use xlink:href="#m901510029d" x="236.025546" y="207.888809" style="fill: #ff7f0e; stroke: #ff7f0e"/>
     <use xlink:href="#m901510029d" x="273.134655" y="171.43018" style="fill: #ff7f0e; stroke: #ff7f0e"/>
     <use xlink:href="#m901510029d" x="310.243764" y="134.856729" style="fill: #ff7f0e; stroke: #ff7f0e"/>
     <use xlink:href="#m901510029d" x="347.352873" y="98.38648" style="fill: #ff7f0e; stroke: #ff7f0e"/>
     <use xlink:href="#m901510029d" x="384.461982" y="61.590362" style="fill: #ff7f0e; stroke: #ff7f0e"/>
    </g>
   </g>
   <g id="line2d_15">
    <path d="M 50.48 391 
L 53.81982 339.475006 
L 72.745465 43.307967 
L 75.555646 -1 
L 75.555646 -1 
" clip-path="url(#pb67bdd7c68)" style="fill: none; stroke: #2ca02c; stroke-width: 1.5; stroke-linecap: square"/>
   </g>
   <g id="line2d_16">
    <path d="M 50.48 391 
L 75.586779 -1 
" clip-path="url(#pb67bdd7c68)" style="fill: none"/>
    <defs>
     <path id="mec785389f7" d="M 0 -4 
L -3.804226 -1.236068 
L -2.351141 3.236068 
L 2.351141 3.236068 
L 3.804226 -1.236068 
z
" style="stroke: #2ca02c; stroke-linejoin: miter"/>
    </defs>
    <g clip-path="url(#pb67bdd7c68)">
     <use xlink:href="#mec785389f7" x="50.48" y="391" style="fill: #2ca02c; stroke: #2ca02c; stroke-linejoin: miter"/>
     <use xlink:href="#mec785389f7" x="75.586779" y="-1" style="fill: #2ca02c; stroke: #2ca02c; stroke-linejoin: miter"/>
    </g>
   </g>
   <g id="line2d_17">
    <path d="M 50.48 391 
L 66.065826 148.9289 
L 69.034555 101.700887 
L 73.116557 38.94411 
L 75.65248 -1 
L 75.65248 -1 
" clip-path="url(#pb67bdd7c68)" style="fill: none; stroke: #d62728; stroke-width: 1.5; stroke-linecap: square"/>
   </g>
   <g id="line2d_18">
    <path d="M 50.48 391 
L 75.649959 -1 
" clip-path="url(#pb67bdd7c68)" style="fill: none"/>
    <defs>
     <path id="m1474fe254e" d="M -0 3.5 
L 3.5 -3.5 
L -3.5 -3.5 
z
" style="stroke: #d62728; stroke-linejoin: miter"/>
    </defs>
    <g clip-path="url(#pb67bdd7c68)">
     <use xlink:href="#m1474fe254e" x="50.48" y="391" style="fill: #d62728; stroke: #d62728; stroke-linejoin: miter"/>
     <use xlink:href="#m1474fe254e" x="75.649959" y="-1" style="fill: #d62728; stroke: #d62728; stroke-linejoin: miter"/>
    </g>
   </g>
   <g id="line2d_19">
    <path d="M 50.48 391 
L 51.222182 390.274335 
L 51.593273 389.533285 
L 51.964364 389.528461 
L 53.077638 388.418457 
L 53.448729 387.912461 
L 54.190911 387.276732 
L 54.933093 386.337135 
L 55.304184 386.332129 
L 56.788549 384.474972 
L 57.15964 384.470184 
L 58.644004 382.569612 
L 59.015095 382.564825 
L 59.386186 382.258728 
L 59.757277 381.592082 
L 60.128368 381.223019 
L 60.499459 381.221009 
L 63.839279 377.576458 
L 64.21037 377.572073 
L 64.952553 376.745179 
L 65.694735 376.012242 
L 66.808008 374.53248 
L 67.179099 374.527656 
L 68.292372 373.1758 
L 68.663463 373.170757 
L 70.147828 371.249318 
L 70.518919 371.244494 
L 70.89001 370.737877 
L 71.261101 370.497305 
L 72.003283 369.645232 
L 72.374374 369.12809 
L 72.745465 369.123157 
L 73.858739 367.583243 
L 74.22983 367.578455 
L 74.972012 366.55751 
L 75.343103 366.552613 
L 76.827467 364.94776 
L 77.56965 363.914061 
L 77.940741 363.909164 
L 79.054014 362.554055 
L 79.425105 362.549122 
L 80.538378 361.00347 
L 80.909469 360.998683 
L 81.651652 359.967542 
L 82.022743 359.962864 
L 84.249289 357.481453 
L 84.62038 357.476739 
L 85.733654 355.937629 
L 86.104745 355.932549 
L 87.218018 354.541079 
L 87.589109 354.535963 
L 88.331291 353.708448 
L 89.073473 352.801669 
L 89.444565 352.289168 
L 89.815656 352.284527 
L 90.186747 351.924015 
L 90.928929 350.891997 
L 91.30002 350.887063 
L 92.413293 349.343349 
L 92.784384 349.338561 
L 93.526567 348.313048 
L 93.897658 348.308261 
L 94.268749 347.712475 
L 95.010931 346.857991 
L 95.382022 346.853167 
L 96.495295 345.305615 
L 96.866386 345.300682 
L 97.608569 344.275388 
L 97.97966 344.270527 
L 99.464024 342.388593 
L 99.835115 342.383184 
L 100.206206 342.060935 
L 101.690571 340.156672 
L 102.061662 340.151592 
L 102.803844 339.129002 
L 103.174935 339.124178 
L 103.917117 338.0964 
L 104.288208 338.091576 
L 105.03039 337.062701 
L 106.143664 336.08053 
L 107.256937 334.687123 
L 107.628028 334.682262 
L 108.37021 333.656859 
L 108.741301 333.651998 
L 109.854575 332.304199 
L 110.596757 331.661088 
L 110.967848 331.153777 
L 111.338939 331.14888 
L 112.452212 329.887581 
L 113.194394 328.853736 
L 113.565485 328.848912 
L 114.307668 327.822632 
L 114.678759 327.817771 
L 115.792032 326.273399 
L 116.163123 326.268612 
L 116.534214 325.757792 
L 117.647487 324.696867 
L 118.018579 324.183197 
L 118.38967 324.178739 
L 119.502943 322.644599 
L 119.874034 322.639994 
L 120.616216 321.614591 
L 120.987307 321.610425 
L 121.729489 320.878913 
L 122.842763 319.335271 
L 123.213854 319.325587 
L 123.584945 318.996796 
L 124.327127 317.968651 
L 124.698218 317.964412 
L 125.811491 316.446315 
L 126.182583 316.442186 
L 126.924765 315.423251 
L 127.295856 315.418719 
L 128.409129 314.046362 
L 129.151311 313.40442 
L 129.893493 312.416987 
L 130.264585 312.41209 
L 131.006767 311.388075 
L 131.377858 311.383361 
L 132.491131 309.858284 
L 132.862222 309.853424 
L 133.233313 309.146287 
L 133.604404 309.141499 
L 134.717678 307.779813 
L 135.088769 307.775099 
L 136.202042 306.231019 
L 136.573133 306.226195 
L 137.315315 305.199732 
L 137.686406 305.194835 
L 138.79968 303.65503 
L 139.170771 303.650279 
L 139.912953 302.813373 
L 141.768408 300.805104 
L 142.139499 300.80039 
L 143.252773 299.257881 
L 143.623864 299.253021 
L 144.366046 298.128253 
L 144.737137 298.123502 
L 145.108228 297.837943 
L 146.592593 295.756694 
L 146.963684 295.751871 
L 147.334775 295.146035 
L 147.705866 295.141138 
L 148.076957 294.52708 
L 148.448048 294.522256 
L 149.19023 293.29319 
L 149.561321 293.288147 
L 149.932412 292.676611 
L 150.303504 292.671531 
L 150.674595 292.05729 
L 151.045686 292.052576 
L 151.787868 290.840759 
L 152.158959 290.834327 
L 153.272232 289.346635 
L 153.643323 289.341629 
L 154.014414 288.729361 
L 154.385506 288.724501 
L 155.127688 287.493607 
L 155.498779 287.488564 
L 155.86987 286.881852 
L 156.240961 286.877028 
L 156.983143 285.760665 
L 157.354234 285.755878 
L 158.096416 284.406361 
L 158.467508 284.401537 
L 158.838599 283.801476 
L 159.20969 283.796579 
L 159.580781 283.189099 
L 159.951872 283.184384 
L 160.694054 281.959448 
L 161.065145 281.954514 
L 161.436236 281.347107 
L 161.807327 281.342466 
L 162.178418 280.733159 
L 162.54951 280.728408 
L 163.291692 279.509392 
L 163.662783 279.504568 
L 164.404965 278.54235 
L 164.776056 278.537819 
L 165.518238 277.322603 
L 165.889329 277.318437 
L 166.26042 276.712455 
L 166.631512 276.708106 
L 167.373694 275.491758 
L 167.744785 275.487445 
L 168.486967 274.863082 
L 168.858058 274.256223 
L 169.60024 273.661863 
L 170.342422 272.544952 
L 170.713514 272.540713 
L 171.084605 271.931113 
L 171.455696 271.926728 
L 172.197878 270.698648 
L 172.568969 270.694409 
L 172.94006 270.087587 
L 173.311151 270.083238 
L 174.053333 268.861116 
L 174.424424 268.856584 
L 174.795516 268.249725 
L 175.166607 268.245413 
L 176.27988 266.797664 
L 176.650971 266.793206 
L 177.393153 265.646731 
L 177.764244 265.642272 
L 178.506426 264.416787 
L 178.877518 264.41211 
L 179.248609 263.685275 
L 179.6197 263.681146 
L 179.990791 263.075639 
L 180.361882 263.070998 
L 180.732973 262.461581 
L 181.475155 261.856001 
L 181.846246 261.245306 
L 182.217337 261.240738 
L 182.588428 260.633952 
L 182.95952 260.629786 
L 183.701702 259.408942 
L 184.072793 259.404447 
L 184.443884 258.793422 
L 184.814975 258.789037 
L 185.557157 257.568815 
L 185.928248 257.564576 
L 186.299339 256.952491 
L 186.67043 256.948179 
L 187.412613 255.721269 
L 187.783704 255.718236 
L 188.154795 255.127932 
L 188.525886 255.123108 
L 189.268068 253.898865 
L 189.639159 253.893822 
L 190.01025 253.163078 
L 190.381341 253.158217 
L 190.752432 252.54701 
L 191.123524 252.542186 
L 191.865706 251.200234 
L 192.236797 251.195337 
L 192.607888 250.584312 
L 192.978979 250.578794 
L 193.35007 249.855029 
L 193.721161 249.850278 
L 194.092252 249.23918 
L 194.463343 249.234649 
L 195.205526 248.00825 
L 195.576617 248.00339 
L 195.947708 247.392657 
L 196.318799 247.387468 
L 197.060981 246.160266 
L 197.432072 246.155588 
L 197.803163 245.545404 
L 198.174254 245.540543 
L 198.916436 244.429297 
L 199.287528 244.426191 
L 200.02971 243.316625 
L 200.400801 243.311765 
L 200.771892 242.704285 
L 201.142983 242.699424 
L 201.514074 241.973028 
L 201.885165 241.968095 
L 202.627347 240.737238 
L 202.998438 240.732633 
L 203.36953 240.01161 
L 203.740621 240.00664 
L 204.111712 239.395724 
L 204.482803 239.390827 
L 205.224985 238.174333 
L 205.596076 238.169472 
L 205.967167 237.555012 
L 206.338258 237.550115 
L 207.08044 236.325581 
L 207.451532 236.320757 
L 207.822623 235.706589 
L 208.193714 235.701802 
L 208.935896 234.475184 
L 209.306987 234.470287 
L 209.678078 233.855462 
L 210.049169 233.850455 
L 211.162442 232.631841 
L 211.533534 232.011534 
L 211.904625 232.006746 
L 212.275716 231.393419 
L 212.646807 231.138119 
L 213.017898 230.520955 
L 213.388989 230.516021 
L 213.76008 229.902365 
L 214.131171 229.897578 
L 214.873353 228.719857 
L 215.244444 228.715106 
L 215.615536 228.101523 
L 215.986627 228.096626 
L 216.357718 227.497588 
L 216.728809 227.224162 
L 217.0999 226.606413 
L 217.470991 226.601735 
L 218.213173 225.37552 
L 218.584264 225.370623 
L 218.955355 224.759086 
L 219.326446 224.754116 
L 220.068629 223.529472 
L 220.43972 223.524575 
L 220.810811 222.915962 
L 221.181902 222.911065 
L 221.552993 222.21036 
L 221.924084 222.205938 
L 222.295175 221.661424 
L 222.666266 221.322949 
L 223.037357 220.705456 
L 223.408448 220.700632 
L 223.77954 219.975551 
L 224.150631 219.970801 
L 224.892813 218.743123 
L 225.263904 218.73819 
L 225.634995 218.129431 
L 226.006086 218.117444 
L 226.377177 217.394958 
L 226.748268 217.389806 
L 227.49045 216.414907 
L 227.861542 216.409754 
L 228.603724 215.191944 
L 228.974815 215.187047 
L 229.345906 214.572404 
L 229.716997 214.567617 
L 230.459179 213.344617 
L 230.83027 213.340158 
L 231.201361 212.725699 
L 231.572452 212.720838 
L 232.314635 211.495646 
L 232.685726 211.490895 
L 233.056817 210.881588 
L 233.427908 210.876983 
L 234.541181 209.426859 
L 234.912272 209.421962 
L 235.654454 208.190849 
L 236.025546 208.186026 
L 236.396637 207.578874 
L 236.767728 207.574014 
L 237.138819 206.969056 
L 237.881001 206.464485 
L 238.623183 205.226429 
L 238.994274 205.220801 
L 239.365365 204.502226 
L 239.736456 204.497438 
L 240.107548 203.885683 
L 240.478639 203.880932 
L 241.220821 202.659869 
L 241.591912 202.654972 
L 241.963003 202.040878 
L 242.334094 202.036054 
L 242.705185 201.426454 
L 243.076276 201.421667 
L 243.818458 200.199873 
L 244.18955 200.195086 
L 244.560641 199.925058 
L 244.931732 199.309977 
L 245.673914 198.510711 
L 246.045005 198.505705 
L 246.787187 197.279964 
L 247.158278 197.275177 
L 247.529369 196.66861 
L 247.90046 196.663896 
L 248.642643 195.441773 
L 249.013734 195.436913 
L 249.755916 194.794094 
L 250.127007 194.180877 
L 250.498098 194.015403 
L 251.24028 192.781038 
L 251.611371 192.776178 
L 251.982462 192.161425 
L 252.353554 192.156382 
L 252.724645 191.548281 
L 253.095736 191.54353 
L 253.837918 190.316584 
L 254.209009 190.311723 
L 254.5801 189.702197 
L 254.951191 189.697263 
L 255.693373 188.471267 
L 256.064464 188.466078 
L 257.177738 187.134066 
L 257.548829 187.129169 
L 258.291011 185.901784 
L 258.662102 185.897069 
L 259.404284 184.794447 
L 259.775375 184.789477 
L 260.146466 184.508669 
L 260.517558 183.81498 
L 260.888649 183.810266 
L 261.25974 183.205417 
L 262.001922 182.531682 
L 262.373013 181.916747 
L 262.744104 181.91196 
L 263.115195 181.299802 
L 263.486286 181.294942 
L 264.228468 180.065729 
L 264.59956 180.060979 
L 264.970651 179.454705 
L 265.341742 179.449808 
L 266.083924 178.219791 
L 266.455015 178.214712 
L 266.826106 177.60862 
L 267.197197 177.603833 
L 268.681562 175.665437 
L 269.052653 175.660687 
L 269.423744 175.050356 
L 269.794835 175.045496 
L 270.537017 173.818842 
L 270.908108 173.814091 
L 271.279199 173.209571 
L 271.65029 173.204747 
L 272.392472 171.977727 
L 272.763564 171.973086 
L 273.134655 171.363889 
L 273.505746 171.358845 
L 273.876837 170.637493 
L 274.247928 170.632632 
L 274.99011 169.404699 
L 275.361201 169.400021 
L 275.732292 168.783807 
L 276.103383 168.779056 
L 276.474474 168.164779 
L 276.845566 168.160028 
L 277.587748 166.937285 
L 277.958839 166.932461 
L 278.32993 166.318074 
L 278.701021 166.31314 
L 279.443203 165.202113 
L 279.814294 165.198605 
L 280.185385 164.837654 
L 280.927568 163.606067 
L 281.298659 163.601243 
L 281.66975 162.985138 
L 282.040841 162.980241 
L 282.783023 161.754793 
L 283.154114 161.750079 
L 283.525205 161.13518 
L 283.896296 161.130649 
L 284.267387 160.52686 
L 285.380661 159.653664 
L 285.751752 159.034234 
L 286.122843 159.029484 
L 286.865025 157.805351 
L 287.236116 157.800527 
L 287.607207 157.189685 
L 287.978298 157.184642 
L 288.72048 155.956453 
L 289.091572 155.951592 
L 289.462663 155.343308 
L 289.833754 155.338412 
L 290.575936 154.001064 
L 290.947027 153.99624 
L 291.318118 153.4757 
L 291.689209 153.472155 
L 292.0603 153.101118 
L 292.802482 151.870627 
L 293.173574 151.865693 
L 293.544665 151.252001 
L 293.915756 151.246994 
L 294.286847 150.635202 
L 294.657938 150.630305 
L 295.029029 150.022606 
L 295.771211 149.521763 
L 296.513393 148.285753 
L 296.884484 148.281002 
L 297.255576 147.558882 
L 297.626667 147.554022 
L 297.997758 146.943399 
L 298.368849 146.938356 
L 299.111031 145.712652 
L 299.482122 145.707755 
L 299.853213 145.100238 
L 300.224304 145.095451 
L 300.966486 143.867298 
L 301.337578 143.86178 
L 301.708669 143.60246 
L 302.07976 142.986173 
L 303.193033 142.10311 
L 303.935215 140.919286 
L 304.306306 140.914389 
L 304.677397 140.300076 
L 305.048488 140.295069 
L 305.790671 139.071192 
L 306.161762 139.066441 
L 306.532853 138.45549 
L 306.903944 138.45052 
L 307.646126 137.781535 
L 308.759399 136.330936 
L 309.13049 136.326039 
L 309.872673 135.099129 
L 310.243764 135.094342 
L 310.614855 134.478785 
L 310.985946 134.473779 
L 311.728128 133.255201 
L 312.099219 133.250377 
L 312.47031 132.982067 
L 312.841401 132.36589 
L 313.212492 132.361321 
L 313.954675 131.04009 
L 314.325766 131.03596 
L 314.696857 130.521961 
L 315.067948 130.518855 
L 315.81013 129.44302 
L 316.181221 129.438123 
L 316.923403 128.213845 
L 317.294494 128.20913 
L 317.665586 127.601431 
L 318.036677 127.596607 
L 318.407768 126.987665 
L 319.14995 126.482108 
L 319.521041 125.869147 
L 320.263223 125.272593 
L 321.005405 124.158935 
L 321.376496 124.154075 
L 321.747588 123.542246 
L 322.118679 123.537422 
L 322.860861 122.308575 
L 323.231952 122.297977 
L 323.603043 121.57794 
L 323.974134 121.573006 
L 324.345225 120.961251 
L 324.716316 120.956463 
L 325.458498 119.734377 
L 325.82959 119.729663 
L 326.571772 118.766714 
L 326.942863 118.761744 
L 327.685045 117.534944 
L 328.056136 117.530193 
L 328.427227 116.920119 
L 328.798318 116.914929 
L 329.540501 115.808507 
L 329.911592 115.803573 
L 330.282683 115.53307 
L 330.653774 114.713888 
L 331.024865 114.709101 
L 331.767047 113.367733 
L 332.138138 113.362982 
L 332.509229 112.750678 
L 332.88032 112.745854 
L 333.251411 112.130773 
L 333.622503 112.125913 
L 333.993594 111.513426 
L 334.364685 111.508602 
L 335.106867 110.168112 
L 335.477958 110.163105 
L 335.849049 109.546928 
L 336.22014 109.542214 
L 336.591231 108.937072 
L 336.962322 108.932175 
L 337.704505 107.701099 
L 338.075596 107.698285 
L 338.446687 107.319721 
L 338.817778 106.749626 
L 339.188869 106.744838 
L 339.931051 105.517234 
L 340.302142 105.5123 
L 340.673233 104.901458 
L 341.044324 104.896744 
L 341.786507 103.878248 
L 342.528689 103.026139 
L 342.89978 103.021461 
L 343.641962 102.310633 
L 344.384144 101.075939 
L 344.755235 101.071152 
L 345.126326 100.45808 
L 345.497417 100.453329 
L 345.868509 99.843364 
L 346.2396 99.574324 
L 346.610691 98.957598 
L 346.981782 98.952884 
L 347.352873 98.339228 
L 347.723964 98.334294 
L 348.466146 97.113706 
L 348.837237 97.108992 
L 349.579419 96.240072 
L 349.950511 95.751874 
L 350.321602 95.746904 
L 351.434875 94.4753 
L 352.177057 93.571846 
L 352.548148 93.566949 
L 352.919239 93.090481 
L 353.29033 92.796663 
L 354.774695 90.982409 
L 355.145786 90.977585 
L 356.259059 89.522491 
L 356.63015 89.51785 
L 358.114515 87.701695 
L 358.485606 87.696652 
L 359.598879 86.243276 
L 359.96997 86.238744 
L 361.083243 85.128996 
L 362.196517 83.67361 
L 362.567608 83.668786 
L 363.680881 82.216213 
L 364.051972 82.211389 
L 365.165245 80.783046 
L 365.536336 80.778222 
L 367.020701 78.963639 
L 367.391792 78.958705 
L 368.876156 77.147558 
L 369.247247 77.142807 
L 370.360521 75.691038 
L 370.731612 75.686288 
L 371.473794 74.722754 
L 372.215976 74.074783 
L 372.587067 73.498695 
L 372.958158 73.493871 
L 373.70034 72.264951 
L 374.071431 72.260054 
L 374.442523 71.651003 
L 374.813614 71.64585 
L 375.555796 70.424714 
L 375.926887 70.419817 
L 376.297978 69.812995 
L 376.669069 69.808207 
L 377.04016 69.198754 
L 377.411251 69.034961 
L 378.153433 67.960479 
L 378.524525 67.955728 
L 379.266707 66.617905 
L 379.637798 66.613227 
L 380.008889 66.002605 
L 380.37998 65.997817 
L 380.751071 65.386939 
L 381.122162 65.382407 
L 381.864344 64.162733 
L 382.235435 64.157982 
L 382.606527 63.549442 
L 382.977618 63.544692 
L 383.348709 63.274372 
L 384.461982 61.615578 
L 384.833073 61.610718 
L 385.204164 60.998451 
L 385.575255 60.99359 
L 386.317437 59.765876 
L 386.688529 59.761089 
L 387.05962 59.152074 
L 387.430711 59.147323 
L 387.801802 58.87408 
L 388.172893 58.061037 
L 388.543984 58.056322 
L 388.915075 57.790936 
L 389.286166 57.08146 
L 389.657257 57.076344 
L 390.028348 56.465794 
L 390.399439 56.192112 
L 390.770531 55.577835 
L 391.141622 55.573121 
L 391.883804 54.346941 
L 392.254895 54.342483 
L 392.625986 53.730471 
L 392.997077 53.725648 
L 393.739259 52.508093 
L 394.11035 52.503196 
L 394.481441 51.906679 
L 394.852533 51.901636 
L 395.965806 50.310889 
L 396.336897 50.305955 
L 396.707988 49.688974 
L 397.079079 49.68415 
L 397.821261 48.466413 
L 398.192352 48.461516 
L 398.563443 47.850235 
L 398.934535 47.845338 
L 399.676717 46.624933 
L 400.047808 46.620109 
L 400.418899 46.337876 
L 401.161081 45.233426 
L 401.532172 45.228493 
L 401.903263 44.506665 
L 402.274354 44.501768 
L 402.645445 43.893046 
L 403.016537 43.888222 
L 403.758719 42.775258 
L 404.12981 42.77047 
L 404.871992 41.549882 
L 405.243083 41.545095 
L 405.614174 40.934326 
L 405.985265 40.929575 
L 406.727447 40.049363 
L 407.098539 39.705479 
L 407.46963 39.11883 
L 407.840721 39.114006 
L 408.582903 37.887754 
L 408.953994 37.882857 
L 409.325085 37.272343 
L 409.696176 37.267556 
L 410.067267 36.663804 
L 410.438358 36.373019 
L 410.809449 35.755197 
L 411.180541 35.750373 
L 411.551632 35.14472 
L 411.922723 34.978114 
L 412.293814 34.3657 
L 412.664905 34.360876 
L 413.035996 33.636819 
L 413.407087 33.632068 
L 414.149269 32.41053 
L 414.52036 32.405633 
L 414.891451 31.794024 
L 415.262543 31.789163 
L 416.004725 30.56134 
L 416.375816 30.556333 
L 416.746907 29.947976 
L 417.117998 29.943079 
L 417.86018 28.811624 
L 418.231271 28.807969 
L 418.602362 28.470261 
L 419.344545 27.239295 
L 419.715636 27.23458 
L 420.086727 26.623921 
L 420.457818 26.619024 
L 420.828909 26.351701 
L 421.2 25.533432 
L 421.2 25.533432 
" clip-path="url(#pb67bdd7c68)" style="fill: none; stroke: #9467bd; stroke-width: 1.5; stroke-linecap: square"/>
   </g>
   <g id="line2d_20">
    <path d="M 50.48 391 
L 87.589109 354.535963 
L 124.698218 317.964412 
L 161.807327 281.342466 
L 198.916436 244.429297 
L 236.025546 208.186026 
L 273.134655 171.363889 
L 310.243764 135.094342 
L 347.352873 98.339228 
L 384.461982 61.615578 
" clip-path="url(#pb67bdd7c68)" style="fill: none"/>
    <defs>
     <path id="m666e992826" d="M 0 -3 
L -3 3 
L 3 3 
z
" style="stroke: #9467bd; stroke-linejoin: miter"/>
    </defs>
    <g clip-path="url(#pb67bdd7c68)">
     <use xlink:href="#m666e992826" x="50.48" y="391" style="fill: #9467bd; stroke: #9467bd; stroke-linejoin: miter"/>
     <use xlink:href="#m666e992826" x="87.589109" y="354.535963" style="fill: #9467bd; stroke: #9467bd; stroke-linejoin: miter"/>
     <use xlink:href="#m666e992826" x="124.698218" y="317.964412" style="fill: #9467bd; stroke: #9467bd; stroke-linejoin: miter"/>
     <use xlink:href="#m666e992826" x="161.807327" y="281.342466" style="fill: #9467bd; stroke: #9467bd; stroke-linejoin: miter"/>
     <use xlink:href="#m666e992826" x="198.916436" y="244.429297" style="fill: #9467bd; stroke: #9467bd; stroke-linejoin: miter"/>
     <use xlink:href="#m666e992826" x="236.025546" y="208.186026" style="fill: #9467bd; stroke: #9467bd; stroke-linejoin: miter"/>
     <use xlink:href="#m666e992826" x="273.134655" y="171.363889" style="fill: #9467bd; stroke: #9467bd; stroke-linejoin: miter"/>
     <use xlink:href="#m666e992826" x="310.243764" y="135.094342" style="fill: #9467bd; stroke: #9467bd; stroke-linejoin: miter"/>
     <use xlink:href="#m666e992826" x="347.352873" y="98.339228" style="fill: #9467bd; stroke: #9467bd; stroke-linejoin: miter"/>
     <use xlink:href="#m666e992826" x="384.461982" y="61.615578" style="fill: #9467bd; stroke: #9467bd; stroke-linejoin: miter"/>
    </g>
   </g>
   <g id="line2d_21">
    <path d="M 50.48 391 
L 421.2 25.920037 
L 421.2 25.920037 
" clip-path="url(#pb67bdd7c68)" style="fill: none; stroke: #8c564b; stroke-width: 1.5; stroke-linecap: square"/>
   </g>
   <g id="line2d_22">
    <path d="M 50.48 391 
L 87.589109 354.455492 
L 124.698218 317.910947 
L 161.807327 281.366403 
L 198.916436 244.821858 
L 236.025546 208.277314 
L 273.134655 171.732769 
L 310.243764 135.188225 
L 347.352873 98.64368 
L 384.461982 62.099136 
" clip-path="url(#pb67bdd7c68)" style="fill: none"/>
    <defs>
     <path id="mf6fbb19152" d="M -2.5 -0 
L 2.5 2.5 
L 2.5 -2.5 
z
" style="stroke: #8c564b; stroke-linejoin: miter"/>
    </defs>
    <g clip-path="url(#pb67bdd7c68)">
     <use xlink:href="#mf6fbb19152" x="50.48" y="391" style="fill: #8c564b; stroke: #8c564b; stroke-linejoin: miter"/>
     <use xlink:href="#mf6fbb19152" x="87.589109" y="354.455492" style="fill: #8c564b; stroke: #8c564b; stroke-linejoin: miter"/>
     <use xlink:href="#mf6fbb19152" x="124.698218" y="317.910947" style="fill: #8c564b; stroke: #8c564b; stroke-linejoin: miter"/>
     <use xlink:href="#mf6fbb19152" x="161.807327" y="281.366403" style="fill: #8c564b; stroke: #8c564b; stroke-linejoin: miter"/>
     <use xlink:href="#mf6fbb19152" x="198.916436" y="244.821858" style="fill: #8c564b; stroke: #8c564b; stroke-linejoin: miter"/>
     <use xlink:href="#mf6fbb19152" x="236.025546" y="208.277314" style="fill: #8c564b; stroke: #8c564b; stroke-linejoin: miter"/>
     <use xlink:href="#mf6fbb19152" x="273.134655" y="171.732769" style="fill: #8c564b; stroke: #8c564b; stroke-linejoin: miter"/>
     <use xlink:href="#mf6fbb19152" x="310.243764" y="135.188225" style="fill: #8c564b; stroke: #8c564b; stroke-linejoin: miter"/>
     <use xlink:href="#mf6fbb19152" x="347.352873" y="98.64368" style="fill: #8c564b; stroke: #8c564b; stroke-linejoin: miter"/>
     <use xlink:href="#mf6fbb19152" x="384.461982" y="62.099136" style="fill: #8c564b; stroke: #8c564b; stroke-linejoin: miter"/>
    </g>
   </g>
   <g id="patch_3">
    <path d="M 50.48 391 
L 50.48 25.92 
" style="fill: none; stroke: #000000; stroke-width: 0.8; stroke-linejoin: miter; stroke-linecap: square"/>
   </g>
   <g id="patch_4">
    <path d="M 421.2 391 
L 421.2 25.92 
" style="fill: none; stroke: #000000; stroke-width: 0.8; stroke-linejoin: miter; stroke-linecap: square"/>
   </g>
   <g id="patch_5">
    <path d="M 50.48 391 
L 421.2 391 
" style="fill: none; stroke: #000000; stroke-width: 0.8; stroke-linejoin: miter; stroke-linecap: square"/>
   </g>
   <g id="patch_6">
    <path d="M 50.48 25.92 
L 421.2 25.92 
" style="fill: none; stroke: #000000; stroke-width: 0.8; stroke-linejoin: miter; stroke-linecap: square"/>
   </g>
   <g id="text_13">
    <!-- Interval: 1.0 [ms] -->
    <g transform="translate(183.833125 19.92)scale(0.12 -0.12)">
     <defs>
      <path id="DejaVuSans-76" d="M 191 3500 
L 800 3500 
L 1894 563 
L 2988 3500 
L 3597 3500 
L 2284 0 
L 1503 0 
L 191 3500 
z
" transform="scale(0.015625)"/>
      <path id="DejaVuSans-6c" d="M 603 4863 
L 1178 4863 
L 1178 0 
L 603 0 
L 603 4863 
z
" transform="scale(0.015625)"/>
      <path id="DejaVuSans-3a" d="M 750 794 
L 1409 794 
L 1409 0 
L 750 0 
L 750 794 
z
M 750 3309 
L 1409 3309 
L 1409 2516 
L 750 2516 
L 750 3309 
z
" transform="scale(0.015625)"/>
      <path id="DejaVuSans-31" d="M 794 531 
L 1825 531 
L 1825 4091 
L 703 3866 
L 703 4441 
L 1819 4666 
L 2450 4666 
L 2450 531 
L 3481 531 
L 3481 0 
L 794 0 
L 794 531 
z
" transform="scale(0.015625)"/>
      <path id="DejaVuSans-2e" d="M 684 794 
L 1344 794 
L 1344 0 
L 684 0 
L 684 794 
z
" transform="scale(0.015625)"/>
     </defs>
     <use xlink:href="#DejaVuSans-49"/>
     <use xlink:href="#DejaVuSans-6e" x="29.492188"/>
     <use xlink:href="#DejaVuSans-74" x="92.871094"/>
     <use xlink:href="#DejaVuSans-65" x="132.080078"/>
     <use xlink:href="#DejaVuSans-72" x="193.603516"/>
     <use xlink:href="#DejaVuSans-76" x="234.716797"/>
     <use xlink:href="#DejaVuSans-61" x="293.896484"/>
     <use xlink:href="#DejaVuSans-6c" x="355.175781"/>
     <use xlink:href="#DejaVuSans-3a" x="382.958984"/>
     <use xlink:href="#DejaVuSans-20" x="416.650391"/>
     <use xlink:href="#DejaVuSans-31" x="448.4375"/>
     <use xlink:href="#DejaVuSans-2e" x="512.060547"/>
     <use xlink:href="#DejaVuSans-30" x="543.847656"/>
     <use xlink:href="#DejaVuSans-20" x="607.470703"/>
     <use xlink:href="#DejaVuSans-5b" x="639.257812"/>
     <use xlink:href="#DejaVuSans-6d" x="678.271484"/>
     <use xlink:href="#DejaVuSans-73" x="775.683594"/>
     <use xlink:href="#DejaVuSans-5d" x="827.783203"/>
    </g>
   </g>
   <g id="legend_1">
    <g id="patch_7">
     <path d="M 202.782812 386 
L 414.2 386 
Q 416.2 386 416.2 384 
L 416.2 296.93125 
Q 416.2 294.93125 414.2 294.93125 
L 202.782812 294.93125 
Q 200.782812 294.93125 200.782812 296.93125 
L 200.782812 384 
Q 200.782812 386 202.782812 386 
z
" style="fill: #ffffff; opacity: 0.8; stroke: #cccccc; stroke-linejoin: miter"/>
    </g>
    <g id="line2d_23">
     <path d="M 204.782812 303.029688 
L 214.782812 303.029688 
L 224.782812 303.029688 
" style="fill: none"/>
     <g>
      <use xlink:href="#mce2038ed7a" x="214.782812" y="303.029688" style="fill: #1f77b4; stroke: #1f77b4; stroke-linejoin: miter"/>
     </g>
    </g>
    <g id="text_14">
     <!-- StdSleepTimer -->
     <g transform="translate(232.782812 306.529688)scale(0.1 -0.1)">
      <defs>
       <path id="DejaVuSans-53" d="M 3425 4513 
L 3425 3897 
Q 3066 4069 2747 4153 
Q 2428 4238 2131 4238 
Q 1616 4238 1336 4038 
Q 1056 3838 1056 3469 
Q 1056 3159 1242 3001 
Q 1428 2844 1947 2747 
L 2328 2669 
Q 3034 2534 3370 2195 
Q 3706 1856 3706 1288 
Q 3706 609 3251 259 
Q 2797 -91 1919 -91 
Q 1588 -91 1214 -16 
Q 841 59 441 206 
L 441 856 
Q 825 641 1194 531 
Q 1563 422 1919 422 
Q 2459 422 2753 634 
Q 3047 847 3047 1241 
Q 3047 1584 2836 1778 
Q 2625 1972 2144 2069 
L 1759 2144 
Q 1053 2284 737 2584 
Q 422 2884 422 3419 
Q 422 4038 858 4394 
Q 1294 4750 2059 4750 
Q 2388 4750 2728 4690 
Q 3069 4631 3425 4513 
z
" transform="scale(0.015625)"/>
       <path id="DejaVuSans-64" d="M 2906 2969 
L 2906 4863 
L 3481 4863 
L 3481 0 
L 2906 0 
L 2906 525 
Q 2725 213 2448 61 
Q 2172 -91 1784 -91 
Q 1150 -91 751 415 
Q 353 922 353 1747 
Q 353 2572 751 3078 
Q 1150 3584 1784 3584 
Q 2172 3584 2448 3432 
Q 2725 3281 2906 2969 
z
M 947 1747 
Q 947 1113 1208 752 
Q 1469 391 1925 391 
Q 2381 391 2643 752 
Q 2906 1113 2906 1747 
Q 2906 2381 2643 2742 
Q 2381 3103 1925 3103 
Q 1469 3103 1208 2742 
Q 947 2381 947 1747 
z
" transform="scale(0.015625)"/>
       <path id="DejaVuSans-70" d="M 1159 525 
L 1159 -1331 
L 581 -1331 
L 581 3500 
L 1159 3500 
L 1159 2969 
Q 1341 3281 1617 3432 
Q 1894 3584 2278 3584 
Q 2916 3584 3314 3078 
Q 3713 2572 3713 1747 
Q 3713 922 3314 415 
Q 2916 -91 2278 -91 
Q 1894 -91 1617 61 
Q 1341 213 1159 525 
z
M 3116 1747 
Q 3116 2381 2855 2742 
Q 2594 3103 2138 3103 
Q 1681 3103 1420 2742 
Q 1159 2381 1159 1747 
Q 1159 1113 1420 752 
Q 1681 391 2138 391 
Q 2594 391 2855 752 
Q 3116 1113 3116 1747 
z
" transform="scale(0.015625)"/>
      </defs>
      <use xlink:href="#DejaVuSans-53"/>
      <use xlink:href="#DejaVuSans-74" x="63.476562"/>
      <use xlink:href="#DejaVuSans-64" x="102.685547"/>
      <use xlink:href="#DejaVuSans-53" x="166.162109"/>
      <use xlink:href="#DejaVuSans-6c" x="229.638672"/>
      <use xlink:href="#DejaVuSans-65" x="257.421875"/>
      <use xlink:href="#DejaVuSans-65" x="318.945312"/>
      <use xlink:href="#DejaVuSans-70" x="380.46875"/>
      <use xlink:href="#DejaVuSans-54" x="443.945312"/>
      <use xlink:href="#DejaVuSans-69" x="501.904297"/>
      <use xlink:href="#DejaVuSans-6d" x="529.6875"/>
      <use xlink:href="#DejaVuSans-65" x="627.099609"/>
      <use xlink:href="#DejaVuSans-72" x="688.623047"/>
     </g>
    </g>
    <g id="line2d_24">
     <path d="M 204.782812 317.707812 
L 214.782812 317.707812 
L 224.782812 317.707812 
" style="fill: none"/>
     <g>
      <use xlink:href="#m901510029d" x="214.782812" y="317.707812" style="fill: #ff7f0e; stroke: #ff7f0e"/>
     </g>
    </g>
    <g id="text_15">
     <!-- MultiMediaTimer -->
     <g transform="translate(232.782812 321.207812)scale(0.1 -0.1)">
      <defs>
       <path id="DejaVuSans-4d" d="M 628 4666 
L 1569 4666 
L 2759 1491 
L 3956 4666 
L 4897 4666 
L 4897 0 
L 4281 0 
L 4281 4097 
L 3078 897 
L 2444 897 
L 1241 4097 
L 1241 0 
L 628 0 
L 628 4666 
z
" transform="scale(0.015625)"/>
       <path id="DejaVuSans-75" d="M 544 1381 
L 544 3500 
L 1119 3500 
L 1119 1403 
Q 1119 906 1312 657 
Q 1506 409 1894 409 
Q 2359 409 2629 706 
Q 2900 1003 2900 1516 
L 2900 3500 
L 3475 3500 
L 3475 0 
L 2900 0 
L 2900 538 
Q 2691 219 2414 64 
Q 2138 -91 1772 -91 
Q 1169 -91 856 284 
Q 544 659 544 1381 
z
M 1991 3584 
L 1991 3584 
z
" transform="scale(0.015625)"/>
      </defs>
      <use xlink:href="#DejaVuSans-4d"/>
      <use xlink:href="#DejaVuSans-75" x="86.279297"/>
      <use xlink:href="#DejaVuSans-6c" x="149.658203"/>
      <use xlink:href="#DejaVuSans-74" x="177.441406"/>
      <use xlink:href="#DejaVuSans-69" x="216.650391"/>
      <use xlink:href="#DejaVuSans-4d" x="244.433594"/>
      <use xlink:href="#DejaVuSans-65" x="330.712891"/>
      <use xlink:href="#DejaVuSans-64" x="392.236328"/>
      <use xlink:href="#DejaVuSans-69" x="455.712891"/>
      <use xlink:href="#DejaVuSans-61" x="483.496094"/>
      <use xlink:href="#DejaVuSans-54" x="544.775391"/>
      <use xlink:href="#DejaVuSans-69" x="602.734375"/>
      <use xlink:href="#DejaVuSans-6d" x="630.517578"/>
      <use xlink:href="#DejaVuSans-65" x="727.929688"/>
      <use xlink:href="#DejaVuSans-72" x="789.453125"/>
     </g>
    </g>
    <g id="line2d_25">
     <path d="M 204.782812 332.385938 
L 214.782812 332.385938 
L 224.782812 332.385938 
" style="fill: none"/>
     <g>
      <use xlink:href="#mec785389f7" x="214.782812" y="332.385938" style="fill: #2ca02c; stroke: #2ca02c; stroke-linejoin: miter"/>
     </g>
    </g>
    <g id="text_16">
     <!-- TimerQueueTimer -->
     <g transform="translate(232.782812 335.885938)scale(0.1 -0.1)">
      <defs>
       <path id="DejaVuSans-51" d="M 2522 4238 
Q 1834 4238 1429 3725 
Q 1025 3213 1025 2328 
Q 1025 1447 1429 934 
Q 1834 422 2522 422 
Q 3209 422 3611 934 
Q 4013 1447 4013 2328 
Q 4013 3213 3611 3725 
Q 3209 4238 2522 4238 
z
M 3406 84 
L 4238 -825 
L 3475 -825 
L 2784 -78 
Q 2681 -84 2626 -87 
Q 2572 -91 2522 -91 
Q 1538 -91 948 567 
Q 359 1225 359 2328 
Q 359 3434 948 4092 
Q 1538 4750 2522 4750 
Q 3503 4750 4090 4092 
Q 4678 3434 4678 2328 
Q 4678 1516 4351 937 
Q 4025 359 3406 84 
z
" transform="scale(0.015625)"/>
      </defs>
      <use xlink:href="#DejaVuSans-54"/>
      <use xlink:href="#DejaVuSans-69" x="57.958984"/>
      <use xlink:href="#DejaVuSans-6d" x="85.742188"/>
      <use xlink:href="#DejaVuSans-65" x="183.154297"/>
      <use xlink:href="#DejaVuSans-72" x="244.677734"/>
      <use xlink:href="#DejaVuSans-51" x="285.791016"/>
      <use xlink:href="#DejaVuSans-75" x="364.501953"/>
      <use xlink:href="#DejaVuSans-65" x="427.880859"/>
      <use xlink:href="#DejaVuSans-75" x="489.404297"/>
      <use xlink:href="#DejaVuSans-65" x="552.783203"/>
      <use xlink:href="#DejaVuSans-54" x="614.306641"/>
      <use xlink:href="#DejaVuSans-69" x="672.265625"/>
      <use xlink:href="#DejaVuSans-6d" x="700.048828"/>
      <use xlink:href="#DejaVuSans-65" x="797.460938"/>
      <use xlink:href="#DejaVuSans-72" x="858.984375"/>
     </g>
    </g>
    <g id="line2d_26">
     <path d="M 204.782812 347.064062 
L 214.782812 347.064062 
L 224.782812 347.064062 
" style="fill: none"/>
     <g>
      <use xlink:href="#m1474fe254e" x="214.782812" y="347.064062" style="fill: #d62728; stroke: #d62728; stroke-linejoin: miter"/>
     </g>
    </g>
    <g id="text_17">
     <!-- ThreadPoolTimer -->
     <g transform="translate(232.782812 350.564062)scale(0.1 -0.1)">
      <defs>
       <path id="DejaVuSans-68" d="M 3513 2113 
L 3513 0 
L 2938 0 
L 2938 2094 
Q 2938 2591 2744 2837 
Q 2550 3084 2163 3084 
Q 1697 3084 1428 2787 
Q 1159 2491 1159 1978 
L 1159 0 
L 581 0 
L 581 4863 
L 1159 4863 
L 1159 2956 
Q 1366 3272 1645 3428 
Q 1925 3584 2291 3584 
Q 2894 3584 3203 3211 
Q 3513 2838 3513 2113 
z
" transform="scale(0.015625)"/>
       <path id="DejaVuSans-50" d="M 1259 4147 
L 1259 2394 
L 2053 2394 
Q 2494 2394 2734 2622 
Q 2975 2850 2975 3272 
Q 2975 3691 2734 3919 
Q 2494 4147 2053 4147 
L 1259 4147 
z
M 628 4666 
L 2053 4666 
Q 2838 4666 3239 4311 
Q 3641 3956 3641 3272 
Q 3641 2581 3239 2228 
Q 2838 1875 2053 1875 
L 1259 1875 
L 1259 0 
L 628 0 
L 628 4666 
z
" transform="scale(0.015625)"/>
      </defs>
      <use xlink:href="#DejaVuSans-54"/>
      <use xlink:href="#DejaVuSans-68" x="61.083984"/>
      <use xlink:href="#DejaVuSans-72" x="124.462891"/>
      <use xlink:href="#DejaVuSans-65" x="163.326172"/>
      <use xlink:href="#DejaVuSans-61" x="224.849609"/>
      <use xlink:href="#DejaVuSans-64" x="286.128906"/>
      <use xlink:href="#DejaVuSans-50" x="349.605469"/>
      <use xlink:href="#DejaVuSans-6f" x="406.283203"/>
      <use xlink:href="#DejaVuSans-6f" x="467.464844"/>
      <use xlink:href="#DejaVuSans-6c" x="528.646484"/>
      <use xlink:href="#DejaVuSans-54" x="556.429688"/>
      <use xlink:href="#DejaVuSans-69" x="614.388672"/>
      <use xlink:href="#DejaVuSans-6d" x="642.171875"/>
      <use xlink:href="#DejaVuSans-65" x="739.583984"/>
      <use xlink:href="#DejaVuSans-72" x="801.107422"/>
     </g>
    </g>
    <g id="line2d_27">
     <path d="M 204.782812 361.742188 
L 214.782812 361.742188 
L 224.782812 361.742188 
" style="fill: none"/>
     <g>
      <use xlink:href="#m666e992826" x="214.782812" y="361.742188" style="fill: #9467bd; stroke: #9467bd; stroke-linejoin: miter"/>
     </g>
    </g>
    <g id="text_18">
     <!-- WaitableTimer -->
     <g transform="translate(232.782812 365.242188)scale(0.1 -0.1)">
      <defs>
       <path id="DejaVuSans-57" d="M 213 4666 
L 850 4666 
L 1831 722 
L 2809 4666 
L 3519 4666 
L 4500 722 
L 5478 4666 
L 6119 4666 
L 4947 0 
L 4153 0 
L 3169 4050 
L 2175 0 
L 1381 0 
L 213 4666 
z
" transform="scale(0.015625)"/>
       <path id="DejaVuSans-62" d="M 3116 1747 
Q 3116 2381 2855 2742 
Q 2594 3103 2138 3103 
Q 1681 3103 1420 2742 
Q 1159 2381 1159 1747 
Q 1159 1113 1420 752 
Q 1681 391 2138 391 
Q 2594 391 2855 752 
Q 3116 1113 3116 1747 
z
M 1159 2969 
Q 1341 3281 1617 3432 
Q 1894 3584 2278 3584 
Q 2916 3584 3314 3078 
Q 3713 2572 3713 1747 
Q 3713 922 3314 415 
Q 2916 -91 2278 -91 
Q 1894 -91 1617 61 
Q 1341 213 1159 525 
L 1159 0 
L 581 0 
L 581 4863 
L 1159 4863 
L 1159 2969 
z
" transform="scale(0.015625)"/>
      </defs>
      <use xlink:href="#DejaVuSans-57"/>
      <use xlink:href="#DejaVuSans-61" x="92.501953"/>
      <use xlink:href="#DejaVuSans-69" x="153.78125"/>
      <use xlink:href="#DejaVuSans-74" x="181.564453"/>
      <use xlink:href="#DejaVuSans-61" x="220.773438"/>
      <use xlink:href="#DejaVuSans-62" x="282.052734"/>
      <use xlink:href="#DejaVuSans-6c" x="345.529297"/>
      <use xlink:href="#DejaVuSans-65" x="373.3125"/>
      <use xlink:href="#DejaVuSans-54" x="434.835938"/>
      <use xlink:href="#DejaVuSans-69" x="492.794922"/>
      <use xlink:href="#DejaVuSans-6d" x="520.578125"/>
      <use xlink:href="#DejaVuSans-65" x="617.990234"/>
      <use xlink:href="#DejaVuSans-72" x="679.513672"/>
     </g>
    </g>
    <g id="line2d_28">
     <path d="M 204.782812 376.420313 
L 214.782812 376.420313 
L 224.782812 376.420313 
" style="fill: none"/>
     <g>
      <use xlink:href="#mf6fbb19152" x="214.782812" y="376.420313" style="fill: #8c564b; stroke: #8c564b; stroke-linejoin: miter"/>
     </g>
    </g>
    <g id="text_19">
     <!-- PerformanceCounterSoftSleepTimer -->
     <g transform="translate(232.782812 379.920313)scale(0.1 -0.1)">
      <defs>
       <path id="DejaVuSans-66" d="M 2375 4863 
L 2375 4384 
L 1825 4384 
Q 1516 4384 1395 4259 
Q 1275 4134 1275 3809 
L 1275 3500 
L 2222 3500 
L 2222 3053 
L 1275 3053 
L 1275 0 
L 697 0 
L 697 3053 
L 147 3053 
L 147 3500 
L 697 3500 
L 697 3744 
Q 697 4328 969 4595 
Q 1241 4863 1831 4863 
L 2375 4863 
z
" transform="scale(0.015625)"/>
       <path id="DejaVuSans-63" d="M 3122 3366 
L 3122 2828 
Q 2878 2963 2633 3030 
Q 2388 3097 2138 3097 
Q 1578 3097 1268 2742 
Q 959 2388 959 1747 
Q 959 1106 1268 751 
Q 1578 397 2138 397 
Q 2388 397 2633 464 
Q 2878 531 3122 666 
L 3122 134 
Q 2881 22 2623 -34 
Q 2366 -91 2075 -91 
Q 1284 -91 818 406 
Q 353 903 353 1747 
Q 353 2603 823 3093 
Q 1294 3584 2113 3584 
Q 2378 3584 2631 3529 
Q 2884 3475 3122 3366 
z
" transform="scale(0.015625)"/>
       <path id="DejaVuSans-43" d="M 4122 4306 
L 4122 3641 
Q 3803 3938 3442 4084 
Q 3081 4231 2675 4231 
Q 1875 4231 1450 3742 
Q 1025 3253 1025 2328 
Q 1025 1406 1450 917 
Q 1875 428 2675 428 
Q 3081 428 3442 575 
Q 3803 722 4122 1019 
L 4122 359 
Q 3791 134 3420 21 
Q 3050 -91 2638 -91 
Q 1578 -91 968 557 
Q 359 1206 359 2328 
Q 359 3453 968 4101 
Q 1578 4750 2638 4750 
Q 3056 4750 3426 4639 
Q 3797 4528 4122 4306 
z
" transform="scale(0.015625)"/>
      </defs>
      <use xlink:href="#DejaVuSans-50"/>
      <use xlink:href="#DejaVuSans-65" x="56.677734"/>
      <use xlink:href="#DejaVuSans-72" x="118.201172"/>
      <use xlink:href="#DejaVuSans-66" x="159.314453"/>
      <use xlink:href="#DejaVuSans-6f" x="194.519531"/>
      <use xlink:href="#DejaVuSans-72" x="255.701172"/>
      <use xlink:href="#DejaVuSans-6d" x="295.064453"/>
      <use xlink:href="#DejaVuSans-61" x="392.476562"/>
      <use xlink:href="#DejaVuSans-6e" x="453.755859"/>
      <use xlink:href="#DejaVuSans-63" x="517.134766"/>
      <use xlink:href="#DejaVuSans-65" x="572.115234"/>
      <use xlink:href="#DejaVuSans-43" x="633.638672"/>
      <use xlink:href="#DejaVuSans-6f" x="703.462891"/>
      <use xlink:href="#DejaVuSans-75" x="764.644531"/>
      <use xlink:href="#DejaVuSans-6e" x="828.023438"/>
      <use xlink:href="#DejaVuSans-74" x="891.402344"/>
      <use xlink:href="#DejaVuSans-65" x="930.611328"/>
      <use xlink:href="#DejaVuSans-72" x="992.134766"/>
      <use xlink:href="#DejaVuSans-53" x="1033.248047"/>
      <use xlink:href="#DejaVuSans-6f" x="1096.724609"/>
      <use xlink:href="#DejaVuSans-66" x="1157.90625"/>
      <use xlink:href="#DejaVuSans-74" x="1191.361328"/>
      <use xlink:href="#DejaVuSans-53" x="1230.570312"/>
      <use xlink:href="#DejaVuSans-6c" x="1294.046875"/>
      <use xlink:href="#DejaVuSans-65" x="1321.830078"/>
      <use xlink:href="#DejaVuSans-65" x="1383.353516"/>
      <use xlink:href="#DejaVuSans-70" x="1444.876953"/>
      <use xlink:href="#DejaVuSans-54" x="1508.353516"/>
      <use xlink:href="#DejaVuSans-69" x="1566.3125"/>
      <use xlink:href="#DejaVuSans-6d" x="1594.095703"/>
      <use xlink:href="#DejaVuSans-65" x="1691.507812"/>
      <use xlink:href="#DejaVuSans-72" x="1753.03125"/>
     </g>
    </g>
   </g>
  </g>
 </g>
 <defs>
  <clipPath id="pb67bdd7c68">
   <rect x="50.48" y="25.92" width="370.72" height="365.08"/>
  </clipPath>
 </defs>
</svg>
