<?xml version="1.0" encoding="utf-8" standalone="no"?>
<!DOCTYPE svg PUBLIC "-//W3C//DTD SVG 1.1//EN"
  "http://www.w3.org/Graphics/SVG/1.1/DTD/svg11.dtd">
<svg xmlns:xlink="http://www.w3.org/1999/xlink" width="432pt" height="432pt" viewBox="0 0 432 432" xmlns="http://www.w3.org/2000/svg" version="1.1">
 <metadata>
  <rdf:RDF xmlns:dc="http://purl.org/dc/elements/1.1/" xmlns:cc="http://creativecommons.org/ns#" xmlns:rdf="http://www.w3.org/1999/02/22-rdf-syntax-ns#">
   <cc:Work>
    <dc:type rdf:resource="http://purl.org/dc/dcmitype/StillImage"/>
    <dc:date>2022-08-03T16:02:06.227254</dc:date>
    <dc:format>image/svg+xml</dc:format>
    <dc:creator>
     <cc:Agent>
      <dc:title>Matplotlib v3.5.1, https://matplotlib.org/</dc:title>
     </cc:Agent>
    </dc:creator>
   </cc:Work>
  </rdf:RDF>
 </metadata>
 <defs>
  <style type="text/css">*{stroke-linejoin: round; stroke-linecap: butt}</style>
 </defs>
 <g id="figure_1">
  <g id="patch_1">
   <path d="M 0 432 
L 432 432 
L 432 0 
L 0 0 
z
" style="fill: #ffffff"/>
  </g>
  <g id="axes_1">
   <g id="patch_2">
    <path d="M 63.2 391 
L 421.2 391 
L 421.2 25.92 
L 63.2 25.92 
z
" style="fill: #ffffff"/>
   </g>
   <g id="matplotlib.axis_1">
    <g id="xtick_1">
     <g id="line2d_1">
      <defs>
       <path id="m823c98617e" d="M 0 0 
L 0 3.5 
" style="stroke: #000000; stroke-width: 0.8"/>
      </defs>
      <g>
       <use xlink:href="#m823c98617e" x="63.2" y="391" style="stroke: #000000; stroke-width: 0.8"/>
      </g>
     </g>
     <g id="text_1">
      <!-- 0 -->
      <g transform="translate(60.01875 405.598437)scale(0.1 -0.1)">
       <defs>
        <path id="DejaVuSans-30" d="M 2034 4250 
Q 1547 4250 1301 3770 
Q 1056 3291 1056 2328 
Q 1056 1369 1301 889 
Q 1547 409 2034 409 
Q 2525 409 2770 889 
Q 3016 1369 3016 2328 
Q 3016 3291 2770 3770 
Q 2525 4250 2034 4250 
z
M 2034 4750 
Q 2819 4750 3233 4129 
Q 3647 3509 3647 2328 
Q 3647 1150 3233 529 
Q 2819 -91 2034 -91 
Q 1250 -91 836 529 
Q 422 1150 422 2328 
Q 422 3509 836 4129 
Q 1250 4750 2034 4750 
z
" transform="scale(0.015625)"/>
       </defs>
       <use xlink:href="#DejaVuSans-30"/>
      </g>
     </g>
    </g>
    <g id="xtick_2">
     <g id="line2d_2">
      <g>
       <use xlink:href="#m823c98617e" x="134.871672" y="391" style="stroke: #000000; stroke-width: 0.8"/>
      </g>
     </g>
     <g id="text_2">
      <!-- 200 -->
      <g transform="translate(125.327922 405.598437)scale(0.1 -0.1)">
       <defs>
        <path id="DejaVuSans-32" d="M 1228 531 
L 3431 531 
L 3431 0 
L 469 0 
L 469 531 
Q 828 903 1448 1529 
Q 2069 2156 2228 2338 
Q 2531 2678 2651 2914 
Q 2772 3150 2772 3378 
Q 2772 3750 2511 3984 
Q 2250 4219 1831 4219 
Q 1534 4219 1204 4116 
Q 875 4013 500 3803 
L 500 4441 
Q 881 4594 1212 4672 
Q 1544 4750 1819 4750 
Q 2544 4750 2975 4387 
Q 3406 4025 3406 3419 
Q 3406 3131 3298 2873 
Q 3191 2616 2906 2266 
Q 2828 2175 2409 1742 
Q 1991 1309 1228 531 
z
" transform="scale(0.015625)"/>
       </defs>
       <use xlink:href="#DejaVuSans-32"/>
       <use xlink:href="#DejaVuSans-30" x="63.623047"/>
       <use xlink:href="#DejaVuSans-30" x="127.246094"/>
      </g>
     </g>
    </g>
    <g id="xtick_3">
     <g id="line2d_3">
      <g>
       <use xlink:href="#m823c98617e" x="206.543343" y="391" style="stroke: #000000; stroke-width: 0.8"/>
      </g>
     </g>
     <g id="text_3">
      <!-- 400 -->
      <g transform="translate(196.999593 405.598437)scale(0.1 -0.1)">
       <defs>
        <path id="DejaVuSans-34" d="M 2419 4116 
L 825 1625 
L 2419 1625 
L 2419 4116 
z
M 2253 4666 
L 3047 4666 
L 3047 1625 
L 3713 1625 
L 3713 1100 
L 3047 1100 
L 3047 0 
L 2419 0 
L 2419 1100 
L 313 1100 
L 313 1709 
L 2253 4666 
z
" transform="scale(0.015625)"/>
       </defs>
       <use xlink:href="#DejaVuSans-34"/>
       <use xlink:href="#DejaVuSans-30" x="63.623047"/>
       <use xlink:href="#DejaVuSans-30" x="127.246094"/>
      </g>
     </g>
    </g>
    <g id="xtick_4">
     <g id="line2d_4">
      <g>
       <use xlink:href="#m823c98617e" x="278.215015" y="391" style="stroke: #000000; stroke-width: 0.8"/>
      </g>
     </g>
     <g id="text_4">
      <!-- 600 -->
      <g transform="translate(268.671265 405.598437)scale(0.1 -0.1)">
       <defs>
        <path id="DejaVuSans-36" d="M 2113 2584 
Q 1688 2584 1439 2293 
Q 1191 2003 1191 1497 
Q 1191 994 1439 701 
Q 1688 409 2113 409 
Q 2538 409 2786 701 
Q 3034 994 3034 1497 
Q 3034 2003 2786 2293 
Q 2538 2584 2113 2584 
z
M 3366 4563 
L 3366 3988 
Q 3128 4100 2886 4159 
Q 2644 4219 2406 4219 
Q 1781 4219 1451 3797 
Q 1122 3375 1075 2522 
Q 1259 2794 1537 2939 
Q 1816 3084 2150 3084 
Q 2853 3084 3261 2657 
Q 3669 2231 3669 1497 
Q 3669 778 3244 343 
Q 2819 -91 2113 -91 
Q 1303 -91 875 529 
Q 447 1150 447 2328 
Q 447 3434 972 4092 
Q 1497 4750 2381 4750 
Q 2619 4750 2861 4703 
Q 3103 4656 3366 4563 
z
" transform="scale(0.015625)"/>
       </defs>
       <use xlink:href="#DejaVuSans-36"/>
       <use xlink:href="#DejaVuSans-30" x="63.623047"/>
       <use xlink:href="#DejaVuSans-30" x="127.246094"/>
      </g>
     </g>
    </g>
    <g id="xtick_5">
     <g id="line2d_5">
      <g>
       <use xlink:href="#m823c98617e" x="349.886687" y="391" style="stroke: #000000; stroke-width: 0.8"/>
      </g>
     </g>
     <g id="text_5">
      <!-- 800 -->
      <g transform="translate(340.342937 405.598437)scale(0.1 -0.1)">
       <defs>
        <path id="DejaVuSans-38" d="M 2034 2216 
Q 1584 2216 1326 1975 
Q 1069 1734 1069 1313 
Q 1069 891 1326 650 
Q 1584 409 2034 409 
Q 2484 409 2743 651 
Q 3003 894 3003 1313 
Q 3003 1734 2745 1975 
Q 2488 2216 2034 2216 
z
M 1403 2484 
Q 997 2584 770 2862 
Q 544 3141 544 3541 
Q 544 4100 942 4425 
Q 1341 4750 2034 4750 
Q 2731 4750 3128 4425 
Q 3525 4100 3525 3541 
Q 3525 3141 3298 2862 
Q 3072 2584 2669 2484 
Q 3125 2378 3379 2068 
Q 3634 1759 3634 1313 
Q 3634 634 3220 271 
Q 2806 -91 2034 -91 
Q 1263 -91 848 271 
Q 434 634 434 1313 
Q 434 1759 690 2068 
Q 947 2378 1403 2484 
z
M 1172 3481 
Q 1172 3119 1398 2916 
Q 1625 2713 2034 2713 
Q 2441 2713 2670 2916 
Q 2900 3119 2900 3481 
Q 2900 3844 2670 4047 
Q 2441 4250 2034 4250 
Q 1625 4250 1398 4047 
Q 1172 3844 1172 3481 
z
" transform="scale(0.015625)"/>
       </defs>
       <use xlink:href="#DejaVuSans-38"/>
       <use xlink:href="#DejaVuSans-30" x="63.623047"/>
       <use xlink:href="#DejaVuSans-30" x="127.246094"/>
      </g>
     </g>
    </g>
    <g id="text_6">
     <!-- Iteration -->
     <g transform="translate(220.991406 419.276563)scale(0.1 -0.1)">
      <defs>
       <path id="DejaVuSans-49" d="M 628 4666 
L 1259 4666 
L 1259 0 
L 628 0 
L 628 4666 
z
" transform="scale(0.015625)"/>
       <path id="DejaVuSans-74" d="M 1172 4494 
L 1172 3500 
L 2356 3500 
L 2356 3053 
L 1172 3053 
L 1172 1153 
Q 1172 725 1289 603 
Q 1406 481 1766 481 
L 2356 481 
L 2356 0 
L 1766 0 
Q 1100 0 847 248 
Q 594 497 594 1153 
L 594 3053 
L 172 3053 
L 172 3500 
L 594 3500 
L 594 4494 
L 1172 4494 
z
" transform="scale(0.015625)"/>
       <path id="DejaVuSans-65" d="M 3597 1894 
L 3597 1613 
L 953 1613 
Q 991 1019 1311 708 
Q 1631 397 2203 397 
Q 2534 397 2845 478 
Q 3156 559 3463 722 
L 3463 178 
Q 3153 47 2828 -22 
Q 2503 -91 2169 -91 
Q 1331 -91 842 396 
Q 353 884 353 1716 
Q 353 2575 817 3079 
Q 1281 3584 2069 3584 
Q 2775 3584 3186 3129 
Q 3597 2675 3597 1894 
z
M 3022 2063 
Q 3016 2534 2758 2815 
Q 2500 3097 2075 3097 
Q 1594 3097 1305 2825 
Q 1016 2553 972 2059 
L 3022 2063 
z
" transform="scale(0.015625)"/>
       <path id="DejaVuSans-72" d="M 2631 2963 
Q 2534 3019 2420 3045 
Q 2306 3072 2169 3072 
Q 1681 3072 1420 2755 
Q 1159 2438 1159 1844 
L 1159 0 
L 581 0 
L 581 3500 
L 1159 3500 
L 1159 2956 
Q 1341 3275 1631 3429 
Q 1922 3584 2338 3584 
Q 2397 3584 2469 3576 
Q 2541 3569 2628 3553 
L 2631 2963 
z
" transform="scale(0.015625)"/>
       <path id="DejaVuSans-61" d="M 2194 1759 
Q 1497 1759 1228 1600 
Q 959 1441 959 1056 
Q 959 750 1161 570 
Q 1363 391 1709 391 
Q 2188 391 2477 730 
Q 2766 1069 2766 1631 
L 2766 1759 
L 2194 1759 
z
M 3341 1997 
L 3341 0 
L 2766 0 
L 2766 531 
Q 2569 213 2275 61 
Q 1981 -91 1556 -91 
Q 1019 -91 701 211 
Q 384 513 384 1019 
Q 384 1609 779 1909 
Q 1175 2209 1959 2209 
L 2766 2209 
L 2766 2266 
Q 2766 2663 2505 2880 
Q 2244 3097 1772 3097 
Q 1472 3097 1187 3025 
Q 903 2953 641 2809 
L 641 3341 
Q 956 3463 1253 3523 
Q 1550 3584 1831 3584 
Q 2591 3584 2966 3190 
Q 3341 2797 3341 1997 
z
" transform="scale(0.015625)"/>
       <path id="DejaVuSans-69" d="M 603 3500 
L 1178 3500 
L 1178 0 
L 603 0 
L 603 3500 
z
M 603 4863 
L 1178 4863 
L 1178 4134 
L 603 4134 
L 603 4863 
z
" transform="scale(0.015625)"/>
       <path id="DejaVuSans-6f" d="M 1959 3097 
Q 1497 3097 1228 2736 
Q 959 2375 959 1747 
Q 959 1119 1226 758 
Q 1494 397 1959 397 
Q 2419 397 2687 759 
Q 2956 1122 2956 1747 
Q 2956 2369 2687 2733 
Q 2419 3097 1959 3097 
z
M 1959 3584 
Q 2709 3584 3137 3096 
Q 3566 2609 3566 1747 
Q 3566 888 3137 398 
Q 2709 -91 1959 -91 
Q 1206 -91 779 398 
Q 353 888 353 1747 
Q 353 2609 779 3096 
Q 1206 3584 1959 3584 
z
" transform="scale(0.015625)"/>
       <path id="DejaVuSans-6e" d="M 3513 2113 
L 3513 0 
L 2938 0 
L 2938 2094 
Q 2938 2591 2744 2837 
Q 2550 3084 2163 3084 
Q 1697 3084 1428 2787 
Q 1159 2491 1159 1978 
L 1159 0 
L 581 0 
L 581 3500 
L 1159 3500 
L 1159 2956 
Q 1366 3272 1645 3428 
Q 1925 3584 2291 3584 
Q 2894 3584 3203 3211 
Q 3513 2838 3513 2113 
z
" transform="scale(0.015625)"/>
      </defs>
      <use xlink:href="#DejaVuSans-49"/>
      <use xlink:href="#DejaVuSans-74" x="29.492188"/>
      <use xlink:href="#DejaVuSans-65" x="68.701172"/>
      <use xlink:href="#DejaVuSans-72" x="130.224609"/>
      <use xlink:href="#DejaVuSans-61" x="171.337891"/>
      <use xlink:href="#DejaVuSans-74" x="232.617188"/>
      <use xlink:href="#DejaVuSans-69" x="271.826172"/>
      <use xlink:href="#DejaVuSans-6f" x="299.609375"/>
      <use xlink:href="#DejaVuSans-6e" x="360.791016"/>
     </g>
    </g>
   </g>
   <g id="matplotlib.axis_2">
    <g id="ytick_1">
     <g id="line2d_6">
      <defs>
       <path id="m46f830fc45" d="M 0 0 
L -3.5 0 
" style="stroke: #000000; stroke-width: 0.8"/>
      </defs>
      <g>
       <use xlink:href="#m46f830fc45" x="63.2" y="391" style="stroke: #000000; stroke-width: 0.8"/>
      </g>
     </g>
     <g id="text_7">
      <!-- 0 -->
      <g transform="translate(49.8375 394.799219)scale(0.1 -0.1)">
       <use xlink:href="#DejaVuSans-30"/>
      </g>
     </g>
    </g>
    <g id="ytick_2">
     <g id="line2d_7">
      <g>
       <use xlink:href="#m46f830fc45" x="63.2" y="317.910911" style="stroke: #000000; stroke-width: 0.8"/>
      </g>
     </g>
     <g id="text_8">
      <!-- 20000 -->
      <g transform="translate(24.3875 321.71013)scale(0.1 -0.1)">
       <use xlink:href="#DejaVuSans-32"/>
       <use xlink:href="#DejaVuSans-30" x="63.623047"/>
       <use xlink:href="#DejaVuSans-30" x="127.246094"/>
       <use xlink:href="#DejaVuSans-30" x="190.869141"/>
       <use xlink:href="#DejaVuSans-30" x="254.492188"/>
      </g>
     </g>
    </g>
    <g id="ytick_3">
     <g id="line2d_8">
      <g>
       <use xlink:href="#m46f830fc45" x="63.2" y="244.821822" style="stroke: #000000; stroke-width: 0.8"/>
      </g>
     </g>
     <g id="text_9">
      <!-- 40000 -->
      <g transform="translate(24.3875 248.621041)scale(0.1 -0.1)">
       <use xlink:href="#DejaVuSans-34"/>
       <use xlink:href="#DejaVuSans-30" x="63.623047"/>
       <use xlink:href="#DejaVuSans-30" x="127.246094"/>
       <use xlink:href="#DejaVuSans-30" x="190.869141"/>
       <use xlink:href="#DejaVuSans-30" x="254.492188"/>
      </g>
     </g>
    </g>
    <g id="ytick_4">
     <g id="line2d_9">
      <g>
       <use xlink:href="#m46f830fc45" x="63.2" y="171.732733" style="stroke: #000000; stroke-width: 0.8"/>
      </g>
     </g>
     <g id="text_10">
      <!-- 60000 -->
      <g transform="translate(24.3875 175.531951)scale(0.1 -0.1)">
       <use xlink:href="#DejaVuSans-36"/>
       <use xlink:href="#DejaVuSans-30" x="63.623047"/>
       <use xlink:href="#DejaVuSans-30" x="127.246094"/>
       <use xlink:href="#DejaVuSans-30" x="190.869141"/>
       <use xlink:href="#DejaVuSans-30" x="254.492188"/>
      </g>
     </g>
    </g>
    <g id="ytick_5">
     <g id="line2d_10">
      <g>
       <use xlink:href="#m46f830fc45" x="63.2" y="98.643644" style="stroke: #000000; stroke-width: 0.8"/>
      </g>
     </g>
     <g id="text_11">
      <!-- 80000 -->
      <g transform="translate(24.3875 102.442862)scale(0.1 -0.1)">
       <use xlink:href="#DejaVuSans-38"/>
       <use xlink:href="#DejaVuSans-30" x="63.623047"/>
       <use xlink:href="#DejaVuSans-30" x="127.246094"/>
       <use xlink:href="#DejaVuSans-30" x="190.869141"/>
       <use xlink:href="#DejaVuSans-30" x="254.492188"/>
      </g>
     </g>
    </g>
    <g id="text_12">
     <!-- Time [us] -->
     <g transform="translate(18.307812 231.957656)rotate(-90)scale(0.1 -0.1)">
      <defs>
       <path id="DejaVuSans-54" d="M -19 4666 
L 3928 4666 
L 3928 4134 
L 2272 4134 
L 2272 0 
L 1638 0 
L 1638 4134 
L -19 4134 
L -19 4666 
z
" transform="scale(0.015625)"/>
       <path id="DejaVuSans-6d" d="M 3328 2828 
Q 3544 3216 3844 3400 
Q 4144 3584 4550 3584 
Q 5097 3584 5394 3201 
Q 5691 2819 5691 2113 
L 5691 0 
L 5113 0 
L 5113 2094 
Q 5113 2597 4934 2840 
Q 4756 3084 4391 3084 
Q 3944 3084 3684 2787 
Q 3425 2491 3425 1978 
L 3425 0 
L 2847 0 
L 2847 2094 
Q 2847 2600 2669 2842 
Q 2491 3084 2119 3084 
Q 1678 3084 1418 2786 
Q 1159 2488 1159 1978 
L 1159 0 
L 581 0 
L 581 3500 
L 1159 3500 
L 1159 2956 
Q 1356 3278 1631 3431 
Q 1906 3584 2284 3584 
Q 2666 3584 2933 3390 
Q 3200 3197 3328 2828 
z
" transform="scale(0.015625)"/>
       <path id="DejaVuSans-20" transform="scale(0.015625)"/>
       <path id="DejaVuSans-5b" d="M 550 4863 
L 1875 4863 
L 1875 4416 
L 1125 4416 
L 1125 -397 
L 1875 -397 
L 1875 -844 
L 550 -844 
L 550 4863 
z
" transform="scale(0.015625)"/>
       <path id="DejaVuSans-75" d="M 544 1381 
L 544 3500 
L 1119 3500 
L 1119 1403 
Q 1119 906 1312 657 
Q 1506 409 1894 409 
Q 2359 409 2629 706 
Q 2900 1003 2900 1516 
L 2900 3500 
L 3475 3500 
L 3475 0 
L 2900 0 
L 2900 538 
Q 2691 219 2414 64 
Q 2138 -91 1772 -91 
Q 1169 -91 856 284 
Q 544 659 544 1381 
z
M 1991 3584 
L 1991 3584 
z
" transform="scale(0.015625)"/>
       <path id="DejaVuSans-73" d="M 2834 3397 
L 2834 2853 
Q 2591 2978 2328 3040 
Q 2066 3103 1784 3103 
Q 1356 3103 1142 2972 
Q 928 2841 928 2578 
Q 928 2378 1081 2264 
Q 1234 2150 1697 2047 
L 1894 2003 
Q 2506 1872 2764 1633 
Q 3022 1394 3022 966 
Q 3022 478 2636 193 
Q 2250 -91 1575 -91 
Q 1294 -91 989 -36 
Q 684 19 347 128 
L 347 722 
Q 666 556 975 473 
Q 1284 391 1588 391 
Q 1994 391 2212 530 
Q 2431 669 2431 922 
Q 2431 1156 2273 1281 
Q 2116 1406 1581 1522 
L 1381 1569 
Q 847 1681 609 1914 
Q 372 2147 372 2553 
Q 372 3047 722 3315 
Q 1072 3584 1716 3584 
Q 2034 3584 2315 3537 
Q 2597 3491 2834 3397 
z
" transform="scale(0.015625)"/>
       <path id="DejaVuSans-5d" d="M 1947 4863 
L 1947 -844 
L 622 -844 
L 622 -397 
L 1369 -397 
L 1369 4416 
L 622 4416 
L 622 4863 
L 1947 4863 
z
" transform="scale(0.015625)"/>
      </defs>
      <use xlink:href="#DejaVuSans-54"/>
      <use xlink:href="#DejaVuSans-69" x="57.958984"/>
      <use xlink:href="#DejaVuSans-6d" x="85.742188"/>
      <use xlink:href="#DejaVuSans-65" x="183.154297"/>
      <use xlink:href="#DejaVuSans-20" x="244.677734"/>
      <use xlink:href="#DejaVuSans-5b" x="276.464844"/>
      <use xlink:href="#DejaVuSans-75" x="315.478516"/>
      <use xlink:href="#DejaVuSans-73" x="378.857422"/>
      <use xlink:href="#DejaVuSans-5d" x="430.957031"/>
     </g>
    </g>
   </g>
   <g id="line2d_11">
    <path d="M 63.2 391 
L 67.858659 390.997442 
L 68.217017 383.747004 
L 75.025826 383.744081 
L 75.384184 376.476833 
L 82.192993 376.473909 
L 82.551351 369.289617 
L 89.001802 369.285597 
L 89.36016 361.987286 
L 96.168969 361.982901 
L 96.527327 354.411602 
L 103.694494 354.403562 
L 104.052853 347.079305 
L 110.861662 347.074188 
L 111.22002 340.154113 
L 117.67047 340.148632 
L 118.028829 332.879556 
L 124.837638 332.874806 
L 125.195996 325.654334 
L 132.004805 325.650315 
L 132.363163 318.361505 
L 139.171972 318.357851 
L 139.53033 311.06356 
L 146.339139 311.059905 
L 146.697497 303.695449 
L 153.506306 303.690698 
L 153.864665 296.495808 
L 160.315115 296.490326 
L 160.673473 289.091152 
L 167.840641 289.085305 
L 168.198999 281.817326 
L 175.007808 281.813672 
L 175.366166 274.646921 
L 181.816617 274.643632 
L 182.174975 267.357746 
L 188.983784 267.354092 
L 189.342142 260.060897 
L 196.150951 260.057242 
L 196.509309 252.773184 
L 203.318118 252.77026 
L 203.676476 245.426634 
L 210.485285 245.42371 
L 210.843644 238.132708 
L 217.652452 238.128688 
L 218.010811 230.846092 
L 224.81962 230.842437 
L 225.177978 223.469941 
L 231.986787 223.464825 
L 232.345145 216.021797 
L 239.512312 216.017777 
L 239.870671 208.832023 
L 246.321121 208.829465 
L 246.679479 200.775779 
L 254.205005 200.772855 
L 254.563363 196.382759 
L 258.505305 196.380932 
L 258.863664 191.951002 
L 262.805606 191.949175 
L 263.163964 183.175926 
L 264.955756 183.147421 
L 271.764565 183.145229 
L 272.122923 177.173485 
L 277.498298 177.170196 
L 277.856657 173.027506 
L 281.44024 173.025679 
L 281.798599 168.67432 
L 285.740541 168.672127 
L 286.098899 163.800739 
L 290.399199 163.795623 
L 290.757558 157.688664 
L 296.491291 157.683913 
L 296.84965 149.149666 
L 305.091892 149.144915 
L 305.45025 144.191302 
L 309.750551 144.188013 
L 310.108909 135.567521 
L 318.351151 135.56277 
L 318.70951 130.635469 
L 323.00981 130.632545 
L 323.368168 125.644215 
L 328.026827 125.640926 
L 328.385185 121.401759 
L 331.968769 121.398835 
L 332.327127 114.561716 
L 338.777578 114.558062 
L 339.135936 110.21255 
L 343.077878 110.209627 
L 343.436236 103.519417 
L 349.528328 103.514666 
L 349.886687 96.258016 
L 350.961762 96.207584 
L 356.695495 96.205392 
L 357.053854 91.286496 
L 361.712513 91.283207 
L 362.070871 86.251754 
L 366.72953 86.248465 
L 367.087888 81.283889 
L 371.388188 81.280965 
L 371.746547 76.342335 
L 376.405205 76.339046 
L 376.763564 71.326597 
L 381.422222 71.322577 
L 381.780581 66.417202 
L 386.080881 66.413548 
L 386.439239 61.450799 
L 391.097898 61.447144 
L 391.456256 55.389155 
L 396.831632 55.386232 
L 397.18999 51.044009 
L 401.131932 51.038527 
L 401.49029 44.269016 
L 407.940741 44.265361 
L 408.299099 39.321615 
L 412.599399 39.318326 
L 412.957758 34.359963 
L 417.616416 34.356674 
L 417.974775 27.096003 
L 421.2 27.09308 
L 421.2 27.09308 
" clip-path="url(#p9367c4cb0f)" style="fill: none; stroke: #1f77b4; stroke-width: 1.5; stroke-linecap: square"/>
   </g>
   <g id="line2d_12">
    <path d="M 63.2 391 
L 99.035836 354.405755 
L 134.871672 318.359678 
L 170.707508 281.815499 
L 206.543343 245.425172 
L 242.379179 208.830562 
L 278.215015 173.026775 
L 314.050851 135.564232 
L 349.886687 96.258016 
L 385.722523 66.413548 
" clip-path="url(#p9367c4cb0f)" style="fill: none"/>
    <defs>
     <path id="m9e12183d7d" d="M -5 5 
L 5 5 
L 5 -5 
L -5 -5 
z
" style="stroke: #1f77b4; stroke-linejoin: miter"/>
    </defs>
    <g clip-path="url(#p9367c4cb0f)">
     <use xlink:href="#m9e12183d7d" x="63.2" y="391" style="fill: #1f77b4; stroke: #1f77b4; stroke-linejoin: miter"/>
     <use xlink:href="#m9e12183d7d" x="99.035836" y="354.405755" style="fill: #1f77b4; stroke: #1f77b4; stroke-linejoin: miter"/>
     <use xlink:href="#m9e12183d7d" x="134.871672" y="318.359678" style="fill: #1f77b4; stroke: #1f77b4; stroke-linejoin: miter"/>
     <use xlink:href="#m9e12183d7d" x="170.707508" y="281.815499" style="fill: #1f77b4; stroke: #1f77b4; stroke-linejoin: miter"/>
     <use xlink:href="#m9e12183d7d" x="206.543343" y="245.425172" style="fill: #1f77b4; stroke: #1f77b4; stroke-linejoin: miter"/>
     <use xlink:href="#m9e12183d7d" x="242.379179" y="208.830562" style="fill: #1f77b4; stroke: #1f77b4; stroke-linejoin: miter"/>
     <use xlink:href="#m9e12183d7d" x="278.215015" y="173.026775" style="fill: #1f77b4; stroke: #1f77b4; stroke-linejoin: miter"/>
     <use xlink:href="#m9e12183d7d" x="314.050851" y="135.564232" style="fill: #1f77b4; stroke: #1f77b4; stroke-linejoin: miter"/>
     <use xlink:href="#m9e12183d7d" x="349.886687" y="96.258016" style="fill: #1f77b4; stroke: #1f77b4; stroke-linejoin: miter"/>
     <use xlink:href="#m9e12183d7d" x="385.722523" y="66.413548" style="fill: #1f77b4; stroke: #1f77b4; stroke-linejoin: miter"/>
    </g>
   </g>
   <g id="line2d_13">
    <path d="M 63.2 391 
L 63.916717 382.359042 
L 64.275075 379.913116 
L 64.633433 376.241851 
L 65.35015 365.9531 
L 65.708509 365.917286 
L 66.425225 355.609898 
L 66.783584 355.57518 
L 67.5003 345.363173 
L 67.858659 342.43632 
L 68.575375 333.264005 
L 68.933734 333.229288 
L 69.292092 328.140825 
L 70.725526 314.99356 
L 71.083884 311.169539 
L 71.800601 300.782117 
L 72.158959 300.742649 
L 73.234034 285.214507 
L 73.592392 285.174308 
L 74.309109 274.993363 
L 74.667467 274.953895 
L 75.025826 269.825234 
L 77.534334 245.613377 
L 77.892693 241.964038 
L 78.967768 226.648585 
L 79.326126 226.609848 
L 79.684484 223.493329 
L 81.476276 201.794275 
L 81.834635 201.754442 
L 82.551351 192.280999 
L 83.268068 182.93327 
L 83.626426 182.894168 
L 84.343143 172.873653 
L 84.701502 172.834916 
L 85.776577 159.253502 
L 87.568368 141.040066 
L 87.926727 135.965491 
L 88.285085 135.926023 
L 89.36016 121.945542 
L 89.718519 121.907535 
L 90.435235 111.617322 
L 91.51031 101.994778 
L 92.227027 93.192659 
L 92.585385 89.545148 
L 92.943744 84.406255 
L 93.302102 84.365325 
L 94.018819 74.063783 
L 94.377177 74.023949 
L 94.735536 70.0987 
L 95.452252 59.767557 
L 95.810611 59.726993 
L 96.168969 54.582252 
L 96.527327 51.11856 
L 97.244044 40.80642 
L 97.602402 40.766587 
L 97.960761 37.338343 
L 98.677477 26.257672 
L 99.035836 26.217838 
L 99.752553 15.925067 
L 100.110911 15.884503 
L 100.469269 10.626839 
L 100.827628 7.323578 
L 101.403265 -1 
L 101.403265 -1 
" clip-path="url(#p9367c4cb0f)" style="fill: none; stroke: #ff7f0e; stroke-width: 1.5; stroke-linecap: square"/>
   </g>
   <g id="line2d_14">
    <path d="M 63.2 391 
L 99.035836 26.217838 
L 101.693546 -1 
" clip-path="url(#p9367c4cb0f)" style="fill: none"/>
    <defs>
     <path id="md361c8bad1" d="M 0 4.5 
C 1.193414 4.5 2.338109 4.025852 3.181981 3.181981 
C 4.025852 2.338109 4.5 1.193414 4.5 0 
C 4.5 -1.193414 4.025852 -2.338109 3.181981 -3.181981 
C 2.338109 -4.025852 1.193414 -4.5 0 -4.5 
C -1.193414 -4.5 -2.338109 -4.025852 -3.181981 -3.181981 
C -4.025852 -2.338109 -4.5 -1.193414 -4.5 0 
C -4.5 1.193414 -4.025852 2.338109 -3.181981 3.181981 
C -2.338109 4.025852 -1.193414 4.5 0 4.5 
z
" style="stroke: #ff7f0e"/>
    </defs>
    <g clip-path="url(#p9367c4cb0f)">
     <use xlink:href="#md361c8bad1" x="63.2" y="391" style="fill: #ff7f0e; stroke: #ff7f0e"/>
     <use xlink:href="#md361c8bad1" x="99.035836" y="26.217838" style="fill: #ff7f0e; stroke: #ff7f0e"/>
     <use xlink:href="#md361c8bad1" x="101.693546" y="-1" style="fill: #ff7f0e; stroke: #ff7f0e"/>
    </g>
   </g>
   <g id="line2d_15">
    <path d="M 63.2 391 
L 65.668722 -1 
L 65.668722 -1 
" clip-path="url(#p9367c4cb0f)" style="fill: none; stroke: #2ca02c; stroke-width: 1.5; stroke-linecap: square"/>
   </g>
   <g id="line2d_16">
    <path d="M 63.2 391 
L 65.635328 -1 
" clip-path="url(#p9367c4cb0f)" style="fill: none"/>
    <defs>
     <path id="mddcf86eb01" d="M 0 -4 
L -3.804226 -1.236068 
L -2.351141 3.236068 
L 2.351141 3.236068 
L 3.804226 -1.236068 
z
" style="stroke: #2ca02c; stroke-linejoin: miter"/>
    </defs>
    <g clip-path="url(#p9367c4cb0f)">
     <use xlink:href="#mddcf86eb01" x="63.2" y="391" style="fill: #2ca02c; stroke: #2ca02c; stroke-linejoin: miter"/>
     <use xlink:href="#mddcf86eb01" x="65.635328" y="-1" style="fill: #2ca02c; stroke: #2ca02c; stroke-linejoin: miter"/>
    </g>
   </g>
   <g id="line2d_17">
    <path d="M 63.2 391 
L 65.644323 -1 
L 65.644323 -1 
" clip-path="url(#p9367c4cb0f)" style="fill: none; stroke: #d62728; stroke-width: 1.5; stroke-linecap: square"/>
   </g>
   <g id="line2d_18">
    <path d="M 63.2 391 
L 65.617593 -1 
" clip-path="url(#p9367c4cb0f)" style="fill: none"/>
    <defs>
     <path id="m287e0a924f" d="M -0 3.5 
L 3.5 -3.5 
L -3.5 -3.5 
z
" style="stroke: #d62728; stroke-linejoin: miter"/>
    </defs>
    <g clip-path="url(#p9367c4cb0f)">
     <use xlink:href="#m287e0a924f" x="63.2" y="391" style="fill: #d62728; stroke: #d62728; stroke-linejoin: miter"/>
     <use xlink:href="#m287e0a924f" x="65.617593" y="-1" style="fill: #d62728; stroke: #d62728; stroke-linejoin: miter"/>
    </g>
   </g>
   <g id="line2d_19">
    <path d="M 63.2 391 
L 63.916717 390.899137 
L 67.141942 390.826413 
L 67.5003 387.46797 
L 68.933734 387.405479 
L 70.725526 387.370761 
L 71.083884 382.738009 
L 72.517317 382.677711 
L 75.384184 382.623625 
L 75.742543 379.242889 
L 77.175976 379.181129 
L 78.609409 379.154086 
L 78.967768 375.282922 
L 80.042843 375.224816 
L 82.551351 375.176943 
L 82.90971 370.290572 
L 84.343143 370.226254 
L 87.21001 370.172168 
L 87.568368 366.709572 
L 89.001802 366.64635 
L 90.793594 366.612364 
L 91.151952 363.275847 
L 92.227027 363.211528 
L 94.018819 363.175349 
L 94.377177 360.300024 
L 97.244044 360.231686 
L 97.602402 356.673344 
L 100.469269 356.605371 
L 100.827628 356.597697 
L 101.185986 353.032776 
L 104.052853 352.964073 
L 104.411211 352.957129 
L 104.76957 349.574566 
L 107.994795 349.502939 
L 108.353153 344.631916 
L 109.786587 344.567598 
L 112.653453 344.513512 
L 113.011812 339.468538 
L 114.445245 339.404219 
L 117.67047 339.343555 
L 118.028829 334.338049 
L 119.462262 334.275923 
L 122.687487 334.214529 
L 123.045846 329.203541 
L 124.120921 329.144704 
L 127.704505 329.076366 
L 128.062863 323.988634 
L 129.137938 323.930528 
L 133.07988 323.855977 
L 133.438238 318.870571 
L 134.513313 318.811734 
L 138.096897 318.743761 
L 138.455255 313.759085 
L 139.888689 313.697325 
L 143.113914 313.636661 
L 143.472272 308.595707 
L 144.547347 308.537966 
L 147.772573 308.477302 
L 148.130931 305.38271 
L 149.206006 305.323508 
L 150.997798 305.289156 
L 151.356156 302.420044 
L 153.864665 302.356456 
L 154.223023 298.953428 
L 157.448248 298.881801 
L 157.806607 294.88931 
L 161.031832 294.815124 
L 161.39019 294.808546 
L 161.748549 291.23047 
L 163.898699 291.170171 
L 164.973774 291.149341 
L 165.332132 287.644354 
L 168.198999 287.575284 
L 168.557357 287.568706 
L 168.915716 283.944949 
L 172.140941 283.872591 
L 172.499299 280.18415 
L 173.932733 280.123852 
L 175.724525 280.090596 
L 176.082883 275.478309 
L 177.516316 275.418011 
L 180.383183 275.363925 
L 180.741542 270.741405 
L 182.174975 270.681107 
L 185.041842 270.627021 
L 185.4002 266.062242 
L 186.833634 266.000847 
L 189.700501 265.946396 
L 190.058859 262.331775 
L 191.492292 262.270746 
L 193.284084 262.236759 
L 193.642442 257.636897 
L 195.075876 257.574406 
L 197.942743 257.52032 
L 198.301101 252.938365 
L 199.734535 252.878798 
L 202.243043 252.832021 
L 202.601401 249.297798 
L 203.676476 249.232383 
L 205.826627 249.187433 
L 206.184985 245.588526 
L 207.618418 245.52969 
L 209.768569 245.48876 
L 210.126927 240.717869 
L 211.56036 240.654647 
L 214.427227 240.600927 
L 214.785586 235.634889 
L 216.219019 235.570936 
L 219.444244 235.510637 
L 219.802603 232.09957 
L 221.236036 232.035617 
L 223.027828 232.00163 
L 223.386186 227.065924 
L 224.81962 227.000875 
L 228.044845 226.940211 
L 228.403203 222.0955 
L 229.836637 222.034106 
L 232.703504 221.98002 
L 233.061862 217.118133 
L 234.495295 217.056373 
L 237.720521 216.994978 
L 238.078879 212.183524 
L 239.153954 212.123956 
L 242.737538 212.056349 
L 243.095896 207.205426 
L 244.170971 207.148051 
L 247.396196 207.086656 
L 247.754555 202.21271 
L 249.187988 202.15095 
L 252.413213 202.090286 
L 252.771572 197.219994 
L 254.205005 197.158234 
L 257.071872 197.104148 
L 257.43023 193.657998 
L 258.863664 193.59843 
L 260.655455 193.564809 
L 261.013814 191.043966 
L 263.163964 190.981841 
L 263.522322 187.234198 
L 265.314114 187.176823 
L 266.747548 187.14978 
L 267.105906 182.861643 
L 268.180981 182.801344 
L 271.047848 182.747258 
L 271.406206 179.059914 
L 272.83964 178.995961 
L 274.98979 178.955762 
L 275.348148 174.915397 
L 276.781582 174.850713 
L 278.931732 174.809418 
L 279.29009 170.301283 
L 280.723524 170.23733 
L 283.59039 170.183244 
L 283.948749 165.147771 
L 285.023824 165.088204 
L 288.607407 165.020962 
L 288.965766 160.024957 
L 290.040841 159.966851 
L 293.624424 159.899244 
L 293.982783 154.895199 
L 295.057858 154.836363 
L 298.641441 154.768755 
L 298.9998 151.366824 
L 300.074875 151.309449 
L 302.225025 151.268519 
L 302.583383 146.276168 
L 303.658458 146.21587 
L 307.242042 146.148993 
L 307.6004 141.240696 
L 309.033834 141.177108 
L 311.900701 141.122657 
L 312.259059 137.558102 
L 313.334134 137.4989 
L 315.484284 137.458335 
L 315.842643 133.806804 
L 316.917718 133.749795 
L 319.426226 133.702287 
L 319.784585 128.669007 
L 321.218018 128.60615 
L 324.443243 128.54439 
L 324.801602 123.494299 
L 325.876677 123.436194 
L 329.46026 123.367855 
L 329.818619 118.353213 
L 330.893694 118.29328 
L 334.477277 118.225672 
L 334.835636 114.031455 
L 336.269069 113.97006 
L 338.777578 113.923283 
L 339.135936 109.573751 
L 340.211011 109.516742 
L 343.077878 109.462291 
L 343.436236 104.452034 
L 344.511311 104.392101 
L 348.094895 104.325224 
L 348.453253 99.290848 
L 349.886687 99.226895 
L 353.111912 99.166231 
L 353.47027 94.232352 
L 354.545345 94.175342 
L 358.128929 94.107735 
L 358.487287 89.064588 
L 359.920721 89.001731 
L 363.145946 88.941067 
L 363.504304 83.94689 
L 364.937738 83.882571 
L 368.162963 83.821542 
L 368.521321 80.650937 
L 369.596396 80.588811 
L 371.388188 80.552267 
L 371.746547 77.920329 
L 373.538338 77.863319 
L 373.896697 77.857107 
L 374.255055 74.26624 
L 377.121922 74.197901 
L 377.48028 74.190958 
L 377.838639 69.363789 
L 379.272072 69.302029 
L 382.497297 69.240269 
L 382.855656 64.249746 
L 384.289089 64.186523 
L 387.514314 64.12586 
L 387.872673 59.087829 
L 389.306106 59.025337 
L 392.531331 58.964674 
L 392.88969 53.870364 
L 394.323123 53.808969 
L 397.548348 53.74794 
L 397.906707 50.685872 
L 399.34014 50.623381 
L 400.773574 50.595973 
L 401.131932 45.571829 
L 402.565365 45.508607 
L 405.790591 45.447212 
L 406.148949 40.512237 
L 407.224024 40.454862 
L 410.807608 40.386889 
L 411.165966 38.024649 
L 413.316116 37.962524 
L 413.674474 33.18871 
L 414.74955 33.129873 
L 417.974775 33.069209 
L 418.333133 29.746579 
L 419.766567 29.688108 
L 421.2 29.6607 
L 421.2 29.6607 
" clip-path="url(#p9367c4cb0f)" style="fill: none; stroke: #9467bd; stroke-width: 1.5; stroke-linecap: square"/>
   </g>
   <g id="line2d_20">
    <path d="M 63.2 391 
L 99.035836 356.632414 
L 134.871672 318.805521 
L 170.707508 283.899634 
L 206.543343 245.549424 
L 242.379179 212.064023 
L 278.215015 174.82367 
L 314.050851 137.485013 
L 349.886687 99.226895 
L 385.722523 64.159846 
" clip-path="url(#p9367c4cb0f)" style="fill: none"/>
    <defs>
     <path id="m271511908c" d="M 0 -3 
L -3 3 
L 3 3 
z
" style="stroke: #9467bd; stroke-linejoin: miter"/>
    </defs>
    <g clip-path="url(#p9367c4cb0f)">
     <use xlink:href="#m271511908c" x="63.2" y="391" style="fill: #9467bd; stroke: #9467bd; stroke-linejoin: miter"/>
     <use xlink:href="#m271511908c" x="99.035836" y="356.632414" style="fill: #9467bd; stroke: #9467bd; stroke-linejoin: miter"/>
     <use xlink:href="#m271511908c" x="134.871672" y="318.805521" style="fill: #9467bd; stroke: #9467bd; stroke-linejoin: miter"/>
     <use xlink:href="#m271511908c" x="170.707508" y="283.899634" style="fill: #9467bd; stroke: #9467bd; stroke-linejoin: miter"/>
     <use xlink:href="#m271511908c" x="206.543343" y="245.549424" style="fill: #9467bd; stroke: #9467bd; stroke-linejoin: miter"/>
     <use xlink:href="#m271511908c" x="242.379179" y="212.064023" style="fill: #9467bd; stroke: #9467bd; stroke-linejoin: miter"/>
     <use xlink:href="#m271511908c" x="278.215015" y="174.82367" style="fill: #9467bd; stroke: #9467bd; stroke-linejoin: miter"/>
     <use xlink:href="#m271511908c" x="314.050851" y="137.485013" style="fill: #9467bd; stroke: #9467bd; stroke-linejoin: miter"/>
     <use xlink:href="#m271511908c" x="349.886687" y="99.226895" style="fill: #9467bd; stroke: #9467bd; stroke-linejoin: miter"/>
     <use xlink:href="#m271511908c" x="385.722523" y="64.159846" style="fill: #9467bd; stroke: #9467bd; stroke-linejoin: miter"/>
    </g>
   </g>
   <g id="line2d_21">
    <path d="M 63.2 391 
L 94.377177 359.208073 
L 144.547347 308.045711 
L 144.905706 307.489869 
L 145.264064 307.314455 
L 252.413213 198.046632 
L 253.12993 197.292718 
L 255.638438 194.757988 
L 421.2 25.922193 
L 421.2 25.922193 
" clip-path="url(#p9367c4cb0f)" style="fill: none; stroke: #8c564b; stroke-width: 1.5; stroke-linecap: square"/>
   </g>
   <g id="line2d_22">
    <path d="M 63.2 391 
L 99.035836 354.457283 
L 134.871672 317.912738 
L 170.707508 281.368559 
L 206.543343 244.824014 
L 242.379179 208.27947 
L 278.215015 171.734925 
L 314.050851 135.190381 
L 349.886687 98.645836 
L 385.722523 62.101292 
" clip-path="url(#p9367c4cb0f)" style="fill: none"/>
    <defs>
     <path id="mc1b0b011ac" d="M -2.5 -0 
L 2.5 2.5 
L 2.5 -2.5 
z
" style="stroke: #8c564b; stroke-linejoin: miter"/>
    </defs>
    <g clip-path="url(#p9367c4cb0f)">
     <use xlink:href="#mc1b0b011ac" x="63.2" y="391" style="fill: #8c564b; stroke: #8c564b; stroke-linejoin: miter"/>
     <use xlink:href="#mc1b0b011ac" x="99.035836" y="354.457283" style="fill: #8c564b; stroke: #8c564b; stroke-linejoin: miter"/>
     <use xlink:href="#mc1b0b011ac" x="134.871672" y="317.912738" style="fill: #8c564b; stroke: #8c564b; stroke-linejoin: miter"/>
     <use xlink:href="#mc1b0b011ac" x="170.707508" y="281.368559" style="fill: #8c564b; stroke: #8c564b; stroke-linejoin: miter"/>
     <use xlink:href="#mc1b0b011ac" x="206.543343" y="244.824014" style="fill: #8c564b; stroke: #8c564b; stroke-linejoin: miter"/>
     <use xlink:href="#mc1b0b011ac" x="242.379179" y="208.27947" style="fill: #8c564b; stroke: #8c564b; stroke-linejoin: miter"/>
     <use xlink:href="#mc1b0b011ac" x="278.215015" y="171.734925" style="fill: #8c564b; stroke: #8c564b; stroke-linejoin: miter"/>
     <use xlink:href="#mc1b0b011ac" x="314.050851" y="135.190381" style="fill: #8c564b; stroke: #8c564b; stroke-linejoin: miter"/>
     <use xlink:href="#mc1b0b011ac" x="349.886687" y="98.645836" style="fill: #8c564b; stroke: #8c564b; stroke-linejoin: miter"/>
     <use xlink:href="#mc1b0b011ac" x="385.722523" y="62.101292" style="fill: #8c564b; stroke: #8c564b; stroke-linejoin: miter"/>
    </g>
   </g>
   <g id="patch_3">
    <path d="M 63.2 391 
L 63.2 25.92 
" style="fill: none; stroke: #000000; stroke-width: 0.8; stroke-linejoin: miter; stroke-linecap: square"/>
   </g>
   <g id="patch_4">
    <path d="M 421.2 391 
L 421.2 25.92 
" style="fill: none; stroke: #000000; stroke-width: 0.8; stroke-linejoin: miter; stroke-linecap: square"/>
   </g>
   <g id="patch_5">
    <path d="M 63.2 391 
L 421.2 391 
" style="fill: none; stroke: #000000; stroke-width: 0.8; stroke-linejoin: miter; stroke-linecap: square"/>
   </g>
   <g id="patch_6">
    <path d="M 63.2 25.92 
L 421.2 25.92 
" style="fill: none; stroke: #000000; stroke-width: 0.8; stroke-linejoin: miter; stroke-linecap: square"/>
   </g>
   <g id="text_13">
    <!-- Interval: 100.0 [us] -->
    <g transform="translate(184.6 19.92)scale(0.12 -0.12)">
     <defs>
      <path id="DejaVuSans-76" d="M 191 3500 
L 800 3500 
L 1894 563 
L 2988 3500 
L 3597 3500 
L 2284 0 
L 1503 0 
L 191 3500 
z
" transform="scale(0.015625)"/>
      <path id="DejaVuSans-6c" d="M 603 4863 
L 1178 4863 
L 1178 0 
L 603 0 
L 603 4863 
z
" transform="scale(0.015625)"/>
      <path id="DejaVuSans-3a" d="M 750 794 
L 1409 794 
L 1409 0 
L 750 0 
L 750 794 
z
M 750 3309 
L 1409 3309 
L 1409 2516 
L 750 2516 
L 750 3309 
z
" transform="scale(0.015625)"/>
      <path id="DejaVuSans-31" d="M 794 531 
L 1825 531 
L 1825 4091 
L 703 3866 
L 703 4441 
L 1819 4666 
L 2450 4666 
L 2450 531 
L 3481 531 
L 3481 0 
L 794 0 
L 794 531 
z
" transform="scale(0.015625)"/>
      <path id="DejaVuSans-2e" d="M 684 794 
L 1344 794 
L 1344 0 
L 684 0 
L 684 794 
z
" transform="scale(0.015625)"/>
     </defs>
     <use xlink:href="#DejaVuSans-49"/>
     <use xlink:href="#DejaVuSans-6e" x="29.492188"/>
     <use xlink:href="#DejaVuSans-74" x="92.871094"/>
     <use xlink:href="#DejaVuSans-65" x="132.080078"/>
     <use xlink:href="#DejaVuSans-72" x="193.603516"/>
     <use xlink:href="#DejaVuSans-76" x="234.716797"/>
     <use xlink:href="#DejaVuSans-61" x="293.896484"/>
     <use xlink:href="#DejaVuSans-6c" x="355.175781"/>
     <use xlink:href="#DejaVuSans-3a" x="382.958984"/>
     <use xlink:href="#DejaVuSans-20" x="416.650391"/>
     <use xlink:href="#DejaVuSans-31" x="448.4375"/>
     <use xlink:href="#DejaVuSans-30" x="512.060547"/>
     <use xlink:href="#DejaVuSans-30" x="575.683594"/>
     <use xlink:href="#DejaVuSans-2e" x="639.306641"/>
     <use xlink:href="#DejaVuSans-30" x="671.09375"/>
     <use xlink:href="#DejaVuSans-20" x="734.716797"/>
     <use xlink:href="#DejaVuSans-5b" x="766.503906"/>
     <use xlink:href="#DejaVuSans-75" x="805.517578"/>
     <use xlink:href="#DejaVuSans-73" x="868.896484"/>
     <use xlink:href="#DejaVuSans-5d" x="920.996094"/>
    </g>
   </g>
   <g id="legend_1">
    <g id="patch_7">
     <path d="M 202.782812 386 
L 414.2 386 
Q 416.2 386 416.2 384 
L 416.2 296.93125 
Q 416.2 294.93125 414.2 294.93125 
L 202.782812 294.93125 
Q 200.782812 294.93125 200.782812 296.93125 
L 200.782812 384 
Q 200.782812 386 202.782812 386 
z
" style="fill: #ffffff; opacity: 0.8; stroke: #cccccc; stroke-linejoin: miter"/>
    </g>
    <g id="line2d_23">
     <path d="M 204.782812 303.029688 
L 214.782812 303.029688 
L 224.782812 303.029688 
" style="fill: none"/>
     <g>
      <use xlink:href="#m9e12183d7d" x="214.782812" y="303.029688" style="fill: #1f77b4; stroke: #1f77b4; stroke-linejoin: miter"/>
     </g>
    </g>
    <g id="text_14">
     <!-- StdSleepTimer -->
     <g transform="translate(232.782812 306.529688)scale(0.1 -0.1)">
      <defs>
       <path id="DejaVuSans-53" d="M 3425 4513 
L 3425 3897 
Q 3066 4069 2747 4153 
Q 2428 4238 2131 4238 
Q 1616 4238 1336 4038 
Q 1056 3838 1056 3469 
Q 1056 3159 1242 3001 
Q 1428 2844 1947 2747 
L 2328 2669 
Q 3034 2534 3370 2195 
Q 3706 1856 3706 1288 
Q 3706 609 3251 259 
Q 2797 -91 1919 -91 
Q 1588 -91 1214 -16 
Q 841 59 441 206 
L 441 856 
Q 825 641 1194 531 
Q 1563 422 1919 422 
Q 2459 422 2753 634 
Q 3047 847 3047 1241 
Q 3047 1584 2836 1778 
Q 2625 1972 2144 2069 
L 1759 2144 
Q 1053 2284 737 2584 
Q 422 2884 422 3419 
Q 422 4038 858 4394 
Q 1294 4750 2059 4750 
Q 2388 4750 2728 4690 
Q 3069 4631 3425 4513 
z
" transform="scale(0.015625)"/>
       <path id="DejaVuSans-64" d="M 2906 2969 
L 2906 4863 
L 3481 4863 
L 3481 0 
L 2906 0 
L 2906 525 
Q 2725 213 2448 61 
Q 2172 -91 1784 -91 
Q 1150 -91 751 415 
Q 353 922 353 1747 
Q 353 2572 751 3078 
Q 1150 3584 1784 3584 
Q 2172 3584 2448 3432 
Q 2725 3281 2906 2969 
z
M 947 1747 
Q 947 1113 1208 752 
Q 1469 391 1925 391 
Q 2381 391 2643 752 
Q 2906 1113 2906 1747 
Q 2906 2381 2643 2742 
Q 2381 3103 1925 3103 
Q 1469 3103 1208 2742 
Q 947 2381 947 1747 
z
" transform="scale(0.015625)"/>
       <path id="DejaVuSans-70" d="M 1159 525 
L 1159 -1331 
L 581 -1331 
L 581 3500 
L 1159 3500 
L 1159 2969 
Q 1341 3281 1617 3432 
Q 1894 3584 2278 3584 
Q 2916 3584 3314 3078 
Q 3713 2572 3713 1747 
Q 3713 922 3314 415 
Q 2916 -91 2278 -91 
Q 1894 -91 1617 61 
Q 1341 213 1159 525 
z
M 3116 1747 
Q 3116 2381 2855 2742 
Q 2594 3103 2138 3103 
Q 1681 3103 1420 2742 
Q 1159 2381 1159 1747 
Q 1159 1113 1420 752 
Q 1681 391 2138 391 
Q 2594 391 2855 752 
Q 3116 1113 3116 1747 
z
" transform="scale(0.015625)"/>
      </defs>
      <use xlink:href="#DejaVuSans-53"/>
      <use xlink:href="#DejaVuSans-74" x="63.476562"/>
      <use xlink:href="#DejaVuSans-64" x="102.685547"/>
      <use xlink:href="#DejaVuSans-53" x="166.162109"/>
      <use xlink:href="#DejaVuSans-6c" x="229.638672"/>
      <use xlink:href="#DejaVuSans-65" x="257.421875"/>
      <use xlink:href="#DejaVuSans-65" x="318.945312"/>
      <use xlink:href="#DejaVuSans-70" x="380.46875"/>
      <use xlink:href="#DejaVuSans-54" x="443.945312"/>
      <use xlink:href="#DejaVuSans-69" x="501.904297"/>
      <use xlink:href="#DejaVuSans-6d" x="529.6875"/>
      <use xlink:href="#DejaVuSans-65" x="627.099609"/>
      <use xlink:href="#DejaVuSans-72" x="688.623047"/>
     </g>
    </g>
    <g id="line2d_24">
     <path d="M 204.782812 317.707812 
L 214.782812 317.707812 
L 224.782812 317.707812 
" style="fill: none"/>
     <g>
      <use xlink:href="#md361c8bad1" x="214.782812" y="317.707812" style="fill: #ff7f0e; stroke: #ff7f0e"/>
     </g>
    </g>
    <g id="text_15">
     <!-- MultiMediaTimer -->
     <g transform="translate(232.782812 321.207812)scale(0.1 -0.1)">
      <defs>
       <path id="DejaVuSans-4d" d="M 628 4666 
L 1569 4666 
L 2759 1491 
L 3956 4666 
L 4897 4666 
L 4897 0 
L 4281 0 
L 4281 4097 
L 3078 897 
L 2444 897 
L 1241 4097 
L 1241 0 
L 628 0 
L 628 4666 
z
" transform="scale(0.015625)"/>
      </defs>
      <use xlink:href="#DejaVuSans-4d"/>
      <use xlink:href="#DejaVuSans-75" x="86.279297"/>
      <use xlink:href="#DejaVuSans-6c" x="149.658203"/>
      <use xlink:href="#DejaVuSans-74" x="177.441406"/>
      <use xlink:href="#DejaVuSans-69" x="216.650391"/>
      <use xlink:href="#DejaVuSans-4d" x="244.433594"/>
      <use xlink:href="#DejaVuSans-65" x="330.712891"/>
      <use xlink:href="#DejaVuSans-64" x="392.236328"/>
      <use xlink:href="#DejaVuSans-69" x="455.712891"/>
      <use xlink:href="#DejaVuSans-61" x="483.496094"/>
      <use xlink:href="#DejaVuSans-54" x="544.775391"/>
      <use xlink:href="#DejaVuSans-69" x="602.734375"/>
      <use xlink:href="#DejaVuSans-6d" x="630.517578"/>
      <use xlink:href="#DejaVuSans-65" x="727.929688"/>
      <use xlink:href="#DejaVuSans-72" x="789.453125"/>
     </g>
    </g>
    <g id="line2d_25">
     <path d="M 204.782812 332.385938 
L 214.782812 332.385938 
L 224.782812 332.385938 
" style="fill: none"/>
     <g>
      <use xlink:href="#mddcf86eb01" x="214.782812" y="332.385938" style="fill: #2ca02c; stroke: #2ca02c; stroke-linejoin: miter"/>
     </g>
    </g>
    <g id="text_16">
     <!-- TimerQueueTimer -->
     <g transform="translate(232.782812 335.885938)scale(0.1 -0.1)">
      <defs>
       <path id="DejaVuSans-51" d="M 2522 4238 
Q 1834 4238 1429 3725 
Q 1025 3213 1025 2328 
Q 1025 1447 1429 934 
Q 1834 422 2522 422 
Q 3209 422 3611 934 
Q 4013 1447 4013 2328 
Q 4013 3213 3611 3725 
Q 3209 4238 2522 4238 
z
M 3406 84 
L 4238 -825 
L 3475 -825 
L 2784 -78 
Q 2681 -84 2626 -87 
Q 2572 -91 2522 -91 
Q 1538 -91 948 567 
Q 359 1225 359 2328 
Q 359 3434 948 4092 
Q 1538 4750 2522 4750 
Q 3503 4750 4090 4092 
Q 4678 3434 4678 2328 
Q 4678 1516 4351 937 
Q 4025 359 3406 84 
z
" transform="scale(0.015625)"/>
      </defs>
      <use xlink:href="#DejaVuSans-54"/>
      <use xlink:href="#DejaVuSans-69" x="57.958984"/>
      <use xlink:href="#DejaVuSans-6d" x="85.742188"/>
      <use xlink:href="#DejaVuSans-65" x="183.154297"/>
      <use xlink:href="#DejaVuSans-72" x="244.677734"/>
      <use xlink:href="#DejaVuSans-51" x="285.791016"/>
      <use xlink:href="#DejaVuSans-75" x="364.501953"/>
      <use xlink:href="#DejaVuSans-65" x="427.880859"/>
      <use xlink:href="#DejaVuSans-75" x="489.404297"/>
      <use xlink:href="#DejaVuSans-65" x="552.783203"/>
      <use xlink:href="#DejaVuSans-54" x="614.306641"/>
      <use xlink:href="#DejaVuSans-69" x="672.265625"/>
      <use xlink:href="#DejaVuSans-6d" x="700.048828"/>
      <use xlink:href="#DejaVuSans-65" x="797.460938"/>
      <use xlink:href="#DejaVuSans-72" x="858.984375"/>
     </g>
    </g>
    <g id="line2d_26">
     <path d="M 204.782812 347.064062 
L 214.782812 347.064062 
L 224.782812 347.064062 
" style="fill: none"/>
     <g>
      <use xlink:href="#m287e0a924f" x="214.782812" y="347.064062" style="fill: #d62728; stroke: #d62728; stroke-linejoin: miter"/>
     </g>
    </g>
    <g id="text_17">
     <!-- ThreadPoolTimer -->
     <g transform="translate(232.782812 350.564062)scale(0.1 -0.1)">
      <defs>
       <path id="DejaVuSans-68" d="M 3513 2113 
L 3513 0 
L 2938 0 
L 2938 2094 
Q 2938 2591 2744 2837 
Q 2550 3084 2163 3084 
Q 1697 3084 1428 2787 
Q 1159 2491 1159 1978 
L 1159 0 
L 581 0 
L 581 4863 
L 1159 4863 
L 1159 2956 
Q 1366 3272 1645 3428 
Q 1925 3584 2291 3584 
Q 2894 3584 3203 3211 
Q 3513 2838 3513 2113 
z
" transform="scale(0.015625)"/>
       <path id="DejaVuSans-50" d="M 1259 4147 
L 1259 2394 
L 2053 2394 
Q 2494 2394 2734 2622 
Q 2975 2850 2975 3272 
Q 2975 3691 2734 3919 
Q 2494 4147 2053 4147 
L 1259 4147 
z
M 628 4666 
L 2053 4666 
Q 2838 4666 3239 4311 
Q 3641 3956 3641 3272 
Q 3641 2581 3239 2228 
Q 2838 1875 2053 1875 
L 1259 1875 
L 1259 0 
L 628 0 
L 628 4666 
z
" transform="scale(0.015625)"/>
      </defs>
      <use xlink:href="#DejaVuSans-54"/>
      <use xlink:href="#DejaVuSans-68" x="61.083984"/>
      <use xlink:href="#DejaVuSans-72" x="124.462891"/>
      <use xlink:href="#DejaVuSans-65" x="163.326172"/>
      <use xlink:href="#DejaVuSans-61" x="224.849609"/>
      <use xlink:href="#DejaVuSans-64" x="286.128906"/>
      <use xlink:href="#DejaVuSans-50" x="349.605469"/>
      <use xlink:href="#DejaVuSans-6f" x="406.283203"/>
      <use xlink:href="#DejaVuSans-6f" x="467.464844"/>
      <use xlink:href="#DejaVuSans-6c" x="528.646484"/>
      <use xlink:href="#DejaVuSans-54" x="556.429688"/>
      <use xlink:href="#DejaVuSans-69" x="614.388672"/>
      <use xlink:href="#DejaVuSans-6d" x="642.171875"/>
      <use xlink:href="#DejaVuSans-65" x="739.583984"/>
      <use xlink:href="#DejaVuSans-72" x="801.107422"/>
     </g>
    </g>
    <g id="line2d_27">
     <path d="M 204.782812 361.742188 
L 214.782812 361.742188 
L 224.782812 361.742188 
" style="fill: none"/>
     <g>
      <use xlink:href="#m271511908c" x="214.782812" y="361.742188" style="fill: #9467bd; stroke: #9467bd; stroke-linejoin: miter"/>
     </g>
    </g>
    <g id="text_18">
     <!-- WaitableTimer -->
     <g transform="translate(232.782812 365.242188)scale(0.1 -0.1)">
      <defs>
       <path id="DejaVuSans-57" d="M 213 4666 
L 850 4666 
L 1831 722 
L 2809 4666 
L 3519 4666 
L 4500 722 
L 5478 4666 
L 6119 4666 
L 4947 0 
L 4153 0 
L 3169 4050 
L 2175 0 
L 1381 0 
L 213 4666 
z
" transform="scale(0.015625)"/>
       <path id="DejaVuSans-62" d="M 3116 1747 
Q 3116 2381 2855 2742 
Q 2594 3103 2138 3103 
Q 1681 3103 1420 2742 
Q 1159 2381 1159 1747 
Q 1159 1113 1420 752 
Q 1681 391 2138 391 
Q 2594 391 2855 752 
Q 3116 1113 3116 1747 
z
M 1159 2969 
Q 1341 3281 1617 3432 
Q 1894 3584 2278 3584 
Q 2916 3584 3314 3078 
Q 3713 2572 3713 1747 
Q 3713 922 3314 415 
Q 2916 -91 2278 -91 
Q 1894 -91 1617 61 
Q 1341 213 1159 525 
L 1159 0 
L 581 0 
L 581 4863 
L 1159 4863 
L 1159 2969 
z
" transform="scale(0.015625)"/>
      </defs>
      <use xlink:href="#DejaVuSans-57"/>
      <use xlink:href="#DejaVuSans-61" x="92.501953"/>
      <use xlink:href="#DejaVuSans-69" x="153.78125"/>
      <use xlink:href="#DejaVuSans-74" x="181.564453"/>
      <use xlink:href="#DejaVuSans-61" x="220.773438"/>
      <use xlink:href="#DejaVuSans-62" x="282.052734"/>
      <use xlink:href="#DejaVuSans-6c" x="345.529297"/>
      <use xlink:href="#DejaVuSans-65" x="373.3125"/>
      <use xlink:href="#DejaVuSans-54" x="434.835938"/>
      <use xlink:href="#DejaVuSans-69" x="492.794922"/>
      <use xlink:href="#DejaVuSans-6d" x="520.578125"/>
      <use xlink:href="#DejaVuSans-65" x="617.990234"/>
      <use xlink:href="#DejaVuSans-72" x="679.513672"/>
     </g>
    </g>
    <g id="line2d_28">
     <path d="M 204.782812 376.420313 
L 214.782812 376.420313 
L 224.782812 376.420313 
" style="fill: none"/>
     <g>
      <use xlink:href="#mc1b0b011ac" x="214.782812" y="376.420313" style="fill: #8c564b; stroke: #8c564b; stroke-linejoin: miter"/>
     </g>
    </g>
    <g id="text_19">
     <!-- PerformanceCounterSoftSleepTimer -->
     <g transform="translate(232.782812 379.920313)scale(0.1 -0.1)">
      <defs>
       <path id="DejaVuSans-66" d="M 2375 4863 
L 2375 4384 
L 1825 4384 
Q 1516 4384 1395 4259 
Q 1275 4134 1275 3809 
L 1275 3500 
L 2222 3500 
L 2222 3053 
L 1275 3053 
L 1275 0 
L 697 0 
L 697 3053 
L 147 3053 
L 147 3500 
L 697 3500 
L 697 3744 
Q 697 4328 969 4595 
Q 1241 4863 1831 4863 
L 2375 4863 
z
" transform="scale(0.015625)"/>
       <path id="DejaVuSans-63" d="M 3122 3366 
L 3122 2828 
Q 2878 2963 2633 3030 
Q 2388 3097 2138 3097 
Q 1578 3097 1268 2742 
Q 959 2388 959 1747 
Q 959 1106 1268 751 
Q 1578 397 2138 397 
Q 2388 397 2633 464 
Q 2878 531 3122 666 
L 3122 134 
Q 2881 22 2623 -34 
Q 2366 -91 2075 -91 
Q 1284 -91 818 406 
Q 353 903 353 1747 
Q 353 2603 823 3093 
Q 1294 3584 2113 3584 
Q 2378 3584 2631 3529 
Q 2884 3475 3122 3366 
z
" transform="scale(0.015625)"/>
       <path id="DejaVuSans-43" d="M 4122 4306 
L 4122 3641 
Q 3803 3938 3442 4084 
Q 3081 4231 2675 4231 
Q 1875 4231 1450 3742 
Q 1025 3253 1025 2328 
Q 1025 1406 1450 917 
Q 1875 428 2675 428 
Q 3081 428 3442 575 
Q 3803 722 4122 1019 
L 4122 359 
Q 3791 134 3420 21 
Q 3050 -91 2638 -91 
Q 1578 -91 968 557 
Q 359 1206 359 2328 
Q 359 3453 968 4101 
Q 1578 4750 2638 4750 
Q 3056 4750 3426 4639 
Q 3797 4528 4122 4306 
z
" transform="scale(0.015625)"/>
      </defs>
      <use xlink:href="#DejaVuSans-50"/>
      <use xlink:href="#DejaVuSans-65" x="56.677734"/>
      <use xlink:href="#DejaVuSans-72" x="118.201172"/>
      <use xlink:href="#DejaVuSans-66" x="159.314453"/>
      <use xlink:href="#DejaVuSans-6f" x="194.519531"/>
      <use xlink:href="#DejaVuSans-72" x="255.701172"/>
      <use xlink:href="#DejaVuSans-6d" x="295.064453"/>
      <use xlink:href="#DejaVuSans-61" x="392.476562"/>
      <use xlink:href="#DejaVuSans-6e" x="453.755859"/>
      <use xlink:href="#DejaVuSans-63" x="517.134766"/>
      <use xlink:href="#DejaVuSans-65" x="572.115234"/>
      <use xlink:href="#DejaVuSans-43" x="633.638672"/>
      <use xlink:href="#DejaVuSans-6f" x="703.462891"/>
      <use xlink:href="#DejaVuSans-75" x="764.644531"/>
      <use xlink:href="#DejaVuSans-6e" x="828.023438"/>
      <use xlink:href="#DejaVuSans-74" x="891.402344"/>
      <use xlink:href="#DejaVuSans-65" x="930.611328"/>
      <use xlink:href="#DejaVuSans-72" x="992.134766"/>
      <use xlink:href="#DejaVuSans-53" x="1033.248047"/>
      <use xlink:href="#DejaVuSans-6f" x="1096.724609"/>
      <use xlink:href="#DejaVuSans-66" x="1157.90625"/>
      <use xlink:href="#DejaVuSans-74" x="1191.361328"/>
      <use xlink:href="#DejaVuSans-53" x="1230.570312"/>
      <use xlink:href="#DejaVuSans-6c" x="1294.046875"/>
      <use xlink:href="#DejaVuSans-65" x="1321.830078"/>
      <use xlink:href="#DejaVuSans-65" x="1383.353516"/>
      <use xlink:href="#DejaVuSans-70" x="1444.876953"/>
      <use xlink:href="#DejaVuSans-54" x="1508.353516"/>
      <use xlink:href="#DejaVuSans-69" x="1566.3125"/>
      <use xlink:href="#DejaVuSans-6d" x="1594.095703"/>
      <use xlink:href="#DejaVuSans-65" x="1691.507812"/>
      <use xlink:href="#DejaVuSans-72" x="1753.03125"/>
     </g>
    </g>
   </g>
  </g>
 </g>
 <defs>
  <clipPath id="p9367c4cb0f">
   <rect x="63.2" y="25.92" width="358" height="365.08"/>
  </clipPath>
 </defs>
</svg>
