<?xml version="1.0" encoding="utf-8" standalone="no"?>
<!DOCTYPE svg PUBLIC "-//W3C//DTD SVG 1.1//EN"
  "http://www.w3.org/Graphics/SVG/1.1/DTD/svg11.dtd">
<svg xmlns:xlink="http://www.w3.org/1999/xlink" width="432pt" height="432pt" viewBox="0 0 432 432" xmlns="http://www.w3.org/2000/svg" version="1.1">
 <metadata>
  <rdf:RDF xmlns:dc="http://purl.org/dc/elements/1.1/" xmlns:cc="http://creativecommons.org/ns#" xmlns:rdf="http://www.w3.org/1999/02/22-rdf-syntax-ns#">
   <cc:Work>
    <dc:type rdf:resource="http://purl.org/dc/dcmitype/StillImage"/>
    <dc:date>2022-08-03T16:02:06.703256</dc:date>
    <dc:format>image/svg+xml</dc:format>
    <dc:creator>
     <cc:Agent>
      <dc:title>Matplotlib v3.5.1, https://matplotlib.org/</dc:title>
     </cc:Agent>
    </dc:creator>
   </cc:Work>
  </rdf:RDF>
 </metadata>
 <defs>
  <style type="text/css">*{stroke-linejoin: round; stroke-linecap: butt}</style>
 </defs>
 <g id="figure_1">
  <g id="patch_1">
   <path d="M 0 432 
L 432 432 
L 432 0 
L 0 0 
z
" style="fill: #ffffff"/>
  </g>
  <g id="axes_1">
   <g id="patch_2">
    <path d="M 63.2 391 
L 421.2 391 
L 421.2 25.92 
L 63.2 25.92 
z
" style="fill: #ffffff"/>
   </g>
   <g id="matplotlib.axis_1">
    <g id="xtick_1">
     <g id="line2d_1">
      <defs>
       <path id="mf8b12f4820" d="M 0 0 
L 0 3.5 
" style="stroke: #000000; stroke-width: 0.8"/>
      </defs>
      <g>
       <use xlink:href="#mf8b12f4820" x="63.2" y="391" style="stroke: #000000; stroke-width: 0.8"/>
      </g>
     </g>
     <g id="text_1">
      <!-- 0 -->
      <g transform="translate(60.01875 405.598437)scale(0.1 -0.1)">
       <defs>
        <path id="DejaVuSans-30" d="M 2034 4250 
Q 1547 4250 1301 3770 
Q 1056 3291 1056 2328 
Q 1056 1369 1301 889 
Q 1547 409 2034 409 
Q 2525 409 2770 889 
Q 3016 1369 3016 2328 
Q 3016 3291 2770 3770 
Q 2525 4250 2034 4250 
z
M 2034 4750 
Q 2819 4750 3233 4129 
Q 3647 3509 3647 2328 
Q 3647 1150 3233 529 
Q 2819 -91 2034 -91 
Q 1250 -91 836 529 
Q 422 1150 422 2328 
Q 422 3509 836 4129 
Q 1250 4750 2034 4750 
z
" transform="scale(0.015625)"/>
       </defs>
       <use xlink:href="#DejaVuSans-30"/>
      </g>
     </g>
    </g>
    <g id="xtick_2">
     <g id="line2d_2">
      <g>
       <use xlink:href="#mf8b12f4820" x="134.871672" y="391" style="stroke: #000000; stroke-width: 0.8"/>
      </g>
     </g>
     <g id="text_2">
      <!-- 200 -->
      <g transform="translate(125.327922 405.598437)scale(0.1 -0.1)">
       <defs>
        <path id="DejaVuSans-32" d="M 1228 531 
L 3431 531 
L 3431 0 
L 469 0 
L 469 531 
Q 828 903 1448 1529 
Q 2069 2156 2228 2338 
Q 2531 2678 2651 2914 
Q 2772 3150 2772 3378 
Q 2772 3750 2511 3984 
Q 2250 4219 1831 4219 
Q 1534 4219 1204 4116 
Q 875 4013 500 3803 
L 500 4441 
Q 881 4594 1212 4672 
Q 1544 4750 1819 4750 
Q 2544 4750 2975 4387 
Q 3406 4025 3406 3419 
Q 3406 3131 3298 2873 
Q 3191 2616 2906 2266 
Q 2828 2175 2409 1742 
Q 1991 1309 1228 531 
z
" transform="scale(0.015625)"/>
       </defs>
       <use xlink:href="#DejaVuSans-32"/>
       <use xlink:href="#DejaVuSans-30" x="63.623047"/>
       <use xlink:href="#DejaVuSans-30" x="127.246094"/>
      </g>
     </g>
    </g>
    <g id="xtick_3">
     <g id="line2d_3">
      <g>
       <use xlink:href="#mf8b12f4820" x="206.543343" y="391" style="stroke: #000000; stroke-width: 0.8"/>
      </g>
     </g>
     <g id="text_3">
      <!-- 400 -->
      <g transform="translate(196.999593 405.598437)scale(0.1 -0.1)">
       <defs>
        <path id="DejaVuSans-34" d="M 2419 4116 
L 825 1625 
L 2419 1625 
L 2419 4116 
z
M 2253 4666 
L 3047 4666 
L 3047 1625 
L 3713 1625 
L 3713 1100 
L 3047 1100 
L 3047 0 
L 2419 0 
L 2419 1100 
L 313 1100 
L 313 1709 
L 2253 4666 
z
" transform="scale(0.015625)"/>
       </defs>
       <use xlink:href="#DejaVuSans-34"/>
       <use xlink:href="#DejaVuSans-30" x="63.623047"/>
       <use xlink:href="#DejaVuSans-30" x="127.246094"/>
      </g>
     </g>
    </g>
    <g id="xtick_4">
     <g id="line2d_4">
      <g>
       <use xlink:href="#mf8b12f4820" x="278.215015" y="391" style="stroke: #000000; stroke-width: 0.8"/>
      </g>
     </g>
     <g id="text_4">
      <!-- 600 -->
      <g transform="translate(268.671265 405.598437)scale(0.1 -0.1)">
       <defs>
        <path id="DejaVuSans-36" d="M 2113 2584 
Q 1688 2584 1439 2293 
Q 1191 2003 1191 1497 
Q 1191 994 1439 701 
Q 1688 409 2113 409 
Q 2538 409 2786 701 
Q 3034 994 3034 1497 
Q 3034 2003 2786 2293 
Q 2538 2584 2113 2584 
z
M 3366 4563 
L 3366 3988 
Q 3128 4100 2886 4159 
Q 2644 4219 2406 4219 
Q 1781 4219 1451 3797 
Q 1122 3375 1075 2522 
Q 1259 2794 1537 2939 
Q 1816 3084 2150 3084 
Q 2853 3084 3261 2657 
Q 3669 2231 3669 1497 
Q 3669 778 3244 343 
Q 2819 -91 2113 -91 
Q 1303 -91 875 529 
Q 447 1150 447 2328 
Q 447 3434 972 4092 
Q 1497 4750 2381 4750 
Q 2619 4750 2861 4703 
Q 3103 4656 3366 4563 
z
" transform="scale(0.015625)"/>
       </defs>
       <use xlink:href="#DejaVuSans-36"/>
       <use xlink:href="#DejaVuSans-30" x="63.623047"/>
       <use xlink:href="#DejaVuSans-30" x="127.246094"/>
      </g>
     </g>
    </g>
    <g id="xtick_5">
     <g id="line2d_5">
      <g>
       <use xlink:href="#mf8b12f4820" x="349.886687" y="391" style="stroke: #000000; stroke-width: 0.8"/>
      </g>
     </g>
     <g id="text_5">
      <!-- 800 -->
      <g transform="translate(340.342937 405.598437)scale(0.1 -0.1)">
       <defs>
        <path id="DejaVuSans-38" d="M 2034 2216 
Q 1584 2216 1326 1975 
Q 1069 1734 1069 1313 
Q 1069 891 1326 650 
Q 1584 409 2034 409 
Q 2484 409 2743 651 
Q 3003 894 3003 1313 
Q 3003 1734 2745 1975 
Q 2488 2216 2034 2216 
z
M 1403 2484 
Q 997 2584 770 2862 
Q 544 3141 544 3541 
Q 544 4100 942 4425 
Q 1341 4750 2034 4750 
Q 2731 4750 3128 4425 
Q 3525 4100 3525 3541 
Q 3525 3141 3298 2862 
Q 3072 2584 2669 2484 
Q 3125 2378 3379 2068 
Q 3634 1759 3634 1313 
Q 3634 634 3220 271 
Q 2806 -91 2034 -91 
Q 1263 -91 848 271 
Q 434 634 434 1313 
Q 434 1759 690 2068 
Q 947 2378 1403 2484 
z
M 1172 3481 
Q 1172 3119 1398 2916 
Q 1625 2713 2034 2713 
Q 2441 2713 2670 2916 
Q 2900 3119 2900 3481 
Q 2900 3844 2670 4047 
Q 2441 4250 2034 4250 
Q 1625 4250 1398 4047 
Q 1172 3844 1172 3481 
z
" transform="scale(0.015625)"/>
       </defs>
       <use xlink:href="#DejaVuSans-38"/>
       <use xlink:href="#DejaVuSans-30" x="63.623047"/>
       <use xlink:href="#DejaVuSans-30" x="127.246094"/>
      </g>
     </g>
    </g>
    <g id="text_6">
     <!-- Iteration -->
     <g transform="translate(220.991406 419.276563)scale(0.1 -0.1)">
      <defs>
       <path id="DejaVuSans-49" d="M 628 4666 
L 1259 4666 
L 1259 0 
L 628 0 
L 628 4666 
z
" transform="scale(0.015625)"/>
       <path id="DejaVuSans-74" d="M 1172 4494 
L 1172 3500 
L 2356 3500 
L 2356 3053 
L 1172 3053 
L 1172 1153 
Q 1172 725 1289 603 
Q 1406 481 1766 481 
L 2356 481 
L 2356 0 
L 1766 0 
Q 1100 0 847 248 
Q 594 497 594 1153 
L 594 3053 
L 172 3053 
L 172 3500 
L 594 3500 
L 594 4494 
L 1172 4494 
z
" transform="scale(0.015625)"/>
       <path id="DejaVuSans-65" d="M 3597 1894 
L 3597 1613 
L 953 1613 
Q 991 1019 1311 708 
Q 1631 397 2203 397 
Q 2534 397 2845 478 
Q 3156 559 3463 722 
L 3463 178 
Q 3153 47 2828 -22 
Q 2503 -91 2169 -91 
Q 1331 -91 842 396 
Q 353 884 353 1716 
Q 353 2575 817 3079 
Q 1281 3584 2069 3584 
Q 2775 3584 3186 3129 
Q 3597 2675 3597 1894 
z
M 3022 2063 
Q 3016 2534 2758 2815 
Q 2500 3097 2075 3097 
Q 1594 3097 1305 2825 
Q 1016 2553 972 2059 
L 3022 2063 
z
" transform="scale(0.015625)"/>
       <path id="DejaVuSans-72" d="M 2631 2963 
Q 2534 3019 2420 3045 
Q 2306 3072 2169 3072 
Q 1681 3072 1420 2755 
Q 1159 2438 1159 1844 
L 1159 0 
L 581 0 
L 581 3500 
L 1159 3500 
L 1159 2956 
Q 1341 3275 1631 3429 
Q 1922 3584 2338 3584 
Q 2397 3584 2469 3576 
Q 2541 3569 2628 3553 
L 2631 2963 
z
" transform="scale(0.015625)"/>
       <path id="DejaVuSans-61" d="M 2194 1759 
Q 1497 1759 1228 1600 
Q 959 1441 959 1056 
Q 959 750 1161 570 
Q 1363 391 1709 391 
Q 2188 391 2477 730 
Q 2766 1069 2766 1631 
L 2766 1759 
L 2194 1759 
z
M 3341 1997 
L 3341 0 
L 2766 0 
L 2766 531 
Q 2569 213 2275 61 
Q 1981 -91 1556 -91 
Q 1019 -91 701 211 
Q 384 513 384 1019 
Q 384 1609 779 1909 
Q 1175 2209 1959 2209 
L 2766 2209 
L 2766 2266 
Q 2766 2663 2505 2880 
Q 2244 3097 1772 3097 
Q 1472 3097 1187 3025 
Q 903 2953 641 2809 
L 641 3341 
Q 956 3463 1253 3523 
Q 1550 3584 1831 3584 
Q 2591 3584 2966 3190 
Q 3341 2797 3341 1997 
z
" transform="scale(0.015625)"/>
       <path id="DejaVuSans-69" d="M 603 3500 
L 1178 3500 
L 1178 0 
L 603 0 
L 603 3500 
z
M 603 4863 
L 1178 4863 
L 1178 4134 
L 603 4134 
L 603 4863 
z
" transform="scale(0.015625)"/>
       <path id="DejaVuSans-6f" d="M 1959 3097 
Q 1497 3097 1228 2736 
Q 959 2375 959 1747 
Q 959 1119 1226 758 
Q 1494 397 1959 397 
Q 2419 397 2687 759 
Q 2956 1122 2956 1747 
Q 2956 2369 2687 2733 
Q 2419 3097 1959 3097 
z
M 1959 3584 
Q 2709 3584 3137 3096 
Q 3566 2609 3566 1747 
Q 3566 888 3137 398 
Q 2709 -91 1959 -91 
Q 1206 -91 779 398 
Q 353 888 353 1747 
Q 353 2609 779 3096 
Q 1206 3584 1959 3584 
z
" transform="scale(0.015625)"/>
       <path id="DejaVuSans-6e" d="M 3513 2113 
L 3513 0 
L 2938 0 
L 2938 2094 
Q 2938 2591 2744 2837 
Q 2550 3084 2163 3084 
Q 1697 3084 1428 2787 
Q 1159 2491 1159 1978 
L 1159 0 
L 581 0 
L 581 3500 
L 1159 3500 
L 1159 2956 
Q 1366 3272 1645 3428 
Q 1925 3584 2291 3584 
Q 2894 3584 3203 3211 
Q 3513 2838 3513 2113 
z
" transform="scale(0.015625)"/>
      </defs>
      <use xlink:href="#DejaVuSans-49"/>
      <use xlink:href="#DejaVuSans-74" x="29.492188"/>
      <use xlink:href="#DejaVuSans-65" x="68.701172"/>
      <use xlink:href="#DejaVuSans-72" x="130.224609"/>
      <use xlink:href="#DejaVuSans-61" x="171.337891"/>
      <use xlink:href="#DejaVuSans-74" x="232.617188"/>
      <use xlink:href="#DejaVuSans-69" x="271.826172"/>
      <use xlink:href="#DejaVuSans-6f" x="299.609375"/>
      <use xlink:href="#DejaVuSans-6e" x="360.791016"/>
     </g>
    </g>
   </g>
   <g id="matplotlib.axis_2">
    <g id="ytick_1">
     <g id="line2d_6">
      <defs>
       <path id="mded3de93ab" d="M 0 0 
L -3.5 0 
" style="stroke: #000000; stroke-width: 0.8"/>
      </defs>
      <g>
       <use xlink:href="#mded3de93ab" x="63.2" y="391" style="stroke: #000000; stroke-width: 0.8"/>
      </g>
     </g>
     <g id="text_7">
      <!-- 0 -->
      <g transform="translate(49.8375 394.799219)scale(0.1 -0.1)">
       <use xlink:href="#DejaVuSans-30"/>
      </g>
     </g>
    </g>
    <g id="ytick_2">
     <g id="line2d_7">
      <g>
       <use xlink:href="#mded3de93ab" x="63.2" y="347.146547" style="stroke: #000000; stroke-width: 0.8"/>
      </g>
     </g>
     <g id="text_8">
      <!-- 2000 -->
      <g transform="translate(30.75 350.945766)scale(0.1 -0.1)">
       <use xlink:href="#DejaVuSans-32"/>
       <use xlink:href="#DejaVuSans-30" x="63.623047"/>
       <use xlink:href="#DejaVuSans-30" x="127.246094"/>
       <use xlink:href="#DejaVuSans-30" x="190.869141"/>
      </g>
     </g>
    </g>
    <g id="ytick_3">
     <g id="line2d_8">
      <g>
       <use xlink:href="#mded3de93ab" x="63.2" y="303.293095" style="stroke: #000000; stroke-width: 0.8"/>
      </g>
     </g>
     <g id="text_9">
      <!-- 4000 -->
      <g transform="translate(30.75 307.092314)scale(0.1 -0.1)">
       <use xlink:href="#DejaVuSans-34"/>
       <use xlink:href="#DejaVuSans-30" x="63.623047"/>
       <use xlink:href="#DejaVuSans-30" x="127.246094"/>
       <use xlink:href="#DejaVuSans-30" x="190.869141"/>
      </g>
     </g>
    </g>
    <g id="ytick_4">
     <g id="line2d_9">
      <g>
       <use xlink:href="#mded3de93ab" x="63.2" y="259.439642" style="stroke: #000000; stroke-width: 0.8"/>
      </g>
     </g>
     <g id="text_10">
      <!-- 6000 -->
      <g transform="translate(30.75 263.238861)scale(0.1 -0.1)">
       <use xlink:href="#DejaVuSans-36"/>
       <use xlink:href="#DejaVuSans-30" x="63.623047"/>
       <use xlink:href="#DejaVuSans-30" x="127.246094"/>
       <use xlink:href="#DejaVuSans-30" x="190.869141"/>
      </g>
     </g>
    </g>
    <g id="ytick_5">
     <g id="line2d_10">
      <g>
       <use xlink:href="#mded3de93ab" x="63.2" y="215.58619" style="stroke: #000000; stroke-width: 0.8"/>
      </g>
     </g>
     <g id="text_11">
      <!-- 8000 -->
      <g transform="translate(30.75 219.385408)scale(0.1 -0.1)">
       <use xlink:href="#DejaVuSans-38"/>
       <use xlink:href="#DejaVuSans-30" x="63.623047"/>
       <use xlink:href="#DejaVuSans-30" x="127.246094"/>
       <use xlink:href="#DejaVuSans-30" x="190.869141"/>
      </g>
     </g>
    </g>
    <g id="ytick_6">
     <g id="line2d_11">
      <g>
       <use xlink:href="#mded3de93ab" x="63.2" y="171.732737" style="stroke: #000000; stroke-width: 0.8"/>
      </g>
     </g>
     <g id="text_12">
      <!-- 10000 -->
      <g transform="translate(24.3875 175.531956)scale(0.1 -0.1)">
       <defs>
        <path id="DejaVuSans-31" d="M 794 531 
L 1825 531 
L 1825 4091 
L 703 3866 
L 703 4441 
L 1819 4666 
L 2450 4666 
L 2450 531 
L 3481 531 
L 3481 0 
L 794 0 
L 794 531 
z
" transform="scale(0.015625)"/>
       </defs>
       <use xlink:href="#DejaVuSans-31"/>
       <use xlink:href="#DejaVuSans-30" x="63.623047"/>
       <use xlink:href="#DejaVuSans-30" x="127.246094"/>
       <use xlink:href="#DejaVuSans-30" x="190.869141"/>
       <use xlink:href="#DejaVuSans-30" x="254.492188"/>
      </g>
     </g>
    </g>
    <g id="ytick_7">
     <g id="line2d_12">
      <g>
       <use xlink:href="#mded3de93ab" x="63.2" y="127.879285" style="stroke: #000000; stroke-width: 0.8"/>
      </g>
     </g>
     <g id="text_13">
      <!-- 12000 -->
      <g transform="translate(24.3875 131.678503)scale(0.1 -0.1)">
       <use xlink:href="#DejaVuSans-31"/>
       <use xlink:href="#DejaVuSans-32" x="63.623047"/>
       <use xlink:href="#DejaVuSans-30" x="127.246094"/>
       <use xlink:href="#DejaVuSans-30" x="190.869141"/>
       <use xlink:href="#DejaVuSans-30" x="254.492188"/>
      </g>
     </g>
    </g>
    <g id="ytick_8">
     <g id="line2d_13">
      <g>
       <use xlink:href="#mded3de93ab" x="63.2" y="84.025832" style="stroke: #000000; stroke-width: 0.8"/>
      </g>
     </g>
     <g id="text_14">
      <!-- 14000 -->
      <g transform="translate(24.3875 87.825051)scale(0.1 -0.1)">
       <use xlink:href="#DejaVuSans-31"/>
       <use xlink:href="#DejaVuSans-34" x="63.623047"/>
       <use xlink:href="#DejaVuSans-30" x="127.246094"/>
       <use xlink:href="#DejaVuSans-30" x="190.869141"/>
       <use xlink:href="#DejaVuSans-30" x="254.492188"/>
      </g>
     </g>
    </g>
    <g id="ytick_9">
     <g id="line2d_14">
      <g>
       <use xlink:href="#mded3de93ab" x="63.2" y="40.172379" style="stroke: #000000; stroke-width: 0.8"/>
      </g>
     </g>
     <g id="text_15">
      <!-- 16000 -->
      <g transform="translate(24.3875 43.971598)scale(0.1 -0.1)">
       <use xlink:href="#DejaVuSans-31"/>
       <use xlink:href="#DejaVuSans-36" x="63.623047"/>
       <use xlink:href="#DejaVuSans-30" x="127.246094"/>
       <use xlink:href="#DejaVuSans-30" x="190.869141"/>
       <use xlink:href="#DejaVuSans-30" x="254.492188"/>
      </g>
     </g>
    </g>
    <g id="text_16">
     <!-- Time [ms] -->
     <g transform="translate(18.307812 233.659219)rotate(-90)scale(0.1 -0.1)">
      <defs>
       <path id="DejaVuSans-54" d="M -19 4666 
L 3928 4666 
L 3928 4134 
L 2272 4134 
L 2272 0 
L 1638 0 
L 1638 4134 
L -19 4134 
L -19 4666 
z
" transform="scale(0.015625)"/>
       <path id="DejaVuSans-6d" d="M 3328 2828 
Q 3544 3216 3844 3400 
Q 4144 3584 4550 3584 
Q 5097 3584 5394 3201 
Q 5691 2819 5691 2113 
L 5691 0 
L 5113 0 
L 5113 2094 
Q 5113 2597 4934 2840 
Q 4756 3084 4391 3084 
Q 3944 3084 3684 2787 
Q 3425 2491 3425 1978 
L 3425 0 
L 2847 0 
L 2847 2094 
Q 2847 2600 2669 2842 
Q 2491 3084 2119 3084 
Q 1678 3084 1418 2786 
Q 1159 2488 1159 1978 
L 1159 0 
L 581 0 
L 581 3500 
L 1159 3500 
L 1159 2956 
Q 1356 3278 1631 3431 
Q 1906 3584 2284 3584 
Q 2666 3584 2933 3390 
Q 3200 3197 3328 2828 
z
" transform="scale(0.015625)"/>
       <path id="DejaVuSans-20" transform="scale(0.015625)"/>
       <path id="DejaVuSans-5b" d="M 550 4863 
L 1875 4863 
L 1875 4416 
L 1125 4416 
L 1125 -397 
L 1875 -397 
L 1875 -844 
L 550 -844 
L 550 4863 
z
" transform="scale(0.015625)"/>
       <path id="DejaVuSans-73" d="M 2834 3397 
L 2834 2853 
Q 2591 2978 2328 3040 
Q 2066 3103 1784 3103 
Q 1356 3103 1142 2972 
Q 928 2841 928 2578 
Q 928 2378 1081 2264 
Q 1234 2150 1697 2047 
L 1894 2003 
Q 2506 1872 2764 1633 
Q 3022 1394 3022 966 
Q 3022 478 2636 193 
Q 2250 -91 1575 -91 
Q 1294 -91 989 -36 
Q 684 19 347 128 
L 347 722 
Q 666 556 975 473 
Q 1284 391 1588 391 
Q 1994 391 2212 530 
Q 2431 669 2431 922 
Q 2431 1156 2273 1281 
Q 2116 1406 1581 1522 
L 1381 1569 
Q 847 1681 609 1914 
Q 372 2147 372 2553 
Q 372 3047 722 3315 
Q 1072 3584 1716 3584 
Q 2034 3584 2315 3537 
Q 2597 3491 2834 3397 
z
" transform="scale(0.015625)"/>
       <path id="DejaVuSans-5d" d="M 1947 4863 
L 1947 -844 
L 622 -844 
L 622 -397 
L 1369 -397 
L 1369 4416 
L 622 4416 
L 622 4863 
L 1947 4863 
z
" transform="scale(0.015625)"/>
      </defs>
      <use xlink:href="#DejaVuSans-54"/>
      <use xlink:href="#DejaVuSans-69" x="57.958984"/>
      <use xlink:href="#DejaVuSans-6d" x="85.742188"/>
      <use xlink:href="#DejaVuSans-65" x="183.154297"/>
      <use xlink:href="#DejaVuSans-20" x="244.677734"/>
      <use xlink:href="#DejaVuSans-5b" x="276.464844"/>
      <use xlink:href="#DejaVuSans-6d" x="315.478516"/>
      <use xlink:href="#DejaVuSans-73" x="412.890625"/>
      <use xlink:href="#DejaVuSans-5d" x="464.990234"/>
     </g>
    </g>
   </g>
   <g id="line2d_15">
    <path d="M 63.2 391 
L 76.459259 377.496597 
L 79.326126 374.542367 
L 81.476276 372.368663 
L 91.151952 362.511784 
L 93.66046 359.942136 
L 118.745546 334.35858 
L 130.92973 321.939853 
L 135.588388 317.172362 
L 138.096897 314.634475 
L 142.397197 310.237267 
L 149.922723 302.567184 
L 152.431231 300.01852 
L 169.274074 282.828697 
L 183.608408 268.204342 
L 185.041842 266.767905 
L 187.55035 264.190311 
L 200.092893 251.421218 
L 201.526326 249.944767 
L 238.437237 212.291239 
L 241.304104 209.384678 
L 262.805606 187.444019 
L 266.030831 184.185449 
L 269.614414 180.515413 
L 292.907708 156.759625 
L 298.283083 151.276551 
L 337.344144 111.452715 
L 351.678478 96.825479 
L 389.306106 58.463181 
L 391.814615 55.90823 
L 407.582382 39.815055 
L 421.2 25.930052 
L 421.2 25.930052 
" clip-path="url(#p4cd4fa5779)" style="fill: none; stroke: #1f77b4; stroke-width: 1.5; stroke-linecap: square"/>
   </g>
   <g id="line2d_16">
    <path d="M 63.2 391 
L 99.035836 354.459135 
L 134.871672 317.907216 
L 170.707508 281.369767 
L 206.543343 244.837495 
L 242.379179 208.279845 
L 278.215015 171.744613 
L 314.050851 135.197009 
L 349.886687 98.665224 
L 385.722523 62.115873 
" clip-path="url(#p4cd4fa5779)" style="fill: none"/>
    <defs>
     <path id="m3acaa9740a" d="M -5 5 
L 5 5 
L 5 -5 
L -5 -5 
z
" style="stroke: #1f77b4; stroke-linejoin: miter"/>
    </defs>
    <g clip-path="url(#p4cd4fa5779)">
     <use xlink:href="#m3acaa9740a" x="63.2" y="391" style="fill: #1f77b4; stroke: #1f77b4; stroke-linejoin: miter"/>
     <use xlink:href="#m3acaa9740a" x="99.035836" y="354.459135" style="fill: #1f77b4; stroke: #1f77b4; stroke-linejoin: miter"/>
     <use xlink:href="#m3acaa9740a" x="134.871672" y="317.907216" style="fill: #1f77b4; stroke: #1f77b4; stroke-linejoin: miter"/>
     <use xlink:href="#m3acaa9740a" x="170.707508" y="281.369767" style="fill: #1f77b4; stroke: #1f77b4; stroke-linejoin: miter"/>
     <use xlink:href="#m3acaa9740a" x="206.543343" y="244.837495" style="fill: #1f77b4; stroke: #1f77b4; stroke-linejoin: miter"/>
     <use xlink:href="#m3acaa9740a" x="242.379179" y="208.279845" style="fill: #1f77b4; stroke: #1f77b4; stroke-linejoin: miter"/>
     <use xlink:href="#m3acaa9740a" x="278.215015" y="171.744613" style="fill: #1f77b4; stroke: #1f77b4; stroke-linejoin: miter"/>
     <use xlink:href="#m3acaa9740a" x="314.050851" y="135.197009" style="fill: #1f77b4; stroke: #1f77b4; stroke-linejoin: miter"/>
     <use xlink:href="#m3acaa9740a" x="349.886687" y="98.665224" style="fill: #1f77b4; stroke: #1f77b4; stroke-linejoin: miter"/>
     <use xlink:href="#m3acaa9740a" x="385.722523" y="62.115873" style="fill: #1f77b4; stroke: #1f77b4; stroke-linejoin: miter"/>
    </g>
   </g>
   <g id="line2d_17">
    <path d="M 63.2 391 
L 67.858659 386.451204 
L 247.754555 210.337291 
L 255.638438 202.600823 
L 258.863664 199.453737 
L 280.365165 178.420143 
L 283.232032 175.603866 
L 298.641441 160.512119 
L 320.501301 139.113734 
L 392.172973 68.946526 
L 421.2 40.537834 
L 421.2 40.537834 
" clip-path="url(#p4cd4fa5779)" style="fill: none; stroke: #ff7f0e; stroke-width: 1.5; stroke-linecap: square"/>
   </g>
   <g id="line2d_18">
    <path d="M 63.2 391 
L 99.035836 355.922989 
L 134.871672 320.841828 
L 170.707508 285.757209 
L 206.543343 250.676085 
L 242.379179 215.602407 
L 278.215015 180.516987 
L 314.050851 145.440753 
L 349.886687 110.351049 
L 385.722523 75.269517 
" clip-path="url(#p4cd4fa5779)" style="fill: none"/>
    <defs>
     <path id="mc5331347ea" d="M 0 4.5 
C 1.193414 4.5 2.338109 4.025852 3.181981 3.181981 
C 4.025852 2.338109 4.5 1.193414 4.5 0 
C 4.5 -1.193414 4.025852 -2.338109 3.181981 -3.181981 
C 2.338109 -4.025852 1.193414 -4.5 0 -4.5 
C -1.193414 -4.5 -2.338109 -4.025852 -3.181981 -3.181981 
C -4.025852 -2.338109 -4.5 -1.193414 -4.5 0 
C -4.5 1.193414 -4.025852 2.338109 -3.181981 3.181981 
C -2.338109 4.025852 -1.193414 4.5 0 4.5 
z
" style="stroke: #ff7f0e"/>
    </defs>
    <g clip-path="url(#p4cd4fa5779)">
     <use xlink:href="#mc5331347ea" x="63.2" y="391" style="fill: #ff7f0e; stroke: #ff7f0e"/>
     <use xlink:href="#mc5331347ea" x="99.035836" y="355.922989" style="fill: #ff7f0e; stroke: #ff7f0e"/>
     <use xlink:href="#mc5331347ea" x="134.871672" y="320.841828" style="fill: #ff7f0e; stroke: #ff7f0e"/>
     <use xlink:href="#mc5331347ea" x="170.707508" y="285.757209" style="fill: #ff7f0e; stroke: #ff7f0e"/>
     <use xlink:href="#mc5331347ea" x="206.543343" y="250.676085" style="fill: #ff7f0e; stroke: #ff7f0e"/>
     <use xlink:href="#mc5331347ea" x="242.379179" y="215.602407" style="fill: #ff7f0e; stroke: #ff7f0e"/>
     <use xlink:href="#mc5331347ea" x="278.215015" y="180.516987" style="fill: #ff7f0e; stroke: #ff7f0e"/>
     <use xlink:href="#mc5331347ea" x="314.050851" y="145.440753" style="fill: #ff7f0e; stroke: #ff7f0e"/>
     <use xlink:href="#mc5331347ea" x="349.886687" y="110.351049" style="fill: #ff7f0e; stroke: #ff7f0e"/>
     <use xlink:href="#mc5331347ea" x="385.722523" y="75.269517" style="fill: #ff7f0e; stroke: #ff7f0e"/>
    </g>
   </g>
   <g id="line2d_19">
    <path d="M 63.2 391 
L 63.558358 390.642474 
L 63.916717 389.960805 
L 70.008809 384.033252 
L 77.892693 376.289554 
L 149.206006 306.799075 
L 149.564364 306.114286 
L 167.123924 289.041288 
L 170.349149 285.897235 
L 176.7996 279.650438 
L 181.458258 275.084842 
L 188.625425 268.074966 
L 208.693493 248.56203 
L 209.051852 247.877815 
L 256.355155 201.829419 
L 278.573373 180.144448 
L 278.931732 179.469749 
L 283.232032 175.239182 
L 283.59039 174.544671 
L 305.45025 153.300916 
L 311.900701 147.003516 
L 316.201001 142.833185 
L 327.31011 132.017877 
L 334.835636 124.713131 
L 335.193994 124.030784 
L 355.62042 104.192776 
L 369.954755 90.225877 
L 373.538338 86.791518 
L 379.272072 81.216339 
L 379.63043 80.523068 
L 400.415215 60.366333 
L 421.2 40.159272 
L 421.2 40.159272 
" clip-path="url(#p4cd4fa5779)" style="fill: none; stroke: #2ca02c; stroke-width: 1.5; stroke-linecap: square"/>
   </g>
   <g id="line2d_20">
    <path d="M 63.2 391 
L 99.035836 355.663331 
L 134.871672 320.729524 
L 170.707508 285.558048 
L 206.543343 250.640502 
L 242.379179 215.456414 
L 278.215015 180.494069 
L 314.050851 144.928476 
L 349.886687 109.826509 
L 385.722523 74.66665 
" clip-path="url(#p4cd4fa5779)" style="fill: none"/>
    <defs>
     <path id="m841f20bcc6" d="M 0 -4 
L -3.804226 -1.236068 
L -2.351141 3.236068 
L 2.351141 3.236068 
L 3.804226 -1.236068 
z
" style="stroke: #2ca02c; stroke-linejoin: miter"/>
    </defs>
    <g clip-path="url(#p4cd4fa5779)">
     <use xlink:href="#m841f20bcc6" x="63.2" y="391" style="fill: #2ca02c; stroke: #2ca02c; stroke-linejoin: miter"/>
     <use xlink:href="#m841f20bcc6" x="99.035836" y="355.663331" style="fill: #2ca02c; stroke: #2ca02c; stroke-linejoin: miter"/>
     <use xlink:href="#m841f20bcc6" x="134.871672" y="320.729524" style="fill: #2ca02c; stroke: #2ca02c; stroke-linejoin: miter"/>
     <use xlink:href="#m841f20bcc6" x="170.707508" y="285.558048" style="fill: #2ca02c; stroke: #2ca02c; stroke-linejoin: miter"/>
     <use xlink:href="#m841f20bcc6" x="206.543343" y="250.640502" style="fill: #2ca02c; stroke: #2ca02c; stroke-linejoin: miter"/>
     <use xlink:href="#m841f20bcc6" x="242.379179" y="215.456414" style="fill: #2ca02c; stroke: #2ca02c; stroke-linejoin: miter"/>
     <use xlink:href="#m841f20bcc6" x="278.215015" y="180.494069" style="fill: #2ca02c; stroke: #2ca02c; stroke-linejoin: miter"/>
     <use xlink:href="#m841f20bcc6" x="314.050851" y="144.928476" style="fill: #2ca02c; stroke: #2ca02c; stroke-linejoin: miter"/>
     <use xlink:href="#m841f20bcc6" x="349.886687" y="109.826509" style="fill: #2ca02c; stroke: #2ca02c; stroke-linejoin: miter"/>
     <use xlink:href="#m841f20bcc6" x="385.722523" y="74.66665" style="fill: #2ca02c; stroke: #2ca02c; stroke-linejoin: miter"/>
    </g>
   </g>
   <g id="line2d_21">
    <path d="M 63.2 391 
L 63.558358 390.321223 
L 70.008809 384.037113 
L 79.326126 374.958964 
L 103.336136 351.560378 
L 118.387187 336.968212 
L 118.745546 336.2925 
L 123.404204 331.707613 
L 123.762563 331.021613 
L 126.987788 327.897138 
L 132.721522 322.350045 
L 150.639439 304.853508 
L 162.823624 293.037066 
L 176.082883 280.129396 
L 176.441241 279.455358 
L 182.533333 273.496281 
L 188.625425 267.56283 
L 234.853654 222.600372 
L 235.212012 221.91831 
L 283.232032 175.238321 
L 283.59039 174.554944 
L 291.474274 166.820385 
L 291.832633 166.139196 
L 296.132933 162.018233 
L 308.675475 149.817068 
L 316.201001 142.427889 
L 330.176977 128.911281 
L 339.135936 120.132892 
L 340.569369 118.753811 
L 340.927728 118.079669 
L 347.378178 111.795625 
L 366.012813 93.721319 
L 372.104905 87.777287 
L 376.046847 83.922441 
L 390.381181 69.983994 
L 390.73954 69.30662 
L 396.473273 63.691935 
L 414.74955 45.877961 
L 421.2 39.566428 
L 421.2 39.566428 
" clip-path="url(#p4cd4fa5779)" style="fill: none; stroke: #d62728; stroke-width: 1.5; stroke-linecap: square"/>
   </g>
   <g id="line2d_22">
    <path d="M 63.2 391 
L 99.035836 355.746569 
L 134.871672 320.24118 
L 170.707508 285.304034 
L 206.543343 250.07647 
L 242.379179 214.938527 
L 278.215015 180.059488 
L 314.050851 144.485576 
L 349.886687 109.311266 
L 385.722523 74.464968 
" clip-path="url(#p4cd4fa5779)" style="fill: none"/>
    <defs>
     <path id="m3ab1aa3c70" d="M -0 3.5 
L 3.5 -3.5 
L -3.5 -3.5 
z
" style="stroke: #d62728; stroke-linejoin: miter"/>
    </defs>
    <g clip-path="url(#p4cd4fa5779)">
     <use xlink:href="#m3ab1aa3c70" x="63.2" y="391" style="fill: #d62728; stroke: #d62728; stroke-linejoin: miter"/>
     <use xlink:href="#m3ab1aa3c70" x="99.035836" y="355.746569" style="fill: #d62728; stroke: #d62728; stroke-linejoin: miter"/>
     <use xlink:href="#m3ab1aa3c70" x="134.871672" y="320.24118" style="fill: #d62728; stroke: #d62728; stroke-linejoin: miter"/>
     <use xlink:href="#m3ab1aa3c70" x="170.707508" y="285.304034" style="fill: #d62728; stroke: #d62728; stroke-linejoin: miter"/>
     <use xlink:href="#m3ab1aa3c70" x="206.543343" y="250.07647" style="fill: #d62728; stroke: #d62728; stroke-linejoin: miter"/>
     <use xlink:href="#m3ab1aa3c70" x="242.379179" y="214.938527" style="fill: #d62728; stroke: #d62728; stroke-linejoin: miter"/>
     <use xlink:href="#m3ab1aa3c70" x="278.215015" y="180.059488" style="fill: #d62728; stroke: #d62728; stroke-linejoin: miter"/>
     <use xlink:href="#m3ab1aa3c70" x="314.050851" y="144.485576" style="fill: #d62728; stroke: #d62728; stroke-linejoin: miter"/>
     <use xlink:href="#m3ab1aa3c70" x="349.886687" y="109.311266" style="fill: #d62728; stroke: #d62728; stroke-linejoin: miter"/>
     <use xlink:href="#m3ab1aa3c70" x="385.722523" y="74.464968" style="fill: #d62728; stroke: #d62728; stroke-linejoin: miter"/>
    </g>
   </g>
   <g id="line2d_23">
    <path d="M 63.2 391 
L 162.465265 289.764993 
L 205.826627 245.538431 
L 209.768569 241.526597 
L 331.252052 117.645685 
L 343.794595 104.849243 
L 421.2 25.904553 
L 421.2 25.904553 
" clip-path="url(#p4cd4fa5779)" style="fill: none; stroke: #9467bd; stroke-width: 1.5; stroke-linecap: square"/>
   </g>
   <g id="line2d_24">
    <path d="M 63.2 391 
L 99.035836 354.456324 
L 134.871672 317.910488 
L 170.707508 281.365081 
L 206.543343 244.82201 
L 242.379179 208.270419 
L 278.215015 171.72715 
L 314.050851 135.188326 
L 349.886687 98.646347 
L 385.722523 62.099625 
" clip-path="url(#p4cd4fa5779)" style="fill: none"/>
    <defs>
     <path id="mce368e1c63" d="M 0 -3 
L -3 3 
L 3 3 
z
" style="stroke: #9467bd; stroke-linejoin: miter"/>
    </defs>
    <g clip-path="url(#p4cd4fa5779)">
     <use xlink:href="#mce368e1c63" x="63.2" y="391" style="fill: #9467bd; stroke: #9467bd; stroke-linejoin: miter"/>
     <use xlink:href="#mce368e1c63" x="99.035836" y="354.456324" style="fill: #9467bd; stroke: #9467bd; stroke-linejoin: miter"/>
     <use xlink:href="#mce368e1c63" x="134.871672" y="317.910488" style="fill: #9467bd; stroke: #9467bd; stroke-linejoin: miter"/>
     <use xlink:href="#mce368e1c63" x="170.707508" y="281.365081" style="fill: #9467bd; stroke: #9467bd; stroke-linejoin: miter"/>
     <use xlink:href="#mce368e1c63" x="206.543343" y="244.82201" style="fill: #9467bd; stroke: #9467bd; stroke-linejoin: miter"/>
     <use xlink:href="#mce368e1c63" x="242.379179" y="208.270419" style="fill: #9467bd; stroke: #9467bd; stroke-linejoin: miter"/>
     <use xlink:href="#mce368e1c63" x="278.215015" y="171.72715" style="fill: #9467bd; stroke: #9467bd; stroke-linejoin: miter"/>
     <use xlink:href="#mce368e1c63" x="314.050851" y="135.188326" style="fill: #9467bd; stroke: #9467bd; stroke-linejoin: miter"/>
     <use xlink:href="#mce368e1c63" x="349.886687" y="98.646347" style="fill: #9467bd; stroke: #9467bd; stroke-linejoin: miter"/>
     <use xlink:href="#mce368e1c63" x="385.722523" y="62.099625" style="fill: #9467bd; stroke: #9467bd; stroke-linejoin: miter"/>
    </g>
   </g>
   <g id="line2d_25">
    <path d="M 63.2 391 
L 421.2 25.921474 
L 421.2 25.921474 
" clip-path="url(#p4cd4fa5779)" style="fill: none; stroke: #8c564b; stroke-width: 1.5; stroke-linecap: square"/>
   </g>
   <g id="line2d_26">
    <path d="M 63.2 391 
L 99.035836 354.455611 
L 134.871672 317.911213 
L 170.707508 281.366816 
L 206.543343 244.822418 
L 242.379179 208.278021 
L 278.215015 171.733623 
L 314.050851 135.189221 
L 349.886687 98.644828 
L 385.722523 62.10043 
" clip-path="url(#p4cd4fa5779)" style="fill: none"/>
    <defs>
     <path id="m7148b59b6a" d="M -2.5 -0 
L 2.5 2.5 
L 2.5 -2.5 
z
" style="stroke: #8c564b; stroke-linejoin: miter"/>
    </defs>
    <g clip-path="url(#p4cd4fa5779)">
     <use xlink:href="#m7148b59b6a" x="63.2" y="391" style="fill: #8c564b; stroke: #8c564b; stroke-linejoin: miter"/>
     <use xlink:href="#m7148b59b6a" x="99.035836" y="354.455611" style="fill: #8c564b; stroke: #8c564b; stroke-linejoin: miter"/>
     <use xlink:href="#m7148b59b6a" x="134.871672" y="317.911213" style="fill: #8c564b; stroke: #8c564b; stroke-linejoin: miter"/>
     <use xlink:href="#m7148b59b6a" x="170.707508" y="281.366816" style="fill: #8c564b; stroke: #8c564b; stroke-linejoin: miter"/>
     <use xlink:href="#m7148b59b6a" x="206.543343" y="244.822418" style="fill: #8c564b; stroke: #8c564b; stroke-linejoin: miter"/>
     <use xlink:href="#m7148b59b6a" x="242.379179" y="208.278021" style="fill: #8c564b; stroke: #8c564b; stroke-linejoin: miter"/>
     <use xlink:href="#m7148b59b6a" x="278.215015" y="171.733623" style="fill: #8c564b; stroke: #8c564b; stroke-linejoin: miter"/>
     <use xlink:href="#m7148b59b6a" x="314.050851" y="135.189221" style="fill: #8c564b; stroke: #8c564b; stroke-linejoin: miter"/>
     <use xlink:href="#m7148b59b6a" x="349.886687" y="98.644828" style="fill: #8c564b; stroke: #8c564b; stroke-linejoin: miter"/>
     <use xlink:href="#m7148b59b6a" x="385.722523" y="62.10043" style="fill: #8c564b; stroke: #8c564b; stroke-linejoin: miter"/>
    </g>
   </g>
   <g id="patch_3">
    <path d="M 63.2 391 
L 63.2 25.92 
" style="fill: none; stroke: #000000; stroke-width: 0.8; stroke-linejoin: miter; stroke-linecap: square"/>
   </g>
   <g id="patch_4">
    <path d="M 421.2 391 
L 421.2 25.92 
" style="fill: none; stroke: #000000; stroke-width: 0.8; stroke-linejoin: miter; stroke-linecap: square"/>
   </g>
   <g id="patch_5">
    <path d="M 63.2 391 
L 421.2 391 
" style="fill: none; stroke: #000000; stroke-width: 0.8; stroke-linejoin: miter; stroke-linecap: square"/>
   </g>
   <g id="patch_6">
    <path d="M 63.2 25.92 
L 421.2 25.92 
" style="fill: none; stroke: #000000; stroke-width: 0.8; stroke-linejoin: miter; stroke-linecap: square"/>
   </g>
   <g id="text_17">
    <!-- Interval: 16.666667 [ms] -->
    <g transform="translate(167.288125 19.92)scale(0.12 -0.12)">
     <defs>
      <path id="DejaVuSans-76" d="M 191 3500 
L 800 3500 
L 1894 563 
L 2988 3500 
L 3597 3500 
L 2284 0 
L 1503 0 
L 191 3500 
z
" transform="scale(0.015625)"/>
      <path id="DejaVuSans-6c" d="M 603 4863 
L 1178 4863 
L 1178 0 
L 603 0 
L 603 4863 
z
" transform="scale(0.015625)"/>
      <path id="DejaVuSans-3a" d="M 750 794 
L 1409 794 
L 1409 0 
L 750 0 
L 750 794 
z
M 750 3309 
L 1409 3309 
L 1409 2516 
L 750 2516 
L 750 3309 
z
" transform="scale(0.015625)"/>
      <path id="DejaVuSans-2e" d="M 684 794 
L 1344 794 
L 1344 0 
L 684 0 
L 684 794 
z
" transform="scale(0.015625)"/>
      <path id="DejaVuSans-37" d="M 525 4666 
L 3525 4666 
L 3525 4397 
L 1831 0 
L 1172 0 
L 2766 4134 
L 525 4134 
L 525 4666 
z
" transform="scale(0.015625)"/>
     </defs>
     <use xlink:href="#DejaVuSans-49"/>
     <use xlink:href="#DejaVuSans-6e" x="29.492188"/>
     <use xlink:href="#DejaVuSans-74" x="92.871094"/>
     <use xlink:href="#DejaVuSans-65" x="132.080078"/>
     <use xlink:href="#DejaVuSans-72" x="193.603516"/>
     <use xlink:href="#DejaVuSans-76" x="234.716797"/>
     <use xlink:href="#DejaVuSans-61" x="293.896484"/>
     <use xlink:href="#DejaVuSans-6c" x="355.175781"/>
     <use xlink:href="#DejaVuSans-3a" x="382.958984"/>
     <use xlink:href="#DejaVuSans-20" x="416.650391"/>
     <use xlink:href="#DejaVuSans-31" x="448.4375"/>
     <use xlink:href="#DejaVuSans-36" x="512.060547"/>
     <use xlink:href="#DejaVuSans-2e" x="575.683594"/>
     <use xlink:href="#DejaVuSans-36" x="607.470703"/>
     <use xlink:href="#DejaVuSans-36" x="671.09375"/>
     <use xlink:href="#DejaVuSans-36" x="734.716797"/>
     <use xlink:href="#DejaVuSans-36" x="798.339844"/>
     <use xlink:href="#DejaVuSans-36" x="861.962891"/>
     <use xlink:href="#DejaVuSans-37" x="925.585938"/>
     <use xlink:href="#DejaVuSans-20" x="989.208984"/>
     <use xlink:href="#DejaVuSans-5b" x="1020.996094"/>
     <use xlink:href="#DejaVuSans-6d" x="1060.009766"/>
     <use xlink:href="#DejaVuSans-73" x="1157.421875"/>
     <use xlink:href="#DejaVuSans-5d" x="1209.521484"/>
    </g>
   </g>
   <g id="legend_1">
    <g id="patch_7">
     <path d="M 70.2 121.98875 
L 281.617188 121.98875 
Q 283.617188 121.98875 283.617188 119.98875 
L 283.617188 32.92 
Q 283.617188 30.92 281.617188 30.92 
L 70.2 30.92 
Q 68.2 30.92 68.2 32.92 
L 68.2 119.98875 
Q 68.2 121.98875 70.2 121.98875 
z
" style="fill: #ffffff; opacity: 0.8; stroke: #cccccc; stroke-linejoin: miter"/>
    </g>
    <g id="line2d_27">
     <path d="M 72.2 39.018438 
L 82.2 39.018438 
L 92.2 39.018438 
" style="fill: none"/>
     <g>
      <use xlink:href="#m3acaa9740a" x="82.2" y="39.018438" style="fill: #1f77b4; stroke: #1f77b4; stroke-linejoin: miter"/>
     </g>
    </g>
    <g id="text_18">
     <!-- StdSleepTimer -->
     <g transform="translate(100.2 42.518438)scale(0.1 -0.1)">
      <defs>
       <path id="DejaVuSans-53" d="M 3425 4513 
L 3425 3897 
Q 3066 4069 2747 4153 
Q 2428 4238 2131 4238 
Q 1616 4238 1336 4038 
Q 1056 3838 1056 3469 
Q 1056 3159 1242 3001 
Q 1428 2844 1947 2747 
L 2328 2669 
Q 3034 2534 3370 2195 
Q 3706 1856 3706 1288 
Q 3706 609 3251 259 
Q 2797 -91 1919 -91 
Q 1588 -91 1214 -16 
Q 841 59 441 206 
L 441 856 
Q 825 641 1194 531 
Q 1563 422 1919 422 
Q 2459 422 2753 634 
Q 3047 847 3047 1241 
Q 3047 1584 2836 1778 
Q 2625 1972 2144 2069 
L 1759 2144 
Q 1053 2284 737 2584 
Q 422 2884 422 3419 
Q 422 4038 858 4394 
Q 1294 4750 2059 4750 
Q 2388 4750 2728 4690 
Q 3069 4631 3425 4513 
z
" transform="scale(0.015625)"/>
       <path id="DejaVuSans-64" d="M 2906 2969 
L 2906 4863 
L 3481 4863 
L 3481 0 
L 2906 0 
L 2906 525 
Q 2725 213 2448 61 
Q 2172 -91 1784 -91 
Q 1150 -91 751 415 
Q 353 922 353 1747 
Q 353 2572 751 3078 
Q 1150 3584 1784 3584 
Q 2172 3584 2448 3432 
Q 2725 3281 2906 2969 
z
M 947 1747 
Q 947 1113 1208 752 
Q 1469 391 1925 391 
Q 2381 391 2643 752 
Q 2906 1113 2906 1747 
Q 2906 2381 2643 2742 
Q 2381 3103 1925 3103 
Q 1469 3103 1208 2742 
Q 947 2381 947 1747 
z
" transform="scale(0.015625)"/>
       <path id="DejaVuSans-70" d="M 1159 525 
L 1159 -1331 
L 581 -1331 
L 581 3500 
L 1159 3500 
L 1159 2969 
Q 1341 3281 1617 3432 
Q 1894 3584 2278 3584 
Q 2916 3584 3314 3078 
Q 3713 2572 3713 1747 
Q 3713 922 3314 415 
Q 2916 -91 2278 -91 
Q 1894 -91 1617 61 
Q 1341 213 1159 525 
z
M 3116 1747 
Q 3116 2381 2855 2742 
Q 2594 3103 2138 3103 
Q 1681 3103 1420 2742 
Q 1159 2381 1159 1747 
Q 1159 1113 1420 752 
Q 1681 391 2138 391 
Q 2594 391 2855 752 
Q 3116 1113 3116 1747 
z
" transform="scale(0.015625)"/>
      </defs>
      <use xlink:href="#DejaVuSans-53"/>
      <use xlink:href="#DejaVuSans-74" x="63.476562"/>
      <use xlink:href="#DejaVuSans-64" x="102.685547"/>
      <use xlink:href="#DejaVuSans-53" x="166.162109"/>
      <use xlink:href="#DejaVuSans-6c" x="229.638672"/>
      <use xlink:href="#DejaVuSans-65" x="257.421875"/>
      <use xlink:href="#DejaVuSans-65" x="318.945312"/>
      <use xlink:href="#DejaVuSans-70" x="380.46875"/>
      <use xlink:href="#DejaVuSans-54" x="443.945312"/>
      <use xlink:href="#DejaVuSans-69" x="501.904297"/>
      <use xlink:href="#DejaVuSans-6d" x="529.6875"/>
      <use xlink:href="#DejaVuSans-65" x="627.099609"/>
      <use xlink:href="#DejaVuSans-72" x="688.623047"/>
     </g>
    </g>
    <g id="line2d_28">
     <path d="M 72.2 53.696563 
L 82.2 53.696563 
L 92.2 53.696563 
" style="fill: none"/>
     <g>
      <use xlink:href="#mc5331347ea" x="82.2" y="53.696563" style="fill: #ff7f0e; stroke: #ff7f0e"/>
     </g>
    </g>
    <g id="text_19">
     <!-- MultiMediaTimer -->
     <g transform="translate(100.2 57.196563)scale(0.1 -0.1)">
      <defs>
       <path id="DejaVuSans-4d" d="M 628 4666 
L 1569 4666 
L 2759 1491 
L 3956 4666 
L 4897 4666 
L 4897 0 
L 4281 0 
L 4281 4097 
L 3078 897 
L 2444 897 
L 1241 4097 
L 1241 0 
L 628 0 
L 628 4666 
z
" transform="scale(0.015625)"/>
       <path id="DejaVuSans-75" d="M 544 1381 
L 544 3500 
L 1119 3500 
L 1119 1403 
Q 1119 906 1312 657 
Q 1506 409 1894 409 
Q 2359 409 2629 706 
Q 2900 1003 2900 1516 
L 2900 3500 
L 3475 3500 
L 3475 0 
L 2900 0 
L 2900 538 
Q 2691 219 2414 64 
Q 2138 -91 1772 -91 
Q 1169 -91 856 284 
Q 544 659 544 1381 
z
M 1991 3584 
L 1991 3584 
z
" transform="scale(0.015625)"/>
      </defs>
      <use xlink:href="#DejaVuSans-4d"/>
      <use xlink:href="#DejaVuSans-75" x="86.279297"/>
      <use xlink:href="#DejaVuSans-6c" x="149.658203"/>
      <use xlink:href="#DejaVuSans-74" x="177.441406"/>
      <use xlink:href="#DejaVuSans-69" x="216.650391"/>
      <use xlink:href="#DejaVuSans-4d" x="244.433594"/>
      <use xlink:href="#DejaVuSans-65" x="330.712891"/>
      <use xlink:href="#DejaVuSans-64" x="392.236328"/>
      <use xlink:href="#DejaVuSans-69" x="455.712891"/>
      <use xlink:href="#DejaVuSans-61" x="483.496094"/>
      <use xlink:href="#DejaVuSans-54" x="544.775391"/>
      <use xlink:href="#DejaVuSans-69" x="602.734375"/>
      <use xlink:href="#DejaVuSans-6d" x="630.517578"/>
      <use xlink:href="#DejaVuSans-65" x="727.929688"/>
      <use xlink:href="#DejaVuSans-72" x="789.453125"/>
     </g>
    </g>
    <g id="line2d_29">
     <path d="M 72.2 68.374687 
L 82.2 68.374687 
L 92.2 68.374687 
" style="fill: none"/>
     <g>
      <use xlink:href="#m841f20bcc6" x="82.2" y="68.374687" style="fill: #2ca02c; stroke: #2ca02c; stroke-linejoin: miter"/>
     </g>
    </g>
    <g id="text_20">
     <!-- TimerQueueTimer -->
     <g transform="translate(100.2 71.874687)scale(0.1 -0.1)">
      <defs>
       <path id="DejaVuSans-51" d="M 2522 4238 
Q 1834 4238 1429 3725 
Q 1025 3213 1025 2328 
Q 1025 1447 1429 934 
Q 1834 422 2522 422 
Q 3209 422 3611 934 
Q 4013 1447 4013 2328 
Q 4013 3213 3611 3725 
Q 3209 4238 2522 4238 
z
M 3406 84 
L 4238 -825 
L 3475 -825 
L 2784 -78 
Q 2681 -84 2626 -87 
Q 2572 -91 2522 -91 
Q 1538 -91 948 567 
Q 359 1225 359 2328 
Q 359 3434 948 4092 
Q 1538 4750 2522 4750 
Q 3503 4750 4090 4092 
Q 4678 3434 4678 2328 
Q 4678 1516 4351 937 
Q 4025 359 3406 84 
z
" transform="scale(0.015625)"/>
      </defs>
      <use xlink:href="#DejaVuSans-54"/>
      <use xlink:href="#DejaVuSans-69" x="57.958984"/>
      <use xlink:href="#DejaVuSans-6d" x="85.742188"/>
      <use xlink:href="#DejaVuSans-65" x="183.154297"/>
      <use xlink:href="#DejaVuSans-72" x="244.677734"/>
      <use xlink:href="#DejaVuSans-51" x="285.791016"/>
      <use xlink:href="#DejaVuSans-75" x="364.501953"/>
      <use xlink:href="#DejaVuSans-65" x="427.880859"/>
      <use xlink:href="#DejaVuSans-75" x="489.404297"/>
      <use xlink:href="#DejaVuSans-65" x="552.783203"/>
      <use xlink:href="#DejaVuSans-54" x="614.306641"/>
      <use xlink:href="#DejaVuSans-69" x="672.265625"/>
      <use xlink:href="#DejaVuSans-6d" x="700.048828"/>
      <use xlink:href="#DejaVuSans-65" x="797.460938"/>
      <use xlink:href="#DejaVuSans-72" x="858.984375"/>
     </g>
    </g>
    <g id="line2d_30">
     <path d="M 72.2 83.052813 
L 82.2 83.052813 
L 92.2 83.052813 
" style="fill: none"/>
     <g>
      <use xlink:href="#m3ab1aa3c70" x="82.2" y="83.052813" style="fill: #d62728; stroke: #d62728; stroke-linejoin: miter"/>
     </g>
    </g>
    <g id="text_21">
     <!-- ThreadPoolTimer -->
     <g transform="translate(100.2 86.552813)scale(0.1 -0.1)">
      <defs>
       <path id="DejaVuSans-68" d="M 3513 2113 
L 3513 0 
L 2938 0 
L 2938 2094 
Q 2938 2591 2744 2837 
Q 2550 3084 2163 3084 
Q 1697 3084 1428 2787 
Q 1159 2491 1159 1978 
L 1159 0 
L 581 0 
L 581 4863 
L 1159 4863 
L 1159 2956 
Q 1366 3272 1645 3428 
Q 1925 3584 2291 3584 
Q 2894 3584 3203 3211 
Q 3513 2838 3513 2113 
z
" transform="scale(0.015625)"/>
       <path id="DejaVuSans-50" d="M 1259 4147 
L 1259 2394 
L 2053 2394 
Q 2494 2394 2734 2622 
Q 2975 2850 2975 3272 
Q 2975 3691 2734 3919 
Q 2494 4147 2053 4147 
L 1259 4147 
z
M 628 4666 
L 2053 4666 
Q 2838 4666 3239 4311 
Q 3641 3956 3641 3272 
Q 3641 2581 3239 2228 
Q 2838 1875 2053 1875 
L 1259 1875 
L 1259 0 
L 628 0 
L 628 4666 
z
" transform="scale(0.015625)"/>
      </defs>
      <use xlink:href="#DejaVuSans-54"/>
      <use xlink:href="#DejaVuSans-68" x="61.083984"/>
      <use xlink:href="#DejaVuSans-72" x="124.462891"/>
      <use xlink:href="#DejaVuSans-65" x="163.326172"/>
      <use xlink:href="#DejaVuSans-61" x="224.849609"/>
      <use xlink:href="#DejaVuSans-64" x="286.128906"/>
      <use xlink:href="#DejaVuSans-50" x="349.605469"/>
      <use xlink:href="#DejaVuSans-6f" x="406.283203"/>
      <use xlink:href="#DejaVuSans-6f" x="467.464844"/>
      <use xlink:href="#DejaVuSans-6c" x="528.646484"/>
      <use xlink:href="#DejaVuSans-54" x="556.429688"/>
      <use xlink:href="#DejaVuSans-69" x="614.388672"/>
      <use xlink:href="#DejaVuSans-6d" x="642.171875"/>
      <use xlink:href="#DejaVuSans-65" x="739.583984"/>
      <use xlink:href="#DejaVuSans-72" x="801.107422"/>
     </g>
    </g>
    <g id="line2d_31">
     <path d="M 72.2 97.730937 
L 82.2 97.730937 
L 92.2 97.730937 
" style="fill: none"/>
     <g>
      <use xlink:href="#mce368e1c63" x="82.2" y="97.730937" style="fill: #9467bd; stroke: #9467bd; stroke-linejoin: miter"/>
     </g>
    </g>
    <g id="text_22">
     <!-- WaitableTimer -->
     <g transform="translate(100.2 101.230937)scale(0.1 -0.1)">
      <defs>
       <path id="DejaVuSans-57" d="M 213 4666 
L 850 4666 
L 1831 722 
L 2809 4666 
L 3519 4666 
L 4500 722 
L 5478 4666 
L 6119 4666 
L 4947 0 
L 4153 0 
L 3169 4050 
L 2175 0 
L 1381 0 
L 213 4666 
z
" transform="scale(0.015625)"/>
       <path id="DejaVuSans-62" d="M 3116 1747 
Q 3116 2381 2855 2742 
Q 2594 3103 2138 3103 
Q 1681 3103 1420 2742 
Q 1159 2381 1159 1747 
Q 1159 1113 1420 752 
Q 1681 391 2138 391 
Q 2594 391 2855 752 
Q 3116 1113 3116 1747 
z
M 1159 2969 
Q 1341 3281 1617 3432 
Q 1894 3584 2278 3584 
Q 2916 3584 3314 3078 
Q 3713 2572 3713 1747 
Q 3713 922 3314 415 
Q 2916 -91 2278 -91 
Q 1894 -91 1617 61 
Q 1341 213 1159 525 
L 1159 0 
L 581 0 
L 581 4863 
L 1159 4863 
L 1159 2969 
z
" transform="scale(0.015625)"/>
      </defs>
      <use xlink:href="#DejaVuSans-57"/>
      <use xlink:href="#DejaVuSans-61" x="92.501953"/>
      <use xlink:href="#DejaVuSans-69" x="153.78125"/>
      <use xlink:href="#DejaVuSans-74" x="181.564453"/>
      <use xlink:href="#DejaVuSans-61" x="220.773438"/>
      <use xlink:href="#DejaVuSans-62" x="282.052734"/>
      <use xlink:href="#DejaVuSans-6c" x="345.529297"/>
      <use xlink:href="#DejaVuSans-65" x="373.3125"/>
      <use xlink:href="#DejaVuSans-54" x="434.835938"/>
      <use xlink:href="#DejaVuSans-69" x="492.794922"/>
      <use xlink:href="#DejaVuSans-6d" x="520.578125"/>
      <use xlink:href="#DejaVuSans-65" x="617.990234"/>
      <use xlink:href="#DejaVuSans-72" x="679.513672"/>
     </g>
    </g>
    <g id="line2d_32">
     <path d="M 72.2 112.409063 
L 82.2 112.409063 
L 92.2 112.409063 
" style="fill: none"/>
     <g>
      <use xlink:href="#m7148b59b6a" x="82.2" y="112.409063" style="fill: #8c564b; stroke: #8c564b; stroke-linejoin: miter"/>
     </g>
    </g>
    <g id="text_23">
     <!-- PerformanceCounterSoftSleepTimer -->
     <g transform="translate(100.2 115.909063)scale(0.1 -0.1)">
      <defs>
       <path id="DejaVuSans-66" d="M 2375 4863 
L 2375 4384 
L 1825 4384 
Q 1516 4384 1395 4259 
Q 1275 4134 1275 3809 
L 1275 3500 
L 2222 3500 
L 2222 3053 
L 1275 3053 
L 1275 0 
L 697 0 
L 697 3053 
L 147 3053 
L 147 3500 
L 697 3500 
L 697 3744 
Q 697 4328 969 4595 
Q 1241 4863 1831 4863 
L 2375 4863 
z
" transform="scale(0.015625)"/>
       <path id="DejaVuSans-63" d="M 3122 3366 
L 3122 2828 
Q 2878 2963 2633 3030 
Q 2388 3097 2138 3097 
Q 1578 3097 1268 2742 
Q 959 2388 959 1747 
Q 959 1106 1268 751 
Q 1578 397 2138 397 
Q 2388 397 2633 464 
Q 2878 531 3122 666 
L 3122 134 
Q 2881 22 2623 -34 
Q 2366 -91 2075 -91 
Q 1284 -91 818 406 
Q 353 903 353 1747 
Q 353 2603 823 3093 
Q 1294 3584 2113 3584 
Q 2378 3584 2631 3529 
Q 2884 3475 3122 3366 
z
" transform="scale(0.015625)"/>
       <path id="DejaVuSans-43" d="M 4122 4306 
L 4122 3641 
Q 3803 3938 3442 4084 
Q 3081 4231 2675 4231 
Q 1875 4231 1450 3742 
Q 1025 3253 1025 2328 
Q 1025 1406 1450 917 
Q 1875 428 2675 428 
Q 3081 428 3442 575 
Q 3803 722 4122 1019 
L 4122 359 
Q 3791 134 3420 21 
Q 3050 -91 2638 -91 
Q 1578 -91 968 557 
Q 359 1206 359 2328 
Q 359 3453 968 4101 
Q 1578 4750 2638 4750 
Q 3056 4750 3426 4639 
Q 3797 4528 4122 4306 
z
" transform="scale(0.015625)"/>
      </defs>
      <use xlink:href="#DejaVuSans-50"/>
      <use xlink:href="#DejaVuSans-65" x="56.677734"/>
      <use xlink:href="#DejaVuSans-72" x="118.201172"/>
      <use xlink:href="#DejaVuSans-66" x="159.314453"/>
      <use xlink:href="#DejaVuSans-6f" x="194.519531"/>
      <use xlink:href="#DejaVuSans-72" x="255.701172"/>
      <use xlink:href="#DejaVuSans-6d" x="295.064453"/>
      <use xlink:href="#DejaVuSans-61" x="392.476562"/>
      <use xlink:href="#DejaVuSans-6e" x="453.755859"/>
      <use xlink:href="#DejaVuSans-63" x="517.134766"/>
      <use xlink:href="#DejaVuSans-65" x="572.115234"/>
      <use xlink:href="#DejaVuSans-43" x="633.638672"/>
      <use xlink:href="#DejaVuSans-6f" x="703.462891"/>
      <use xlink:href="#DejaVuSans-75" x="764.644531"/>
      <use xlink:href="#DejaVuSans-6e" x="828.023438"/>
      <use xlink:href="#DejaVuSans-74" x="891.402344"/>
      <use xlink:href="#DejaVuSans-65" x="930.611328"/>
      <use xlink:href="#DejaVuSans-72" x="992.134766"/>
      <use xlink:href="#DejaVuSans-53" x="1033.248047"/>
      <use xlink:href="#DejaVuSans-6f" x="1096.724609"/>
      <use xlink:href="#DejaVuSans-66" x="1157.90625"/>
      <use xlink:href="#DejaVuSans-74" x="1191.361328"/>
      <use xlink:href="#DejaVuSans-53" x="1230.570312"/>
      <use xlink:href="#DejaVuSans-6c" x="1294.046875"/>
      <use xlink:href="#DejaVuSans-65" x="1321.830078"/>
      <use xlink:href="#DejaVuSans-65" x="1383.353516"/>
      <use xlink:href="#DejaVuSans-70" x="1444.876953"/>
      <use xlink:href="#DejaVuSans-54" x="1508.353516"/>
      <use xlink:href="#DejaVuSans-69" x="1566.3125"/>
      <use xlink:href="#DejaVuSans-6d" x="1594.095703"/>
      <use xlink:href="#DejaVuSans-65" x="1691.507812"/>
      <use xlink:href="#DejaVuSans-72" x="1753.03125"/>
     </g>
    </g>
   </g>
  </g>
 </g>
 <defs>
  <clipPath id="p4cd4fa5779">
   <rect x="63.2" y="25.92" width="358" height="365.08"/>
  </clipPath>
 </defs>
</svg>
