<?xml version="1.0" encoding="utf-8" standalone="no"?>
<!DOCTYPE svg PUBLIC "-//W3C//DTD SVG 1.1//EN"
  "http://www.w3.org/Graphics/SVG/1.1/DTD/svg11.dtd">
<svg xmlns:xlink="http://www.w3.org/1999/xlink" width="432pt" height="432pt" viewBox="0 0 432 432" xmlns="http://www.w3.org/2000/svg" version="1.1">
 <metadata>
  <rdf:RDF xmlns:dc="http://purl.org/dc/elements/1.1/" xmlns:cc="http://creativecommons.org/ns#" xmlns:rdf="http://www.w3.org/1999/02/22-rdf-syntax-ns#">
   <cc:Work>
    <dc:type rdf:resource="http://purl.org/dc/dcmitype/StillImage"/>
    <dc:date>2022-08-03T16:02:06.853256</dc:date>
    <dc:format>image/svg+xml</dc:format>
    <dc:creator>
     <cc:Agent>
      <dc:title>Matplotlib v3.5.1, https://matplotlib.org/</dc:title>
     </cc:Agent>
    </dc:creator>
   </cc:Work>
  </rdf:RDF>
 </metadata>
 <defs>
  <style type="text/css">*{stroke-linejoin: round; stroke-linecap: butt}</style>
 </defs>
 <g id="figure_1">
  <g id="patch_1">
   <path d="M 0 432 
L 432 432 
L 432 0 
L 0 0 
z
" style="fill: #ffffff"/>
  </g>
  <g id="axes_1">
   <g id="patch_2">
    <path d="M 63.2 391 
L 421.2 391 
L 421.2 25.92 
L 63.2 25.92 
z
" style="fill: #ffffff"/>
   </g>
   <g id="matplotlib.axis_1">
    <g id="xtick_1">
     <g id="line2d_1">
      <defs>
       <path id="me2a17c5d72" d="M 0 0 
L 0 3.5 
" style="stroke: #000000; stroke-width: 0.8"/>
      </defs>
      <g>
       <use xlink:href="#me2a17c5d72" x="63.2" y="391" style="stroke: #000000; stroke-width: 0.8"/>
      </g>
     </g>
     <g id="text_1">
      <!-- 0 -->
      <g transform="translate(60.01875 405.598437)scale(0.1 -0.1)">
       <defs>
        <path id="DejaVuSans-30" d="M 2034 4250 
Q 1547 4250 1301 3770 
Q 1056 3291 1056 2328 
Q 1056 1369 1301 889 
Q 1547 409 2034 409 
Q 2525 409 2770 889 
Q 3016 1369 3016 2328 
Q 3016 3291 2770 3770 
Q 2525 4250 2034 4250 
z
M 2034 4750 
Q 2819 4750 3233 4129 
Q 3647 3509 3647 2328 
Q 3647 1150 3233 529 
Q 2819 -91 2034 -91 
Q 1250 -91 836 529 
Q 422 1150 422 2328 
Q 422 3509 836 4129 
Q 1250 4750 2034 4750 
z
" transform="scale(0.015625)"/>
       </defs>
       <use xlink:href="#DejaVuSans-30"/>
      </g>
     </g>
    </g>
    <g id="xtick_2">
     <g id="line2d_2">
      <g>
       <use xlink:href="#me2a17c5d72" x="134.871672" y="391" style="stroke: #000000; stroke-width: 0.8"/>
      </g>
     </g>
     <g id="text_2">
      <!-- 200 -->
      <g transform="translate(125.327922 405.598437)scale(0.1 -0.1)">
       <defs>
        <path id="DejaVuSans-32" d="M 1228 531 
L 3431 531 
L 3431 0 
L 469 0 
L 469 531 
Q 828 903 1448 1529 
Q 2069 2156 2228 2338 
Q 2531 2678 2651 2914 
Q 2772 3150 2772 3378 
Q 2772 3750 2511 3984 
Q 2250 4219 1831 4219 
Q 1534 4219 1204 4116 
Q 875 4013 500 3803 
L 500 4441 
Q 881 4594 1212 4672 
Q 1544 4750 1819 4750 
Q 2544 4750 2975 4387 
Q 3406 4025 3406 3419 
Q 3406 3131 3298 2873 
Q 3191 2616 2906 2266 
Q 2828 2175 2409 1742 
Q 1991 1309 1228 531 
z
" transform="scale(0.015625)"/>
       </defs>
       <use xlink:href="#DejaVuSans-32"/>
       <use xlink:href="#DejaVuSans-30" x="63.623047"/>
       <use xlink:href="#DejaVuSans-30" x="127.246094"/>
      </g>
     </g>
    </g>
    <g id="xtick_3">
     <g id="line2d_3">
      <g>
       <use xlink:href="#me2a17c5d72" x="206.543343" y="391" style="stroke: #000000; stroke-width: 0.8"/>
      </g>
     </g>
     <g id="text_3">
      <!-- 400 -->
      <g transform="translate(196.999593 405.598437)scale(0.1 -0.1)">
       <defs>
        <path id="DejaVuSans-34" d="M 2419 4116 
L 825 1625 
L 2419 1625 
L 2419 4116 
z
M 2253 4666 
L 3047 4666 
L 3047 1625 
L 3713 1625 
L 3713 1100 
L 3047 1100 
L 3047 0 
L 2419 0 
L 2419 1100 
L 313 1100 
L 313 1709 
L 2253 4666 
z
" transform="scale(0.015625)"/>
       </defs>
       <use xlink:href="#DejaVuSans-34"/>
       <use xlink:href="#DejaVuSans-30" x="63.623047"/>
       <use xlink:href="#DejaVuSans-30" x="127.246094"/>
      </g>
     </g>
    </g>
    <g id="xtick_4">
     <g id="line2d_4">
      <g>
       <use xlink:href="#me2a17c5d72" x="278.215015" y="391" style="stroke: #000000; stroke-width: 0.8"/>
      </g>
     </g>
     <g id="text_4">
      <!-- 600 -->
      <g transform="translate(268.671265 405.598437)scale(0.1 -0.1)">
       <defs>
        <path id="DejaVuSans-36" d="M 2113 2584 
Q 1688 2584 1439 2293 
Q 1191 2003 1191 1497 
Q 1191 994 1439 701 
Q 1688 409 2113 409 
Q 2538 409 2786 701 
Q 3034 994 3034 1497 
Q 3034 2003 2786 2293 
Q 2538 2584 2113 2584 
z
M 3366 4563 
L 3366 3988 
Q 3128 4100 2886 4159 
Q 2644 4219 2406 4219 
Q 1781 4219 1451 3797 
Q 1122 3375 1075 2522 
Q 1259 2794 1537 2939 
Q 1816 3084 2150 3084 
Q 2853 3084 3261 2657 
Q 3669 2231 3669 1497 
Q 3669 778 3244 343 
Q 2819 -91 2113 -91 
Q 1303 -91 875 529 
Q 447 1150 447 2328 
Q 447 3434 972 4092 
Q 1497 4750 2381 4750 
Q 2619 4750 2861 4703 
Q 3103 4656 3366 4563 
z
" transform="scale(0.015625)"/>
       </defs>
       <use xlink:href="#DejaVuSans-36"/>
       <use xlink:href="#DejaVuSans-30" x="63.623047"/>
       <use xlink:href="#DejaVuSans-30" x="127.246094"/>
      </g>
     </g>
    </g>
    <g id="xtick_5">
     <g id="line2d_5">
      <g>
       <use xlink:href="#me2a17c5d72" x="349.886687" y="391" style="stroke: #000000; stroke-width: 0.8"/>
      </g>
     </g>
     <g id="text_5">
      <!-- 800 -->
      <g transform="translate(340.342937 405.598437)scale(0.1 -0.1)">
       <defs>
        <path id="DejaVuSans-38" d="M 2034 2216 
Q 1584 2216 1326 1975 
Q 1069 1734 1069 1313 
Q 1069 891 1326 650 
Q 1584 409 2034 409 
Q 2484 409 2743 651 
Q 3003 894 3003 1313 
Q 3003 1734 2745 1975 
Q 2488 2216 2034 2216 
z
M 1403 2484 
Q 997 2584 770 2862 
Q 544 3141 544 3541 
Q 544 4100 942 4425 
Q 1341 4750 2034 4750 
Q 2731 4750 3128 4425 
Q 3525 4100 3525 3541 
Q 3525 3141 3298 2862 
Q 3072 2584 2669 2484 
Q 3125 2378 3379 2068 
Q 3634 1759 3634 1313 
Q 3634 634 3220 271 
Q 2806 -91 2034 -91 
Q 1263 -91 848 271 
Q 434 634 434 1313 
Q 434 1759 690 2068 
Q 947 2378 1403 2484 
z
M 1172 3481 
Q 1172 3119 1398 2916 
Q 1625 2713 2034 2713 
Q 2441 2713 2670 2916 
Q 2900 3119 2900 3481 
Q 2900 3844 2670 4047 
Q 2441 4250 2034 4250 
Q 1625 4250 1398 4047 
Q 1172 3844 1172 3481 
z
" transform="scale(0.015625)"/>
       </defs>
       <use xlink:href="#DejaVuSans-38"/>
       <use xlink:href="#DejaVuSans-30" x="63.623047"/>
       <use xlink:href="#DejaVuSans-30" x="127.246094"/>
      </g>
     </g>
    </g>
    <g id="text_6">
     <!-- Iteration -->
     <g transform="translate(220.991406 419.276563)scale(0.1 -0.1)">
      <defs>
       <path id="DejaVuSans-49" d="M 628 4666 
L 1259 4666 
L 1259 0 
L 628 0 
L 628 4666 
z
" transform="scale(0.015625)"/>
       <path id="DejaVuSans-74" d="M 1172 4494 
L 1172 3500 
L 2356 3500 
L 2356 3053 
L 1172 3053 
L 1172 1153 
Q 1172 725 1289 603 
Q 1406 481 1766 481 
L 2356 481 
L 2356 0 
L 1766 0 
Q 1100 0 847 248 
Q 594 497 594 1153 
L 594 3053 
L 172 3053 
L 172 3500 
L 594 3500 
L 594 4494 
L 1172 4494 
z
" transform="scale(0.015625)"/>
       <path id="DejaVuSans-65" d="M 3597 1894 
L 3597 1613 
L 953 1613 
Q 991 1019 1311 708 
Q 1631 397 2203 397 
Q 2534 397 2845 478 
Q 3156 559 3463 722 
L 3463 178 
Q 3153 47 2828 -22 
Q 2503 -91 2169 -91 
Q 1331 -91 842 396 
Q 353 884 353 1716 
Q 353 2575 817 3079 
Q 1281 3584 2069 3584 
Q 2775 3584 3186 3129 
Q 3597 2675 3597 1894 
z
M 3022 2063 
Q 3016 2534 2758 2815 
Q 2500 3097 2075 3097 
Q 1594 3097 1305 2825 
Q 1016 2553 972 2059 
L 3022 2063 
z
" transform="scale(0.015625)"/>
       <path id="DejaVuSans-72" d="M 2631 2963 
Q 2534 3019 2420 3045 
Q 2306 3072 2169 3072 
Q 1681 3072 1420 2755 
Q 1159 2438 1159 1844 
L 1159 0 
L 581 0 
L 581 3500 
L 1159 3500 
L 1159 2956 
Q 1341 3275 1631 3429 
Q 1922 3584 2338 3584 
Q 2397 3584 2469 3576 
Q 2541 3569 2628 3553 
L 2631 2963 
z
" transform="scale(0.015625)"/>
       <path id="DejaVuSans-61" d="M 2194 1759 
Q 1497 1759 1228 1600 
Q 959 1441 959 1056 
Q 959 750 1161 570 
Q 1363 391 1709 391 
Q 2188 391 2477 730 
Q 2766 1069 2766 1631 
L 2766 1759 
L 2194 1759 
z
M 3341 1997 
L 3341 0 
L 2766 0 
L 2766 531 
Q 2569 213 2275 61 
Q 1981 -91 1556 -91 
Q 1019 -91 701 211 
Q 384 513 384 1019 
Q 384 1609 779 1909 
Q 1175 2209 1959 2209 
L 2766 2209 
L 2766 2266 
Q 2766 2663 2505 2880 
Q 2244 3097 1772 3097 
Q 1472 3097 1187 3025 
Q 903 2953 641 2809 
L 641 3341 
Q 956 3463 1253 3523 
Q 1550 3584 1831 3584 
Q 2591 3584 2966 3190 
Q 3341 2797 3341 1997 
z
" transform="scale(0.015625)"/>
       <path id="DejaVuSans-69" d="M 603 3500 
L 1178 3500 
L 1178 0 
L 603 0 
L 603 3500 
z
M 603 4863 
L 1178 4863 
L 1178 4134 
L 603 4134 
L 603 4863 
z
" transform="scale(0.015625)"/>
       <path id="DejaVuSans-6f" d="M 1959 3097 
Q 1497 3097 1228 2736 
Q 959 2375 959 1747 
Q 959 1119 1226 758 
Q 1494 397 1959 397 
Q 2419 397 2687 759 
Q 2956 1122 2956 1747 
Q 2956 2369 2687 2733 
Q 2419 3097 1959 3097 
z
M 1959 3584 
Q 2709 3584 3137 3096 
Q 3566 2609 3566 1747 
Q 3566 888 3137 398 
Q 2709 -91 1959 -91 
Q 1206 -91 779 398 
Q 353 888 353 1747 
Q 353 2609 779 3096 
Q 1206 3584 1959 3584 
z
" transform="scale(0.015625)"/>
       <path id="DejaVuSans-6e" d="M 3513 2113 
L 3513 0 
L 2938 0 
L 2938 2094 
Q 2938 2591 2744 2837 
Q 2550 3084 2163 3084 
Q 1697 3084 1428 2787 
Q 1159 2491 1159 1978 
L 1159 0 
L 581 0 
L 581 3500 
L 1159 3500 
L 1159 2956 
Q 1366 3272 1645 3428 
Q 1925 3584 2291 3584 
Q 2894 3584 3203 3211 
Q 3513 2838 3513 2113 
z
" transform="scale(0.015625)"/>
      </defs>
      <use xlink:href="#DejaVuSans-49"/>
      <use xlink:href="#DejaVuSans-74" x="29.492188"/>
      <use xlink:href="#DejaVuSans-65" x="68.701172"/>
      <use xlink:href="#DejaVuSans-72" x="130.224609"/>
      <use xlink:href="#DejaVuSans-61" x="171.337891"/>
      <use xlink:href="#DejaVuSans-74" x="232.617188"/>
      <use xlink:href="#DejaVuSans-69" x="271.826172"/>
      <use xlink:href="#DejaVuSans-6f" x="299.609375"/>
      <use xlink:href="#DejaVuSans-6e" x="360.791016"/>
     </g>
    </g>
   </g>
   <g id="matplotlib.axis_2">
    <g id="ytick_1">
     <g id="line2d_6">
      <defs>
       <path id="me4b93e4b69" d="M 0 0 
L -3.5 0 
" style="stroke: #000000; stroke-width: 0.8"/>
      </defs>
      <g>
       <use xlink:href="#me4b93e4b69" x="63.2" y="391" style="stroke: #000000; stroke-width: 0.8"/>
      </g>
     </g>
     <g id="text_7">
      <!-- 0 -->
      <g transform="translate(49.8375 394.799219)scale(0.1 -0.1)">
       <use xlink:href="#DejaVuSans-30"/>
      </g>
     </g>
    </g>
    <g id="ytick_2">
     <g id="line2d_7">
      <g>
       <use xlink:href="#me4b93e4b69" x="63.2" y="336.183183" style="stroke: #000000; stroke-width: 0.8"/>
      </g>
     </g>
     <g id="text_8">
      <!-- 5000 -->
      <g transform="translate(30.75 339.982401)scale(0.1 -0.1)">
       <defs>
        <path id="DejaVuSans-35" d="M 691 4666 
L 3169 4666 
L 3169 4134 
L 1269 4134 
L 1269 2991 
Q 1406 3038 1543 3061 
Q 1681 3084 1819 3084 
Q 2600 3084 3056 2656 
Q 3513 2228 3513 1497 
Q 3513 744 3044 326 
Q 2575 -91 1722 -91 
Q 1428 -91 1123 -41 
Q 819 9 494 109 
L 494 744 
Q 775 591 1075 516 
Q 1375 441 1709 441 
Q 2250 441 2565 725 
Q 2881 1009 2881 1497 
Q 2881 1984 2565 2268 
Q 2250 2553 1709 2553 
Q 1456 2553 1204 2497 
Q 953 2441 691 2322 
L 691 4666 
z
" transform="scale(0.015625)"/>
       </defs>
       <use xlink:href="#DejaVuSans-35"/>
       <use xlink:href="#DejaVuSans-30" x="63.623047"/>
       <use xlink:href="#DejaVuSans-30" x="127.246094"/>
       <use xlink:href="#DejaVuSans-30" x="190.869141"/>
      </g>
     </g>
    </g>
    <g id="ytick_3">
     <g id="line2d_8">
      <g>
       <use xlink:href="#me4b93e4b69" x="63.2" y="281.366365" style="stroke: #000000; stroke-width: 0.8"/>
      </g>
     </g>
     <g id="text_9">
      <!-- 10000 -->
      <g transform="translate(24.3875 285.165584)scale(0.1 -0.1)">
       <defs>
        <path id="DejaVuSans-31" d="M 794 531 
L 1825 531 
L 1825 4091 
L 703 3866 
L 703 4441 
L 1819 4666 
L 2450 4666 
L 2450 531 
L 3481 531 
L 3481 0 
L 794 0 
L 794 531 
z
" transform="scale(0.015625)"/>
       </defs>
       <use xlink:href="#DejaVuSans-31"/>
       <use xlink:href="#DejaVuSans-30" x="63.623047"/>
       <use xlink:href="#DejaVuSans-30" x="127.246094"/>
       <use xlink:href="#DejaVuSans-30" x="190.869141"/>
       <use xlink:href="#DejaVuSans-30" x="254.492188"/>
      </g>
     </g>
    </g>
    <g id="ytick_4">
     <g id="line2d_9">
      <g>
       <use xlink:href="#me4b93e4b69" x="63.2" y="226.549548" style="stroke: #000000; stroke-width: 0.8"/>
      </g>
     </g>
     <g id="text_10">
      <!-- 15000 -->
      <g transform="translate(24.3875 230.348767)scale(0.1 -0.1)">
       <use xlink:href="#DejaVuSans-31"/>
       <use xlink:href="#DejaVuSans-35" x="63.623047"/>
       <use xlink:href="#DejaVuSans-30" x="127.246094"/>
       <use xlink:href="#DejaVuSans-30" x="190.869141"/>
       <use xlink:href="#DejaVuSans-30" x="254.492188"/>
      </g>
     </g>
    </g>
    <g id="ytick_5">
     <g id="line2d_10">
      <g>
       <use xlink:href="#me4b93e4b69" x="63.2" y="171.732731" style="stroke: #000000; stroke-width: 0.8"/>
      </g>
     </g>
     <g id="text_11">
      <!-- 20000 -->
      <g transform="translate(24.3875 175.531949)scale(0.1 -0.1)">
       <use xlink:href="#DejaVuSans-32"/>
       <use xlink:href="#DejaVuSans-30" x="63.623047"/>
       <use xlink:href="#DejaVuSans-30" x="127.246094"/>
       <use xlink:href="#DejaVuSans-30" x="190.869141"/>
       <use xlink:href="#DejaVuSans-30" x="254.492188"/>
      </g>
     </g>
    </g>
    <g id="ytick_6">
     <g id="line2d_11">
      <g>
       <use xlink:href="#me4b93e4b69" x="63.2" y="116.915913" style="stroke: #000000; stroke-width: 0.8"/>
      </g>
     </g>
     <g id="text_12">
      <!-- 25000 -->
      <g transform="translate(24.3875 120.715132)scale(0.1 -0.1)">
       <use xlink:href="#DejaVuSans-32"/>
       <use xlink:href="#DejaVuSans-35" x="63.623047"/>
       <use xlink:href="#DejaVuSans-30" x="127.246094"/>
       <use xlink:href="#DejaVuSans-30" x="190.869141"/>
       <use xlink:href="#DejaVuSans-30" x="254.492188"/>
      </g>
     </g>
    </g>
    <g id="ytick_7">
     <g id="line2d_12">
      <g>
       <use xlink:href="#me4b93e4b69" x="63.2" y="62.099096" style="stroke: #000000; stroke-width: 0.8"/>
      </g>
     </g>
     <g id="text_13">
      <!-- 30000 -->
      <g transform="translate(24.3875 65.898315)scale(0.1 -0.1)">
       <defs>
        <path id="DejaVuSans-33" d="M 2597 2516 
Q 3050 2419 3304 2112 
Q 3559 1806 3559 1356 
Q 3559 666 3084 287 
Q 2609 -91 1734 -91 
Q 1441 -91 1130 -33 
Q 819 25 488 141 
L 488 750 
Q 750 597 1062 519 
Q 1375 441 1716 441 
Q 2309 441 2620 675 
Q 2931 909 2931 1356 
Q 2931 1769 2642 2001 
Q 2353 2234 1838 2234 
L 1294 2234 
L 1294 2753 
L 1863 2753 
Q 2328 2753 2575 2939 
Q 2822 3125 2822 3475 
Q 2822 3834 2567 4026 
Q 2313 4219 1838 4219 
Q 1578 4219 1281 4162 
Q 984 4106 628 3988 
L 628 4550 
Q 988 4650 1302 4700 
Q 1616 4750 1894 4750 
Q 2613 4750 3031 4423 
Q 3450 4097 3450 3541 
Q 3450 3153 3228 2886 
Q 3006 2619 2597 2516 
z
" transform="scale(0.015625)"/>
       </defs>
       <use xlink:href="#DejaVuSans-33"/>
       <use xlink:href="#DejaVuSans-30" x="63.623047"/>
       <use xlink:href="#DejaVuSans-30" x="127.246094"/>
       <use xlink:href="#DejaVuSans-30" x="190.869141"/>
       <use xlink:href="#DejaVuSans-30" x="254.492188"/>
      </g>
     </g>
    </g>
    <g id="text_14">
     <!-- Time [ms] -->
     <g transform="translate(18.307812 233.659219)rotate(-90)scale(0.1 -0.1)">
      <defs>
       <path id="DejaVuSans-54" d="M -19 4666 
L 3928 4666 
L 3928 4134 
L 2272 4134 
L 2272 0 
L 1638 0 
L 1638 4134 
L -19 4134 
L -19 4666 
z
" transform="scale(0.015625)"/>
       <path id="DejaVuSans-6d" d="M 3328 2828 
Q 3544 3216 3844 3400 
Q 4144 3584 4550 3584 
Q 5097 3584 5394 3201 
Q 5691 2819 5691 2113 
L 5691 0 
L 5113 0 
L 5113 2094 
Q 5113 2597 4934 2840 
Q 4756 3084 4391 3084 
Q 3944 3084 3684 2787 
Q 3425 2491 3425 1978 
L 3425 0 
L 2847 0 
L 2847 2094 
Q 2847 2600 2669 2842 
Q 2491 3084 2119 3084 
Q 1678 3084 1418 2786 
Q 1159 2488 1159 1978 
L 1159 0 
L 581 0 
L 581 3500 
L 1159 3500 
L 1159 2956 
Q 1356 3278 1631 3431 
Q 1906 3584 2284 3584 
Q 2666 3584 2933 3390 
Q 3200 3197 3328 2828 
z
" transform="scale(0.015625)"/>
       <path id="DejaVuSans-20" transform="scale(0.015625)"/>
       <path id="DejaVuSans-5b" d="M 550 4863 
L 1875 4863 
L 1875 4416 
L 1125 4416 
L 1125 -397 
L 1875 -397 
L 1875 -844 
L 550 -844 
L 550 4863 
z
" transform="scale(0.015625)"/>
       <path id="DejaVuSans-73" d="M 2834 3397 
L 2834 2853 
Q 2591 2978 2328 3040 
Q 2066 3103 1784 3103 
Q 1356 3103 1142 2972 
Q 928 2841 928 2578 
Q 928 2378 1081 2264 
Q 1234 2150 1697 2047 
L 1894 2003 
Q 2506 1872 2764 1633 
Q 3022 1394 3022 966 
Q 3022 478 2636 193 
Q 2250 -91 1575 -91 
Q 1294 -91 989 -36 
Q 684 19 347 128 
L 347 722 
Q 666 556 975 473 
Q 1284 391 1588 391 
Q 1994 391 2212 530 
Q 2431 669 2431 922 
Q 2431 1156 2273 1281 
Q 2116 1406 1581 1522 
L 1381 1569 
Q 847 1681 609 1914 
Q 372 2147 372 2553 
Q 372 3047 722 3315 
Q 1072 3584 1716 3584 
Q 2034 3584 2315 3537 
Q 2597 3491 2834 3397 
z
" transform="scale(0.015625)"/>
       <path id="DejaVuSans-5d" d="M 1947 4863 
L 1947 -844 
L 622 -844 
L 622 -397 
L 1369 -397 
L 1369 4416 
L 622 4416 
L 622 4863 
L 1947 4863 
z
" transform="scale(0.015625)"/>
      </defs>
      <use xlink:href="#DejaVuSans-54"/>
      <use xlink:href="#DejaVuSans-69" x="57.958984"/>
      <use xlink:href="#DejaVuSans-6d" x="85.742188"/>
      <use xlink:href="#DejaVuSans-65" x="183.154297"/>
      <use xlink:href="#DejaVuSans-20" x="244.677734"/>
      <use xlink:href="#DejaVuSans-5b" x="276.464844"/>
      <use xlink:href="#DejaVuSans-6d" x="315.478516"/>
      <use xlink:href="#DejaVuSans-73" x="412.890625"/>
      <use xlink:href="#DejaVuSans-5d" x="464.990234"/>
     </g>
    </g>
   </g>
   <g id="line2d_13">
    <path d="M 63.2 391 
L 104.411211 348.971002 
L 113.37017 339.839817 
L 141.68048 310.970328 
L 212.993794 238.240594 
L 222.311111 228.745084 
L 252.054855 198.410737 
L 264.955756 185.250588 
L 274.631431 175.393269 
L 304.016817 145.421303 
L 313.334134 135.924205 
L 340.211011 108.509193 
L 349.886687 98.649103 
L 361.354154 86.948369 
L 371.388188 76.712519 
L 387.514314 60.275537 
L 394.323123 53.337238 
L 421.2 25.924307 
L 421.2 25.924307 
" clip-path="url(#p17956eb932)" style="fill: none; stroke: #1f77b4; stroke-width: 1.5; stroke-linecap: square"/>
   </g>
   <g id="line2d_14">
    <path d="M 63.2 391 
L 99.035836 354.456518 
L 134.871672 317.90671 
L 170.707508 281.369269 
L 206.543343 244.814363 
L 242.379179 208.282575 
L 278.215015 171.729176 
L 314.050851 135.189459 
L 349.886687 98.649103 
L 385.722523 62.096158 
" clip-path="url(#p17956eb932)" style="fill: none"/>
    <defs>
     <path id="m3171cee0f3" d="M -5 5 
L 5 5 
L 5 -5 
L -5 -5 
z
" style="stroke: #1f77b4; stroke-linejoin: miter"/>
    </defs>
    <g clip-path="url(#p17956eb932)">
     <use xlink:href="#m3171cee0f3" x="63.2" y="391" style="fill: #1f77b4; stroke: #1f77b4; stroke-linejoin: miter"/>
     <use xlink:href="#m3171cee0f3" x="99.035836" y="354.456518" style="fill: #1f77b4; stroke: #1f77b4; stroke-linejoin: miter"/>
     <use xlink:href="#m3171cee0f3" x="134.871672" y="317.90671" style="fill: #1f77b4; stroke: #1f77b4; stroke-linejoin: miter"/>
     <use xlink:href="#m3171cee0f3" x="170.707508" y="281.369269" style="fill: #1f77b4; stroke: #1f77b4; stroke-linejoin: miter"/>
     <use xlink:href="#m3171cee0f3" x="206.543343" y="244.814363" style="fill: #1f77b4; stroke: #1f77b4; stroke-linejoin: miter"/>
     <use xlink:href="#m3171cee0f3" x="242.379179" y="208.282575" style="fill: #1f77b4; stroke: #1f77b4; stroke-linejoin: miter"/>
     <use xlink:href="#m3171cee0f3" x="278.215015" y="171.729176" style="fill: #1f77b4; stroke: #1f77b4; stroke-linejoin: miter"/>
     <use xlink:href="#m3171cee0f3" x="314.050851" y="135.189459" style="fill: #1f77b4; stroke: #1f77b4; stroke-linejoin: miter"/>
     <use xlink:href="#m3171cee0f3" x="349.886687" y="98.649103" style="fill: #1f77b4; stroke: #1f77b4; stroke-linejoin: miter"/>
     <use xlink:href="#m3171cee0f3" x="385.722523" y="62.096158" style="fill: #1f77b4; stroke: #1f77b4; stroke-linejoin: miter"/>
    </g>
   </g>
   <g id="line2d_15">
    <path d="M 63.2 391 
L 382.855656 68.272306 
L 386.797598 64.299444 
L 421.2 29.568353 
L 421.2 29.568353 
" clip-path="url(#p17956eb932)" style="fill: none; stroke: #ff7f0e; stroke-width: 1.5; stroke-linecap: square"/>
   </g>
   <g id="line2d_16">
    <path d="M 63.2 391 
L 99.035836 354.817216 
L 134.871672 318.638467 
L 170.707508 282.463146 
L 206.543343 246.285958 
L 242.379179 210.101821 
L 278.215015 173.922701 
L 314.050851 137.74444 
L 349.886687 101.559953 
L 385.722523 65.387863 
" clip-path="url(#p17956eb932)" style="fill: none"/>
    <defs>
     <path id="m35036cde50" d="M 0 4.5 
C 1.193414 4.5 2.338109 4.025852 3.181981 3.181981 
C 4.025852 2.338109 4.5 1.193414 4.5 0 
C 4.5 -1.193414 4.025852 -2.338109 3.181981 -3.181981 
C 2.338109 -4.025852 1.193414 -4.5 0 -4.5 
C -1.193414 -4.5 -2.338109 -4.025852 -3.181981 -3.181981 
C -4.025852 -2.338109 -4.5 -1.193414 -4.5 0 
C -4.5 1.193414 -4.025852 2.338109 -3.181981 3.181981 
C -2.338109 4.025852 -1.193414 4.5 0 4.5 
z
" style="stroke: #ff7f0e"/>
    </defs>
    <g clip-path="url(#p17956eb932)">
     <use xlink:href="#m35036cde50" x="63.2" y="391" style="fill: #ff7f0e; stroke: #ff7f0e"/>
     <use xlink:href="#m35036cde50" x="99.035836" y="354.817216" style="fill: #ff7f0e; stroke: #ff7f0e"/>
     <use xlink:href="#m35036cde50" x="134.871672" y="318.638467" style="fill: #ff7f0e; stroke: #ff7f0e"/>
     <use xlink:href="#m35036cde50" x="170.707508" y="282.463146" style="fill: #ff7f0e; stroke: #ff7f0e"/>
     <use xlink:href="#m35036cde50" x="206.543343" y="246.285958" style="fill: #ff7f0e; stroke: #ff7f0e"/>
     <use xlink:href="#m35036cde50" x="242.379179" y="210.101821" style="fill: #ff7f0e; stroke: #ff7f0e"/>
     <use xlink:href="#m35036cde50" x="278.215015" y="173.922701" style="fill: #ff7f0e; stroke: #ff7f0e"/>
     <use xlink:href="#m35036cde50" x="314.050851" y="137.74444" style="fill: #ff7f0e; stroke: #ff7f0e"/>
     <use xlink:href="#m35036cde50" x="349.886687" y="101.559953" style="fill: #ff7f0e; stroke: #ff7f0e"/>
     <use xlink:href="#m35036cde50" x="385.722523" y="65.387863" style="fill: #ff7f0e; stroke: #ff7f0e"/>
    </g>
   </g>
   <g id="line2d_17">
    <path d="M 63.2 391 
L 63.916717 390.146773 
L 66.783584 387.374674 
L 67.5003 386.501227 
L 72.158959 381.94168 
L 72.875676 381.086071 
L 76.817618 377.242708 
L 77.534334 376.378914 
L 82.90971 371.096921 
L 83.626426 370.245561 
L 88.285085 365.663109 
L 89.001802 364.808361 
L 92.227027 361.694189 
L 92.943744 360.819715 
L 97.960761 355.769458 
L 134.154955 319.355336 
L 134.871672 318.496526 
L 142.397197 311.031999 
L 143.113914 310.169016 
L 152.431231 300.904201 
L 153.147948 300.061245 
L 156.731532 296.566527 
L 157.448248 295.688129 
L 161.748549 291.494046 
L 162.465265 290.623877 
L 168.198999 284.900369 
L 181.0999 271.964381 
L 181.816617 271.110099 
L 186.116917 266.892455 
L 186.833634 266.038087 
L 191.133934 261.832453 
L 191.850651 260.962744 
L 195.792593 256.979371 
L 209.768569 243.017227 
L 210.485285 242.154142 
L 214.427227 238.313865 
L 215.143944 237.448962 
L 219.444244 233.250737 
L 220.160961 232.381045 
L 227.686486 224.918629 
L 228.044845 224.572697 
L 228.761562 223.694123 
L 238.437237 214.07106 
L 239.153954 213.216008 
L 242.379179 210.091138 
L 243.095896 209.218639 
L 248.112913 204.192331 
L 257.071872 195.268942 
L 257.788589 194.393597 
L 267.105906 185.12764 
L 267.822623 184.271722 
L 272.122923 180.067675 
L 272.83964 179.204119 
L 277.13994 175.004712 
L 277.856657 174.125589 
L 281.798599 170.153075 
L 290.399199 161.611803 
L 291.115916 160.759682 
L 295.416216 156.550596 
L 296.132933 155.693011 
L 300.791592 151.087361 
L 306.883684 144.971459 
L 307.6004 144.114195 
L 310.825626 140.995033 
L 311.542342 140.106699 
L 350.961762 100.38508 
L 352.036837 99.254 
L 355.262062 96.140338 
L 355.978779 95.257566 
L 364.937738 86.364644 
L 365.654454 85.502077 
L 370.671471 80.577807 
L 371.388188 79.717613 
L 374.971772 76.240287 
L 375.688488 75.352168 
L 379.63043 71.532285 
L 380.347147 70.657731 
L 388.947748 62.127547 
L 389.664464 61.266743 
L 398.981782 51.998246 
L 399.698498 51.13899 
L 402.565365 48.372532 
L 403.282082 47.498584 
L 407.582382 43.16633 
L 410.807608 39.989555 
L 412.241041 38.611572 
L 412.957758 37.758249 
L 416.8997 33.910951 
L 417.616416 33.056075 
L 420.841642 29.924013 
L 421.2 29.398952 
L 421.2 29.398952 
" clip-path="url(#p17956eb932)" style="fill: none; stroke: #2ca02c; stroke-width: 1.5; stroke-linecap: square"/>
   </g>
   <g id="line2d_18">
    <path d="M 63.2 391 
L 99.035836 354.701945 
L 134.871672 318.496526 
L 170.707508 282.459853 
L 206.543343 246.180911 
L 242.379179 210.091138 
L 278.215015 173.778029 
L 314.050851 137.655841 
L 349.886687 101.436395 
L 385.722523 65.257112 
" clip-path="url(#p17956eb932)" style="fill: none"/>
    <defs>
     <path id="m3114a70529" d="M 0 -4 
L -3.804226 -1.236068 
L -2.351141 3.236068 
L 2.351141 3.236068 
L 3.804226 -1.236068 
z
" style="stroke: #2ca02c; stroke-linejoin: miter"/>
    </defs>
    <g clip-path="url(#p17956eb932)">
     <use xlink:href="#m3114a70529" x="63.2" y="391" style="fill: #2ca02c; stroke: #2ca02c; stroke-linejoin: miter"/>
     <use xlink:href="#m3114a70529" x="99.035836" y="354.701945" style="fill: #2ca02c; stroke: #2ca02c; stroke-linejoin: miter"/>
     <use xlink:href="#m3114a70529" x="134.871672" y="318.496526" style="fill: #2ca02c; stroke: #2ca02c; stroke-linejoin: miter"/>
     <use xlink:href="#m3114a70529" x="170.707508" y="282.459853" style="fill: #2ca02c; stroke: #2ca02c; stroke-linejoin: miter"/>
     <use xlink:href="#m3114a70529" x="206.543343" y="246.180911" style="fill: #2ca02c; stroke: #2ca02c; stroke-linejoin: miter"/>
     <use xlink:href="#m3114a70529" x="242.379179" y="210.091138" style="fill: #2ca02c; stroke: #2ca02c; stroke-linejoin: miter"/>
     <use xlink:href="#m3114a70529" x="278.215015" y="173.778029" style="fill: #2ca02c; stroke: #2ca02c; stroke-linejoin: miter"/>
     <use xlink:href="#m3114a70529" x="314.050851" y="137.655841" style="fill: #2ca02c; stroke: #2ca02c; stroke-linejoin: miter"/>
     <use xlink:href="#m3114a70529" x="349.886687" y="101.436395" style="fill: #2ca02c; stroke: #2ca02c; stroke-linejoin: miter"/>
     <use xlink:href="#m3114a70529" x="385.722523" y="65.257112" style="fill: #2ca02c; stroke: #2ca02c; stroke-linejoin: miter"/>
    </g>
   </g>
   <g id="line2d_19">
    <path d="M 63.2 391 
L 63.916717 390.149191 
L 67.5003 386.655807 
L 68.217017 385.774274 
L 79.326126 374.718904 
L 80.042843 373.866891 
L 82.90971 371.091974 
L 83.626426 370.2162 
L 89.001802 364.944833 
L 89.718519 364.066547 
L 95.093894 358.679452 
L 97.602402 356.222283 
L 98.319119 355.535388 
L 99.035836 354.669855 
L 102.977778 350.828499 
L 103.694494 349.977709 
L 107.994795 345.775906 
L 108.711512 344.916064 
L 111.578378 342.147229 
L 112.295095 341.276423 
L 118.387187 335.164066 
L 126.271071 327.314529 
L 126.987788 326.463203 
L 130.571371 322.974494 
L 131.288088 322.113709 
L 135.23003 318.279575 
L 135.946747 317.397815 
L 144.905706 308.507832 
L 145.622422 307.620137 
L 161.39019 291.857337 
L 162.106907 290.989162 
L 176.441241 276.668958 
L 177.157958 275.798362 
L 180.741542 272.323064 
L 181.458258 271.445737 
L 190.417217 262.553808 
L 191.133934 261.682502 
L 200.451251 252.431913 
L 201.167968 251.574646 
L 204.393193 248.442545 
L 205.10991 247.570603 
L 214.785586 237.949119 
L 215.502302 237.082314 
L 220.519319 232.169306 
L 221.236036 231.291499 
L 226.611411 225.886019 
L 235.57037 216.970895 
L 236.287087 216.114872 
L 240.587387 211.90525 
L 241.304104 211.053012 
L 245.604404 206.843031 
L 246.321121 205.975906 
L 249.546346 202.865037 
L 250.263063 201.987425 
L 254.563363 197.801745 
L 255.28008 196.915654 
L 263.522322 188.755197 
L 264.239039 187.889551 
L 267.822623 184.409889 
L 268.539339 183.533463 
L 276.781582 175.36971 
L 277.498298 174.50152 
L 287.532332 164.513771 
L 288.249049 163.652568 
L 292.190991 159.79981 
L 292.907708 158.949092 
L 296.491291 155.468215 
L 297.208008 154.586026 
L 305.091892 146.787605 
L 305.808609 145.914698 
L 308.675475 143.091865 
L 310.108909 141.709391 
L 310.825626 140.856255 
L 315.484284 136.296899 
L 316.201001 135.44059 
L 319.426226 132.3143 
L 320.142943 131.44007 
L 327.668468 123.986355 
L 328.385185 123.119639 
L 333.043844 118.567602 
L 333.760561 117.70821 
L 336.627427 114.905827 
L 337.702503 113.792505 
L 342.002803 109.446002 
L 353.828629 97.585623 
L 354.545345 96.701585 
L 362.787588 88.541756 
L 363.504304 87.669115 
L 367.804605 83.465485 
L 368.521321 82.611376 
L 372.821622 78.396355 
L 373.538338 77.546075 
L 376.763564 74.429596 
L 377.48028 73.550157 
L 386.080881 65.024077 
L 386.797598 64.156002 
L 395.756557 55.249003 
L 396.473273 54.398157 
L 400.056857 50.91254 
L 400.773574 50.033991 
L 409.374174 41.508592 
L 410.090891 40.635762 
L 419.04985 31.735073 
L 419.766567 30.8725 
L 421.2 29.488695 
L 421.2 29.488695 
" clip-path="url(#p17956eb932)" style="fill: none; stroke: #d62728; stroke-width: 1.5; stroke-linecap: square"/>
   </g>
   <g id="line2d_20">
    <path d="M 63.2 391 
L 99.035836 354.669855 
L 134.871672 318.632722 
L 170.707508 282.423902 
L 206.543343 246.177623 
L 242.379179 210.020891 
L 278.215015 173.79604 
L 314.050851 137.706961 
L 349.886687 101.41626 
L 385.722523 65.369294 
" clip-path="url(#p17956eb932)" style="fill: none"/>
    <defs>
     <path id="m23f0895893" d="M -0 3.5 
L 3.5 -3.5 
L -3.5 -3.5 
z
" style="stroke: #d62728; stroke-linejoin: miter"/>
    </defs>
    <g clip-path="url(#p17956eb932)">
     <use xlink:href="#m23f0895893" x="63.2" y="391" style="fill: #d62728; stroke: #d62728; stroke-linejoin: miter"/>
     <use xlink:href="#m23f0895893" x="99.035836" y="354.669855" style="fill: #d62728; stroke: #d62728; stroke-linejoin: miter"/>
     <use xlink:href="#m23f0895893" x="134.871672" y="318.632722" style="fill: #d62728; stroke: #d62728; stroke-linejoin: miter"/>
     <use xlink:href="#m23f0895893" x="170.707508" y="282.423902" style="fill: #d62728; stroke: #d62728; stroke-linejoin: miter"/>
     <use xlink:href="#m23f0895893" x="206.543343" y="246.177623" style="fill: #d62728; stroke: #d62728; stroke-linejoin: miter"/>
     <use xlink:href="#m23f0895893" x="242.379179" y="210.020891" style="fill: #d62728; stroke: #d62728; stroke-linejoin: miter"/>
     <use xlink:href="#m23f0895893" x="278.215015" y="173.79604" style="fill: #d62728; stroke: #d62728; stroke-linejoin: miter"/>
     <use xlink:href="#m23f0895893" x="314.050851" y="137.706961" style="fill: #d62728; stroke: #d62728; stroke-linejoin: miter"/>
     <use xlink:href="#m23f0895893" x="349.886687" y="101.41626" style="fill: #d62728; stroke: #d62728; stroke-linejoin: miter"/>
     <use xlink:href="#m23f0895893" x="385.722523" y="65.369294" style="fill: #d62728; stroke: #d62728; stroke-linejoin: miter"/>
    </g>
   </g>
   <g id="line2d_21">
    <path d="M 63.2 391 
L 83.268068 370.53263 
L 401.131932 46.384245 
L 406.148949 41.26854 
L 421.2 25.917758 
L 421.2 25.917758 
" clip-path="url(#p17956eb932)" style="fill: none; stroke: #9467bd; stroke-width: 1.5; stroke-linecap: square"/>
   </g>
   <g id="line2d_22">
    <path d="M 63.2 391 
L 99.035836 354.453392 
L 134.871672 317.907742 
L 170.707508 281.361121 
L 206.543343 244.819732 
L 242.379179 208.275557 
L 278.215015 171.728015 
L 314.050851 135.18312 
L 349.886687 98.64185 
L 385.722523 62.089297 
" clip-path="url(#p17956eb932)" style="fill: none"/>
    <defs>
     <path id="md082418387" d="M 0 -3 
L -3 3 
L 3 3 
z
" style="stroke: #9467bd; stroke-linejoin: miter"/>
    </defs>
    <g clip-path="url(#p17956eb932)">
     <use xlink:href="#md082418387" x="63.2" y="391" style="fill: #9467bd; stroke: #9467bd; stroke-linejoin: miter"/>
     <use xlink:href="#md082418387" x="99.035836" y="354.453392" style="fill: #9467bd; stroke: #9467bd; stroke-linejoin: miter"/>
     <use xlink:href="#md082418387" x="134.871672" y="317.907742" style="fill: #9467bd; stroke: #9467bd; stroke-linejoin: miter"/>
     <use xlink:href="#md082418387" x="170.707508" y="281.361121" style="fill: #9467bd; stroke: #9467bd; stroke-linejoin: miter"/>
     <use xlink:href="#md082418387" x="206.543343" y="244.819732" style="fill: #9467bd; stroke: #9467bd; stroke-linejoin: miter"/>
     <use xlink:href="#md082418387" x="242.379179" y="208.275557" style="fill: #9467bd; stroke: #9467bd; stroke-linejoin: miter"/>
     <use xlink:href="#md082418387" x="278.215015" y="171.728015" style="fill: #9467bd; stroke: #9467bd; stroke-linejoin: miter"/>
     <use xlink:href="#md082418387" x="314.050851" y="135.18312" style="fill: #9467bd; stroke: #9467bd; stroke-linejoin: miter"/>
     <use xlink:href="#md082418387" x="349.886687" y="98.64185" style="fill: #9467bd; stroke: #9467bd; stroke-linejoin: miter"/>
     <use xlink:href="#md082418387" x="385.722523" y="62.089297" style="fill: #9467bd; stroke: #9467bd; stroke-linejoin: miter"/>
    </g>
   </g>
   <g id="line2d_23">
    <path d="M 63.2 391 
L 421.2 25.920367 
L 421.2 25.920367 
" clip-path="url(#p17956eb932)" style="fill: none; stroke: #8c564b; stroke-width: 1.5; stroke-linecap: square"/>
   </g>
   <g id="line2d_24">
    <path d="M 63.2 391 
L 99.035836 354.455497 
L 134.871672 317.910991 
L 170.707508 281.366481 
L 206.543343 244.821974 
L 242.379179 208.277466 
L 278.215015 171.732956 
L 314.050851 135.188449 
L 349.886687 98.643941 
L 385.722523 62.099429 
" clip-path="url(#p17956eb932)" style="fill: none"/>
    <defs>
     <path id="maf74062401" d="M -2.5 -0 
L 2.5 2.5 
L 2.5 -2.5 
z
" style="stroke: #8c564b; stroke-linejoin: miter"/>
    </defs>
    <g clip-path="url(#p17956eb932)">
     <use xlink:href="#maf74062401" x="63.2" y="391" style="fill: #8c564b; stroke: #8c564b; stroke-linejoin: miter"/>
     <use xlink:href="#maf74062401" x="99.035836" y="354.455497" style="fill: #8c564b; stroke: #8c564b; stroke-linejoin: miter"/>
     <use xlink:href="#maf74062401" x="134.871672" y="317.910991" style="fill: #8c564b; stroke: #8c564b; stroke-linejoin: miter"/>
     <use xlink:href="#maf74062401" x="170.707508" y="281.366481" style="fill: #8c564b; stroke: #8c564b; stroke-linejoin: miter"/>
     <use xlink:href="#maf74062401" x="206.543343" y="244.821974" style="fill: #8c564b; stroke: #8c564b; stroke-linejoin: miter"/>
     <use xlink:href="#maf74062401" x="242.379179" y="208.277466" style="fill: #8c564b; stroke: #8c564b; stroke-linejoin: miter"/>
     <use xlink:href="#maf74062401" x="278.215015" y="171.732956" style="fill: #8c564b; stroke: #8c564b; stroke-linejoin: miter"/>
     <use xlink:href="#maf74062401" x="314.050851" y="135.188449" style="fill: #8c564b; stroke: #8c564b; stroke-linejoin: miter"/>
     <use xlink:href="#maf74062401" x="349.886687" y="98.643941" style="fill: #8c564b; stroke: #8c564b; stroke-linejoin: miter"/>
     <use xlink:href="#maf74062401" x="385.722523" y="62.099429" style="fill: #8c564b; stroke: #8c564b; stroke-linejoin: miter"/>
    </g>
   </g>
   <g id="patch_3">
    <path d="M 63.2 391 
L 63.2 25.92 
" style="fill: none; stroke: #000000; stroke-width: 0.8; stroke-linejoin: miter; stroke-linecap: square"/>
   </g>
   <g id="patch_4">
    <path d="M 421.2 391 
L 421.2 25.92 
" style="fill: none; stroke: #000000; stroke-width: 0.8; stroke-linejoin: miter; stroke-linecap: square"/>
   </g>
   <g id="patch_5">
    <path d="M 63.2 391 
L 421.2 391 
" style="fill: none; stroke: #000000; stroke-width: 0.8; stroke-linejoin: miter; stroke-linecap: square"/>
   </g>
   <g id="patch_6">
    <path d="M 63.2 25.92 
L 421.2 25.92 
" style="fill: none; stroke: #000000; stroke-width: 0.8; stroke-linejoin: miter; stroke-linecap: square"/>
   </g>
   <g id="text_15">
    <!-- Interval: 33.333333 [ms] -->
    <g transform="translate(167.288125 19.92)scale(0.12 -0.12)">
     <defs>
      <path id="DejaVuSans-76" d="M 191 3500 
L 800 3500 
L 1894 563 
L 2988 3500 
L 3597 3500 
L 2284 0 
L 1503 0 
L 191 3500 
z
" transform="scale(0.015625)"/>
      <path id="DejaVuSans-6c" d="M 603 4863 
L 1178 4863 
L 1178 0 
L 603 0 
L 603 4863 
z
" transform="scale(0.015625)"/>
      <path id="DejaVuSans-3a" d="M 750 794 
L 1409 794 
L 1409 0 
L 750 0 
L 750 794 
z
M 750 3309 
L 1409 3309 
L 1409 2516 
L 750 2516 
L 750 3309 
z
" transform="scale(0.015625)"/>
      <path id="DejaVuSans-2e" d="M 684 794 
L 1344 794 
L 1344 0 
L 684 0 
L 684 794 
z
" transform="scale(0.015625)"/>
     </defs>
     <use xlink:href="#DejaVuSans-49"/>
     <use xlink:href="#DejaVuSans-6e" x="29.492188"/>
     <use xlink:href="#DejaVuSans-74" x="92.871094"/>
     <use xlink:href="#DejaVuSans-65" x="132.080078"/>
     <use xlink:href="#DejaVuSans-72" x="193.603516"/>
     <use xlink:href="#DejaVuSans-76" x="234.716797"/>
     <use xlink:href="#DejaVuSans-61" x="293.896484"/>
     <use xlink:href="#DejaVuSans-6c" x="355.175781"/>
     <use xlink:href="#DejaVuSans-3a" x="382.958984"/>
     <use xlink:href="#DejaVuSans-20" x="416.650391"/>
     <use xlink:href="#DejaVuSans-33" x="448.4375"/>
     <use xlink:href="#DejaVuSans-33" x="512.060547"/>
     <use xlink:href="#DejaVuSans-2e" x="575.683594"/>
     <use xlink:href="#DejaVuSans-33" x="607.470703"/>
     <use xlink:href="#DejaVuSans-33" x="671.09375"/>
     <use xlink:href="#DejaVuSans-33" x="734.716797"/>
     <use xlink:href="#DejaVuSans-33" x="798.339844"/>
     <use xlink:href="#DejaVuSans-33" x="861.962891"/>
     <use xlink:href="#DejaVuSans-33" x="925.585938"/>
     <use xlink:href="#DejaVuSans-20" x="989.208984"/>
     <use xlink:href="#DejaVuSans-5b" x="1020.996094"/>
     <use xlink:href="#DejaVuSans-6d" x="1060.009766"/>
     <use xlink:href="#DejaVuSans-73" x="1157.421875"/>
     <use xlink:href="#DejaVuSans-5d" x="1209.521484"/>
    </g>
   </g>
   <g id="legend_1">
    <g id="patch_7">
     <path d="M 70.2 121.98875 
L 281.617188 121.98875 
Q 283.617188 121.98875 283.617188 119.98875 
L 283.617188 32.92 
Q 283.617188 30.92 281.617188 30.92 
L 70.2 30.92 
Q 68.2 30.92 68.2 32.92 
L 68.2 119.98875 
Q 68.2 121.98875 70.2 121.98875 
z
" style="fill: #ffffff; opacity: 0.8; stroke: #cccccc; stroke-linejoin: miter"/>
    </g>
    <g id="line2d_25">
     <path d="M 72.2 39.018438 
L 82.2 39.018438 
L 92.2 39.018438 
" style="fill: none"/>
     <g>
      <use xlink:href="#m3171cee0f3" x="82.2" y="39.018438" style="fill: #1f77b4; stroke: #1f77b4; stroke-linejoin: miter"/>
     </g>
    </g>
    <g id="text_16">
     <!-- StdSleepTimer -->
     <g transform="translate(100.2 42.518438)scale(0.1 -0.1)">
      <defs>
       <path id="DejaVuSans-53" d="M 3425 4513 
L 3425 3897 
Q 3066 4069 2747 4153 
Q 2428 4238 2131 4238 
Q 1616 4238 1336 4038 
Q 1056 3838 1056 3469 
Q 1056 3159 1242 3001 
Q 1428 2844 1947 2747 
L 2328 2669 
Q 3034 2534 3370 2195 
Q 3706 1856 3706 1288 
Q 3706 609 3251 259 
Q 2797 -91 1919 -91 
Q 1588 -91 1214 -16 
Q 841 59 441 206 
L 441 856 
Q 825 641 1194 531 
Q 1563 422 1919 422 
Q 2459 422 2753 634 
Q 3047 847 3047 1241 
Q 3047 1584 2836 1778 
Q 2625 1972 2144 2069 
L 1759 2144 
Q 1053 2284 737 2584 
Q 422 2884 422 3419 
Q 422 4038 858 4394 
Q 1294 4750 2059 4750 
Q 2388 4750 2728 4690 
Q 3069 4631 3425 4513 
z
" transform="scale(0.015625)"/>
       <path id="DejaVuSans-64" d="M 2906 2969 
L 2906 4863 
L 3481 4863 
L 3481 0 
L 2906 0 
L 2906 525 
Q 2725 213 2448 61 
Q 2172 -91 1784 -91 
Q 1150 -91 751 415 
Q 353 922 353 1747 
Q 353 2572 751 3078 
Q 1150 3584 1784 3584 
Q 2172 3584 2448 3432 
Q 2725 3281 2906 2969 
z
M 947 1747 
Q 947 1113 1208 752 
Q 1469 391 1925 391 
Q 2381 391 2643 752 
Q 2906 1113 2906 1747 
Q 2906 2381 2643 2742 
Q 2381 3103 1925 3103 
Q 1469 3103 1208 2742 
Q 947 2381 947 1747 
z
" transform="scale(0.015625)"/>
       <path id="DejaVuSans-70" d="M 1159 525 
L 1159 -1331 
L 581 -1331 
L 581 3500 
L 1159 3500 
L 1159 2969 
Q 1341 3281 1617 3432 
Q 1894 3584 2278 3584 
Q 2916 3584 3314 3078 
Q 3713 2572 3713 1747 
Q 3713 922 3314 415 
Q 2916 -91 2278 -91 
Q 1894 -91 1617 61 
Q 1341 213 1159 525 
z
M 3116 1747 
Q 3116 2381 2855 2742 
Q 2594 3103 2138 3103 
Q 1681 3103 1420 2742 
Q 1159 2381 1159 1747 
Q 1159 1113 1420 752 
Q 1681 391 2138 391 
Q 2594 391 2855 752 
Q 3116 1113 3116 1747 
z
" transform="scale(0.015625)"/>
      </defs>
      <use xlink:href="#DejaVuSans-53"/>
      <use xlink:href="#DejaVuSans-74" x="63.476562"/>
      <use xlink:href="#DejaVuSans-64" x="102.685547"/>
      <use xlink:href="#DejaVuSans-53" x="166.162109"/>
      <use xlink:href="#DejaVuSans-6c" x="229.638672"/>
      <use xlink:href="#DejaVuSans-65" x="257.421875"/>
      <use xlink:href="#DejaVuSans-65" x="318.945312"/>
      <use xlink:href="#DejaVuSans-70" x="380.46875"/>
      <use xlink:href="#DejaVuSans-54" x="443.945312"/>
      <use xlink:href="#DejaVuSans-69" x="501.904297"/>
      <use xlink:href="#DejaVuSans-6d" x="529.6875"/>
      <use xlink:href="#DejaVuSans-65" x="627.099609"/>
      <use xlink:href="#DejaVuSans-72" x="688.623047"/>
     </g>
    </g>
    <g id="line2d_26">
     <path d="M 72.2 53.696563 
L 82.2 53.696563 
L 92.2 53.696563 
" style="fill: none"/>
     <g>
      <use xlink:href="#m35036cde50" x="82.2" y="53.696563" style="fill: #ff7f0e; stroke: #ff7f0e"/>
     </g>
    </g>
    <g id="text_17">
     <!-- MultiMediaTimer -->
     <g transform="translate(100.2 57.196563)scale(0.1 -0.1)">
      <defs>
       <path id="DejaVuSans-4d" d="M 628 4666 
L 1569 4666 
L 2759 1491 
L 3956 4666 
L 4897 4666 
L 4897 0 
L 4281 0 
L 4281 4097 
L 3078 897 
L 2444 897 
L 1241 4097 
L 1241 0 
L 628 0 
L 628 4666 
z
" transform="scale(0.015625)"/>
       <path id="DejaVuSans-75" d="M 544 1381 
L 544 3500 
L 1119 3500 
L 1119 1403 
Q 1119 906 1312 657 
Q 1506 409 1894 409 
Q 2359 409 2629 706 
Q 2900 1003 2900 1516 
L 2900 3500 
L 3475 3500 
L 3475 0 
L 2900 0 
L 2900 538 
Q 2691 219 2414 64 
Q 2138 -91 1772 -91 
Q 1169 -91 856 284 
Q 544 659 544 1381 
z
M 1991 3584 
L 1991 3584 
z
" transform="scale(0.015625)"/>
      </defs>
      <use xlink:href="#DejaVuSans-4d"/>
      <use xlink:href="#DejaVuSans-75" x="86.279297"/>
      <use xlink:href="#DejaVuSans-6c" x="149.658203"/>
      <use xlink:href="#DejaVuSans-74" x="177.441406"/>
      <use xlink:href="#DejaVuSans-69" x="216.650391"/>
      <use xlink:href="#DejaVuSans-4d" x="244.433594"/>
      <use xlink:href="#DejaVuSans-65" x="330.712891"/>
      <use xlink:href="#DejaVuSans-64" x="392.236328"/>
      <use xlink:href="#DejaVuSans-69" x="455.712891"/>
      <use xlink:href="#DejaVuSans-61" x="483.496094"/>
      <use xlink:href="#DejaVuSans-54" x="544.775391"/>
      <use xlink:href="#DejaVuSans-69" x="602.734375"/>
      <use xlink:href="#DejaVuSans-6d" x="630.517578"/>
      <use xlink:href="#DejaVuSans-65" x="727.929688"/>
      <use xlink:href="#DejaVuSans-72" x="789.453125"/>
     </g>
    </g>
    <g id="line2d_27">
     <path d="M 72.2 68.374687 
L 82.2 68.374687 
L 92.2 68.374687 
" style="fill: none"/>
     <g>
      <use xlink:href="#m3114a70529" x="82.2" y="68.374687" style="fill: #2ca02c; stroke: #2ca02c; stroke-linejoin: miter"/>
     </g>
    </g>
    <g id="text_18">
     <!-- TimerQueueTimer -->
     <g transform="translate(100.2 71.874687)scale(0.1 -0.1)">
      <defs>
       <path id="DejaVuSans-51" d="M 2522 4238 
Q 1834 4238 1429 3725 
Q 1025 3213 1025 2328 
Q 1025 1447 1429 934 
Q 1834 422 2522 422 
Q 3209 422 3611 934 
Q 4013 1447 4013 2328 
Q 4013 3213 3611 3725 
Q 3209 4238 2522 4238 
z
M 3406 84 
L 4238 -825 
L 3475 -825 
L 2784 -78 
Q 2681 -84 2626 -87 
Q 2572 -91 2522 -91 
Q 1538 -91 948 567 
Q 359 1225 359 2328 
Q 359 3434 948 4092 
Q 1538 4750 2522 4750 
Q 3503 4750 4090 4092 
Q 4678 3434 4678 2328 
Q 4678 1516 4351 937 
Q 4025 359 3406 84 
z
" transform="scale(0.015625)"/>
      </defs>
      <use xlink:href="#DejaVuSans-54"/>
      <use xlink:href="#DejaVuSans-69" x="57.958984"/>
      <use xlink:href="#DejaVuSans-6d" x="85.742188"/>
      <use xlink:href="#DejaVuSans-65" x="183.154297"/>
      <use xlink:href="#DejaVuSans-72" x="244.677734"/>
      <use xlink:href="#DejaVuSans-51" x="285.791016"/>
      <use xlink:href="#DejaVuSans-75" x="364.501953"/>
      <use xlink:href="#DejaVuSans-65" x="427.880859"/>
      <use xlink:href="#DejaVuSans-75" x="489.404297"/>
      <use xlink:href="#DejaVuSans-65" x="552.783203"/>
      <use xlink:href="#DejaVuSans-54" x="614.306641"/>
      <use xlink:href="#DejaVuSans-69" x="672.265625"/>
      <use xlink:href="#DejaVuSans-6d" x="700.048828"/>
      <use xlink:href="#DejaVuSans-65" x="797.460938"/>
      <use xlink:href="#DejaVuSans-72" x="858.984375"/>
     </g>
    </g>
    <g id="line2d_28">
     <path d="M 72.2 83.052813 
L 82.2 83.052813 
L 92.2 83.052813 
" style="fill: none"/>
     <g>
      <use xlink:href="#m23f0895893" x="82.2" y="83.052813" style="fill: #d62728; stroke: #d62728; stroke-linejoin: miter"/>
     </g>
    </g>
    <g id="text_19">
     <!-- ThreadPoolTimer -->
     <g transform="translate(100.2 86.552813)scale(0.1 -0.1)">
      <defs>
       <path id="DejaVuSans-68" d="M 3513 2113 
L 3513 0 
L 2938 0 
L 2938 2094 
Q 2938 2591 2744 2837 
Q 2550 3084 2163 3084 
Q 1697 3084 1428 2787 
Q 1159 2491 1159 1978 
L 1159 0 
L 581 0 
L 581 4863 
L 1159 4863 
L 1159 2956 
Q 1366 3272 1645 3428 
Q 1925 3584 2291 3584 
Q 2894 3584 3203 3211 
Q 3513 2838 3513 2113 
z
" transform="scale(0.015625)"/>
       <path id="DejaVuSans-50" d="M 1259 4147 
L 1259 2394 
L 2053 2394 
Q 2494 2394 2734 2622 
Q 2975 2850 2975 3272 
Q 2975 3691 2734 3919 
Q 2494 4147 2053 4147 
L 1259 4147 
z
M 628 4666 
L 2053 4666 
Q 2838 4666 3239 4311 
Q 3641 3956 3641 3272 
Q 3641 2581 3239 2228 
Q 2838 1875 2053 1875 
L 1259 1875 
L 1259 0 
L 628 0 
L 628 4666 
z
" transform="scale(0.015625)"/>
      </defs>
      <use xlink:href="#DejaVuSans-54"/>
      <use xlink:href="#DejaVuSans-68" x="61.083984"/>
      <use xlink:href="#DejaVuSans-72" x="124.462891"/>
      <use xlink:href="#DejaVuSans-65" x="163.326172"/>
      <use xlink:href="#DejaVuSans-61" x="224.849609"/>
      <use xlink:href="#DejaVuSans-64" x="286.128906"/>
      <use xlink:href="#DejaVuSans-50" x="349.605469"/>
      <use xlink:href="#DejaVuSans-6f" x="406.283203"/>
      <use xlink:href="#DejaVuSans-6f" x="467.464844"/>
      <use xlink:href="#DejaVuSans-6c" x="528.646484"/>
      <use xlink:href="#DejaVuSans-54" x="556.429688"/>
      <use xlink:href="#DejaVuSans-69" x="614.388672"/>
      <use xlink:href="#DejaVuSans-6d" x="642.171875"/>
      <use xlink:href="#DejaVuSans-65" x="739.583984"/>
      <use xlink:href="#DejaVuSans-72" x="801.107422"/>
     </g>
    </g>
    <g id="line2d_29">
     <path d="M 72.2 97.730937 
L 82.2 97.730937 
L 92.2 97.730937 
" style="fill: none"/>
     <g>
      <use xlink:href="#md082418387" x="82.2" y="97.730937" style="fill: #9467bd; stroke: #9467bd; stroke-linejoin: miter"/>
     </g>
    </g>
    <g id="text_20">
     <!-- WaitableTimer -->
     <g transform="translate(100.2 101.230937)scale(0.1 -0.1)">
      <defs>
       <path id="DejaVuSans-57" d="M 213 4666 
L 850 4666 
L 1831 722 
L 2809 4666 
L 3519 4666 
L 4500 722 
L 5478 4666 
L 6119 4666 
L 4947 0 
L 4153 0 
L 3169 4050 
L 2175 0 
L 1381 0 
L 213 4666 
z
" transform="scale(0.015625)"/>
       <path id="DejaVuSans-62" d="M 3116 1747 
Q 3116 2381 2855 2742 
Q 2594 3103 2138 3103 
Q 1681 3103 1420 2742 
Q 1159 2381 1159 1747 
Q 1159 1113 1420 752 
Q 1681 391 2138 391 
Q 2594 391 2855 752 
Q 3116 1113 3116 1747 
z
M 1159 2969 
Q 1341 3281 1617 3432 
Q 1894 3584 2278 3584 
Q 2916 3584 3314 3078 
Q 3713 2572 3713 1747 
Q 3713 922 3314 415 
Q 2916 -91 2278 -91 
Q 1894 -91 1617 61 
Q 1341 213 1159 525 
L 1159 0 
L 581 0 
L 581 4863 
L 1159 4863 
L 1159 2969 
z
" transform="scale(0.015625)"/>
      </defs>
      <use xlink:href="#DejaVuSans-57"/>
      <use xlink:href="#DejaVuSans-61" x="92.501953"/>
      <use xlink:href="#DejaVuSans-69" x="153.78125"/>
      <use xlink:href="#DejaVuSans-74" x="181.564453"/>
      <use xlink:href="#DejaVuSans-61" x="220.773438"/>
      <use xlink:href="#DejaVuSans-62" x="282.052734"/>
      <use xlink:href="#DejaVuSans-6c" x="345.529297"/>
      <use xlink:href="#DejaVuSans-65" x="373.3125"/>
      <use xlink:href="#DejaVuSans-54" x="434.835938"/>
      <use xlink:href="#DejaVuSans-69" x="492.794922"/>
      <use xlink:href="#DejaVuSans-6d" x="520.578125"/>
      <use xlink:href="#DejaVuSans-65" x="617.990234"/>
      <use xlink:href="#DejaVuSans-72" x="679.513672"/>
     </g>
    </g>
    <g id="line2d_30">
     <path d="M 72.2 112.409063 
L 82.2 112.409063 
L 92.2 112.409063 
" style="fill: none"/>
     <g>
      <use xlink:href="#maf74062401" x="82.2" y="112.409063" style="fill: #8c564b; stroke: #8c564b; stroke-linejoin: miter"/>
     </g>
    </g>
    <g id="text_21">
     <!-- PerformanceCounterSoftSleepTimer -->
     <g transform="translate(100.2 115.909063)scale(0.1 -0.1)">
      <defs>
       <path id="DejaVuSans-66" d="M 2375 4863 
L 2375 4384 
L 1825 4384 
Q 1516 4384 1395 4259 
Q 1275 4134 1275 3809 
L 1275 3500 
L 2222 3500 
L 2222 3053 
L 1275 3053 
L 1275 0 
L 697 0 
L 697 3053 
L 147 3053 
L 147 3500 
L 697 3500 
L 697 3744 
Q 697 4328 969 4595 
Q 1241 4863 1831 4863 
L 2375 4863 
z
" transform="scale(0.015625)"/>
       <path id="DejaVuSans-63" d="M 3122 3366 
L 3122 2828 
Q 2878 2963 2633 3030 
Q 2388 3097 2138 3097 
Q 1578 3097 1268 2742 
Q 959 2388 959 1747 
Q 959 1106 1268 751 
Q 1578 397 2138 397 
Q 2388 397 2633 464 
Q 2878 531 3122 666 
L 3122 134 
Q 2881 22 2623 -34 
Q 2366 -91 2075 -91 
Q 1284 -91 818 406 
Q 353 903 353 1747 
Q 353 2603 823 3093 
Q 1294 3584 2113 3584 
Q 2378 3584 2631 3529 
Q 2884 3475 3122 3366 
z
" transform="scale(0.015625)"/>
       <path id="DejaVuSans-43" d="M 4122 4306 
L 4122 3641 
Q 3803 3938 3442 4084 
Q 3081 4231 2675 4231 
Q 1875 4231 1450 3742 
Q 1025 3253 1025 2328 
Q 1025 1406 1450 917 
Q 1875 428 2675 428 
Q 3081 428 3442 575 
Q 3803 722 4122 1019 
L 4122 359 
Q 3791 134 3420 21 
Q 3050 -91 2638 -91 
Q 1578 -91 968 557 
Q 359 1206 359 2328 
Q 359 3453 968 4101 
Q 1578 4750 2638 4750 
Q 3056 4750 3426 4639 
Q 3797 4528 4122 4306 
z
" transform="scale(0.015625)"/>
      </defs>
      <use xlink:href="#DejaVuSans-50"/>
      <use xlink:href="#DejaVuSans-65" x="56.677734"/>
      <use xlink:href="#DejaVuSans-72" x="118.201172"/>
      <use xlink:href="#DejaVuSans-66" x="159.314453"/>
      <use xlink:href="#DejaVuSans-6f" x="194.519531"/>
      <use xlink:href="#DejaVuSans-72" x="255.701172"/>
      <use xlink:href="#DejaVuSans-6d" x="295.064453"/>
      <use xlink:href="#DejaVuSans-61" x="392.476562"/>
      <use xlink:href="#DejaVuSans-6e" x="453.755859"/>
      <use xlink:href="#DejaVuSans-63" x="517.134766"/>
      <use xlink:href="#DejaVuSans-65" x="572.115234"/>
      <use xlink:href="#DejaVuSans-43" x="633.638672"/>
      <use xlink:href="#DejaVuSans-6f" x="703.462891"/>
      <use xlink:href="#DejaVuSans-75" x="764.644531"/>
      <use xlink:href="#DejaVuSans-6e" x="828.023438"/>
      <use xlink:href="#DejaVuSans-74" x="891.402344"/>
      <use xlink:href="#DejaVuSans-65" x="930.611328"/>
      <use xlink:href="#DejaVuSans-72" x="992.134766"/>
      <use xlink:href="#DejaVuSans-53" x="1033.248047"/>
      <use xlink:href="#DejaVuSans-6f" x="1096.724609"/>
      <use xlink:href="#DejaVuSans-66" x="1157.90625"/>
      <use xlink:href="#DejaVuSans-74" x="1191.361328"/>
      <use xlink:href="#DejaVuSans-53" x="1230.570312"/>
      <use xlink:href="#DejaVuSans-6c" x="1294.046875"/>
      <use xlink:href="#DejaVuSans-65" x="1321.830078"/>
      <use xlink:href="#DejaVuSans-65" x="1383.353516"/>
      <use xlink:href="#DejaVuSans-70" x="1444.876953"/>
      <use xlink:href="#DejaVuSans-54" x="1508.353516"/>
      <use xlink:href="#DejaVuSans-69" x="1566.3125"/>
      <use xlink:href="#DejaVuSans-6d" x="1594.095703"/>
      <use xlink:href="#DejaVuSans-65" x="1691.507812"/>
      <use xlink:href="#DejaVuSans-72" x="1753.03125"/>
     </g>
    </g>
   </g>
  </g>
 </g>
 <defs>
  <clipPath id="p17956eb932">
   <rect x="63.2" y="25.92" width="358" height="365.08"/>
  </clipPath>
 </defs>
</svg>
