<?xml version="1.0" encoding="utf-8" standalone="no"?>
<!DOCTYPE svg PUBLIC "-//W3C//DTD SVG 1.1//EN"
  "http://www.w3.org/Graphics/SVG/1.1/DTD/svg11.dtd">
<svg xmlns:xlink="http://www.w3.org/1999/xlink" width="432pt" height="432pt" viewBox="0 0 432 432" xmlns="http://www.w3.org/2000/svg" version="1.1">
 <metadata>
  <rdf:RDF xmlns:dc="http://purl.org/dc/elements/1.1/" xmlns:cc="http://creativecommons.org/ns#" xmlns:rdf="http://www.w3.org/1999/02/22-rdf-syntax-ns#">
   <cc:Work>
    <dc:type rdf:resource="http://purl.org/dc/dcmitype/StillImage"/>
    <dc:date>2022-08-03T16:02:06.387255</dc:date>
    <dc:format>image/svg+xml</dc:format>
    <dc:creator>
     <cc:Agent>
      <dc:title>Matplotlib v3.5.1, https://matplotlib.org/</dc:title>
     </cc:Agent>
    </dc:creator>
   </cc:Work>
  </rdf:RDF>
 </metadata>
 <defs>
  <style type="text/css">*{stroke-linejoin: round; stroke-linecap: butt}</style>
 </defs>
 <g id="figure_1">
  <g id="patch_1">
   <path d="M 0 432 
L 432 432 
L 432 0 
L 0 0 
z
" style="fill: #ffffff"/>
  </g>
  <g id="axes_1">
   <g id="patch_2">
    <path d="M 69.56 391 
L 421.2 391 
L 421.2 25.92 
L 69.56 25.92 
z
" style="fill: #ffffff"/>
   </g>
   <g id="matplotlib.axis_1">
    <g id="xtick_1">
     <g id="line2d_1">
      <defs>
       <path id="m8d8db7f342" d="M 0 0 
L 0 3.5 
" style="stroke: #000000; stroke-width: 0.8"/>
      </defs>
      <g>
       <use xlink:href="#m8d8db7f342" x="69.56" y="391" style="stroke: #000000; stroke-width: 0.8"/>
      </g>
     </g>
     <g id="text_1">
      <!-- 0 -->
      <g transform="translate(66.37875 405.598437)scale(0.1 -0.1)">
       <defs>
        <path id="DejaVuSans-30" d="M 2034 4250 
Q 1547 4250 1301 3770 
Q 1056 3291 1056 2328 
Q 1056 1369 1301 889 
Q 1547 409 2034 409 
Q 2525 409 2770 889 
Q 3016 1369 3016 2328 
Q 3016 3291 2770 3770 
Q 2525 4250 2034 4250 
z
M 2034 4750 
Q 2819 4750 3233 4129 
Q 3647 3509 3647 2328 
Q 3647 1150 3233 529 
Q 2819 -91 2034 -91 
Q 1250 -91 836 529 
Q 422 1150 422 2328 
Q 422 3509 836 4129 
Q 1250 4750 2034 4750 
z
" transform="scale(0.015625)"/>
       </defs>
       <use xlink:href="#DejaVuSans-30"/>
      </g>
     </g>
    </g>
    <g id="xtick_2">
     <g id="line2d_2">
      <g>
       <use xlink:href="#m8d8db7f342" x="139.958398" y="391" style="stroke: #000000; stroke-width: 0.8"/>
      </g>
     </g>
     <g id="text_2">
      <!-- 200 -->
      <g transform="translate(130.414648 405.598437)scale(0.1 -0.1)">
       <defs>
        <path id="DejaVuSans-32" d="M 1228 531 
L 3431 531 
L 3431 0 
L 469 0 
L 469 531 
Q 828 903 1448 1529 
Q 2069 2156 2228 2338 
Q 2531 2678 2651 2914 
Q 2772 3150 2772 3378 
Q 2772 3750 2511 3984 
Q 2250 4219 1831 4219 
Q 1534 4219 1204 4116 
Q 875 4013 500 3803 
L 500 4441 
Q 881 4594 1212 4672 
Q 1544 4750 1819 4750 
Q 2544 4750 2975 4387 
Q 3406 4025 3406 3419 
Q 3406 3131 3298 2873 
Q 3191 2616 2906 2266 
Q 2828 2175 2409 1742 
Q 1991 1309 1228 531 
z
" transform="scale(0.015625)"/>
       </defs>
       <use xlink:href="#DejaVuSans-32"/>
       <use xlink:href="#DejaVuSans-30" x="63.623047"/>
       <use xlink:href="#DejaVuSans-30" x="127.246094"/>
      </g>
     </g>
    </g>
    <g id="xtick_3">
     <g id="line2d_3">
      <g>
       <use xlink:href="#m8d8db7f342" x="210.356797" y="391" style="stroke: #000000; stroke-width: 0.8"/>
      </g>
     </g>
     <g id="text_3">
      <!-- 400 -->
      <g transform="translate(200.813047 405.598437)scale(0.1 -0.1)">
       <defs>
        <path id="DejaVuSans-34" d="M 2419 4116 
L 825 1625 
L 2419 1625 
L 2419 4116 
z
M 2253 4666 
L 3047 4666 
L 3047 1625 
L 3713 1625 
L 3713 1100 
L 3047 1100 
L 3047 0 
L 2419 0 
L 2419 1100 
L 313 1100 
L 313 1709 
L 2253 4666 
z
" transform="scale(0.015625)"/>
       </defs>
       <use xlink:href="#DejaVuSans-34"/>
       <use xlink:href="#DejaVuSans-30" x="63.623047"/>
       <use xlink:href="#DejaVuSans-30" x="127.246094"/>
      </g>
     </g>
    </g>
    <g id="xtick_4">
     <g id="line2d_4">
      <g>
       <use xlink:href="#m8d8db7f342" x="280.755195" y="391" style="stroke: #000000; stroke-width: 0.8"/>
      </g>
     </g>
     <g id="text_4">
      <!-- 600 -->
      <g transform="translate(271.211445 405.598437)scale(0.1 -0.1)">
       <defs>
        <path id="DejaVuSans-36" d="M 2113 2584 
Q 1688 2584 1439 2293 
Q 1191 2003 1191 1497 
Q 1191 994 1439 701 
Q 1688 409 2113 409 
Q 2538 409 2786 701 
Q 3034 994 3034 1497 
Q 3034 2003 2786 2293 
Q 2538 2584 2113 2584 
z
M 3366 4563 
L 3366 3988 
Q 3128 4100 2886 4159 
Q 2644 4219 2406 4219 
Q 1781 4219 1451 3797 
Q 1122 3375 1075 2522 
Q 1259 2794 1537 2939 
Q 1816 3084 2150 3084 
Q 2853 3084 3261 2657 
Q 3669 2231 3669 1497 
Q 3669 778 3244 343 
Q 2819 -91 2113 -91 
Q 1303 -91 875 529 
Q 447 1150 447 2328 
Q 447 3434 972 4092 
Q 1497 4750 2381 4750 
Q 2619 4750 2861 4703 
Q 3103 4656 3366 4563 
z
" transform="scale(0.015625)"/>
       </defs>
       <use xlink:href="#DejaVuSans-36"/>
       <use xlink:href="#DejaVuSans-30" x="63.623047"/>
       <use xlink:href="#DejaVuSans-30" x="127.246094"/>
      </g>
     </g>
    </g>
    <g id="xtick_5">
     <g id="line2d_5">
      <g>
       <use xlink:href="#m8d8db7f342" x="351.153594" y="391" style="stroke: #000000; stroke-width: 0.8"/>
      </g>
     </g>
     <g id="text_5">
      <!-- 800 -->
      <g transform="translate(341.609844 405.598437)scale(0.1 -0.1)">
       <defs>
        <path id="DejaVuSans-38" d="M 2034 2216 
Q 1584 2216 1326 1975 
Q 1069 1734 1069 1313 
Q 1069 891 1326 650 
Q 1584 409 2034 409 
Q 2484 409 2743 651 
Q 3003 894 3003 1313 
Q 3003 1734 2745 1975 
Q 2488 2216 2034 2216 
z
M 1403 2484 
Q 997 2584 770 2862 
Q 544 3141 544 3541 
Q 544 4100 942 4425 
Q 1341 4750 2034 4750 
Q 2731 4750 3128 4425 
Q 3525 4100 3525 3541 
Q 3525 3141 3298 2862 
Q 3072 2584 2669 2484 
Q 3125 2378 3379 2068 
Q 3634 1759 3634 1313 
Q 3634 634 3220 271 
Q 2806 -91 2034 -91 
Q 1263 -91 848 271 
Q 434 634 434 1313 
Q 434 1759 690 2068 
Q 947 2378 1403 2484 
z
M 1172 3481 
Q 1172 3119 1398 2916 
Q 1625 2713 2034 2713 
Q 2441 2713 2670 2916 
Q 2900 3119 2900 3481 
Q 2900 3844 2670 4047 
Q 2441 4250 2034 4250 
Q 1625 4250 1398 4047 
Q 1172 3844 1172 3481 
z
" transform="scale(0.015625)"/>
       </defs>
       <use xlink:href="#DejaVuSans-38"/>
       <use xlink:href="#DejaVuSans-30" x="63.623047"/>
       <use xlink:href="#DejaVuSans-30" x="127.246094"/>
      </g>
     </g>
    </g>
    <g id="text_6">
     <!-- Iteration -->
     <g transform="translate(224.171406 419.276563)scale(0.1 -0.1)">
      <defs>
       <path id="DejaVuSans-49" d="M 628 4666 
L 1259 4666 
L 1259 0 
L 628 0 
L 628 4666 
z
" transform="scale(0.015625)"/>
       <path id="DejaVuSans-74" d="M 1172 4494 
L 1172 3500 
L 2356 3500 
L 2356 3053 
L 1172 3053 
L 1172 1153 
Q 1172 725 1289 603 
Q 1406 481 1766 481 
L 2356 481 
L 2356 0 
L 1766 0 
Q 1100 0 847 248 
Q 594 497 594 1153 
L 594 3053 
L 172 3053 
L 172 3500 
L 594 3500 
L 594 4494 
L 1172 4494 
z
" transform="scale(0.015625)"/>
       <path id="DejaVuSans-65" d="M 3597 1894 
L 3597 1613 
L 953 1613 
Q 991 1019 1311 708 
Q 1631 397 2203 397 
Q 2534 397 2845 478 
Q 3156 559 3463 722 
L 3463 178 
Q 3153 47 2828 -22 
Q 2503 -91 2169 -91 
Q 1331 -91 842 396 
Q 353 884 353 1716 
Q 353 2575 817 3079 
Q 1281 3584 2069 3584 
Q 2775 3584 3186 3129 
Q 3597 2675 3597 1894 
z
M 3022 2063 
Q 3016 2534 2758 2815 
Q 2500 3097 2075 3097 
Q 1594 3097 1305 2825 
Q 1016 2553 972 2059 
L 3022 2063 
z
" transform="scale(0.015625)"/>
       <path id="DejaVuSans-72" d="M 2631 2963 
Q 2534 3019 2420 3045 
Q 2306 3072 2169 3072 
Q 1681 3072 1420 2755 
Q 1159 2438 1159 1844 
L 1159 0 
L 581 0 
L 581 3500 
L 1159 3500 
L 1159 2956 
Q 1341 3275 1631 3429 
Q 1922 3584 2338 3584 
Q 2397 3584 2469 3576 
Q 2541 3569 2628 3553 
L 2631 2963 
z
" transform="scale(0.015625)"/>
       <path id="DejaVuSans-61" d="M 2194 1759 
Q 1497 1759 1228 1600 
Q 959 1441 959 1056 
Q 959 750 1161 570 
Q 1363 391 1709 391 
Q 2188 391 2477 730 
Q 2766 1069 2766 1631 
L 2766 1759 
L 2194 1759 
z
M 3341 1997 
L 3341 0 
L 2766 0 
L 2766 531 
Q 2569 213 2275 61 
Q 1981 -91 1556 -91 
Q 1019 -91 701 211 
Q 384 513 384 1019 
Q 384 1609 779 1909 
Q 1175 2209 1959 2209 
L 2766 2209 
L 2766 2266 
Q 2766 2663 2505 2880 
Q 2244 3097 1772 3097 
Q 1472 3097 1187 3025 
Q 903 2953 641 2809 
L 641 3341 
Q 956 3463 1253 3523 
Q 1550 3584 1831 3584 
Q 2591 3584 2966 3190 
Q 3341 2797 3341 1997 
z
" transform="scale(0.015625)"/>
       <path id="DejaVuSans-69" d="M 603 3500 
L 1178 3500 
L 1178 0 
L 603 0 
L 603 3500 
z
M 603 4863 
L 1178 4863 
L 1178 4134 
L 603 4134 
L 603 4863 
z
" transform="scale(0.015625)"/>
       <path id="DejaVuSans-6f" d="M 1959 3097 
Q 1497 3097 1228 2736 
Q 959 2375 959 1747 
Q 959 1119 1226 758 
Q 1494 397 1959 397 
Q 2419 397 2687 759 
Q 2956 1122 2956 1747 
Q 2956 2369 2687 2733 
Q 2419 3097 1959 3097 
z
M 1959 3584 
Q 2709 3584 3137 3096 
Q 3566 2609 3566 1747 
Q 3566 888 3137 398 
Q 2709 -91 1959 -91 
Q 1206 -91 779 398 
Q 353 888 353 1747 
Q 353 2609 779 3096 
Q 1206 3584 1959 3584 
z
" transform="scale(0.015625)"/>
       <path id="DejaVuSans-6e" d="M 3513 2113 
L 3513 0 
L 2938 0 
L 2938 2094 
Q 2938 2591 2744 2837 
Q 2550 3084 2163 3084 
Q 1697 3084 1428 2787 
Q 1159 2491 1159 1978 
L 1159 0 
L 581 0 
L 581 3500 
L 1159 3500 
L 1159 2956 
Q 1366 3272 1645 3428 
Q 1925 3584 2291 3584 
Q 2894 3584 3203 3211 
Q 3513 2838 3513 2113 
z
" transform="scale(0.015625)"/>
      </defs>
      <use xlink:href="#DejaVuSans-49"/>
      <use xlink:href="#DejaVuSans-74" x="29.492188"/>
      <use xlink:href="#DejaVuSans-65" x="68.701172"/>
      <use xlink:href="#DejaVuSans-72" x="130.224609"/>
      <use xlink:href="#DejaVuSans-61" x="171.337891"/>
      <use xlink:href="#DejaVuSans-74" x="232.617188"/>
      <use xlink:href="#DejaVuSans-69" x="271.826172"/>
      <use xlink:href="#DejaVuSans-6f" x="299.609375"/>
      <use xlink:href="#DejaVuSans-6e" x="360.791016"/>
     </g>
    </g>
   </g>
   <g id="matplotlib.axis_2">
    <g id="ytick_1">
     <g id="line2d_6">
      <defs>
       <path id="md13148b308" d="M 0 0 
L -3.5 0 
" style="stroke: #000000; stroke-width: 0.8"/>
      </defs>
      <g>
       <use xlink:href="#md13148b308" x="69.56" y="391" style="stroke: #000000; stroke-width: 0.8"/>
      </g>
     </g>
     <g id="text_7">
      <!-- 0 -->
      <g transform="translate(56.1975 394.799219)scale(0.1 -0.1)">
       <use xlink:href="#DejaVuSans-30"/>
      </g>
     </g>
    </g>
    <g id="ytick_2">
     <g id="line2d_7">
      <g>
       <use xlink:href="#md13148b308" x="69.56" y="317.910911" style="stroke: #000000; stroke-width: 0.8"/>
      </g>
     </g>
     <g id="text_8">
      <!-- 100000 -->
      <g transform="translate(24.385 321.71013)scale(0.1 -0.1)">
       <defs>
        <path id="DejaVuSans-31" d="M 794 531 
L 1825 531 
L 1825 4091 
L 703 3866 
L 703 4441 
L 1819 4666 
L 2450 4666 
L 2450 531 
L 3481 531 
L 3481 0 
L 794 0 
L 794 531 
z
" transform="scale(0.015625)"/>
       </defs>
       <use xlink:href="#DejaVuSans-31"/>
       <use xlink:href="#DejaVuSans-30" x="63.623047"/>
       <use xlink:href="#DejaVuSans-30" x="127.246094"/>
       <use xlink:href="#DejaVuSans-30" x="190.869141"/>
       <use xlink:href="#DejaVuSans-30" x="254.492188"/>
       <use xlink:href="#DejaVuSans-30" x="318.115234"/>
      </g>
     </g>
    </g>
    <g id="ytick_3">
     <g id="line2d_8">
      <g>
       <use xlink:href="#md13148b308" x="69.56" y="244.821822" style="stroke: #000000; stroke-width: 0.8"/>
      </g>
     </g>
     <g id="text_9">
      <!-- 200000 -->
      <g transform="translate(24.385 248.621041)scale(0.1 -0.1)">
       <use xlink:href="#DejaVuSans-32"/>
       <use xlink:href="#DejaVuSans-30" x="63.623047"/>
       <use xlink:href="#DejaVuSans-30" x="127.246094"/>
       <use xlink:href="#DejaVuSans-30" x="190.869141"/>
       <use xlink:href="#DejaVuSans-30" x="254.492188"/>
       <use xlink:href="#DejaVuSans-30" x="318.115234"/>
      </g>
     </g>
    </g>
    <g id="ytick_4">
     <g id="line2d_9">
      <g>
       <use xlink:href="#md13148b308" x="69.56" y="171.732733" style="stroke: #000000; stroke-width: 0.8"/>
      </g>
     </g>
     <g id="text_10">
      <!-- 300000 -->
      <g transform="translate(24.385 175.531951)scale(0.1 -0.1)">
       <defs>
        <path id="DejaVuSans-33" d="M 2597 2516 
Q 3050 2419 3304 2112 
Q 3559 1806 3559 1356 
Q 3559 666 3084 287 
Q 2609 -91 1734 -91 
Q 1441 -91 1130 -33 
Q 819 25 488 141 
L 488 750 
Q 750 597 1062 519 
Q 1375 441 1716 441 
Q 2309 441 2620 675 
Q 2931 909 2931 1356 
Q 2931 1769 2642 2001 
Q 2353 2234 1838 2234 
L 1294 2234 
L 1294 2753 
L 1863 2753 
Q 2328 2753 2575 2939 
Q 2822 3125 2822 3475 
Q 2822 3834 2567 4026 
Q 2313 4219 1838 4219 
Q 1578 4219 1281 4162 
Q 984 4106 628 3988 
L 628 4550 
Q 988 4650 1302 4700 
Q 1616 4750 1894 4750 
Q 2613 4750 3031 4423 
Q 3450 4097 3450 3541 
Q 3450 3153 3228 2886 
Q 3006 2619 2597 2516 
z
" transform="scale(0.015625)"/>
       </defs>
       <use xlink:href="#DejaVuSans-33"/>
       <use xlink:href="#DejaVuSans-30" x="63.623047"/>
       <use xlink:href="#DejaVuSans-30" x="127.246094"/>
       <use xlink:href="#DejaVuSans-30" x="190.869141"/>
       <use xlink:href="#DejaVuSans-30" x="254.492188"/>
       <use xlink:href="#DejaVuSans-30" x="318.115234"/>
      </g>
     </g>
    </g>
    <g id="ytick_5">
     <g id="line2d_10">
      <g>
       <use xlink:href="#md13148b308" x="69.56" y="98.643644" style="stroke: #000000; stroke-width: 0.8"/>
      </g>
     </g>
     <g id="text_11">
      <!-- 400000 -->
      <g transform="translate(24.385 102.442862)scale(0.1 -0.1)">
       <use xlink:href="#DejaVuSans-34"/>
       <use xlink:href="#DejaVuSans-30" x="63.623047"/>
       <use xlink:href="#DejaVuSans-30" x="127.246094"/>
       <use xlink:href="#DejaVuSans-30" x="190.869141"/>
       <use xlink:href="#DejaVuSans-30" x="254.492188"/>
       <use xlink:href="#DejaVuSans-30" x="318.115234"/>
      </g>
     </g>
    </g>
    <g id="text_12">
     <!-- Time [us] -->
     <g transform="translate(18.305312 231.957656)rotate(-90)scale(0.1 -0.1)">
      <defs>
       <path id="DejaVuSans-54" d="M -19 4666 
L 3928 4666 
L 3928 4134 
L 2272 4134 
L 2272 0 
L 1638 0 
L 1638 4134 
L -19 4134 
L -19 4666 
z
" transform="scale(0.015625)"/>
       <path id="DejaVuSans-6d" d="M 3328 2828 
Q 3544 3216 3844 3400 
Q 4144 3584 4550 3584 
Q 5097 3584 5394 3201 
Q 5691 2819 5691 2113 
L 5691 0 
L 5113 0 
L 5113 2094 
Q 5113 2597 4934 2840 
Q 4756 3084 4391 3084 
Q 3944 3084 3684 2787 
Q 3425 2491 3425 1978 
L 3425 0 
L 2847 0 
L 2847 2094 
Q 2847 2600 2669 2842 
Q 2491 3084 2119 3084 
Q 1678 3084 1418 2786 
Q 1159 2488 1159 1978 
L 1159 0 
L 581 0 
L 581 3500 
L 1159 3500 
L 1159 2956 
Q 1356 3278 1631 3431 
Q 1906 3584 2284 3584 
Q 2666 3584 2933 3390 
Q 3200 3197 3328 2828 
z
" transform="scale(0.015625)"/>
       <path id="DejaVuSans-20" transform="scale(0.015625)"/>
       <path id="DejaVuSans-5b" d="M 550 4863 
L 1875 4863 
L 1875 4416 
L 1125 4416 
L 1125 -397 
L 1875 -397 
L 1875 -844 
L 550 -844 
L 550 4863 
z
" transform="scale(0.015625)"/>
       <path id="DejaVuSans-75" d="M 544 1381 
L 544 3500 
L 1119 3500 
L 1119 1403 
Q 1119 906 1312 657 
Q 1506 409 1894 409 
Q 2359 409 2629 706 
Q 2900 1003 2900 1516 
L 2900 3500 
L 3475 3500 
L 3475 0 
L 2900 0 
L 2900 538 
Q 2691 219 2414 64 
Q 2138 -91 1772 -91 
Q 1169 -91 856 284 
Q 544 659 544 1381 
z
M 1991 3584 
L 1991 3584 
z
" transform="scale(0.015625)"/>
       <path id="DejaVuSans-73" d="M 2834 3397 
L 2834 2853 
Q 2591 2978 2328 3040 
Q 2066 3103 1784 3103 
Q 1356 3103 1142 2972 
Q 928 2841 928 2578 
Q 928 2378 1081 2264 
Q 1234 2150 1697 2047 
L 1894 2003 
Q 2506 1872 2764 1633 
Q 3022 1394 3022 966 
Q 3022 478 2636 193 
Q 2250 -91 1575 -91 
Q 1294 -91 989 -36 
Q 684 19 347 128 
L 347 722 
Q 666 556 975 473 
Q 1284 391 1588 391 
Q 1994 391 2212 530 
Q 2431 669 2431 922 
Q 2431 1156 2273 1281 
Q 2116 1406 1581 1522 
L 1381 1569 
Q 847 1681 609 1914 
Q 372 2147 372 2553 
Q 372 3047 722 3315 
Q 1072 3584 1716 3584 
Q 2034 3584 2315 3537 
Q 2597 3491 2834 3397 
z
" transform="scale(0.015625)"/>
       <path id="DejaVuSans-5d" d="M 1947 4863 
L 1947 -844 
L 622 -844 
L 622 -397 
L 1369 -397 
L 1369 4416 
L 622 4416 
L 622 4863 
L 1947 4863 
z
" transform="scale(0.015625)"/>
      </defs>
      <use xlink:href="#DejaVuSans-54"/>
      <use xlink:href="#DejaVuSans-69" x="57.958984"/>
      <use xlink:href="#DejaVuSans-6d" x="85.742188"/>
      <use xlink:href="#DejaVuSans-65" x="183.154297"/>
      <use xlink:href="#DejaVuSans-20" x="244.677734"/>
      <use xlink:href="#DejaVuSans-5b" x="276.464844"/>
      <use xlink:href="#DejaVuSans-75" x="315.478516"/>
      <use xlink:href="#DejaVuSans-73" x="378.857422"/>
      <use xlink:href="#DejaVuSans-5d" x="430.957031"/>
     </g>
    </g>
   </g>
   <g id="line2d_11">
    <path d="M 69.56 391 
L 70.263984 390.999635 
L 70.615976 389.536318 
L 71.671952 389.535879 
L 72.023944 388.076802 
L 73.07992 388.076363 
L 73.431912 386.617359 
L 74.487888 386.616847 
L 74.83988 385.067651 
L 75.895856 385.06597 
L 76.247848 383.666095 
L 77.303824 383.665364 
L 77.655816 382.219296 
L 78.711792 382.218784 
L 79.063784 380.760511 
L 80.11976 380.760072 
L 80.471752 379.315101 
L 81.527728 379.314736 
L 81.87972 377.862017 
L 82.935696 377.861725 
L 83.287688 376.428009 
L 84.343664 376.427717 
L 84.695656 374.938965 
L 85.751632 374.9386 
L 86.103624 373.485442 
L 87.1596 373.485077 
L 87.511592 372.027169 
L 88.567568 372.026803 
L 88.91956 370.572477 
L 89.975536 370.572184 
L 90.327528 369.109672 
L 91.383504 369.109379 
L 91.735495 367.656514 
L 92.791471 367.656222 
L 93.143463 366.193125 
L 94.199439 366.192832 
L 94.551431 364.754878 
L 95.607407 364.754585 
L 95.959399 363.261741 
L 97.015375 363.261448 
L 97.367367 361.819912 
L 98.423343 361.819547 
L 98.775335 360.362077 
L 99.831311 360.361712 
L 100.183303 358.900441 
L 101.239279 358.900076 
L 101.591271 357.447138 
L 102.647247 357.446992 
L 102.999239 355.999389 
L 104.055215 355.999243 
L 104.407207 354.52891 
L 105.463183 354.528837 
L 105.815175 353.105646 
L 106.871151 353.1055 
L 107.223143 351.623619 
L 108.279119 351.623473 
L 108.631111 350.166442 
L 109.687087 350.166295 
L 110.039079 348.709411 
L 111.095055 348.709264 
L 111.447047 347.240905 
L 112.503023 347.240685 
L 112.855015 345.79279 
L 113.910991 345.792571 
L 114.262983 344.333859 
L 115.318959 344.333713 
L 115.670951 342.875659 
L 116.726927 342.875513 
L 117.078919 341.419724 
L 118.134895 341.419578 
L 118.486887 339.896255 
L 119.542863 339.896109 
L 119.894855 338.503908 
L 120.950831 338.503762 
L 121.302823 337.040664 
L 122.358799 337.040518 
L 122.710791 335.560026 
L 123.766767 335.559879 
L 124.118759 334.130549 
L 125.174735 334.130403 
L 125.526727 332.672349 
L 126.230711 332.672203 
L 126.582703 331.20757 
L 127.990671 331.207424 
L 128.342663 329.745715 
L 129.398639 329.745569 
L 129.750631 328.320259 
L 130.454615 328.32004 
L 130.806607 326.840643 
L 131.862583 326.840497 
L 132.214575 325.382735 
L 133.270551 325.382589 
L 133.622543 323.921027 
L 134.678519 323.920807 
L 135.030511 322.466627 
L 136.086486 322.466481 
L 136.438478 321.005576 
L 137.494454 321.00543 
L 137.846446 319.542771 
L 138.902422 319.542625 
L 139.254414 318.091368 
L 140.31039 318.091222 
L 140.662382 316.656994 
L 141.718358 316.656702 
L 142.07035 315.175625 
L 143.126326 315.175406 
L 143.478318 313.708581 
L 144.534294 313.708434 
L 144.886286 312.261563 
L 145.942262 312.261417 
L 146.294254 310.802851 
L 147.35023 310.802705 
L 147.702222 309.344577 
L 148.758198 309.344431 
L 149.11019 307.885354 
L 150.166166 307.885207 
L 150.518158 306.427665 
L 151.574134 306.427446 
L 151.926126 304.957624 
L 152.982102 304.957405 
L 153.334094 303.542912 
L 154.39007 303.542327 
L 154.742062 302.061176 
L 155.798038 302.060811 
L 156.15003 300.616424 
L 157.206006 300.615913 
L 157.557998 299.157859 
L 158.613974 299.157347 
L 158.965966 297.706236 
L 160.021942 297.705871 
L 160.373934 296.24672 
L 161.42991 296.246282 
L 161.781902 294.799556 
L 162.837878 294.799191 
L 163.18987 293.33222 
L 164.245846 293.331635 
L 164.597838 291.872411 
L 165.653814 291.872046 
L 166.005806 290.416038 
L 167.061782 290.415673 
L 167.413774 288.941758 
L 168.46975 288.941027 
L 168.821742 287.485385 
L 169.877718 287.485239 
L 170.22971 286.064898 
L 171.285686 286.064606 
L 171.637678 285.318878 
L 171.98967 285.318659 
L 172.341662 283.857389 
L 173.397638 283.857169 
L 173.74963 282.403354 
L 174.805606 282.403208 
L 175.157598 280.945446 
L 176.213574 280.945227 
L 176.565566 279.503618 
L 177.621542 279.503399 
L 177.973534 278.737717 
L 178.325526 278.737571 
L 178.677518 277.300274 
L 179.733493 277.300055 
L 180.085485 275.843243 
L 181.141461 275.843097 
L 181.493453 274.3819 
L 182.549429 274.381608 
L 182.901421 272.926185 
L 183.957397 272.925965 
L 184.309389 271.46835 
L 185.365365 271.46813 
L 185.717357 270.011538 
L 186.773333 270.011319 
L 187.125325 268.570952 
L 188.181301 268.57066 
L 188.533293 267.064659 
L 189.589269 267.06422 
L 189.941261 265.60602 
L 190.997237 265.605874 
L 191.349229 264.160756 
L 192.405205 264.160537 
L 192.757197 262.698828 
L 193.813173 262.698609 
L 194.165165 261.275564 
L 195.221141 261.260727 
L 195.573133 259.822626 
L 196.629109 259.822334 
L 196.981101 258.36618 
L 198.037077 258.365961 
L 198.389069 256.906226 
L 199.445045 256.90586 
L 199.797037 255.445248 
L 200.853013 255.444882 
L 201.205005 253.98829 
L 202.260981 253.987778 
L 202.612973 252.51401 
L 203.668949 252.513498 
L 204.020941 251.05676 
L 205.076917 251.056394 
L 205.428909 249.612592 
L 206.484885 249.612081 
L 206.836877 248.157096 
L 207.892853 248.151834 
L 208.244845 246.703135 
L 209.300821 246.702843 
L 209.652813 245.231998 
L 210.708789 245.231486 
L 211.060781 243.780595 
L 212.116757 243.78001 
L 212.468749 242.313404 
L 213.524725 242.312893 
L 213.876717 240.850161 
L 214.932693 240.849941 
L 215.284685 239.410598 
L 216.340661 239.410452 
L 216.692653 237.95861 
L 217.748629 237.958464 
L 218.100621 236.478264 
L 219.156597 236.478045 
L 219.508589 235.022695 
L 220.564565 235.022548 
L 220.916557 233.448356 
L 221.972533 233.448136 
L 222.324525 231.940601 
L 223.380501 231.940381 
L 223.732492 230.516387 
L 224.788468 230.514925 
L 225.14046 229.132153 
L 226.196436 229.131129 
L 226.548428 227.679068 
L 227.604404 227.678118 
L 227.956396 226.220064 
L 229.012372 226.219114 
L 229.364364 224.758428 
L 230.42034 224.757405 
L 230.772332 223.300009 
L 231.828308 223.298985 
L 232.1803 221.841004 
L 233.236276 221.840054 
L 233.588268 220.383754 
L 234.644244 220.382804 
L 234.996236 219.620631 
L 235.348228 219.620485 
L 235.70022 218.118211 
L 236.756196 218.116457 
L 237.108188 216.737632 
L 238.164164 216.736535 
L 238.516156 215.283013 
L 239.572132 215.281989 
L 239.924124 213.826055 
L 240.9801 213.825031 
L 241.332092 212.363177 
L 242.388068 212.3623 
L 242.74006 210.909946 
L 243.796036 210.908996 
L 244.148028 209.45138 
L 245.204004 209.45043 
L 245.555996 208.070801 
L 246.25998 208.070728 
L 246.611972 207.270694 
L 247.315956 207.270621 
L 247.667948 205.737285 
L 248.723924 205.736262 
L 249.075916 204.349031 
L 250.131892 204.348081 
L 250.483884 202.884764 
L 251.53986 202.884472 
L 251.891852 201.426783 
L 252.947828 201.426491 
L 253.29982 199.967267 
L 254.355796 199.966975 
L 254.707788 198.512648 
L 255.763764 198.512429 
L 256.115756 197.054082 
L 257.171732 197.05379 
L 257.523724 195.59654 
L 258.5797 195.596247 
L 258.931692 194.214133 
L 259.635676 194.213913 
L 259.987668 193.354897 
L 260.691652 193.354093 
L 261.043644 192.501144 
L 261.395636 192.50034 
L 261.747628 191.638473 
L 262.09962 191.637742 
L 262.451612 190.785523 
L 263.155596 190.784719 
L 263.507588 189.925996 
L 263.85958 189.925338 
L 264.211572 189.067199 
L 264.563564 189.066541 
L 264.915556 188.213153 
L 265.61954 188.212495 
L 265.971532 187.360861 
L 266.323524 187.360276 
L 266.675516 186.510616 
L 267.027508 186.509812 
L 267.379499 185.121192 
L 268.435475 185.120461 
L 268.787467 184.319039 
L 269.139459 184.318235 
L 269.491451 183.460243 
L 270.195435 183.459292 
L 270.547427 181.953146 
L 271.603403 181.952342 
L 271.955395 180.434354 
L 273.011371 180.433623 
L 273.363363 179.597703 
L 273.715355 179.597119 
L 274.067347 178.76171 
L 274.771331 178.760906 
L 275.123323 177.927837 
L 275.475315 177.927252 
L 275.827307 177.093379 
L 276.179299 177.092794 
L 276.531291 176.259505 
L 276.883283 176.258921 
L 277.235275 175.426217 
L 277.939259 175.425559 
L 278.291251 174.032554 
L 279.347227 174.031531 
L 279.699219 173.177119 
L 280.051211 173.176462 
L 280.403203 172.318469 
L 280.755195 172.317738 
L 281.107187 171.457187 
L 281.811171 171.456456 
L 282.163163 169.923705 
L 283.219139 169.922755 
L 283.571131 168.416973 
L 284.627107 168.416242 
L 284.979099 167.560588 
L 285.331091 167.559857 
L 285.683083 166.698941 
L 286.387067 166.698137 
L 286.739059 165.838829 
L 287.091051 165.838098 
L 287.443043 164.980909 
L 287.795035 164.980178 
L 288.147027 164.128178 
L 288.851011 164.127521 
L 289.203003 162.725599 
L 290.258979 162.724868 
L 290.610971 161.856277 
L 290.962963 161.855473 
L 291.314955 161.003035 
L 291.666947 161.002304 
L 292.018939 159.547905 
L 293.074915 159.547027 
L 293.426907 158.67259 
L 294.130891 158.671859 
L 294.482883 157.327677 
L 295.186867 157.327093 
L 295.538859 156.337978 
L 296.242843 156.337174 
L 296.594835 154.911425 
L 297.650811 154.910548 
L 298.002803 153.89958 
L 298.706787 153.898776 
L 299.058779 152.880133 
L 299.410771 152.879402 
L 299.762763 151.425368 
L 300.818739 151.424491 
L 301.170731 150.404606 
L 301.874715 150.403875 
L 302.226707 149.382528 
L 302.930691 149.381724 
L 303.282683 148.365347 
L 303.986667 148.36447 
L 304.338659 147.3459 
L 305.042643 147.345096 
L 305.394635 146.370526 
L 305.746627 146.369796 
L 306.098619 145.120995 
L 307.154595 145.120411 
L 307.506587 143.599938 
L 308.562563 143.599207 
L 308.914555 142.575156 
L 309.618539 142.574352 
L 309.970531 141.563384 
L 310.322523 141.562653 
L 310.674515 140.120752 
L 311.73049 140.119948 
L 312.082482 139.094215 
L 312.786466 139.093484 
L 313.138458 137.647198 
L 314.194434 137.646394 
L 314.546426 136.254704 
L 315.602402 136.2539 
L 315.954394 135.234454 
L 316.658378 135.233723 
L 317.01037 134.197685 
L 317.714354 134.196954 
L 318.066346 133.012545 
L 318.77033 133.011961 
L 319.122322 131.300726 
L 320.53029 131.299629 
L 320.882282 130.28413 
L 321.234274 130.283545 
L 321.586266 129.070193 
L 322.642242 129.069316 
L 322.994234 128.093503 
L 323.346226 128.092919 
L 323.698218 127.064409 
L 324.402202 127.063532 
L 324.754194 126.03378 
L 325.458178 126.033049 
L 325.81017 125.006293 
L 326.514154 125.005489 
L 326.866146 123.984142 
L 327.57013 123.983192 
L 327.922122 122.95556 
L 328.274114 122.954829 
L 328.626106 121.986106 
L 329.33009 121.985302 
L 329.682082 120.731605 
L 330.386066 120.730947 
L 330.738058 119.022124 
L 332.146026 119.021247 
L 332.498018 117.839397 
L 333.202002 117.838593 
L 333.553994 116.225663 
L 334.961962 116.224859 
L 335.313954 115.287199 
L 335.665946 115.286468 
L 336.017938 114.341426 
L 336.721922 114.340768 
L 337.073914 113.399892 
L 337.777898 113.399234 
L 338.12989 112.459674 
L 338.481882 112.459089 
L 338.833874 111.522891 
L 339.537858 111.52216 
L 339.88985 110.581723 
L 340.241842 110.581138 
L 340.593834 109.284246 
L 341.64981 109.283295 
L 342.001802 107.575057 
L 343.057778 107.574326 
L 343.40977 106.407167 
L 344.465746 106.406509 
L 344.817738 105.484198 
L 345.16973 105.483613 
L 345.521722 104.545368 
L 346.225706 104.544784 
L 346.577698 103.597768 
L 346.92969 103.597257 
L 347.281682 102.663836 
L 347.985666 102.662959 
L 348.337658 101.72084 
L 348.68965 101.720256 
L 349.041642 100.760523 
L 349.745626 100.759865 
L 350.097618 99.75701 
L 350.801602 99.756279 
L 351.153594 98.726819 
L 351.857578 98.725942 
L 352.20957 97.725572 
L 352.561562 97.724987 
L 352.913554 96.526399 
L 353.96953 96.525522 
L 354.321522 95.482979 
L 355.025506 95.482029 
L 355.377497 94.313407 
L 356.081481 94.312896 
L 356.433473 93.28709 
L 357.137457 93.28636 
L 357.489449 92.262162 
L 357.841441 92.261504 
L 358.193433 91.241546 
L 358.897417 91.240815 
L 359.249409 90.210478 
L 359.953393 90.209747 
L 360.305385 89.18957 
L 361.009369 89.188693 
L 361.361361 88.158502 
L 362.065345 88.157698 
L 362.417337 86.703079 
L 363.473313 86.702129 
L 363.825305 85.678516 
L 364.177297 85.677859 
L 364.529289 84.482633 
L 365.585265 84.481975 
L 365.937257 82.805823 
L 366.993233 82.804946 
L 367.345225 81.783014 
L 368.049209 81.782356 
L 368.401201 80.760717 
L 369.105185 80.75984 
L 369.457177 79.73842 
L 370.161161 79.737616 
L 370.513153 78.717731 
L 370.865145 78.716927 
L 371.217137 77.690756 
L 371.921121 77.689952 
L 372.273113 76.675256 
L 372.977097 76.674598 
L 373.329089 75.6466 
L 374.033073 75.645869 
L 374.385065 74.622257 
L 375.089049 74.621526 
L 375.441041 73.536445 
L 376.145025 73.535714 
L 376.497017 72.086869 
L 377.552993 72.086211 
L 377.904985 70.582915 
L 378.960961 70.582477 
L 379.312953 69.751015 
L 379.664945 69.750796 
L 380.016937 68.924231 
L 380.368929 68.924012 
L 380.720921 68.103002 
L 381.072913 68.102783 
L 381.424905 67.160665 
L 382.128889 67.160007 
L 382.480881 66.220008 
L 383.184865 66.21935 
L 383.536857 65.282129 
L 383.888849 65.281544 
L 384.240841 63.98816 
L 385.296817 63.987283 
L 385.648809 62.962281 
L 386.352793 62.96155 
L 386.704785 61.935453 
L 387.056777 61.934795 
L 387.408769 61.126137 
L 388.112753 61.125333 
L 388.464745 59.70682 
L 389.168729 59.706162 
L 389.520721 58.690151 
L 390.224705 58.68942 
L 390.576697 57.669389 
L 391.280681 57.668658 
L 391.632673 56.649138 
L 392.336657 56.648334 
L 392.688649 55.626256 
L 393.392633 55.625525 
L 393.744625 54.603959 
L 394.096617 54.603155 
L 394.448609 53.577569 
L 395.152593 53.576838 
L 395.504585 52.558707 
L 396.208569 52.557903 
L 396.560561 51.53144 
L 397.264545 51.53049 
L 397.616537 50.506877 
L 398.320521 50.506 
L 398.672513 49.06556 
L 399.728488 49.064245 
L 400.08048 47.822607 
L 400.784464 47.82195 
L 401.136456 46.24074 
L 402.192432 46.240009 
L 402.544424 45.324861 
L 403.248408 45.324203 
L 403.6004 43.818129 
L 404.656376 43.817325 
L 405.008368 42.330328 
L 406.064344 42.329816 
L 406.416336 40.877609 
L 407.472312 40.877244 
L 407.824304 39.349755 
L 408.88028 39.349316 
L 409.232272 38.512592 
L 409.584264 38.5123 
L 409.936256 37.054392 
L 410.992232 37.054099 
L 411.344224 35.642968 
L 412.4002 35.642457 
L 412.752192 34.163426 
L 413.808168 34.162987 
L 414.16016 33.344024 
L 414.864144 33.343659 
L 415.216136 32.383049 
L 415.568128 32.382245 
L 415.92012 31.421854 
L 416.624104 31.42105 
L 416.976096 30.465995 
L 417.328088 30.46541 
L 417.68008 29.504216 
L 418.384064 29.503558 
L 418.736056 28.050985 
L 419.792032 28.050182 
L 420.144024 27.093592 
L 420.848008 27.092788 
L 421.2 25.83127 
L 421.2 25.83127 
" clip-path="url(#pe6d99fba6d)" style="fill: none; stroke: #1f77b4; stroke-width: 1.5; stroke-linecap: square"/>
   </g>
   <g id="line2d_12">
    <path d="M 69.56 391 
L 104.759199 354.528837 
L 139.958398 318.091222 
L 175.157598 280.945446 
L 210.356797 245.231559 
L 245.555996 208.070801 
L 280.755195 172.317738 
L 315.954394 135.234454 
L 351.153594 98.726819 
L 386.352793 62.96155 
" clip-path="url(#pe6d99fba6d)" style="fill: none"/>
    <defs>
     <path id="m1d216d710b" d="M -5 5 
L 5 5 
L 5 -5 
L -5 -5 
z
" style="stroke: #1f77b4; stroke-linejoin: miter"/>
    </defs>
    <g clip-path="url(#pe6d99fba6d)">
     <use xlink:href="#m1d216d710b" x="69.56" y="391" style="fill: #1f77b4; stroke: #1f77b4; stroke-linejoin: miter"/>
     <use xlink:href="#m1d216d710b" x="104.759199" y="354.528837" style="fill: #1f77b4; stroke: #1f77b4; stroke-linejoin: miter"/>
     <use xlink:href="#m1d216d710b" x="139.958398" y="318.091222" style="fill: #1f77b4; stroke: #1f77b4; stroke-linejoin: miter"/>
     <use xlink:href="#m1d216d710b" x="175.157598" y="280.945446" style="fill: #1f77b4; stroke: #1f77b4; stroke-linejoin: miter"/>
     <use xlink:href="#m1d216d710b" x="210.356797" y="245.231559" style="fill: #1f77b4; stroke: #1f77b4; stroke-linejoin: miter"/>
     <use xlink:href="#m1d216d710b" x="245.555996" y="208.070801" style="fill: #1f77b4; stroke: #1f77b4; stroke-linejoin: miter"/>
     <use xlink:href="#m1d216d710b" x="280.755195" y="172.317738" style="fill: #1f77b4; stroke: #1f77b4; stroke-linejoin: miter"/>
     <use xlink:href="#m1d216d710b" x="315.954394" y="135.234454" style="fill: #1f77b4; stroke: #1f77b4; stroke-linejoin: miter"/>
     <use xlink:href="#m1d216d710b" x="351.153594" y="98.726819" style="fill: #1f77b4; stroke: #1f77b4; stroke-linejoin: miter"/>
     <use xlink:href="#m1d216d710b" x="386.352793" y="62.96155" style="fill: #1f77b4; stroke: #1f77b4; stroke-linejoin: miter"/>
    </g>
   </g>
   <g id="line2d_13">
    <path d="M 69.56 391 
L 69.911992 390.401985 
L 70.967968 387.61349 
L 71.671952 386.407739 
L 72.023944 385.36527 
L 72.375936 385.357449 
L 73.431912 382.262272 
L 73.783904 382.254013 
L 74.135896 381.217756 
L 74.487888 380.564486 
L 74.83988 379.529179 
L 75.191872 379.521359 
L 76.247848 376.370853 
L 76.59984 376.363033 
L 77.303824 375.18184 
L 77.655816 373.733434 
L 78.007808 372.993187 
L 78.3598 372.98851 
L 79.415776 369.908901 
L 79.767768 369.900934 
L 80.471752 367.836314 
L 80.823744 367.82842 
L 81.87972 364.731854 
L 82.231712 364.723815 
L 82.583704 364.069302 
L 82.935696 362.572437 
L 83.287688 362.564324 
L 83.991672 360.57272 
L 84.343664 360.564826 
L 85.751632 356.833117 
L 86.103624 356.825004 
L 87.1596 353.825354 
L 87.511592 353.817461 
L 87.863584 352.850565 
L 88.215576 352.361307 
L 88.91956 350.615428 
L 89.271552 349.58034 
L 89.623544 349.572008 
L 90.67952 346.480997 
L 91.031512 346.472958 
L 91.735495 344.424928 
L 92.087487 344.417254 
L 92.791471 342.185259 
L 93.143463 342.177146 
L 93.847447 340.730786 
L 95.255415 336.92131 
L 95.607407 336.912466 
L 95.959399 336.259561 
L 96.663383 334.200495 
L 97.015375 334.192602 
L 98.071351 331.08785 
L 98.423343 331.079957 
L 98.775335 330.39175 
L 99.127327 329.1238 
L 99.479319 329.117076 
L 100.887287 325.313739 
L 101.239279 325.306065 
L 101.943263 323.242687 
L 102.295255 323.23472 
L 102.647247 322.209061 
L 102.999239 321.63882 
L 104.759199 317.260857 
L 105.111191 317.25289 
L 105.815175 315.385975 
L 106.167167 314.461764 
L 106.519159 314.453651 
L 107.575135 311.358547 
L 107.927127 311.3508 
L 108.631111 309.289322 
L 108.983103 309.281355 
L 109.335095 308.253796 
L 110.391071 306.300051 
L 111.095055 304.299676 
L 111.447047 304.291855 
L 112.503023 301.202599 
L 112.855015 301.194705 
L 113.558999 299.115759 
L 113.910991 299.107866 
L 114.966967 296.348168 
L 115.670951 294.590668 
L 116.022943 294.582701 
L 117.078919 291.822857 
L 117.430911 291.815036 
L 118.486887 288.72081 
L 118.838879 288.712697 
L 119.542863 286.634409 
L 119.894855 286.626442 
L 120.246847 285.601514 
L 121.302823 283.643311 
L 122.006807 281.649148 
L 122.358799 281.641328 
L 123.414775 278.538038 
L 123.766767 278.529925 
L 124.118759 277.512159 
L 124.822743 276.057102 
L 125.174735 275.018506 
L 125.526727 275.01032 
L 126.582703 271.886785 
L 126.934695 271.878087 
L 127.286687 271.256903 
L 127.990671 269.181611 
L 128.342663 269.173718 
L 129.398639 266.082342 
L 129.750631 266.074448 
L 130.454615 264.014432 
L 130.806607 264.006538 
L 131.510591 261.944257 
L 132.566567 259.982618 
L 133.270551 258.003951 
L 133.622543 257.995911 
L 134.326527 255.928732 
L 134.678519 255.920839 
L 135.382503 253.863161 
L 135.734494 253.855268 
L 136.79047 250.770908 
L 137.142462 250.763015 
L 137.494454 250.06918 
L 138.55043 247.293987 
L 138.902422 247.285874 
L 139.958398 244.183827 
L 140.31039 244.175714 
L 141.014374 242.140768 
L 141.366366 242.132655 
L 142.07035 239.674888 
L 142.422342 239.666995 
L 142.774334 239.120434 
L 143.126326 237.937561 
L 143.478318 237.218437 
L 143.83031 236.044334 
L 144.182302 236.036806 
L 144.534294 234.810005 
L 144.886286 234.802112 
L 145.59027 232.339009 
L 145.942262 232.331043 
L 146.294254 231.10987 
L 146.646246 231.101611 
L 146.998238 229.881973 
L 147.35023 229.307932 
L 147.702222 228.074846 
L 148.054214 228.066733 
L 148.406206 226.662399 
L 148.758198 226.652824 
L 149.11019 225.16378 
L 149.462182 225.155668 
L 150.166166 222.702725 
L 150.518158 222.694539 
L 150.87015 221.473439 
L 151.222142 221.465326 
L 151.574134 220.238672 
L 151.926126 220.230486 
L 152.63011 217.776959 
L 152.982102 217.76848 
L 153.334094 216.541753 
L 153.686086 216.533713 
L 154.39007 214.316483 
L 154.742062 214.310782 
L 155.446046 212.138208 
L 155.798038 212.130534 
L 156.502022 209.691186 
L 156.854014 209.683 
L 157.206006 208.44794 
L 157.557998 208.440047 
L 158.261982 205.982061 
L 158.613974 205.972851 
L 158.965966 204.536943 
L 159.317958 204.529415 
L 159.66995 203.960563 
L 160.021942 202.344124 
L 160.373934 202.336011 
L 160.725926 201.122148 
L 161.077918 201.114254 
L 161.781902 198.659849 
L 162.133894 198.651737 
L 162.485886 197.426544 
L 162.837878 197.418504 
L 163.541862 194.972139 
L 163.893854 194.964173 
L 164.245846 193.739053 
L 164.597838 193.730867 
L 165.301822 191.472561 
L 165.653814 191.466568 
L 166.005806 190.783842 
L 166.357798 189.547175 
L 166.70979 189.539135 
L 167.413774 187.097667 
L 167.765766 187.089408 
L 168.117758 185.868309 
L 168.46975 185.860196 
L 169.173734 183.425598 
L 169.525726 183.416681 
L 169.877718 182.908054 
L 170.22971 181.6776 
L 170.933694 180.475723 
L 171.285686 179.243002 
L 171.637678 179.234816 
L 172.341662 176.782896 
L 172.693654 176.77493 
L 173.045646 175.550176 
L 173.397638 175.542355 
L 174.101622 173.097233 
L 174.453614 173.089193 
L 174.805606 171.861004 
L 175.157598 171.853037 
L 175.50959 170.635081 
L 176.565566 168.904843 
L 176.917558 168.142524 
L 177.621542 165.763401 
L 177.973534 165.755799 
L 178.325526 164.533092 
L 178.677518 164.524979 
L 179.381502 162.077006 
L 179.733493 162.069113 
L 180.437477 160.892305 
L 181.845445 156.930877 
L 182.197437 156.923129 
L 182.549429 155.70488 
L 182.901421 155.696548 
L 183.253413 154.470186 
L 183.605405 154.462293 
L 184.309389 152.016659 
L 184.661381 152.008765 
L 185.013373 150.780868 
L 185.365365 150.772682 
L 186.069349 148.325513 
L 186.421341 148.317327 
L 186.773333 147.095716 
L 187.125325 147.085192 
L 188.181301 143.870807 
L 188.533293 143.862621 
L 188.885285 142.637721 
L 189.237277 142.6299 
L 189.941261 140.190186 
L 190.293253 140.182439 
L 190.645245 138.773939 
L 190.997237 138.765753 
L 191.349229 138.156336 
L 191.701221 136.931655 
L 192.053213 136.923762 
L 192.757197 134.241246 
L 193.109189 134.233352 
L 193.461181 133.01525 
L 193.813173 133.007064 
L 194.165165 131.783041 
L 194.517157 131.775293 
L 195.221141 129.318696 
L 195.573133 129.310437 
L 195.925125 128.088753 
L 196.277117 128.080786 
L 196.981101 125.627551 
L 197.333093 125.619657 
L 197.685085 124.43364 
L 198.037077 124.425162 
L 199.093053 121.241328 
L 199.445045 121.233435 
L 199.797037 120.016282 
L 200.149029 120.008388 
L 200.853013 117.544409 
L 201.205005 117.5352 
L 201.556997 116.093737 
L 201.908989 116.085916 
L 202.260981 114.865986 
L 202.612973 114.858458 
L 202.964965 113.633704 
L 203.668949 112.638085 
L 204.372933 110.16168 
L 204.724925 110.153786 
L 205.076917 108.935245 
L 205.428909 108.927352 
L 205.780901 107.696385 
L 206.132893 107.688272 
L 206.836877 105.236645 
L 207.188869 105.228459 
L 207.540861 104.006482 
L 207.892853 103.998589 
L 208.596837 101.359123 
L 208.948829 101.350864 
L 209.300821 101.005006 
L 210.004805 99.336528 
L 210.356797 98.106877 
L 210.708789 98.098911 
L 211.412773 95.636101 
L 211.764765 95.62828 
L 212.116757 94.188498 
L 212.468749 94.180312 
L 212.820741 92.948834 
L 213.172733 92.941452 
L 213.524725 91.496627 
L 213.876717 91.48866 
L 214.580701 89.046827 
L 214.932693 89.038641 
L 215.284685 87.819661 
L 215.636677 87.811548 
L 216.340661 85.353928 
L 216.692653 85.34618 
L 217.044645 84.128151 
L 217.396637 84.120403 
L 218.100621 81.672357 
L 218.452613 81.66439 
L 218.804605 80.450673 
L 219.156597 80.442779 
L 219.860581 78.220286 
L 220.212573 78.213855 
L 220.564565 77.296221 
L 220.916557 76.064231 
L 221.268549 76.056484 
L 221.972533 73.5898 
L 222.324525 73.580079 
L 222.676517 72.145414 
L 223.028509 72.137228 
L 223.380501 70.920294 
L 223.732492 70.911962 
L 224.084484 69.684212 
L 224.436476 69.675953 
L 224.788468 68.461358 
L 225.844444 66.726223 
L 226.548428 64.261878 
L 226.90042 64.253912 
L 227.252412 63.030254 
L 227.604404 63.021849 
L 228.308388 60.577677 
L 228.66038 60.569783 
L 229.012372 59.34481 
L 229.364364 59.336697 
L 230.068348 57.118955 
L 230.42034 57.111134 
L 230.772332 56.437034 
L 231.476316 53.975978 
L 231.828308 53.967865 
L 232.1803 52.74545 
L 232.532292 52.737337 
L 233.236276 50.057745 
L 233.588268 50.049559 
L 233.94026 48.822978 
L 234.292252 48.814865 
L 234.644244 47.612622 
L 234.996236 47.604583 
L 235.348228 46.145432 
L 235.70022 46.137831 
L 236.404204 43.460577 
L 236.756196 43.45283 
L 237.108188 42.234581 
L 237.46018 42.226176 
L 237.812172 40.997987 
L 238.164164 40.990093 
L 238.868148 38.537808 
L 239.22014 38.529695 
L 239.572132 37.303845 
L 239.924124 37.295659 
L 240.276116 36.080845 
L 240.628108 36.072878 
L 241.332092 33.650998 
L 241.684084 33.64252 
L 242.74006 30.637389 
L 243.092052 30.629715 
L 243.444044 30.061082 
L 244.148028 27.594032 
L 244.50002 27.5857 
L 244.852012 26.37593 
L 245.204004 26.368036 
L 245.555996 24.912905 
L 245.907988 24.905085 
L 246.611972 22.452069 
L 246.963964 22.444248 
L 247.315956 21.460031 
L 247.667948 21.452137 
L 248.371932 19.000729 
L 248.723924 18.992762 
L 249.075916 17.771809 
L 249.427908 17.763769 
L 250.131892 15.315139 
L 250.483884 15.307245 
L 250.835876 14.090677 
L 251.187868 14.08271 
L 251.891852 11.624651 
L 252.243844 11.616904 
L 253.29982 8.645905 
L 253.651812 8.636915 
L 254.003804 7.203858 
L 254.355796 7.195891 
L 254.707788 5.974353 
L 255.05978 5.966386 
L 255.763764 3.522068 
L 256.115756 3.514467 
L 256.467748 2.049396 
L 256.81974 2.041137 
L 257.171732 0.822742 
L 257.523724 0.814556 
L 258.043866 -1 
L 258.043866 -1 
" clip-path="url(#pe6d99fba6d)" style="fill: none; stroke: #ff7f0e; stroke-width: 1.5; stroke-linecap: square"/>
   </g>
   <g id="line2d_14">
    <path d="M 69.56 391 
L 104.759199 317.260857 
L 139.958398 244.183827 
L 175.157598 171.853037 
L 210.356797 98.106877 
L 245.555996 24.912905 
L 258.151031 -1 
" clip-path="url(#pe6d99fba6d)" style="fill: none"/>
    <defs>
     <path id="m49979e0760" d="M 0 4.5 
C 1.193414 4.5 2.338109 4.025852 3.181981 3.181981 
C 4.025852 2.338109 4.5 1.193414 4.5 0 
C 4.5 -1.193414 4.025852 -2.338109 3.181981 -3.181981 
C 2.338109 -4.025852 1.193414 -4.5 0 -4.5 
C -1.193414 -4.5 -2.338109 -4.025852 -3.181981 -3.181981 
C -4.025852 -2.338109 -4.5 -1.193414 -4.5 0 
C -4.5 1.193414 -4.025852 2.338109 -3.181981 3.181981 
C -2.338109 4.025852 -1.193414 4.5 0 4.5 
z
" style="stroke: #ff7f0e"/>
    </defs>
    <g clip-path="url(#pe6d99fba6d)">
     <use xlink:href="#m49979e0760" x="69.56" y="391" style="fill: #ff7f0e; stroke: #ff7f0e"/>
     <use xlink:href="#m49979e0760" x="104.759199" y="317.260857" style="fill: #ff7f0e; stroke: #ff7f0e"/>
     <use xlink:href="#m49979e0760" x="139.958398" y="244.183827" style="fill: #ff7f0e; stroke: #ff7f0e"/>
     <use xlink:href="#m49979e0760" x="175.157598" y="171.853037" style="fill: #ff7f0e; stroke: #ff7f0e"/>
     <use xlink:href="#m49979e0760" x="210.356797" y="98.106877" style="fill: #ff7f0e; stroke: #ff7f0e"/>
     <use xlink:href="#m49979e0760" x="245.555996" y="24.912905" style="fill: #ff7f0e; stroke: #ff7f0e"/>
     <use xlink:href="#m49979e0760" x="258.151031" y="-1" style="fill: #ff7f0e; stroke: #ff7f0e"/>
    </g>
   </g>
   <g id="line2d_15">
    <path d="M 69.56 391 
L 73.783904 254.885678 
L 80.471752 34.074696 
L 81.535175 -1 
L 81.535175 -1 
" clip-path="url(#pe6d99fba6d)" style="fill: none; stroke: #2ca02c; stroke-width: 1.5; stroke-linecap: square"/>
   </g>
   <g id="line2d_16">
    <path d="M 69.56 391 
L 81.506118 -1 
" clip-path="url(#pe6d99fba6d)" style="fill: none"/>
    <defs>
     <path id="m94621ddd42" d="M 0 -4 
L -3.804226 -1.236068 
L -2.351141 3.236068 
L 2.351141 3.236068 
L 3.804226 -1.236068 
z
" style="stroke: #2ca02c; stroke-linejoin: miter"/>
    </defs>
    <g clip-path="url(#pe6d99fba6d)">
     <use xlink:href="#m94621ddd42" x="69.56" y="391" style="fill: #2ca02c; stroke: #2ca02c; stroke-linejoin: miter"/>
     <use xlink:href="#m94621ddd42" x="81.506118" y="-1" style="fill: #2ca02c; stroke: #2ca02c; stroke-linejoin: miter"/>
    </g>
   </g>
   <g id="line2d_17">
    <path d="M 69.56 391 
L 79.767768 55.662801 
L 81.483716 -1 
L 81.483716 -1 
" clip-path="url(#pe6d99fba6d)" style="fill: none; stroke: #d62728; stroke-width: 1.5; stroke-linecap: square"/>
   </g>
   <g id="line2d_18">
    <path d="M 69.56 391 
L 81.48439 -1 
" clip-path="url(#pe6d99fba6d)" style="fill: none"/>
    <defs>
     <path id="m7a7e099eca" d="M -0 3.5 
L 3.5 -3.5 
L -3.5 -3.5 
z
" style="stroke: #d62728; stroke-linejoin: miter"/>
    </defs>
    <g clip-path="url(#pe6d99fba6d)">
     <use xlink:href="#m7a7e099eca" x="69.56" y="391" style="fill: #d62728; stroke: #d62728; stroke-linejoin: miter"/>
     <use xlink:href="#m7a7e099eca" x="81.48439" y="-1" style="fill: #d62728; stroke: #d62728; stroke-linejoin: miter"/>
    </g>
   </g>
   <g id="line2d_19">
    <path d="M 69.56 391 
L 69.911992 390.990937 
L 70.263984 390.218166 
L 70.615976 390.209615 
L 70.967968 389.558098 
L 71.31996 389.549547 
L 71.671952 388.889187 
L 72.023944 388.880636 
L 72.375936 388.119559 
L 72.727928 388.113493 
L 73.07992 387.384721 
L 73.431912 387.380409 
L 73.783904 386.434052 
L 74.487888 386.423527 
L 74.83988 385.433243 
L 75.191872 385.424545 
L 75.543864 384.435869 
L 76.247848 384.42571 
L 76.59984 383.444123 
L 77.303824 383.433817 
L 77.655816 382.454424 
L 78.007808 382.445726 
L 78.3598 381.452592 
L 79.063784 381.442725 
L 79.415776 380.743847 
L 79.767768 380.735222 
L 80.11976 380.217313 
L 80.471752 380.21227 
L 80.823744 379.210876 
L 81.175736 379.202032 
L 81.527728 378.210067 
L 82.231712 378.199835 
L 82.583704 377.526684 
L 82.935696 377.518352 
L 83.63968 376.223652 
L 83.991672 376.218463 
L 84.343664 375.500143 
L 84.695656 375.49605 
L 85.047648 374.769252 
L 85.39964 374.763113 
L 85.751632 374.068547 
L 86.103624 374.064308 
L 86.455616 373.109984 
L 87.1596 373.100628 
L 87.511592 372.159679 
L 88.215576 372.150543 
L 88.567568 371.214345 
L 88.91956 371.206305 
L 89.271552 370.262944 
L 89.975536 370.253297 
L 90.327528 369.318487 
L 90.67952 369.31052 
L 91.031512 368.365552 
L 91.735495 368.355977 
L 92.087487 367.649059 
L 92.439479 367.640873 
L 92.791471 366.701752 
L 93.143463 366.693639 
L 93.495455 366.141085 
L 93.847447 366.132168 
L 94.199439 365.37248 
L 94.551431 365.365756 
L 94.903423 364.663516 
L 95.255415 364.659277 
L 95.607407 363.667897 
L 96.311391 363.65803 
L 96.663383 362.676662 
L 97.367367 362.666649 
L 97.719359 361.673515 
L 98.071351 361.664378 
L 98.423343 360.676141 
L 99.127327 360.666055 
L 99.479319 359.67292 
L 100.183303 359.663053 
L 100.535295 358.681247 
L 100.887287 358.67255 
L 101.239279 358.003273 
L 101.591271 357.994137 
L 101.943263 357.197831 
L 102.647247 357.187526 
L 102.999239 356.205281 
L 103.351231 356.196291 
L 103.703223 355.210466 
L 104.407207 355.200453 
L 104.759199 354.529202 
L 105.111191 354.521089 
L 105.463183 353.943905 
L 105.815175 353.140729 
L 106.519159 353.13554 
L 106.871151 352.329659 
L 107.223143 352.325786 
L 107.575135 351.522317 
L 107.927127 351.517859 
L 108.279119 350.789234 
L 108.631111 350.784702 
L 108.983103 350.038097 
L 109.335095 350.034443 
L 109.687087 349.20532 
L 110.039079 349.200642 
L 110.391071 348.172937 
L 111.095055 348.162266 
L 111.447047 347.139165 
L 112.151031 347.129298 
L 112.503023 346.116721 
L 113.207007 346.096841 
L 113.558999 345.455192 
L 113.910991 345.446787 
L 114.262983 344.435818 
L 114.614975 344.426536 
L 114.966967 343.410013 
L 115.670951 343.399561 
L 116.022943 342.910961 
L 116.374935 342.905845 
L 116.726927 342.191618 
L 117.078919 342.187525 
L 117.430911 341.232324 
L 117.782903 341.223918 
L 118.134895 340.294298 
L 118.838879 340.285235 
L 119.190871 339.358027 
L 119.542863 339.349987 
L 119.894855 338.414812 
L 120.598839 338.40553 
L 120.950831 337.441119 
L 121.654815 337.431545 
L 122.006807 336.448058 
L 122.358799 336.439434 
L 122.710791 335.464791 
L 123.414775 335.454412 
L 123.766767 334.950097 
L 124.118759 333.949288 
L 124.822743 333.939129 
L 125.174735 332.959808 
L 125.878719 332.950087 
L 126.230711 332.236957 
L 126.582703 332.228113 
L 126.934695 331.433269 
L 127.286687 331.424645 
L 127.638679 330.440573 
L 128.342663 330.429829 
L 128.694655 329.445904 
L 129.398639 329.435672 
L 129.750631 328.618755 
L 130.102623 328.610423 
L 130.454615 327.59675 
L 131.158599 327.58681 
L 131.510591 326.572991 
L 131.862583 326.563709 
L 132.214575 325.536296 
L 132.918559 325.526355 
L 133.270551 324.508444 
L 133.974535 324.487686 
L 134.326527 323.848742 
L 134.678519 323.839459 
L 135.030511 322.825348 
L 135.734494 322.815262 
L 136.086486 321.800785 
L 136.438478 321.792599 
L 136.79047 321.110678 
L 137.142462 321.103223 
L 137.494454 320.593865 
L 137.846446 320.588237 
L 138.198438 319.833373 
L 138.55043 319.828184 
L 138.902422 319.073101 
L 139.254414 319.064403 
L 139.606406 318.048538 
L 140.31039 318.038598 
L 140.662382 317.011623 
L 141.366366 317.001683 
L 141.718358 315.960602 
L 142.07035 315.951758 
L 142.422342 314.933554 
L 143.126326 314.923321 
L 143.478318 313.907091 
L 144.182302 313.897077 
L 144.534294 313.227216 
L 144.886286 313.218811 
L 145.238278 312.699147 
L 145.59027 311.743873 
L 146.294254 311.734079 
L 146.646246 310.725157 
L 147.35023 310.714852 
L 147.702222 310.003475 
L 148.054214 309.994412 
L 148.406206 309.259355 
L 148.758198 309.250877 
L 149.11019 308.230846 
L 149.814174 308.220686 
L 150.166166 307.200582 
L 150.518158 307.191738 
L 150.87015 306.169295 
L 151.574134 306.159647 
L 151.926126 305.143928 
L 152.63011 305.133696 
L 152.982102 304.323503 
L 153.334094 304.315098 
L 153.686086 303.381531 
L 154.39007 303.370933 
L 154.742062 302.347905 
L 155.446046 302.337599 
L 155.798038 301.695731 
L 156.15003 300.658962 
L 156.854014 300.649095 
L 157.206006 299.640612 
L 157.90999 299.630818 
L 158.261982 298.941442 
L 158.613974 298.932963 
L 158.965966 298.130007 
L 159.317958 298.123648 
L 159.66995 297.444723 
L 160.021942 297.440704 
L 160.373934 296.405031 
L 161.077918 296.394799 
L 161.42991 295.375937 
L 162.133894 295.365777 
L 162.485886 294.341215 
L 163.18987 294.331348 
L 163.541862 293.316213 
L 163.893854 293.307223 
L 164.245846 292.290408 
L 164.94983 292.279737 
L 165.301822 291.261606 
L 166.005806 291.251885 
L 166.357798 290.624342 
L 166.70979 290.615864 
L 167.061782 289.885996 
L 167.413774 289.877883 
L 167.765766 288.867792 
L 168.46975 288.857633 
L 168.821742 287.832339 
L 169.173734 287.821449 
L 169.525726 287.154145 
L 169.877718 287.145374 
L 170.22971 286.131117 
L 170.933694 286.120739 
L 171.285686 285.097784 
L 171.98967 285.087844 
L 172.341662 284.07249 
L 173.045646 284.062477 
L 173.397638 283.043834 
L 173.74963 283.03499 
L 174.101622 282.001291 
L 174.805606 281.990766 
L 175.157598 280.975413 
L 175.861582 280.954948 
L 176.213574 280.309571 
L 176.565566 280.301166 
L 176.917558 279.282889 
L 177.621542 279.272729 
L 177.973534 278.253064 
L 178.677518 278.242904 
L 179.02951 277.220169 
L 179.381502 277.211252 
L 179.733493 276.535908 
L 180.085485 276.526407 
L 180.437477 276.025089 
L 180.789469 276.019388 
L 181.141461 275.296318 
L 181.493453 275.291786 
L 181.845445 274.319043 
L 182.197437 274.310784 
L 182.549429 273.309537 
L 183.253413 273.299012 
L 183.605405 272.275911 
L 184.309389 272.265752 
L 184.661381 271.245647 
L 185.365365 271.235561 
L 185.717357 270.218015 
L 186.421341 270.208221 
L 186.773333 269.182342 
L 187.125325 269.173718 
L 187.477317 268.160337 
L 188.181301 268.149959 
L 188.533293 267.4293 
L 188.885285 267.420383 
L 189.237277 266.410585 
L 189.941261 266.400644 
L 190.293253 265.383829 
L 190.997237 265.374035 
L 191.349229 264.354296 
L 192.053213 264.344575 
L 192.405205 263.356045 
L 192.757197 263.347202 
L 193.109189 262.32739 
L 193.813173 262.31723 
L 194.165165 261.290402 
L 194.869149 261.280827 
L 195.221141 260.268031 
L 195.925125 260.258018 
L 196.277117 259.239595 
L 196.981101 259.229728 
L 197.333093 258.20575 
L 197.685085 258.186966 
L 198.037077 257.55438 
L 198.389069 257.54517 
L 198.741061 256.526309 
L 199.445045 256.516222 
L 199.797037 255.522649 
L 200.501021 255.512855 
L 200.853013 254.500791 
L 201.205005 254.49202 
L 201.556997 253.773554 
L 202.260981 253.763029 
L 202.612973 252.962411 
L 202.964965 252.95693 
L 203.316957 252.237368 
L 203.668949 252.233202 
L 204.020941 251.203815 
L 204.724925 251.193875 
L 205.076917 250.177206 
L 205.428909 250.168508 
L 205.780901 249.145626 
L 206.484885 249.135248 
L 206.836877 248.11697 
L 207.540861 248.106592 
L 207.892853 247.096135 
L 208.596837 247.086195 
L 208.948829 246.059951 
L 209.652813 246.050084 
L 210.356797 244.676667 
L 210.708789 244.667896 
L 211.060781 243.642822 
L 211.764765 243.632735 
L 212.116757 242.609634 
L 212.820741 242.599402 
L 213.172733 241.584414 
L 213.876717 241.57462 
L 214.228709 240.559339 
L 214.932693 240.548961 
L 215.284685 239.531487 
L 215.988669 239.521474 
L 216.340661 238.497277 
L 216.692653 238.488506 
L 217.044645 237.47286 
L 217.748629 237.46292 
L 218.100621 236.445301 
L 218.804605 236.424543 
L 219.156597 235.749785 
L 219.508589 235.741453 
L 219.860581 234.722152 
L 220.564565 234.712504 
L 220.916557 233.695835 
L 221.620541 233.685603 
L 221.972533 232.665498 
L 222.324525 232.656508 
L 222.676517 231.644955 
L 223.380501 231.634357 
L 223.732492 230.978091 
L 224.084484 230.969978 
L 224.788468 229.704148 
L 225.14046 229.698812 
L 225.492452 228.798647 
L 226.196436 228.788195 
L 226.548428 227.57594 
L 227.252412 227.566219 
L 227.604404 226.33591 
L 228.66038 226.324362 
L 229.012372 225.113203 
L 229.716356 225.103043 
L 230.068348 223.897147 
L 230.772332 223.886549 
L 231.124324 222.667715 
L 232.1803 222.656167 
L 232.884284 221.668733 
L 233.236276 220.441933 
L 234.292252 220.430823 
L 234.644244 219.898004 
L 234.996236 218.667915 
L 236.052212 218.65644 
L 236.404204 217.430955 
L 237.108188 217.420795 
L 237.46018 216.211829 
L 238.164164 216.201816 
L 238.516156 214.987733 
L 239.572132 214.964929 
L 239.924124 213.522662 
L 240.9801 213.511187 
L 241.332092 212.293888 
L 242.036076 212.283729 
L 242.388068 211.075639 
L 243.092052 211.065114 
L 243.444044 209.855417 
L 244.50002 209.843942 
L 244.852012 208.636949 
L 245.555996 208.626789 
L 245.907988 207.865201 
L 246.25998 207.858696 
L 246.611972 207.137014 
L 246.963964 207.131898 
L 247.315956 205.907364 
L 248.371932 205.895742 
L 248.723924 204.675739 
L 249.427908 204.666092 
L 249.7799 203.438999 
L 250.483884 203.428547 
L 250.835876 202.213002 
L 251.891852 202.201601 
L 252.243844 200.986933 
L 252.947828 200.976993 
L 253.651812 199.985759 
L 254.003804 199.981227 
L 254.355796 198.751284 
L 255.05978 198.741636 
L 255.411772 197.517175 
L 256.115756 197.506357 
L 256.467748 196.073373 
L 257.523724 196.062117 
L 257.875716 194.836559 
L 258.931692 194.824938 
L 259.283684 193.612756 
L 259.987668 193.602596 
L 260.33966 192.374042 
L 261.043644 192.36264 
L 261.395636 190.924393 
L 262.803604 190.911894 
L 263.155596 189.687798 
L 263.85958 189.677274 
L 264.211572 188.470646 
L 264.915556 188.460121 
L 265.267548 187.256636 
L 266.323524 187.245161 
L 266.675516 186.039556 
L 267.379499 186.025962 
L 267.731491 184.993871 
L 268.435475 184.98627 
L 268.787467 184.11322 
L 269.139459 184.104742 
L 269.491451 182.888467 
L 270.547427 182.877284 
L 270.899419 181.656915 
L 271.603403 181.646318 
L 271.955395 180.433696 
L 272.659379 180.42361 
L 273.011371 179.214497 
L 274.067347 179.203095 
L 274.419339 177.98068 
L 275.123323 177.970302 
L 275.827307 176.989592 
L 276.179299 176.984915 
L 276.531291 175.758845 
L 277.235275 175.748905 
L 277.587267 174.561646 
L 278.291251 174.551998 
L 278.643243 173.965897 
L 278.995235 173.957418 
L 279.347227 172.733395 
L 280.051211 172.722871 
L 280.403203 171.51595 
L 281.459179 171.50506 
L 281.811171 170.937743 
L 282.163163 169.714889 
L 283.219139 169.702976 
L 283.571131 168.484069 
L 284.275115 168.474056 
L 284.627107 167.254637 
L 285.331091 167.244405 
L 285.683083 166.037923 
L 286.739059 166.026083 
L 287.091051 164.80586 
L 287.795035 164.795555 
L 288.147027 163.57716 
L 288.851011 163.567366 
L 289.203003 163.247967 
L 289.554995 162.441794 
L 289.906987 162.435728 
L 290.258979 161.682764 
L 290.962963 161.672751 
L 291.314955 160.455232 
L 292.018939 160.445146 
L 292.370931 159.228505 
L 293.074915 159.218346 
L 293.426907 158.006529 
L 294.482883 157.995127 
L 294.834875 156.780386 
L 295.538859 156.770154 
L 295.890851 155.550004 
L 296.594835 155.539699 
L 296.946827 155.013092 
L 297.298819 155.004394 
L 297.650811 154.541887 
L 298.002803 153.605177 
L 298.706787 153.59531 
L 299.058779 152.383712 
L 299.762763 152.373845 
L 300.114755 151.831524 
L 300.466747 151.823046 
L 300.818739 150.605893 
L 301.522723 150.595661 
L 301.874715 149.374853 
L 302.578699 149.353585 
L 302.930691 147.919869 
L 303.986667 147.908175 
L 304.338659 146.688537 
L 305.394635 146.677281 
L 305.746627 145.460787 
L 306.450611 145.450408 
L 306.802603 144.240272 
L 307.506587 144.229674 
L 307.858579 143.003824 
L 308.914555 142.992349 
L 309.266547 141.775708 
L 309.970531 141.765768 
L 310.322523 140.589033 
L 311.026507 140.578362 
L 311.378498 139.498252 
L 312.082482 139.49182 
L 312.434474 138.367417 
L 313.138458 138.357331 
L 313.49045 137.146464 
L 314.546426 137.134624 
L 314.898418 135.913524 
L 315.602402 135.90373 
L 315.954394 134.686943 
L 316.658378 134.677076 
L 317.01037 133.469571 
L 318.066346 133.458316 
L 318.418338 132.255927 
L 319.122322 132.245768 
L 319.474314 131.681008 
L 319.826306 131.672311 
L 320.178298 130.694744 
L 320.53029 130.685827 
L 320.882282 129.477299 
L 321.938258 129.466482 
L 322.29025 128.005723 
L 323.346226 127.994395 
L 323.698218 126.776365 
L 324.402202 126.754877 
L 324.754194 125.313852 
L 325.81017 125.301793 
L 326.162162 124.089025 
L 326.866146 124.078866 
L 327.218138 122.85879 
L 328.274114 122.847095 
L 328.626106 121.619784 
L 329.33009 121.610282 
L 329.682082 120.39883 
L 330.738058 120.387575 
L 331.09005 119.173053 
L 331.794034 119.162967 
L 332.146026 117.967376 
L 332.85001 117.956705 
L 333.202002 116.945956 
L 333.905986 116.938574 
L 334.257978 116.030807 
L 334.60997 116.022548 
L 334.961962 114.810512 
L 336.017938 114.798744 
L 336.36993 113.589485 
L 337.073914 113.579399 
L 337.425906 112.355522 
L 338.481882 112.344266 
L 338.833874 111.130988 
L 339.537858 111.121047 
L 339.88985 109.91939 
L 340.593834 109.908865 
L 340.945826 109.384451 
L 341.297818 109.375753 
L 341.64981 108.908421 
L 342.001802 107.675482 
L 342.705786 107.665249 
L 343.057778 106.467465 
L 344.113754 106.455479 
L 344.465746 104.99187 
L 345.521722 104.968993 
L 345.873714 103.531476 
L 346.92969 103.519563 
L 347.281682 102.299414 
L 347.985666 102.289985 
L 348.337658 101.071225 
L 349.041642 101.061504 
L 349.393634 99.848444 
L 350.44961 99.836677 
L 350.801602 98.617916 
L 351.505586 98.607757 
L 351.857578 97.392285 
L 352.561562 97.381907 
L 352.913554 96.167239 
L 353.96953 96.156203 
L 354.321522 94.965728 
L 355.025506 94.953668 
L 355.377497 93.893291 
L 356.081481 93.886056 
L 356.433473 92.960163 
L 357.137457 92.950296 
L 357.489449 91.731828 
L 358.193433 91.721888 
L 358.545425 90.499473 
L 359.249409 90.489167 
L 359.601401 89.275011 
L 360.657377 89.26339 
L 361.009369 88.054423 
L 361.713353 88.044118 
L 362.065345 86.828646 
L 362.769329 86.818925 
L 363.121321 86.262864 
L 363.473313 86.254531 
L 363.825305 85.821771 
L 364.177297 84.592778 
L 364.881281 84.582765 
L 365.233273 84.070118 
L 365.585265 84.061274 
L 365.937257 83.40508 
L 366.289249 83.384835 
L 366.641241 82.641884 
L 366.993233 82.633479 
L 367.345225 81.414572 
L 368.049209 81.404851 
L 368.401201 80.188576 
L 369.457177 80.17732 
L 369.809169 78.952347 
L 370.513153 78.94226 
L 370.865145 77.725693 
L 371.569129 77.715679 
L 371.921121 76.503131 
L 372.977097 76.491876 
L 373.329089 75.277062 
L 374.033073 75.266902 
L 374.385065 74.04573 
L 375.089049 74.036009 
L 375.441041 72.821268 
L 376.497017 72.810013 
L 377.552993 71.093077 
L 377.904985 71.087522 
L 378.256977 69.906549 
L 379.312953 69.895293 
L 379.664945 68.666665 
L 380.368929 68.656579 
L 380.720921 67.425978 
L 381.424905 67.415673 
L 381.776897 66.205975 
L 382.832873 66.1945 
L 383.184865 64.98049 
L 383.888849 64.97055 
L 384.240841 63.757564 
L 385.296817 63.745869 
L 385.648809 62.549182 
L 386.352793 62.539169 
L 386.704785 61.314488 
L 387.408769 61.303744 
L 387.760761 61.053925 
L 388.112753 59.817331 
L 388.816737 59.807171 
L 389.168729 58.59857 
L 390.224705 58.586803 
L 390.576697 57.38171 
L 391.280681 57.371331 
L 391.632673 56.152717 
L 392.336657 56.142192 
L 392.688649 54.926867 
L 393.744625 54.915099 
L 394.096617 53.702186 
L 394.800601 53.692392 
L 395.152593 52.539704 
L 395.856577 52.529325 
L 396.208569 51.320943 
L 397.264545 51.309542 
L 397.616537 50.09597 
L 398.320521 50.085884 
L 399.024505 49.08471 
L 399.376496 49.078863 
L 399.728488 48.326849 
L 400.08048 48.32261 
L 400.432472 47.18834 
L 401.136456 47.177888 
L 401.488448 45.937932 
L 402.192432 45.927334 
L 402.544424 44.718806 
L 403.6004 44.707112 
L 403.952392 43.490544 
L 404.656376 43.48075 
L 405.008368 42.268933 
L 405.712352 42.258554 
L 406.064344 41.720034 
L 406.416336 41.712067 
L 406.768328 41.263154 
L 407.12032 40.037304 
L 407.824304 40.026925 
L 408.176296 38.802317 
L 409.232272 38.779879 
L 409.584264 37.343532 
L 410.64024 37.331473 
L 410.992232 36.114247 
L 411.696216 36.104307 
L 412.048208 34.888689 
L 413.104184 34.877287 
L 413.456176 33.65436 
L 414.16016 33.643982 
L 414.512152 32.429241 
L 415.216136 32.419082 
L 415.568128 31.198786 
L 416.624104 31.187969 
L 416.976096 29.970817 
L 417.68008 29.960584 
L 418.032072 28.744966 
L 418.736056 28.734588 
L 419.088048 27.518531 
L 420.144024 27.507056 
L 420.848008 26.297871 
L 421.2 26.288808 
L 421.2 26.288808 
" clip-path="url(#pe6d99fba6d)" style="fill: none; stroke: #9467bd; stroke-width: 1.5; stroke-linecap: square"/>
   </g>
   <g id="line2d_20">
    <path d="M 69.56 391 
L 104.759199 354.529202 
L 139.958398 318.039913 
L 175.157598 280.975413 
L 210.356797 244.676667 
L 245.555996 208.626789 
L 280.755195 171.507691 
L 315.954394 134.686943 
L 351.153594 98.609146 
L 386.352793 62.539169 
" clip-path="url(#pe6d99fba6d)" style="fill: none"/>
    <defs>
     <path id="m511a8dd67f" d="M 0 -3 
L -3 3 
L 3 3 
z
" style="stroke: #9467bd; stroke-linejoin: miter"/>
    </defs>
    <g clip-path="url(#pe6d99fba6d)">
     <use xlink:href="#m511a8dd67f" x="69.56" y="391" style="fill: #9467bd; stroke: #9467bd; stroke-linejoin: miter"/>
     <use xlink:href="#m511a8dd67f" x="104.759199" y="354.529202" style="fill: #9467bd; stroke: #9467bd; stroke-linejoin: miter"/>
     <use xlink:href="#m511a8dd67f" x="139.958398" y="318.039913" style="fill: #9467bd; stroke: #9467bd; stroke-linejoin: miter"/>
     <use xlink:href="#m511a8dd67f" x="175.157598" y="280.975413" style="fill: #9467bd; stroke: #9467bd; stroke-linejoin: miter"/>
     <use xlink:href="#m511a8dd67f" x="210.356797" y="244.676667" style="fill: #9467bd; stroke: #9467bd; stroke-linejoin: miter"/>
     <use xlink:href="#m511a8dd67f" x="245.555996" y="208.626789" style="fill: #9467bd; stroke: #9467bd; stroke-linejoin: miter"/>
     <use xlink:href="#m511a8dd67f" x="280.755195" y="171.507691" style="fill: #9467bd; stroke: #9467bd; stroke-linejoin: miter"/>
     <use xlink:href="#m511a8dd67f" x="315.954394" y="134.686943" style="fill: #9467bd; stroke: #9467bd; stroke-linejoin: miter"/>
     <use xlink:href="#m511a8dd67f" x="351.153594" y="98.609146" style="fill: #9467bd; stroke: #9467bd; stroke-linejoin: miter"/>
     <use xlink:href="#m511a8dd67f" x="386.352793" y="62.539169" style="fill: #9467bd; stroke: #9467bd; stroke-linejoin: miter"/>
    </g>
   </g>
   <g id="line2d_21">
    <path d="M 69.56 391 
L 421.2 25.920073 
L 421.2 25.920073 
" clip-path="url(#pe6d99fba6d)" style="fill: none; stroke: #8c564b; stroke-width: 1.5; stroke-linecap: square"/>
   </g>
   <g id="line2d_22">
    <path d="M 69.56 391 
L 104.759199 354.455529 
L 139.958398 317.910984 
L 175.157598 281.366439 
L 210.356797 244.821895 
L 245.555996 208.27735 
L 280.755195 171.732806 
L 315.954394 135.188261 
L 351.153594 98.643717 
L 386.352793 62.099172 
" clip-path="url(#pe6d99fba6d)" style="fill: none"/>
    <defs>
     <path id="mb3fb144ffa" d="M -2.5 -0 
L 2.5 2.5 
L 2.5 -2.5 
z
" style="stroke: #8c564b; stroke-linejoin: miter"/>
    </defs>
    <g clip-path="url(#pe6d99fba6d)">
     <use xlink:href="#mb3fb144ffa" x="69.56" y="391" style="fill: #8c564b; stroke: #8c564b; stroke-linejoin: miter"/>
     <use xlink:href="#mb3fb144ffa" x="104.759199" y="354.455529" style="fill: #8c564b; stroke: #8c564b; stroke-linejoin: miter"/>
     <use xlink:href="#mb3fb144ffa" x="139.958398" y="317.910984" style="fill: #8c564b; stroke: #8c564b; stroke-linejoin: miter"/>
     <use xlink:href="#mb3fb144ffa" x="175.157598" y="281.366439" style="fill: #8c564b; stroke: #8c564b; stroke-linejoin: miter"/>
     <use xlink:href="#mb3fb144ffa" x="210.356797" y="244.821895" style="fill: #8c564b; stroke: #8c564b; stroke-linejoin: miter"/>
     <use xlink:href="#mb3fb144ffa" x="245.555996" y="208.27735" style="fill: #8c564b; stroke: #8c564b; stroke-linejoin: miter"/>
     <use xlink:href="#mb3fb144ffa" x="280.755195" y="171.732806" style="fill: #8c564b; stroke: #8c564b; stroke-linejoin: miter"/>
     <use xlink:href="#mb3fb144ffa" x="315.954394" y="135.188261" style="fill: #8c564b; stroke: #8c564b; stroke-linejoin: miter"/>
     <use xlink:href="#mb3fb144ffa" x="351.153594" y="98.643717" style="fill: #8c564b; stroke: #8c564b; stroke-linejoin: miter"/>
     <use xlink:href="#mb3fb144ffa" x="386.352793" y="62.099172" style="fill: #8c564b; stroke: #8c564b; stroke-linejoin: miter"/>
    </g>
   </g>
   <g id="patch_3">
    <path d="M 69.56 391 
L 69.56 25.92 
" style="fill: none; stroke: #000000; stroke-width: 0.8; stroke-linejoin: miter; stroke-linecap: square"/>
   </g>
   <g id="patch_4">
    <path d="M 421.2 391 
L 421.2 25.92 
" style="fill: none; stroke: #000000; stroke-width: 0.8; stroke-linejoin: miter; stroke-linecap: square"/>
   </g>
   <g id="patch_5">
    <path d="M 69.56 391 
L 421.2 391 
" style="fill: none; stroke: #000000; stroke-width: 0.8; stroke-linejoin: miter; stroke-linecap: square"/>
   </g>
   <g id="patch_6">
    <path d="M 69.56 25.92 
L 421.2 25.92 
" style="fill: none; stroke: #000000; stroke-width: 0.8; stroke-linejoin: miter; stroke-linecap: square"/>
   </g>
   <g id="text_13">
    <!-- Interval: 500.0 [us] -->
    <g transform="translate(187.78 19.92)scale(0.12 -0.12)">
     <defs>
      <path id="DejaVuSans-76" d="M 191 3500 
L 800 3500 
L 1894 563 
L 2988 3500 
L 3597 3500 
L 2284 0 
L 1503 0 
L 191 3500 
z
" transform="scale(0.015625)"/>
      <path id="DejaVuSans-6c" d="M 603 4863 
L 1178 4863 
L 1178 0 
L 603 0 
L 603 4863 
z
" transform="scale(0.015625)"/>
      <path id="DejaVuSans-3a" d="M 750 794 
L 1409 794 
L 1409 0 
L 750 0 
L 750 794 
z
M 750 3309 
L 1409 3309 
L 1409 2516 
L 750 2516 
L 750 3309 
z
" transform="scale(0.015625)"/>
      <path id="DejaVuSans-35" d="M 691 4666 
L 3169 4666 
L 3169 4134 
L 1269 4134 
L 1269 2991 
Q 1406 3038 1543 3061 
Q 1681 3084 1819 3084 
Q 2600 3084 3056 2656 
Q 3513 2228 3513 1497 
Q 3513 744 3044 326 
Q 2575 -91 1722 -91 
Q 1428 -91 1123 -41 
Q 819 9 494 109 
L 494 744 
Q 775 591 1075 516 
Q 1375 441 1709 441 
Q 2250 441 2565 725 
Q 2881 1009 2881 1497 
Q 2881 1984 2565 2268 
Q 2250 2553 1709 2553 
Q 1456 2553 1204 2497 
Q 953 2441 691 2322 
L 691 4666 
z
" transform="scale(0.015625)"/>
      <path id="DejaVuSans-2e" d="M 684 794 
L 1344 794 
L 1344 0 
L 684 0 
L 684 794 
z
" transform="scale(0.015625)"/>
     </defs>
     <use xlink:href="#DejaVuSans-49"/>
     <use xlink:href="#DejaVuSans-6e" x="29.492188"/>
     <use xlink:href="#DejaVuSans-74" x="92.871094"/>
     <use xlink:href="#DejaVuSans-65" x="132.080078"/>
     <use xlink:href="#DejaVuSans-72" x="193.603516"/>
     <use xlink:href="#DejaVuSans-76" x="234.716797"/>
     <use xlink:href="#DejaVuSans-61" x="293.896484"/>
     <use xlink:href="#DejaVuSans-6c" x="355.175781"/>
     <use xlink:href="#DejaVuSans-3a" x="382.958984"/>
     <use xlink:href="#DejaVuSans-20" x="416.650391"/>
     <use xlink:href="#DejaVuSans-35" x="448.4375"/>
     <use xlink:href="#DejaVuSans-30" x="512.060547"/>
     <use xlink:href="#DejaVuSans-30" x="575.683594"/>
     <use xlink:href="#DejaVuSans-2e" x="639.306641"/>
     <use xlink:href="#DejaVuSans-30" x="671.09375"/>
     <use xlink:href="#DejaVuSans-20" x="734.716797"/>
     <use xlink:href="#DejaVuSans-5b" x="766.503906"/>
     <use xlink:href="#DejaVuSans-75" x="805.517578"/>
     <use xlink:href="#DejaVuSans-73" x="868.896484"/>
     <use xlink:href="#DejaVuSans-5d" x="920.996094"/>
    </g>
   </g>
   <g id="legend_1">
    <g id="patch_7">
     <path d="M 202.782812 386 
L 414.2 386 
Q 416.2 386 416.2 384 
L 416.2 296.93125 
Q 416.2 294.93125 414.2 294.93125 
L 202.782812 294.93125 
Q 200.782812 294.93125 200.782812 296.93125 
L 200.782812 384 
Q 200.782812 386 202.782812 386 
z
" style="fill: #ffffff; opacity: 0.8; stroke: #cccccc; stroke-linejoin: miter"/>
    </g>
    <g id="line2d_23">
     <path d="M 204.782812 303.029688 
L 214.782812 303.029688 
L 224.782812 303.029688 
" style="fill: none"/>
     <g>
      <use xlink:href="#m1d216d710b" x="214.782812" y="303.029688" style="fill: #1f77b4; stroke: #1f77b4; stroke-linejoin: miter"/>
     </g>
    </g>
    <g id="text_14">
     <!-- StdSleepTimer -->
     <g transform="translate(232.782812 306.529688)scale(0.1 -0.1)">
      <defs>
       <path id="DejaVuSans-53" d="M 3425 4513 
L 3425 3897 
Q 3066 4069 2747 4153 
Q 2428 4238 2131 4238 
Q 1616 4238 1336 4038 
Q 1056 3838 1056 3469 
Q 1056 3159 1242 3001 
Q 1428 2844 1947 2747 
L 2328 2669 
Q 3034 2534 3370 2195 
Q 3706 1856 3706 1288 
Q 3706 609 3251 259 
Q 2797 -91 1919 -91 
Q 1588 -91 1214 -16 
Q 841 59 441 206 
L 441 856 
Q 825 641 1194 531 
Q 1563 422 1919 422 
Q 2459 422 2753 634 
Q 3047 847 3047 1241 
Q 3047 1584 2836 1778 
Q 2625 1972 2144 2069 
L 1759 2144 
Q 1053 2284 737 2584 
Q 422 2884 422 3419 
Q 422 4038 858 4394 
Q 1294 4750 2059 4750 
Q 2388 4750 2728 4690 
Q 3069 4631 3425 4513 
z
" transform="scale(0.015625)"/>
       <path id="DejaVuSans-64" d="M 2906 2969 
L 2906 4863 
L 3481 4863 
L 3481 0 
L 2906 0 
L 2906 525 
Q 2725 213 2448 61 
Q 2172 -91 1784 -91 
Q 1150 -91 751 415 
Q 353 922 353 1747 
Q 353 2572 751 3078 
Q 1150 3584 1784 3584 
Q 2172 3584 2448 3432 
Q 2725 3281 2906 2969 
z
M 947 1747 
Q 947 1113 1208 752 
Q 1469 391 1925 391 
Q 2381 391 2643 752 
Q 2906 1113 2906 1747 
Q 2906 2381 2643 2742 
Q 2381 3103 1925 3103 
Q 1469 3103 1208 2742 
Q 947 2381 947 1747 
z
" transform="scale(0.015625)"/>
       <path id="DejaVuSans-70" d="M 1159 525 
L 1159 -1331 
L 581 -1331 
L 581 3500 
L 1159 3500 
L 1159 2969 
Q 1341 3281 1617 3432 
Q 1894 3584 2278 3584 
Q 2916 3584 3314 3078 
Q 3713 2572 3713 1747 
Q 3713 922 3314 415 
Q 2916 -91 2278 -91 
Q 1894 -91 1617 61 
Q 1341 213 1159 525 
z
M 3116 1747 
Q 3116 2381 2855 2742 
Q 2594 3103 2138 3103 
Q 1681 3103 1420 2742 
Q 1159 2381 1159 1747 
Q 1159 1113 1420 752 
Q 1681 391 2138 391 
Q 2594 391 2855 752 
Q 3116 1113 3116 1747 
z
" transform="scale(0.015625)"/>
      </defs>
      <use xlink:href="#DejaVuSans-53"/>
      <use xlink:href="#DejaVuSans-74" x="63.476562"/>
      <use xlink:href="#DejaVuSans-64" x="102.685547"/>
      <use xlink:href="#DejaVuSans-53" x="166.162109"/>
      <use xlink:href="#DejaVuSans-6c" x="229.638672"/>
      <use xlink:href="#DejaVuSans-65" x="257.421875"/>
      <use xlink:href="#DejaVuSans-65" x="318.945312"/>
      <use xlink:href="#DejaVuSans-70" x="380.46875"/>
      <use xlink:href="#DejaVuSans-54" x="443.945312"/>
      <use xlink:href="#DejaVuSans-69" x="501.904297"/>
      <use xlink:href="#DejaVuSans-6d" x="529.6875"/>
      <use xlink:href="#DejaVuSans-65" x="627.099609"/>
      <use xlink:href="#DejaVuSans-72" x="688.623047"/>
     </g>
    </g>
    <g id="line2d_24">
     <path d="M 204.782812 317.707812 
L 214.782812 317.707812 
L 224.782812 317.707812 
" style="fill: none"/>
     <g>
      <use xlink:href="#m49979e0760" x="214.782812" y="317.707812" style="fill: #ff7f0e; stroke: #ff7f0e"/>
     </g>
    </g>
    <g id="text_15">
     <!-- MultiMediaTimer -->
     <g transform="translate(232.782812 321.207812)scale(0.1 -0.1)">
      <defs>
       <path id="DejaVuSans-4d" d="M 628 4666 
L 1569 4666 
L 2759 1491 
L 3956 4666 
L 4897 4666 
L 4897 0 
L 4281 0 
L 4281 4097 
L 3078 897 
L 2444 897 
L 1241 4097 
L 1241 0 
L 628 0 
L 628 4666 
z
" transform="scale(0.015625)"/>
      </defs>
      <use xlink:href="#DejaVuSans-4d"/>
      <use xlink:href="#DejaVuSans-75" x="86.279297"/>
      <use xlink:href="#DejaVuSans-6c" x="149.658203"/>
      <use xlink:href="#DejaVuSans-74" x="177.441406"/>
      <use xlink:href="#DejaVuSans-69" x="216.650391"/>
      <use xlink:href="#DejaVuSans-4d" x="244.433594"/>
      <use xlink:href="#DejaVuSans-65" x="330.712891"/>
      <use xlink:href="#DejaVuSans-64" x="392.236328"/>
      <use xlink:href="#DejaVuSans-69" x="455.712891"/>
      <use xlink:href="#DejaVuSans-61" x="483.496094"/>
      <use xlink:href="#DejaVuSans-54" x="544.775391"/>
      <use xlink:href="#DejaVuSans-69" x="602.734375"/>
      <use xlink:href="#DejaVuSans-6d" x="630.517578"/>
      <use xlink:href="#DejaVuSans-65" x="727.929688"/>
      <use xlink:href="#DejaVuSans-72" x="789.453125"/>
     </g>
    </g>
    <g id="line2d_25">
     <path d="M 204.782812 332.385938 
L 214.782812 332.385938 
L 224.782812 332.385938 
" style="fill: none"/>
     <g>
      <use xlink:href="#m94621ddd42" x="214.782812" y="332.385938" style="fill: #2ca02c; stroke: #2ca02c; stroke-linejoin: miter"/>
     </g>
    </g>
    <g id="text_16">
     <!-- TimerQueueTimer -->
     <g transform="translate(232.782812 335.885938)scale(0.1 -0.1)">
      <defs>
       <path id="DejaVuSans-51" d="M 2522 4238 
Q 1834 4238 1429 3725 
Q 1025 3213 1025 2328 
Q 1025 1447 1429 934 
Q 1834 422 2522 422 
Q 3209 422 3611 934 
Q 4013 1447 4013 2328 
Q 4013 3213 3611 3725 
Q 3209 4238 2522 4238 
z
M 3406 84 
L 4238 -825 
L 3475 -825 
L 2784 -78 
Q 2681 -84 2626 -87 
Q 2572 -91 2522 -91 
Q 1538 -91 948 567 
Q 359 1225 359 2328 
Q 359 3434 948 4092 
Q 1538 4750 2522 4750 
Q 3503 4750 4090 4092 
Q 4678 3434 4678 2328 
Q 4678 1516 4351 937 
Q 4025 359 3406 84 
z
" transform="scale(0.015625)"/>
      </defs>
      <use xlink:href="#DejaVuSans-54"/>
      <use xlink:href="#DejaVuSans-69" x="57.958984"/>
      <use xlink:href="#DejaVuSans-6d" x="85.742188"/>
      <use xlink:href="#DejaVuSans-65" x="183.154297"/>
      <use xlink:href="#DejaVuSans-72" x="244.677734"/>
      <use xlink:href="#DejaVuSans-51" x="285.791016"/>
      <use xlink:href="#DejaVuSans-75" x="364.501953"/>
      <use xlink:href="#DejaVuSans-65" x="427.880859"/>
      <use xlink:href="#DejaVuSans-75" x="489.404297"/>
      <use xlink:href="#DejaVuSans-65" x="552.783203"/>
      <use xlink:href="#DejaVuSans-54" x="614.306641"/>
      <use xlink:href="#DejaVuSans-69" x="672.265625"/>
      <use xlink:href="#DejaVuSans-6d" x="700.048828"/>
      <use xlink:href="#DejaVuSans-65" x="797.460938"/>
      <use xlink:href="#DejaVuSans-72" x="858.984375"/>
     </g>
    </g>
    <g id="line2d_26">
     <path d="M 204.782812 347.064062 
L 214.782812 347.064062 
L 224.782812 347.064062 
" style="fill: none"/>
     <g>
      <use xlink:href="#m7a7e099eca" x="214.782812" y="347.064062" style="fill: #d62728; stroke: #d62728; stroke-linejoin: miter"/>
     </g>
    </g>
    <g id="text_17">
     <!-- ThreadPoolTimer -->
     <g transform="translate(232.782812 350.564062)scale(0.1 -0.1)">
      <defs>
       <path id="DejaVuSans-68" d="M 3513 2113 
L 3513 0 
L 2938 0 
L 2938 2094 
Q 2938 2591 2744 2837 
Q 2550 3084 2163 3084 
Q 1697 3084 1428 2787 
Q 1159 2491 1159 1978 
L 1159 0 
L 581 0 
L 581 4863 
L 1159 4863 
L 1159 2956 
Q 1366 3272 1645 3428 
Q 1925 3584 2291 3584 
Q 2894 3584 3203 3211 
Q 3513 2838 3513 2113 
z
" transform="scale(0.015625)"/>
       <path id="DejaVuSans-50" d="M 1259 4147 
L 1259 2394 
L 2053 2394 
Q 2494 2394 2734 2622 
Q 2975 2850 2975 3272 
Q 2975 3691 2734 3919 
Q 2494 4147 2053 4147 
L 1259 4147 
z
M 628 4666 
L 2053 4666 
Q 2838 4666 3239 4311 
Q 3641 3956 3641 3272 
Q 3641 2581 3239 2228 
Q 2838 1875 2053 1875 
L 1259 1875 
L 1259 0 
L 628 0 
L 628 4666 
z
" transform="scale(0.015625)"/>
      </defs>
      <use xlink:href="#DejaVuSans-54"/>
      <use xlink:href="#DejaVuSans-68" x="61.083984"/>
      <use xlink:href="#DejaVuSans-72" x="124.462891"/>
      <use xlink:href="#DejaVuSans-65" x="163.326172"/>
      <use xlink:href="#DejaVuSans-61" x="224.849609"/>
      <use xlink:href="#DejaVuSans-64" x="286.128906"/>
      <use xlink:href="#DejaVuSans-50" x="349.605469"/>
      <use xlink:href="#DejaVuSans-6f" x="406.283203"/>
      <use xlink:href="#DejaVuSans-6f" x="467.464844"/>
      <use xlink:href="#DejaVuSans-6c" x="528.646484"/>
      <use xlink:href="#DejaVuSans-54" x="556.429688"/>
      <use xlink:href="#DejaVuSans-69" x="614.388672"/>
      <use xlink:href="#DejaVuSans-6d" x="642.171875"/>
      <use xlink:href="#DejaVuSans-65" x="739.583984"/>
      <use xlink:href="#DejaVuSans-72" x="801.107422"/>
     </g>
    </g>
    <g id="line2d_27">
     <path d="M 204.782812 361.742188 
L 214.782812 361.742188 
L 224.782812 361.742188 
" style="fill: none"/>
     <g>
      <use xlink:href="#m511a8dd67f" x="214.782812" y="361.742188" style="fill: #9467bd; stroke: #9467bd; stroke-linejoin: miter"/>
     </g>
    </g>
    <g id="text_18">
     <!-- WaitableTimer -->
     <g transform="translate(232.782812 365.242188)scale(0.1 -0.1)">
      <defs>
       <path id="DejaVuSans-57" d="M 213 4666 
L 850 4666 
L 1831 722 
L 2809 4666 
L 3519 4666 
L 4500 722 
L 5478 4666 
L 6119 4666 
L 4947 0 
L 4153 0 
L 3169 4050 
L 2175 0 
L 1381 0 
L 213 4666 
z
" transform="scale(0.015625)"/>
       <path id="DejaVuSans-62" d="M 3116 1747 
Q 3116 2381 2855 2742 
Q 2594 3103 2138 3103 
Q 1681 3103 1420 2742 
Q 1159 2381 1159 1747 
Q 1159 1113 1420 752 
Q 1681 391 2138 391 
Q 2594 391 2855 752 
Q 3116 1113 3116 1747 
z
M 1159 2969 
Q 1341 3281 1617 3432 
Q 1894 3584 2278 3584 
Q 2916 3584 3314 3078 
Q 3713 2572 3713 1747 
Q 3713 922 3314 415 
Q 2916 -91 2278 -91 
Q 1894 -91 1617 61 
Q 1341 213 1159 525 
L 1159 0 
L 581 0 
L 581 4863 
L 1159 4863 
L 1159 2969 
z
" transform="scale(0.015625)"/>
      </defs>
      <use xlink:href="#DejaVuSans-57"/>
      <use xlink:href="#DejaVuSans-61" x="92.501953"/>
      <use xlink:href="#DejaVuSans-69" x="153.78125"/>
      <use xlink:href="#DejaVuSans-74" x="181.564453"/>
      <use xlink:href="#DejaVuSans-61" x="220.773438"/>
      <use xlink:href="#DejaVuSans-62" x="282.052734"/>
      <use xlink:href="#DejaVuSans-6c" x="345.529297"/>
      <use xlink:href="#DejaVuSans-65" x="373.3125"/>
      <use xlink:href="#DejaVuSans-54" x="434.835938"/>
      <use xlink:href="#DejaVuSans-69" x="492.794922"/>
      <use xlink:href="#DejaVuSans-6d" x="520.578125"/>
      <use xlink:href="#DejaVuSans-65" x="617.990234"/>
      <use xlink:href="#DejaVuSans-72" x="679.513672"/>
     </g>
    </g>
    <g id="line2d_28">
     <path d="M 204.782812 376.420313 
L 214.782812 376.420313 
L 224.782812 376.420313 
" style="fill: none"/>
     <g>
      <use xlink:href="#mb3fb144ffa" x="214.782812" y="376.420313" style="fill: #8c564b; stroke: #8c564b; stroke-linejoin: miter"/>
     </g>
    </g>
    <g id="text_19">
     <!-- PerformanceCounterSoftSleepTimer -->
     <g transform="translate(232.782812 379.920313)scale(0.1 -0.1)">
      <defs>
       <path id="DejaVuSans-66" d="M 2375 4863 
L 2375 4384 
L 1825 4384 
Q 1516 4384 1395 4259 
Q 1275 4134 1275 3809 
L 1275 3500 
L 2222 3500 
L 2222 3053 
L 1275 3053 
L 1275 0 
L 697 0 
L 697 3053 
L 147 3053 
L 147 3500 
L 697 3500 
L 697 3744 
Q 697 4328 969 4595 
Q 1241 4863 1831 4863 
L 2375 4863 
z
" transform="scale(0.015625)"/>
       <path id="DejaVuSans-63" d="M 3122 3366 
L 3122 2828 
Q 2878 2963 2633 3030 
Q 2388 3097 2138 3097 
Q 1578 3097 1268 2742 
Q 959 2388 959 1747 
Q 959 1106 1268 751 
Q 1578 397 2138 397 
Q 2388 397 2633 464 
Q 2878 531 3122 666 
L 3122 134 
Q 2881 22 2623 -34 
Q 2366 -91 2075 -91 
Q 1284 -91 818 406 
Q 353 903 353 1747 
Q 353 2603 823 3093 
Q 1294 3584 2113 3584 
Q 2378 3584 2631 3529 
Q 2884 3475 3122 3366 
z
" transform="scale(0.015625)"/>
       <path id="DejaVuSans-43" d="M 4122 4306 
L 4122 3641 
Q 3803 3938 3442 4084 
Q 3081 4231 2675 4231 
Q 1875 4231 1450 3742 
Q 1025 3253 1025 2328 
Q 1025 1406 1450 917 
Q 1875 428 2675 428 
Q 3081 428 3442 575 
Q 3803 722 4122 1019 
L 4122 359 
Q 3791 134 3420 21 
Q 3050 -91 2638 -91 
Q 1578 -91 968 557 
Q 359 1206 359 2328 
Q 359 3453 968 4101 
Q 1578 4750 2638 4750 
Q 3056 4750 3426 4639 
Q 3797 4528 4122 4306 
z
" transform="scale(0.015625)"/>
      </defs>
      <use xlink:href="#DejaVuSans-50"/>
      <use xlink:href="#DejaVuSans-65" x="56.677734"/>
      <use xlink:href="#DejaVuSans-72" x="118.201172"/>
      <use xlink:href="#DejaVuSans-66" x="159.314453"/>
      <use xlink:href="#DejaVuSans-6f" x="194.519531"/>
      <use xlink:href="#DejaVuSans-72" x="255.701172"/>
      <use xlink:href="#DejaVuSans-6d" x="295.064453"/>
      <use xlink:href="#DejaVuSans-61" x="392.476562"/>
      <use xlink:href="#DejaVuSans-6e" x="453.755859"/>
      <use xlink:href="#DejaVuSans-63" x="517.134766"/>
      <use xlink:href="#DejaVuSans-65" x="572.115234"/>
      <use xlink:href="#DejaVuSans-43" x="633.638672"/>
      <use xlink:href="#DejaVuSans-6f" x="703.462891"/>
      <use xlink:href="#DejaVuSans-75" x="764.644531"/>
      <use xlink:href="#DejaVuSans-6e" x="828.023438"/>
      <use xlink:href="#DejaVuSans-74" x="891.402344"/>
      <use xlink:href="#DejaVuSans-65" x="930.611328"/>
      <use xlink:href="#DejaVuSans-72" x="992.134766"/>
      <use xlink:href="#DejaVuSans-53" x="1033.248047"/>
      <use xlink:href="#DejaVuSans-6f" x="1096.724609"/>
      <use xlink:href="#DejaVuSans-66" x="1157.90625"/>
      <use xlink:href="#DejaVuSans-74" x="1191.361328"/>
      <use xlink:href="#DejaVuSans-53" x="1230.570312"/>
      <use xlink:href="#DejaVuSans-6c" x="1294.046875"/>
      <use xlink:href="#DejaVuSans-65" x="1321.830078"/>
      <use xlink:href="#DejaVuSans-65" x="1383.353516"/>
      <use xlink:href="#DejaVuSans-70" x="1444.876953"/>
      <use xlink:href="#DejaVuSans-54" x="1508.353516"/>
      <use xlink:href="#DejaVuSans-69" x="1566.3125"/>
      <use xlink:href="#DejaVuSans-6d" x="1594.095703"/>
      <use xlink:href="#DejaVuSans-65" x="1691.507812"/>
      <use xlink:href="#DejaVuSans-72" x="1753.03125"/>
     </g>
    </g>
   </g>
  </g>
 </g>
 <defs>
  <clipPath id="pe6d99fba6d">
   <rect x="69.56" y="25.92" width="351.64" height="365.08"/>
  </clipPath>
 </defs>
</svg>
