<?xml version="1.0" encoding="utf-8" standalone="no"?>
<!DOCTYPE svg PUBLIC "-//W3C//DTD SVG 1.1//EN"
  "http://www.w3.org/Graphics/SVG/1.1/DTD/svg11.dtd">
<svg xmlns:xlink="http://www.w3.org/1999/xlink" width="432pt" height="432pt" viewBox="0 0 432 432" xmlns="http://www.w3.org/2000/svg" version="1.1">
 <metadata>
  <rdf:RDF xmlns:dc="http://purl.org/dc/elements/1.1/" xmlns:cc="http://creativecommons.org/ns#" xmlns:rdf="http://www.w3.org/1999/02/22-rdf-syntax-ns#">
   <cc:Work>
    <dc:type rdf:resource="http://purl.org/dc/dcmitype/StillImage"/>
    <dc:date>2022-08-03T16:02:11.026254</dc:date>
    <dc:format>image/svg+xml</dc:format>
    <dc:creator>
     <cc:Agent>
      <dc:title>Matplotlib v3.5.1, https://matplotlib.org/</dc:title>
     </cc:Agent>
    </dc:creator>
   </cc:Work>
  </rdf:RDF>
 </metadata>
 <defs>
  <style type="text/css">*{stroke-linejoin: round; stroke-linecap: butt}</style>
 </defs>
 <g id="figure_1">
  <g id="patch_1">
   <path d="M 0 432 
L 432 432 
L 432 0 
L 0 0 
z
" style="fill: #ffffff"/>
  </g>
  <g id="axes_1">
   <g id="patch_2">
    <path d="M 50.48 391 
L 421.2 391 
L 421.2 25.92 
L 50.48 25.92 
z
" style="fill: #ffffff"/>
   </g>
   <g id="matplotlib.axis_1">
    <g id="xtick_1">
     <g id="line2d_1">
      <defs>
       <path id="mb8c21011fd" d="M 0 0 
L 0 3.5 
" style="stroke: #000000; stroke-width: 0.8"/>
      </defs>
      <g>
       <use xlink:href="#mb8c21011fd" x="50.48" y="391" style="stroke: #000000; stroke-width: 0.8"/>
      </g>
     </g>
     <g id="text_1">
      <!-- 0 -->
      <g transform="translate(47.29875 405.598437)scale(0.1 -0.1)">
       <defs>
        <path id="DejaVuSans-30" d="M 2034 4250 
Q 1547 4250 1301 3770 
Q 1056 3291 1056 2328 
Q 1056 1369 1301 889 
Q 1547 409 2034 409 
Q 2525 409 2770 889 
Q 3016 1369 3016 2328 
Q 3016 3291 2770 3770 
Q 2525 4250 2034 4250 
z
M 2034 4750 
Q 2819 4750 3233 4129 
Q 3647 3509 3647 2328 
Q 3647 1150 3233 529 
Q 2819 -91 2034 -91 
Q 1250 -91 836 529 
Q 422 1150 422 2328 
Q 422 3509 836 4129 
Q 1250 4750 2034 4750 
z
" transform="scale(0.015625)"/>
       </defs>
       <use xlink:href="#DejaVuSans-30"/>
      </g>
     </g>
    </g>
    <g id="xtick_2">
     <g id="line2d_2">
      <g>
       <use xlink:href="#mb8c21011fd" x="124.698218" y="391" style="stroke: #000000; stroke-width: 0.8"/>
      </g>
     </g>
     <g id="text_2">
      <!-- 200 -->
      <g transform="translate(115.154468 405.598437)scale(0.1 -0.1)">
       <defs>
        <path id="DejaVuSans-32" d="M 1228 531 
L 3431 531 
L 3431 0 
L 469 0 
L 469 531 
Q 828 903 1448 1529 
Q 2069 2156 2228 2338 
Q 2531 2678 2651 2914 
Q 2772 3150 2772 3378 
Q 2772 3750 2511 3984 
Q 2250 4219 1831 4219 
Q 1534 4219 1204 4116 
Q 875 4013 500 3803 
L 500 4441 
Q 881 4594 1212 4672 
Q 1544 4750 1819 4750 
Q 2544 4750 2975 4387 
Q 3406 4025 3406 3419 
Q 3406 3131 3298 2873 
Q 3191 2616 2906 2266 
Q 2828 2175 2409 1742 
Q 1991 1309 1228 531 
z
" transform="scale(0.015625)"/>
       </defs>
       <use xlink:href="#DejaVuSans-32"/>
       <use xlink:href="#DejaVuSans-30" x="63.623047"/>
       <use xlink:href="#DejaVuSans-30" x="127.246094"/>
      </g>
     </g>
    </g>
    <g id="xtick_3">
     <g id="line2d_3">
      <g>
       <use xlink:href="#mb8c21011fd" x="198.916436" y="391" style="stroke: #000000; stroke-width: 0.8"/>
      </g>
     </g>
     <g id="text_3">
      <!-- 400 -->
      <g transform="translate(189.372686 405.598437)scale(0.1 -0.1)">
       <defs>
        <path id="DejaVuSans-34" d="M 2419 4116 
L 825 1625 
L 2419 1625 
L 2419 4116 
z
M 2253 4666 
L 3047 4666 
L 3047 1625 
L 3713 1625 
L 3713 1100 
L 3047 1100 
L 3047 0 
L 2419 0 
L 2419 1100 
L 313 1100 
L 313 1709 
L 2253 4666 
z
" transform="scale(0.015625)"/>
       </defs>
       <use xlink:href="#DejaVuSans-34"/>
       <use xlink:href="#DejaVuSans-30" x="63.623047"/>
       <use xlink:href="#DejaVuSans-30" x="127.246094"/>
      </g>
     </g>
    </g>
    <g id="xtick_4">
     <g id="line2d_4">
      <g>
       <use xlink:href="#mb8c21011fd" x="273.134655" y="391" style="stroke: #000000; stroke-width: 0.8"/>
      </g>
     </g>
     <g id="text_4">
      <!-- 600 -->
      <g transform="translate(263.590905 405.598437)scale(0.1 -0.1)">
       <defs>
        <path id="DejaVuSans-36" d="M 2113 2584 
Q 1688 2584 1439 2293 
Q 1191 2003 1191 1497 
Q 1191 994 1439 701 
Q 1688 409 2113 409 
Q 2538 409 2786 701 
Q 3034 994 3034 1497 
Q 3034 2003 2786 2293 
Q 2538 2584 2113 2584 
z
M 3366 4563 
L 3366 3988 
Q 3128 4100 2886 4159 
Q 2644 4219 2406 4219 
Q 1781 4219 1451 3797 
Q 1122 3375 1075 2522 
Q 1259 2794 1537 2939 
Q 1816 3084 2150 3084 
Q 2853 3084 3261 2657 
Q 3669 2231 3669 1497 
Q 3669 778 3244 343 
Q 2819 -91 2113 -91 
Q 1303 -91 875 529 
Q 447 1150 447 2328 
Q 447 3434 972 4092 
Q 1497 4750 2381 4750 
Q 2619 4750 2861 4703 
Q 3103 4656 3366 4563 
z
" transform="scale(0.015625)"/>
       </defs>
       <use xlink:href="#DejaVuSans-36"/>
       <use xlink:href="#DejaVuSans-30" x="63.623047"/>
       <use xlink:href="#DejaVuSans-30" x="127.246094"/>
      </g>
     </g>
    </g>
    <g id="xtick_5">
     <g id="line2d_5">
      <g>
       <use xlink:href="#mb8c21011fd" x="347.352873" y="391" style="stroke: #000000; stroke-width: 0.8"/>
      </g>
     </g>
     <g id="text_5">
      <!-- 800 -->
      <g transform="translate(337.809123 405.598437)scale(0.1 -0.1)">
       <defs>
        <path id="DejaVuSans-38" d="M 2034 2216 
Q 1584 2216 1326 1975 
Q 1069 1734 1069 1313 
Q 1069 891 1326 650 
Q 1584 409 2034 409 
Q 2484 409 2743 651 
Q 3003 894 3003 1313 
Q 3003 1734 2745 1975 
Q 2488 2216 2034 2216 
z
M 1403 2484 
Q 997 2584 770 2862 
Q 544 3141 544 3541 
Q 544 4100 942 4425 
Q 1341 4750 2034 4750 
Q 2731 4750 3128 4425 
Q 3525 4100 3525 3541 
Q 3525 3141 3298 2862 
Q 3072 2584 2669 2484 
Q 3125 2378 3379 2068 
Q 3634 1759 3634 1313 
Q 3634 634 3220 271 
Q 2806 -91 2034 -91 
Q 1263 -91 848 271 
Q 434 634 434 1313 
Q 434 1759 690 2068 
Q 947 2378 1403 2484 
z
M 1172 3481 
Q 1172 3119 1398 2916 
Q 1625 2713 2034 2713 
Q 2441 2713 2670 2916 
Q 2900 3119 2900 3481 
Q 2900 3844 2670 4047 
Q 2441 4250 2034 4250 
Q 1625 4250 1398 4047 
Q 1172 3844 1172 3481 
z
" transform="scale(0.015625)"/>
       </defs>
       <use xlink:href="#DejaVuSans-38"/>
       <use xlink:href="#DejaVuSans-30" x="63.623047"/>
       <use xlink:href="#DejaVuSans-30" x="127.246094"/>
      </g>
     </g>
    </g>
    <g id="text_6">
     <!-- Iteration -->
     <g transform="translate(214.631406 419.276563)scale(0.1 -0.1)">
      <defs>
       <path id="DejaVuSans-49" d="M 628 4666 
L 1259 4666 
L 1259 0 
L 628 0 
L 628 4666 
z
" transform="scale(0.015625)"/>
       <path id="DejaVuSans-74" d="M 1172 4494 
L 1172 3500 
L 2356 3500 
L 2356 3053 
L 1172 3053 
L 1172 1153 
Q 1172 725 1289 603 
Q 1406 481 1766 481 
L 2356 481 
L 2356 0 
L 1766 0 
Q 1100 0 847 248 
Q 594 497 594 1153 
L 594 3053 
L 172 3053 
L 172 3500 
L 594 3500 
L 594 4494 
L 1172 4494 
z
" transform="scale(0.015625)"/>
       <path id="DejaVuSans-65" d="M 3597 1894 
L 3597 1613 
L 953 1613 
Q 991 1019 1311 708 
Q 1631 397 2203 397 
Q 2534 397 2845 478 
Q 3156 559 3463 722 
L 3463 178 
Q 3153 47 2828 -22 
Q 2503 -91 2169 -91 
Q 1331 -91 842 396 
Q 353 884 353 1716 
Q 353 2575 817 3079 
Q 1281 3584 2069 3584 
Q 2775 3584 3186 3129 
Q 3597 2675 3597 1894 
z
M 3022 2063 
Q 3016 2534 2758 2815 
Q 2500 3097 2075 3097 
Q 1594 3097 1305 2825 
Q 1016 2553 972 2059 
L 3022 2063 
z
" transform="scale(0.015625)"/>
       <path id="DejaVuSans-72" d="M 2631 2963 
Q 2534 3019 2420 3045 
Q 2306 3072 2169 3072 
Q 1681 3072 1420 2755 
Q 1159 2438 1159 1844 
L 1159 0 
L 581 0 
L 581 3500 
L 1159 3500 
L 1159 2956 
Q 1341 3275 1631 3429 
Q 1922 3584 2338 3584 
Q 2397 3584 2469 3576 
Q 2541 3569 2628 3553 
L 2631 2963 
z
" transform="scale(0.015625)"/>
       <path id="DejaVuSans-61" d="M 2194 1759 
Q 1497 1759 1228 1600 
Q 959 1441 959 1056 
Q 959 750 1161 570 
Q 1363 391 1709 391 
Q 2188 391 2477 730 
Q 2766 1069 2766 1631 
L 2766 1759 
L 2194 1759 
z
M 3341 1997 
L 3341 0 
L 2766 0 
L 2766 531 
Q 2569 213 2275 61 
Q 1981 -91 1556 -91 
Q 1019 -91 701 211 
Q 384 513 384 1019 
Q 384 1609 779 1909 
Q 1175 2209 1959 2209 
L 2766 2209 
L 2766 2266 
Q 2766 2663 2505 2880 
Q 2244 3097 1772 3097 
Q 1472 3097 1187 3025 
Q 903 2953 641 2809 
L 641 3341 
Q 956 3463 1253 3523 
Q 1550 3584 1831 3584 
Q 2591 3584 2966 3190 
Q 3341 2797 3341 1997 
z
" transform="scale(0.015625)"/>
       <path id="DejaVuSans-69" d="M 603 3500 
L 1178 3500 
L 1178 0 
L 603 0 
L 603 3500 
z
M 603 4863 
L 1178 4863 
L 1178 4134 
L 603 4134 
L 603 4863 
z
" transform="scale(0.015625)"/>
       <path id="DejaVuSans-6f" d="M 1959 3097 
Q 1497 3097 1228 2736 
Q 959 2375 959 1747 
Q 959 1119 1226 758 
Q 1494 397 1959 397 
Q 2419 397 2687 759 
Q 2956 1122 2956 1747 
Q 2956 2369 2687 2733 
Q 2419 3097 1959 3097 
z
M 1959 3584 
Q 2709 3584 3137 3096 
Q 3566 2609 3566 1747 
Q 3566 888 3137 398 
Q 2709 -91 1959 -91 
Q 1206 -91 779 398 
Q 353 888 353 1747 
Q 353 2609 779 3096 
Q 1206 3584 1959 3584 
z
" transform="scale(0.015625)"/>
       <path id="DejaVuSans-6e" d="M 3513 2113 
L 3513 0 
L 2938 0 
L 2938 2094 
Q 2938 2591 2744 2837 
Q 2550 3084 2163 3084 
Q 1697 3084 1428 2787 
Q 1159 2491 1159 1978 
L 1159 0 
L 581 0 
L 581 3500 
L 1159 3500 
L 1159 2956 
Q 1366 3272 1645 3428 
Q 1925 3584 2291 3584 
Q 2894 3584 3203 3211 
Q 3513 2838 3513 2113 
z
" transform="scale(0.015625)"/>
      </defs>
      <use xlink:href="#DejaVuSans-49"/>
      <use xlink:href="#DejaVuSans-74" x="29.492188"/>
      <use xlink:href="#DejaVuSans-65" x="68.701172"/>
      <use xlink:href="#DejaVuSans-72" x="130.224609"/>
      <use xlink:href="#DejaVuSans-61" x="171.337891"/>
      <use xlink:href="#DejaVuSans-74" x="232.617188"/>
      <use xlink:href="#DejaVuSans-69" x="271.826172"/>
      <use xlink:href="#DejaVuSans-6f" x="299.609375"/>
      <use xlink:href="#DejaVuSans-6e" x="360.791016"/>
     </g>
    </g>
   </g>
   <g id="matplotlib.axis_2">
    <g id="ytick_1">
     <g id="line2d_6">
      <defs>
       <path id="m8641b554e9" d="M 0 0 
L -3.5 0 
" style="stroke: #000000; stroke-width: 0.8"/>
      </defs>
      <g>
       <use xlink:href="#m8641b554e9" x="50.48" y="391" style="stroke: #000000; stroke-width: 0.8"/>
      </g>
     </g>
     <g id="text_7">
      <!-- 0 -->
      <g transform="translate(37.1175 394.799219)scale(0.1 -0.1)">
       <use xlink:href="#DejaVuSans-30"/>
      </g>
     </g>
    </g>
    <g id="ytick_2">
     <g id="line2d_7">
      <g>
       <use xlink:href="#m8641b554e9" x="50.48" y="317.910911" style="stroke: #000000; stroke-width: 0.8"/>
      </g>
     </g>
     <g id="text_8">
      <!-- 200 -->
      <g transform="translate(24.3925 321.71013)scale(0.1 -0.1)">
       <use xlink:href="#DejaVuSans-32"/>
       <use xlink:href="#DejaVuSans-30" x="63.623047"/>
       <use xlink:href="#DejaVuSans-30" x="127.246094"/>
      </g>
     </g>
    </g>
    <g id="ytick_3">
     <g id="line2d_8">
      <g>
       <use xlink:href="#m8641b554e9" x="50.48" y="244.821822" style="stroke: #000000; stroke-width: 0.8"/>
      </g>
     </g>
     <g id="text_9">
      <!-- 400 -->
      <g transform="translate(24.3925 248.621041)scale(0.1 -0.1)">
       <use xlink:href="#DejaVuSans-34"/>
       <use xlink:href="#DejaVuSans-30" x="63.623047"/>
       <use xlink:href="#DejaVuSans-30" x="127.246094"/>
      </g>
     </g>
    </g>
    <g id="ytick_4">
     <g id="line2d_9">
      <g>
       <use xlink:href="#m8641b554e9" x="50.48" y="171.732733" style="stroke: #000000; stroke-width: 0.8"/>
      </g>
     </g>
     <g id="text_10">
      <!-- 600 -->
      <g transform="translate(24.3925 175.531951)scale(0.1 -0.1)">
       <use xlink:href="#DejaVuSans-36"/>
       <use xlink:href="#DejaVuSans-30" x="63.623047"/>
       <use xlink:href="#DejaVuSans-30" x="127.246094"/>
      </g>
     </g>
    </g>
    <g id="ytick_5">
     <g id="line2d_10">
      <g>
       <use xlink:href="#m8641b554e9" x="50.48" y="98.643644" style="stroke: #000000; stroke-width: 0.8"/>
      </g>
     </g>
     <g id="text_11">
      <!-- 800 -->
      <g transform="translate(24.3925 102.442862)scale(0.1 -0.1)">
       <use xlink:href="#DejaVuSans-38"/>
       <use xlink:href="#DejaVuSans-30" x="63.623047"/>
       <use xlink:href="#DejaVuSans-30" x="127.246094"/>
      </g>
     </g>
    </g>
    <g id="text_12">
     <!-- Time [ms] -->
     <g transform="translate(18.312812 233.659219)rotate(-90)scale(0.1 -0.1)">
      <defs>
       <path id="DejaVuSans-54" d="M -19 4666 
L 3928 4666 
L 3928 4134 
L 2272 4134 
L 2272 0 
L 1638 0 
L 1638 4134 
L -19 4134 
L -19 4666 
z
" transform="scale(0.015625)"/>
       <path id="DejaVuSans-6d" d="M 3328 2828 
Q 3544 3216 3844 3400 
Q 4144 3584 4550 3584 
Q 5097 3584 5394 3201 
Q 5691 2819 5691 2113 
L 5691 0 
L 5113 0 
L 5113 2094 
Q 5113 2597 4934 2840 
Q 4756 3084 4391 3084 
Q 3944 3084 3684 2787 
Q 3425 2491 3425 1978 
L 3425 0 
L 2847 0 
L 2847 2094 
Q 2847 2600 2669 2842 
Q 2491 3084 2119 3084 
Q 1678 3084 1418 2786 
Q 1159 2488 1159 1978 
L 1159 0 
L 581 0 
L 581 3500 
L 1159 3500 
L 1159 2956 
Q 1356 3278 1631 3431 
Q 1906 3584 2284 3584 
Q 2666 3584 2933 3390 
Q 3200 3197 3328 2828 
z
" transform="scale(0.015625)"/>
       <path id="DejaVuSans-20" transform="scale(0.015625)"/>
       <path id="DejaVuSans-5b" d="M 550 4863 
L 1875 4863 
L 1875 4416 
L 1125 4416 
L 1125 -397 
L 1875 -397 
L 1875 -844 
L 550 -844 
L 550 4863 
z
" transform="scale(0.015625)"/>
       <path id="DejaVuSans-73" d="M 2834 3397 
L 2834 2853 
Q 2591 2978 2328 3040 
Q 2066 3103 1784 3103 
Q 1356 3103 1142 2972 
Q 928 2841 928 2578 
Q 928 2378 1081 2264 
Q 1234 2150 1697 2047 
L 1894 2003 
Q 2506 1872 2764 1633 
Q 3022 1394 3022 966 
Q 3022 478 2636 193 
Q 2250 -91 1575 -91 
Q 1294 -91 989 -36 
Q 684 19 347 128 
L 347 722 
Q 666 556 975 473 
Q 1284 391 1588 391 
Q 1994 391 2212 530 
Q 2431 669 2431 922 
Q 2431 1156 2273 1281 
Q 2116 1406 1581 1522 
L 1381 1569 
Q 847 1681 609 1914 
Q 372 2147 372 2553 
Q 372 3047 722 3315 
Q 1072 3584 1716 3584 
Q 2034 3584 2315 3537 
Q 2597 3491 2834 3397 
z
" transform="scale(0.015625)"/>
       <path id="DejaVuSans-5d" d="M 1947 4863 
L 1947 -844 
L 622 -844 
L 622 -397 
L 1369 -397 
L 1369 4416 
L 622 4416 
L 622 4863 
L 1947 4863 
z
" transform="scale(0.015625)"/>
      </defs>
      <use xlink:href="#DejaVuSans-54"/>
      <use xlink:href="#DejaVuSans-69" x="57.958984"/>
      <use xlink:href="#DejaVuSans-6d" x="85.742188"/>
      <use xlink:href="#DejaVuSans-65" x="183.154297"/>
      <use xlink:href="#DejaVuSans-20" x="244.677734"/>
      <use xlink:href="#DejaVuSans-5b" x="276.464844"/>
      <use xlink:href="#DejaVuSans-6d" x="315.478516"/>
      <use xlink:href="#DejaVuSans-73" x="412.890625"/>
      <use xlink:href="#DejaVuSans-5d" x="464.990234"/>
     </g>
    </g>
   </g>
   <g id="line2d_11">
    <path d="M 50.48 391 
L 54.933093 390.999671 
L 55.304184 385.170889 
L 60.870551 385.170305 
L 61.241642 379.359722 
L 66.808008 379.359393 
L 67.179099 373.533206 
L 72.745465 373.532841 
L 73.116557 367.687687 
L 78.682923 367.686993 
L 79.054014 361.844105 
L 84.62038 361.843374 
L 84.991471 356.014373 
L 90.557838 356.013971 
L 90.928929 350.198016 
L 96.495295 350.19776 
L 96.866386 344.347783 
L 102.432753 344.347381 
L 102.803844 338.518745 
L 108.37021 338.518343 
L 108.741301 332.679767 
L 114.307668 332.679329 
L 114.678759 326.856869 
L 120.245125 326.856467 
L 120.616216 321.038795 
L 126.182583 321.038503 
L 126.553674 315.193678 
L 132.12004 315.193239 
L 132.491131 309.354846 
L 138.057497 309.354262 
L 138.428589 303.53045 
L 143.994955 303.530121 
L 144.366046 297.712851 
L 149.561321 297.712558 
L 149.932412 291.860352 
L 155.498779 291.860023 
L 155.86987 286.03749 
L 161.436236 286.037125 
L 161.807327 280.567685 
L 167.002603 280.567356 
L 167.373694 274.722495 
L 172.94006 274.722093 
L 173.311151 268.906285 
L 178.877518 268.905919 
L 179.248609 263.088612 
L 184.814975 263.088284 
L 185.186066 257.240352 
L 190.752432 257.23995 
L 191.123524 251.786079 
L 196.318799 251.785714 
L 196.68989 245.936796 
L 202.256256 245.93643 
L 202.627347 240.108489 
L 208.193714 240.107868 
L 208.564805 234.278063 
L 214.131171 234.277405 
L 214.502262 228.442594 
L 220.068629 228.442009 
L 220.43972 222.976991 
L 225.634995 222.97648 
L 226.006086 217.161731 
L 231.201361 217.153436 
L 231.572452 217.153436 
L 231.943544 211.30777 
L 237.50991 211.307222 
L 237.881001 205.48648 
L 243.447367 205.486042 
L 243.818458 199.647173 
L 249.384825 199.646662 
L 249.755916 193.836006 
L 255.322282 193.835677 
L 255.693373 187.98654 
L 261.25974 187.986175 
L 261.630831 182.153519 
L 267.197197 182.152752 
L 267.568288 176.339209 
L 273.134655 176.331791 
L 273.505746 170.523291 
L 279.072112 170.522816 
L 279.443203 164.664506 
L 285.00957 164.663958 
L 285.380661 158.832143 
L 290.947027 158.830535 
L 291.318118 153.004165 
L 296.513393 153.003836 
L 296.884484 147.167819 
L 302.450851 147.16749 
L 302.821942 141.356103 
L 308.388308 141.355884 
L 308.759399 135.507186 
L 314.325766 135.506637 
L 314.696857 129.673982 
L 320.263223 129.673361 
L 320.634314 123.86117 
L 326.200681 123.860878 
L 326.571772 118.378502 
L 331.767047 118.378173 
L 332.138138 112.547527 
L 337.704505 112.547198 
L 338.075596 106.712971 
L 343.641962 106.712423 
L 344.013053 100.897675 
L 349.579419 100.897382 
L 349.950511 95.053179 
L 355.516877 95.05274 
L 355.887968 89.218842 
L 361.454334 89.218404 
L 361.825425 83.390682 
L 367.391792 83.389951 
L 367.762883 77.572571 
L 373.329249 77.572169 
L 373.70034 71.741852 
L 379.266707 71.741596 
L 379.637798 65.910403 
L 385.204164 65.910147 
L 385.575255 60.427807 
L 390.770531 60.427479 
L 391.141622 54.596431 
L 396.707988 54.596066 
L 397.079079 48.763776 
L 402.645445 48.763374 
L 403.016537 42.945555 
L 408.582903 42.945226 
L 408.953994 37.11491 
L 414.52036 37.114581 
L 414.891451 31.283387 
L 420.457818 31.283058 
L 420.828909 25.450512 
L 421.2 25.45033 
L 421.2 25.45033 
" clip-path="url(#p65832fc7b7)" style="fill: none; stroke: #1f77b4; stroke-width: 1.5; stroke-linecap: square"/>
   </g>
   <g id="line2d_12">
    <path d="M 50.48 391 
L 87.589109 356.01408 
L 124.698218 321.038539 
L 161.807327 280.567685 
L 198.916436 245.93654 
L 236.025546 211.307295 
L 273.134655 176.331791 
L 310.243764 135.50682 
L 347.352873 100.897492 
L 384.461982 65.910147 
" clip-path="url(#p65832fc7b7)" style="fill: none"/>
    <defs>
     <path id="ma872ed505a" d="M -5 5 
L 5 5 
L 5 -5 
L -5 -5 
z
" style="stroke: #1f77b4; stroke-linejoin: miter"/>
    </defs>
    <g clip-path="url(#p65832fc7b7)">
     <use xlink:href="#ma872ed505a" x="50.48" y="391" style="fill: #1f77b4; stroke: #1f77b4; stroke-linejoin: miter"/>
     <use xlink:href="#ma872ed505a" x="87.589109" y="356.01408" style="fill: #1f77b4; stroke: #1f77b4; stroke-linejoin: miter"/>
     <use xlink:href="#ma872ed505a" x="124.698218" y="321.038539" style="fill: #1f77b4; stroke: #1f77b4; stroke-linejoin: miter"/>
     <use xlink:href="#ma872ed505a" x="161.807327" y="280.567685" style="fill: #1f77b4; stroke: #1f77b4; stroke-linejoin: miter"/>
     <use xlink:href="#ma872ed505a" x="198.916436" y="245.93654" style="fill: #1f77b4; stroke: #1f77b4; stroke-linejoin: miter"/>
     <use xlink:href="#ma872ed505a" x="236.025546" y="211.307295" style="fill: #1f77b4; stroke: #1f77b4; stroke-linejoin: miter"/>
     <use xlink:href="#ma872ed505a" x="273.134655" y="176.331791" style="fill: #1f77b4; stroke: #1f77b4; stroke-linejoin: miter"/>
     <use xlink:href="#ma872ed505a" x="310.243764" y="135.50682" style="fill: #1f77b4; stroke: #1f77b4; stroke-linejoin: miter"/>
     <use xlink:href="#ma872ed505a" x="347.352873" y="100.897492" style="fill: #1f77b4; stroke: #1f77b4; stroke-linejoin: miter"/>
     <use xlink:href="#ma872ed505a" x="384.461982" y="65.910147" style="fill: #1f77b4; stroke: #1f77b4; stroke-linejoin: miter"/>
    </g>
   </g>
   <g id="line2d_13">
    <path d="M 50.48 391 
L 50.851091 390.47745 
L 51.222182 390.254637 
L 53.077638 388.13911 
L 53.448729 388.1352 
L 54.190911 387.102524 
L 54.562002 387.098431 
L 56.046366 385.236085 
L 56.417457 385.232065 
L 56.788549 384.879447 
L 57.15964 384.255887 
L 57.901822 383.384044 
L 58.272913 383.379951 
L 59.386186 381.881661 
L 59.757277 381.87786 
L 60.499459 380.878842 
L 60.870551 380.874822 
L 61.612733 379.793908 
L 61.983824 379.789961 
L 62.354915 379.280457 
L 62.726006 379.020662 
L 64.581461 376.86775 
L 64.952553 376.86362 
L 66.065826 375.318992 
L 66.436917 375.314935 
L 67.55019 373.895582 
L 67.921281 373.891598 
L 68.663463 372.806445 
L 69.034555 372.802352 
L 70.147828 371.292477 
L 70.518919 371.288421 
L 71.261101 370.288233 
L 71.632192 370.284067 
L 72.003283 369.792872 
L 72.745465 369.059825 
L 73.487648 368.042059 
L 73.858739 368.038149 
L 74.22983 367.305833 
L 74.600921 367.301301 
L 74.972012 366.982706 
L 76.085285 365.424008 
L 76.456376 365.419879 
L 77.198559 364.389359 
L 77.56965 364.385229 
L 78.311832 363.355368 
L 78.682923 363.351348 
L 79.425105 362.493355 
L 80.167287 361.874619 
L 81.280561 360.322792 
L 81.651652 360.318955 
L 82.393834 359.282515 
L 82.764925 359.278458 
L 83.507107 358.245709 
L 83.878198 358.241763 
L 84.991471 356.861658 
L 85.733654 356.242082 
L 86.475836 355.252163 
L 86.846927 355.24818 
L 87.589109 354.216893 
L 87.9602 354.212654 
L 89.073473 352.664407 
L 89.444565 352.660424 
L 90.186747 351.635605 
L 90.557838 351.631695 
L 90.928929 351.285253 
L 91.671111 350.133844 
L 92.042202 350.129934 
L 92.784384 349.096015 
L 93.155475 349.091995 
L 94.268749 347.544626 
L 94.63984 347.540643 
L 95.010931 347.251502 
L 96.124204 345.779488 
L 96.495295 345.775541 
L 96.866386 345.071072 
L 97.237477 345.067235 
L 98.721842 343.188115 
L 99.092933 343.183912 
L 99.835115 342.152296 
L 100.206206 342.14824 
L 101.319479 340.596229 
L 101.690571 340.592319 
L 102.432753 339.752891 
L 102.803844 339.482352 
L 103.546026 338.491812 
L 103.917117 338.487792 
L 105.03039 336.935635 
L 105.401481 336.931396 
L 106.143664 335.901681 
L 106.514755 335.897734 
L 107.256937 334.866885 
L 107.628028 334.862902 
L 108.37021 334.018102 
L 109.112392 333.139169 
L 109.483483 332.621808 
L 109.854575 332.617897 
L 110.967848 331.068189 
L 111.338939 331.064206 
L 112.081121 330.031677 
L 112.452212 330.02773 
L 113.194394 328.997649 
L 113.565485 328.993738 
L 113.936577 328.483357 
L 114.678759 327.882492 
L 115.792032 326.3269 
L 116.163123 326.322844 
L 116.905305 325.28867 
L 117.276396 325.284467 
L 117.647487 324.774744 
L 118.38967 324.046703 
L 119.131852 323.182754 
L 119.874034 322.440498 
L 120.245125 322.436514 
L 121.358398 320.881544 
L 121.729489 320.877597 
L 122.471672 319.844958 
L 122.842763 319.840974 
L 123.956036 318.294227 
L 124.327127 318.290389 
L 125.069309 317.259943 
L 125.4404 317.255411 
L 126.182583 316.131265 
L 126.553674 316.127281 
L 127.295856 315.092925 
L 127.666947 315.088868 
L 128.78022 313.552755 
L 129.151311 313.548954 
L 129.893493 312.520371 
L 130.264585 312.510139 
L 130.635676 311.796168 
L 131.006767 311.792185 
L 131.377858 311.05245 
L 131.748949 311.048321 
L 132.862222 309.493752 
L 133.233313 309.48955 
L 133.975495 308.462063 
L 134.346587 308.458007 
L 135.088769 307.421676 
L 135.45986 307.417437 
L 136.202042 306.193232 
L 136.573133 306.189285 
L 136.944224 305.914324 
L 137.315315 305.176233 
L 137.686406 305.17214 
L 138.428589 303.9483 
L 138.79968 303.944353 
L 139.170771 303.332196 
L 139.541862 303.328249 
L 140.284044 302.099292 
L 140.655135 302.095236 
L 141.026226 301.353345 
L 141.397317 301.349033 
L 141.768408 300.642335 
L 142.139499 300.638351 
L 142.510591 300.361015 
L 142.881682 299.746043 
L 143.252773 299.742169 
L 143.994955 298.510618 
L 144.366046 298.506562 
L 144.737137 297.897912 
L 145.108228 297.894002 
L 145.85041 296.668335 
L 146.221502 296.664278 
L 146.592593 296.052778 
L 146.963684 296.048758 
L 147.705866 294.8285 
L 148.076957 294.824224 
L 148.819139 293.693316 
L 149.19023 293.689333 
L 149.561321 293.0767 
L 149.932412 293.07268 
L 150.303504 292.463702 
L 150.674595 292.459901 
L 151.416777 291.293728 
L 151.787868 291.289709 
L 152.53005 290.06225 
L 152.901141 290.057719 
L 153.272232 289.333406 
L 153.643323 289.329459 
L 154.385506 288.492553 
L 155.127688 287.644134 
L 155.498779 287.640115 
L 156.240961 286.412839 
L 156.612052 286.408746 
L 156.983143 285.794725 
L 157.354234 285.790741 
L 158.096416 284.569678 
L 158.467508 284.565659 
L 158.838599 284.048736 
L 159.20969 284.044643 
L 159.951872 282.918961 
L 160.322963 282.916038 
L 161.065145 281.685108 
L 161.436236 281.680978 
L 161.807327 281.065495 
L 162.178418 281.061439 
L 162.920601 279.835662 
L 163.291692 279.831715 
L 164.033874 279.233517 
L 164.776056 278.008215 
L 165.147147 278.004232 
L 165.889329 276.88067 
L 166.26042 276.87654 
L 166.631512 276.270193 
L 167.002603 276.266173 
L 167.373694 275.654893 
L 167.744785 275.650763 
L 168.486967 274.428311 
L 168.858058 274.424292 
L 169.229149 273.810709 
L 169.60024 273.806725 
L 170.342422 272.584055 
L 170.713514 272.580071 
L 171.084605 272.291223 
L 171.455696 271.698251 
L 171.826787 271.35539 
L 172.197878 270.760007 
L 172.568969 270.755877 
L 172.94006 270.14043 
L 173.311151 270.13663 
L 174.053333 268.914544 
L 174.424424 268.910524 
L 174.795516 268.297635 
L 175.166607 268.293615 
L 175.537698 267.572701 
L 175.908789 267.568645 
L 176.27988 266.959666 
L 177.022062 266.360299 
L 177.393153 265.744231 
L 177.764244 265.739992 
L 178.506426 264.511365 
L 178.877518 264.507162 
L 179.248609 263.89738 
L 179.6197 263.893433 
L 180.361882 262.669666 
L 180.732973 262.665609 
L 181.104064 262.05389 
L 181.475155 262.050016 
L 181.846246 261.438224 
L 182.95952 260.576906 
L 183.701702 259.483347 
L 184.072793 259.479327 
L 184.814975 258.252234 
L 185.186066 258.248251 
L 185.557157 257.634924 
L 185.928248 257.630173 
L 186.299339 256.910574 
L 186.67043 256.906701 
L 187.412613 255.682714 
L 187.783704 255.678658 
L 188.525886 255.112985 
L 188.896977 254.700031 
L 189.268068 254.087435 
L 189.639159 254.083269 
L 190.381341 252.856359 
L 190.752432 252.852376 
L 191.123524 252.243617 
L 191.494615 252.23967 
L 192.236797 251.010129 
L 192.607888 251.006145 
L 192.978979 250.397862 
L 193.35007 250.393659 
L 193.721161 249.784717 
L 194.463343 249.20545 
L 194.834434 248.587335 
L 195.205526 248.583352 
L 195.947708 247.356113 
L 196.318799 247.352276 
L 196.68989 246.737048 
L 197.060981 246.732371 
L 197.432072 246.016134 
L 197.803163 246.012041 
L 198.545345 244.787433 
L 198.916436 244.783487 
L 199.287528 244.176847 
L 199.658619 244.172864 
L 200.771892 242.673332 
L 201.142983 242.669348 
L 201.885165 241.435714 
L 202.256256 241.431913 
L 202.627347 240.823556 
L 202.998438 240.819573 
L 203.36953 240.208694 
L 203.740621 240.204455 
L 204.482803 238.976595 
L 204.853894 238.972758 
L 205.224985 238.362464 
L 205.596076 238.358407 
L 206.338258 237.128866 
L 206.709349 237.124737 
L 207.08044 236.514881 
L 207.451532 236.510862 
L 208.193714 235.284719 
L 208.564805 235.27445 
L 208.935896 234.554413 
L 209.306987 234.550539 
L 209.678078 233.942694 
L 210.049169 233.938674 
L 210.791351 232.727441 
L 211.162442 232.723641 
L 211.904625 231.624783 
L 212.275716 231.620726 
L 212.646807 231.011456 
L 213.017898 231.007472 
L 213.76008 229.783047 
L 214.131171 229.779174 
L 214.502262 229.16994 
L 214.873353 229.165883 
L 215.615536 227.94102 
L 215.986627 227.937073 
L 216.357718 227.32952 
L 216.728809 227.325609 
L 217.842082 225.843363 
L 218.213173 225.839453 
L 218.584264 225.227076 
L 218.955355 225.223092 
L 219.697538 223.882748 
L 220.068629 223.878765 
L 220.43972 223.269823 
L 220.810811 223.265657 
L 221.181902 222.975968 
L 221.552993 222.174912 
L 221.924084 222.170892 
L 222.295175 221.561512 
L 222.666266 221.394101 
L 223.037357 220.831717 
L 223.408448 220.82777 
L 224.150631 219.603857 
L 224.521722 219.599837 
L 224.892813 218.988264 
L 225.263904 218.984281 
L 226.006086 217.759088 
L 226.377177 217.755251 
L 226.748268 217.140828 
L 227.119359 217.137027 
L 227.861542 215.915818 
L 228.232633 215.911835 
L 228.974815 214.954185 
L 229.345906 214.950128 
L 230.088088 213.715471 
L 230.459179 213.710976 
L 230.83027 212.995507 
L 231.201361 212.99156 
L 231.572452 212.382399 
L 231.943544 212.378562 
L 232.685726 211.034161 
L 233.056817 211.030141 
L 233.427908 210.543149 
L 233.798999 210.538983 
L 234.541181 209.849643 
L 235.283363 208.618457 
L 235.654454 208.61451 
L 236.025546 208.003157 
L 236.396637 207.9991 
L 237.138819 206.773944 
L 237.50991 206.769998 
L 237.881001 206.159557 
L 238.252092 206.155538 
L 238.994274 204.928189 
L 239.365365 204.924096 
L 240.107548 204.342015 
L 240.478639 203.602828 
L 240.84973 203.598772 
L 241.591912 202.3704 
L 241.963003 202.366416 
L 242.334094 202.106658 
L 243.076276 200.873426 
L 243.447367 200.869442 
L 243.818458 200.26876 
L 244.18955 200.264813 
L 244.560641 199.530779 
L 244.931732 199.526905 
L 245.302823 198.917744 
L 245.673914 198.752673 
L 246.045005 198.14205 
L 246.416096 198.13803 
L 247.158278 196.912691 
L 247.529369 196.908671 
L 247.90046 196.298524 
L 248.271552 196.294248 
L 249.013734 195.063245 
L 249.384825 195.059262 
L 249.755916 194.449479 
L 250.127007 194.445386 
L 250.869189 193.216868 
L 251.24028 193.212812 
L 251.982462 192.349447 
L 252.353554 191.739957 
L 252.724645 191.735937 
L 253.095736 191.005814 
L 253.466827 191.00194 
L 253.837918 190.386018 
L 254.209009 190.381962 
L 254.5801 189.772399 
L 254.951191 189.768416 
L 255.693373 188.757411 
L 256.064464 188.190459 
L 256.435556 188.186256 
L 256.806647 187.573843 
L 257.177738 187.569713 
L 257.91992 186.349016 
L 258.291011 186.345032 
L 258.662102 185.731121 
L 259.033193 185.72732 
L 259.775375 184.502164 
L 260.146466 184.498071 
L 260.517558 183.881857 
L 260.888649 183.877764 
L 261.630831 182.653558 
L 262.001922 182.649575 
L 262.373013 182.038916 
L 262.744104 182.034019 
L 263.857377 180.679093 
L 264.228468 180.336415 
L 264.59956 179.722942 
L 264.970651 179.719031 
L 265.341742 179.103329 
L 265.712833 179.099309 
L 266.455015 177.867685 
L 266.826106 177.863811 
L 267.568288 176.759654 
L 267.939379 176.755817 
L 268.31047 176.476324 
L 268.681562 175.66255 
L 269.052653 175.65853 
L 269.423744 175.047031 
L 269.794835 175.043084 
L 270.165926 174.429208 
L 270.537017 174.425152 
L 271.279199 173.193711 
L 271.65029 173.189618 
L 272.021381 172.577533 
L 272.392472 172.57344 
L 273.134655 171.347334 
L 273.505746 171.343314 
L 273.876837 170.753339 
L 274.247928 170.749027 
L 274.99011 169.599664 
L 275.361201 169.59009 
L 275.732292 168.868189 
L 276.103383 168.863986 
L 276.845566 167.633824 
L 277.216657 167.629877 
L 277.587748 167.021227 
L 277.958839 167.017354 
L 278.32993 166.281858 
L 278.701021 166.278277 
L 279.443203 165.174156 
L 279.814294 165.170027 
L 280.185385 164.558966 
L 280.556476 164.55469 
L 281.298659 163.333006 
L 281.66975 163.328876 
L 282.040841 162.715293 
L 282.411932 162.711346 
L 283.154114 161.487872 
L 283.525205 161.483961 
L 283.896296 160.876664 
L 284.267387 160.872754 
L 285.00957 159.641093 
L 285.380661 159.637 
L 286.493934 158.411735 
L 286.865025 157.799285 
L 287.236116 157.795155 
L 287.607207 157.184057 
L 287.978298 157.179928 
L 288.72048 155.954626 
L 289.091572 155.950788 
L 289.833754 155.309761 
L 290.204845 154.696945 
L 290.575936 154.693144 
L 291.318118 153.351704 
L 291.689209 153.347611 
L 292.0603 152.733005 
L 292.431391 152.729131 
L 292.802482 152.116169 
L 293.173574 152.112259 
L 293.915756 150.884911 
L 294.286847 150.880891 
L 294.657938 150.270999 
L 295.029029 150.266906 
L 295.771211 149.040105 
L 296.142302 149.036086 
L 296.513393 148.440081 
L 296.884484 148.435732 
L 297.626667 147.336983 
L 297.997758 147.332927 
L 298.73994 146.103203 
L 299.111031 146.099037 
L 299.482122 145.488049 
L 299.853213 145.484175 
L 300.224304 144.876074 
L 300.966486 144.372088 
L 301.708669 143.137102 
L 302.07976 143.133045 
L 302.821942 142.542705 
L 303.564124 141.316014 
L 303.935215 141.31214 
L 304.306306 140.700019 
L 304.677397 140.695926 
L 305.048488 140.081064 
L 305.41958 140.077154 
L 306.161762 138.856237 
L 306.532853 138.852254 
L 306.903944 138.239365 
L 307.275035 138.235455 
L 307.646126 137.623626 
L 308.759399 136.761358 
L 309.501582 135.642729 
L 309.872673 135.638746 
L 310.614855 134.409022 
L 310.985946 134.405075 
L 311.357037 133.792479 
L 311.728128 133.788496 
L 312.47031 132.443072 
L 312.841401 132.439015 
L 313.212492 131.941973 
L 313.583584 131.938099 
L 314.325766 130.597134 
L 314.696857 130.593114 
L 315.067948 129.979275 
L 315.439039 129.975255 
L 315.81013 129.366971 
L 316.181221 129.362622 
L 316.552312 128.753571 
L 316.923403 128.749478 
L 317.665586 127.526222 
L 318.036677 127.522166 
L 318.407768 126.912968 
L 318.778859 126.908693 
L 319.521041 125.701115 
L 319.892132 125.697022 
L 320.634314 124.588955 
L 321.005405 124.584898 
L 321.376496 123.973618 
L 321.747588 123.96978 
L 322.48977 122.740934 
L 322.860861 122.736914 
L 323.231952 122.126035 
L 323.603043 122.121979 
L 324.345225 121.023998 
L 324.716316 121.020088 
L 325.087407 120.41396 
L 325.82959 119.795114 
L 326.200681 119.177475 
L 326.571772 119.173601 
L 327.313954 117.943914 
L 327.685045 117.939858 
L 328.056136 117.328833 
L 328.427227 117.324776 
L 329.169409 116.09973 
L 329.540501 116.095637 
L 329.911592 115.488011 
L 330.282683 115.483918 
L 331.024865 114.144158 
L 331.395956 114.139737 
L 331.767047 113.738002 
L 332.138138 113.735042 
L 332.88032 112.555713 
L 333.251411 112.55173 
L 333.622503 111.935114 
L 333.993594 111.931021 
L 334.735776 110.704732 
L 335.106867 110.700749 
L 335.477958 110.087714 
L 335.849049 110.083658 
L 336.22014 109.353132 
L 336.591231 109.349331 
L 337.704505 107.882068 
L 338.075596 107.878194 
L 338.817778 106.652819 
L 339.188869 106.64869 
L 339.55996 106.03803 
L 339.931051 106.033937 
L 340.673233 104.808051 
L 341.044324 104.803958 
L 341.415415 104.1899 
L 341.786507 104.185733 
L 342.157598 103.465769 
L 342.528689 103.461859 
L 343.270871 102.345423 
L 343.641962 102.342354 
L 344.384144 101.146762 
L 344.755235 101.142779 
L 345.126326 100.530731 
L 345.497417 100.526711 
L 346.2396 99.302432 
L 346.610691 99.298595 
L 346.981782 98.681833 
L 347.352873 98.677922 
L 348.095055 97.455836 
L 348.466146 97.45189 
L 348.837237 96.864838 
L 349.208328 96.860855 
L 349.950511 95.63029 
L 350.321602 95.62638 
L 350.692693 95.013601 
L 351.063784 95.009435 
L 351.805966 94.153635 
L 353.661421 92.32458 
L 354.032513 91.708549 
L 354.403604 91.703688 
L 355.145786 90.618462 
L 355.516877 90.614332 
L 355.887968 90.005573 
L 356.259059 90.001736 
L 357.001241 88.776324 
L 357.372332 88.772231 
L 357.743423 88.160366 
L 358.114515 88.156273 
L 358.856697 86.806281 
L 359.227788 86.802444 
L 359.598879 86.309421 
L 359.96997 86.305292 
L 360.341061 85.585218 
L 360.712152 85.581235 
L 361.454334 84.358966 
L 361.825425 84.355056 
L 362.196517 83.745529 
L 362.567608 83.741363 
L 363.30979 82.514819 
L 363.680881 82.510872 
L 364.051972 81.901528 
L 364.423063 81.897362 
L 364.794154 81.173743 
L 365.165245 81.169797 
L 365.536336 80.564363 
L 365.907427 80.396258 
L 366.64961 79.580145 
L 367.020701 78.968097 
L 367.391792 78.964224 
L 368.133974 77.738154 
L 368.505065 77.734098 
L 368.876156 77.121173 
L 369.247247 77.117262 
L 369.989429 75.779038 
L 370.360521 75.775018 
L 370.731612 75.049864 
L 371.102703 75.045918 
L 371.473794 74.764342 
L 371.844885 74.151307 
L 372.215976 74.147433 
L 372.587067 73.536007 
L 372.958158 73.532023 
L 373.70034 72.322399 
L 374.071431 72.318452 
L 374.442523 71.709693 
L 374.813614 71.705819 
L 375.555796 70.361674 
L 375.926887 70.357801 
L 376.297978 69.747214 
L 376.669069 69.743195 
L 377.04016 69.13301 
L 377.411251 69.128954 
L 378.153433 68.276333 
L 378.524525 67.665053 
L 378.895616 67.66085 
L 379.637798 66.433282 
L 380.008889 66.429335 
L 380.37998 65.818347 
L 380.751071 65.8144 
L 381.122162 65.205824 
L 381.864344 64.701509 
L 382.606527 63.484393 
L 382.977618 63.4803 
L 383.348709 62.743854 
L 383.7198 62.739652 
L 384.090891 62.130966 
L 384.461982 62.126946 
L 385.204164 60.900036 
L 385.575255 60.896089 
L 385.946346 60.278596 
L 386.317437 60.273736 
L 386.688529 59.558413 
L 387.05962 59.554283 
L 387.430711 58.940883 
L 387.801802 58.937009 
L 388.543984 57.726946 
L 388.915075 57.722744 
L 389.657257 56.620889 
L 390.028348 56.616796 
L 390.399439 56.00325 
L 390.770531 55.999084 
L 391.512713 54.773526 
L 391.883804 54.769543 
L 392.254895 54.160053 
L 392.625986 54.156215 
L 393.368168 53.041022 
L 393.739259 53.037112 
L 394.11035 52.429924 
L 394.481441 52.139249 
L 394.852533 51.694794 
L 395.223624 51.567985 
L 395.965806 50.736815 
L 396.336897 50.120967 
L 396.707988 50.116947 
L 397.45017 48.897565 
L 397.821261 48.893618 
L 398.192352 48.629109 
L 398.934535 47.402345 
L 399.305626 47.398435 
L 399.676717 46.788762 
L 400.047808 46.784925 
L 401.161081 45.308416 
L 401.532172 45.304359 
L 401.903263 44.695491 
L 402.274354 44.691471 
L 403.016537 43.468983 
L 403.387628 43.46489 
L 403.758719 42.85836 
L 404.871992 41.987248 
L 405.243083 41.371435 
L 405.614174 41.367489 
L 406.356356 40.028716 
L 406.727447 40.02444 
L 407.098539 39.411551 
L 407.46963 39.407605 
L 407.840721 38.801404 
L 408.211812 38.797311 
L 408.953994 37.461133 
L 409.325085 37.457259 
L 409.696176 36.845576 
L 410.067267 36.841593 
L 410.438358 36.231372 
L 410.809449 36.227279 
L 411.551632 35.024087 
L 411.922723 35.019994 
L 412.664905 33.869242 
L 413.035996 33.865149 
L 413.407087 33.25343 
L 413.778178 33.249374 
L 414.52036 32.033171 
L 414.891451 32.029042 
L 415.262543 31.416921 
L 415.633634 31.413084 
L 416.375816 30.323398 
L 416.746907 30.319342 
L 417.117998 29.719609 
L 417.86018 29.042147 
L 418.231271 28.423886 
L 418.602362 28.419903 
L 418.973453 27.80811 
L 419.344545 27.804054 
L 420.086727 26.471567 
L 420.457818 26.46762 
L 420.828909 25.855024 
L 421.2 25.851187 
L 421.2 25.851187 
" clip-path="url(#p65832fc7b7)" style="fill: none; stroke: #ff7f0e; stroke-width: 1.5; stroke-linecap: square"/>
   </g>
   <g id="line2d_14">
    <path d="M 50.48 391 
L 87.589109 354.216893 
L 124.698218 317.777596 
L 161.807327 281.065495 
L 198.916436 244.783487 
L 236.025546 208.003157 
L 273.134655 171.347334 
L 310.243764 135.026661 
L 347.352873 98.677922 
L 384.461982 62.126946 
" clip-path="url(#p65832fc7b7)" style="fill: none"/>
    <defs>
     <path id="mcc7aaa0e89" d="M 0 4.5 
C 1.193414 4.5 2.338109 4.025852 3.181981 3.181981 
C 4.025852 2.338109 4.5 1.193414 4.5 0 
C 4.5 -1.193414 4.025852 -2.338109 3.181981 -3.181981 
C 2.338109 -4.025852 1.193414 -4.5 0 -4.5 
C -1.193414 -4.5 -2.338109 -4.025852 -3.181981 -3.181981 
C -4.025852 -2.338109 -4.5 -1.193414 -4.5 0 
C -4.5 1.193414 -4.025852 2.338109 -3.181981 3.181981 
C -2.338109 4.025852 -1.193414 4.5 0 4.5 
z
" style="stroke: #ff7f0e"/>
    </defs>
    <g clip-path="url(#p65832fc7b7)">
     <use xlink:href="#mcc7aaa0e89" x="50.48" y="391" style="fill: #ff7f0e; stroke: #ff7f0e"/>
     <use xlink:href="#mcc7aaa0e89" x="87.589109" y="354.216893" style="fill: #ff7f0e; stroke: #ff7f0e"/>
     <use xlink:href="#mcc7aaa0e89" x="124.698218" y="317.777596" style="fill: #ff7f0e; stroke: #ff7f0e"/>
     <use xlink:href="#mcc7aaa0e89" x="161.807327" y="281.065495" style="fill: #ff7f0e; stroke: #ff7f0e"/>
     <use xlink:href="#mcc7aaa0e89" x="198.916436" y="244.783487" style="fill: #ff7f0e; stroke: #ff7f0e"/>
     <use xlink:href="#mcc7aaa0e89" x="236.025546" y="208.003157" style="fill: #ff7f0e; stroke: #ff7f0e"/>
     <use xlink:href="#mcc7aaa0e89" x="273.134655" y="171.347334" style="fill: #ff7f0e; stroke: #ff7f0e"/>
     <use xlink:href="#mcc7aaa0e89" x="310.243764" y="135.026661" style="fill: #ff7f0e; stroke: #ff7f0e"/>
     <use xlink:href="#mcc7aaa0e89" x="347.352873" y="98.677922" style="fill: #ff7f0e; stroke: #ff7f0e"/>
     <use xlink:href="#mcc7aaa0e89" x="384.461982" y="62.126946" style="fill: #ff7f0e; stroke: #ff7f0e"/>
    </g>
   </g>
   <g id="line2d_15">
    <path d="M 50.48 391 
L 53.81982 339.99054 
L 58.272913 270.613207 
L 69.405646 97.228822 
L 72.374374 50.634893 
L 75.643787 -1 
L 75.643787 -1 
" clip-path="url(#p65832fc7b7)" style="fill: none; stroke: #2ca02c; stroke-width: 1.5; stroke-linecap: square"/>
   </g>
   <g id="line2d_16">
    <path d="M 50.48 391 
L 75.654317 -1 
" clip-path="url(#p65832fc7b7)" style="fill: none"/>
    <defs>
     <path id="ma2793c5511" d="M 0 -4 
L -3.804226 -1.236068 
L -2.351141 3.236068 
L 2.351141 3.236068 
L 3.804226 -1.236068 
z
" style="stroke: #2ca02c; stroke-linejoin: miter"/>
    </defs>
    <g clip-path="url(#p65832fc7b7)">
     <use xlink:href="#ma2793c5511" x="50.48" y="391" style="fill: #2ca02c; stroke: #2ca02c; stroke-linejoin: miter"/>
     <use xlink:href="#ma2793c5511" x="75.654317" y="-1" style="fill: #2ca02c; stroke: #2ca02c; stroke-linejoin: miter"/>
    </g>
   </g>
   <g id="line2d_17">
    <path d="M 50.48 391 
L 74.600921 15.094008 
L 75.624887 -1 
L 75.624887 -1 
" clip-path="url(#p65832fc7b7)" style="fill: none; stroke: #d62728; stroke-width: 1.5; stroke-linecap: square"/>
   </g>
   <g id="line2d_18">
    <path d="M 50.48 391 
L 75.583367 -1 
" clip-path="url(#p65832fc7b7)" style="fill: none"/>
    <defs>
     <path id="m3d3f92c5b9" d="M -0 3.5 
L 3.5 -3.5 
L -3.5 -3.5 
z
" style="stroke: #d62728; stroke-linejoin: miter"/>
    </defs>
    <g clip-path="url(#p65832fc7b7)">
     <use xlink:href="#m3d3f92c5b9" x="50.48" y="391" style="fill: #d62728; stroke: #d62728; stroke-linejoin: miter"/>
     <use xlink:href="#m3d3f92c5b9" x="75.583367" y="-1" style="fill: #d62728; stroke: #d62728; stroke-linejoin: miter"/>
    </g>
   </g>
   <g id="line2d_19">
    <path d="M 50.48 391 
L 53.81982 390.989439 
L 54.190911 385.228703 
L 59.757277 385.215145 
L 60.128368 379.333556 
L 65.694735 379.317842 
L 66.065826 373.924379 
L 71.261101 373.911406 
L 71.632192 368.0926 
L 77.198559 368.077873 
L 77.56965 362.357446 
L 82.764925 362.342865 
L 83.136016 356.759333 
L 88.702382 356.744935 
L 89.073473 351.034813 
L 94.268749 351.02173 
L 94.63984 345.385757 
L 100.206206 345.37198 
L 100.577297 339.601633 
L 106.143664 339.587308 
L 106.514755 333.908505 
L 111.71003 333.895385 
L 112.081121 328.285249 
L 117.647487 328.271143 
L 118.018579 322.555649 
L 123.213854 322.540739 
L 123.584945 316.894717 
L 129.151311 316.877468 
L 129.522402 311.13716 
L 135.088769 311.123054 
L 135.45986 305.431461 
L 140.655135 305.415783 
L 141.026226 299.48263 
L 145.85041 299.46264 
L 146.592593 299.460923 
L 146.963684 293.872165 
L 152.53005 293.858351 
L 152.901141 288.035015 
L 158.467508 287.994962 
L 158.838599 282.244605 
L 164.404965 282.230718 
L 164.776056 276.424703 
L 170.342422 276.399122 
L 170.713514 270.592486 
L 175.908789 270.577247 
L 176.27988 264.847063 
L 181.846246 264.832299 
L 182.217337 259.011045 
L 187.783704 258.997231 
L 188.154795 253.169071 
L 193.721161 253.154672 
L 194.092252 247.38681 
L 199.658619 247.373033 
L 200.02971 241.399316 
L 205.596076 241.382249 
L 205.967167 235.747775 
L 211.533534 235.733815 
L 211.904625 229.921076 
L 217.470991 229.905691 
L 217.842082 224.05173 
L 223.408448 224.037002 
L 223.77954 218.193932 
L 229.345906 218.178985 
L 229.716997 212.346037 
L 235.283363 212.332077 
L 235.654454 206.502418 
L 241.220821 206.488203 
L 241.591912 200.786596 
L 246.787187 200.771211 
L 247.158278 195.045594 
L 252.724645 195.031049 
L 253.095736 189.29732 
L 258.662102 189.281825 
L 259.033193 183.468429 
L 264.59956 183.45202 
L 264.970651 177.699689 
L 270.537017 177.683939 
L 270.908108 171.982771 
L 276.103383 171.969322 
L 276.474474 166.395512 
L 282.040841 166.381625 
L 282.411932 160.563587 
L 287.978298 160.549335 
L 288.349389 154.793532 
L 293.544665 154.779938 
L 293.915756 149.125254 
L 299.482122 149.108846 
L 299.853213 143.439471 
L 305.048488 143.426206 
L 305.41958 137.753981 
L 310.985946 137.738632 
L 311.357037 131.949282 
L 316.923403 131.933166 
L 317.294494 126.160626 
L 322.860861 126.146739 
L 323.231952 120.376794 
L 328.798318 120.356402 
L 329.169409 114.522796 
L 334.364685 114.509458 
L 334.735776 108.903561 
L 340.302142 108.886385 
L 340.673233 102.878316 
L 346.2396 102.864429 
L 346.610691 97.213436 
L 352.177057 97.199513 
L 352.548148 91.351034 
L 358.114515 91.335356 
L 358.485606 85.578275 
L 364.051972 85.562451 
L 364.423063 79.719892 
L 369.247247 79.700487 
L 369.989429 79.698659 
L 370.360521 73.883326 
L 375.926887 73.86922 
L 376.297978 67.92313 
L 381.493253 67.903835 
L 381.864344 67.903104 
L 382.235435 62.052724 
L 387.801802 62.038691 
L 388.172893 56.239985 
L 393.739259 56.225148 
L 394.11035 50.263417 
L 399.676717 50.249677 
L 400.047808 44.551724 
L 405.614174 44.537655 
L 405.985265 38.668966 
L 411.551632 38.652558 
L 411.922723 32.820049 
L 417.489089 32.805138 
L 417.86018 26.889161 
L 421.2 26.879842 
L 421.2 26.879842 
" clip-path="url(#p65832fc7b7)" style="fill: none; stroke: #9467bd; stroke-width: 1.5; stroke-linecap: square"/>
   </g>
   <g id="line2d_20">
    <path d="M 50.48 391 
L 87.589109 356.746908 
L 124.698218 316.8877 
L 161.807327 282.235432 
L 198.916436 247.374349 
L 236.025546 206.497631 
L 273.134655 171.974804 
L 310.243764 137.739984 
L 347.352873 97.20832 
L 384.461982 62.044757 
" clip-path="url(#p65832fc7b7)" style="fill: none"/>
    <defs>
     <path id="m4f7578b803" d="M 0 -3 
L -3 3 
L 3 3 
z
" style="stroke: #9467bd; stroke-linejoin: miter"/>
    </defs>
    <g clip-path="url(#p65832fc7b7)">
     <use xlink:href="#m4f7578b803" x="50.48" y="391" style="fill: #9467bd; stroke: #9467bd; stroke-linejoin: miter"/>
     <use xlink:href="#m4f7578b803" x="87.589109" y="356.746908" style="fill: #9467bd; stroke: #9467bd; stroke-linejoin: miter"/>
     <use xlink:href="#m4f7578b803" x="124.698218" y="316.8877" style="fill: #9467bd; stroke: #9467bd; stroke-linejoin: miter"/>
     <use xlink:href="#m4f7578b803" x="161.807327" y="282.235432" style="fill: #9467bd; stroke: #9467bd; stroke-linejoin: miter"/>
     <use xlink:href="#m4f7578b803" x="198.916436" y="247.374349" style="fill: #9467bd; stroke: #9467bd; stroke-linejoin: miter"/>
     <use xlink:href="#m4f7578b803" x="236.025546" y="206.497631" style="fill: #9467bd; stroke: #9467bd; stroke-linejoin: miter"/>
     <use xlink:href="#m4f7578b803" x="273.134655" y="171.974804" style="fill: #9467bd; stroke: #9467bd; stroke-linejoin: miter"/>
     <use xlink:href="#m4f7578b803" x="310.243764" y="137.739984" style="fill: #9467bd; stroke: #9467bd; stroke-linejoin: miter"/>
     <use xlink:href="#m4f7578b803" x="347.352873" y="97.20832" style="fill: #9467bd; stroke: #9467bd; stroke-linejoin: miter"/>
     <use xlink:href="#m4f7578b803" x="384.461982" y="62.044757" style="fill: #9467bd; stroke: #9467bd; stroke-linejoin: miter"/>
    </g>
   </g>
   <g id="line2d_21">
    <path d="M 50.48 391 
L 421.2 25.915432 
L 421.2 25.915432 
" clip-path="url(#p65832fc7b7)" style="fill: none; stroke: #8c564b; stroke-width: 1.5; stroke-linecap: square"/>
   </g>
   <g id="line2d_22">
    <path d="M 50.48 391 
L 87.589109 354.455492 
L 124.698218 317.910947 
L 161.807327 281.366403 
L 198.916436 244.821858 
L 236.025546 208.277314 
L 273.134655 171.732769 
L 310.243764 135.188225 
L 347.352873 98.64368 
L 384.461982 62.099136 
" clip-path="url(#p65832fc7b7)" style="fill: none"/>
    <defs>
     <path id="m8d4ab2c8aa" d="M -2.5 -0 
L 2.5 2.5 
L 2.5 -2.5 
z
" style="stroke: #8c564b; stroke-linejoin: miter"/>
    </defs>
    <g clip-path="url(#p65832fc7b7)">
     <use xlink:href="#m8d4ab2c8aa" x="50.48" y="391" style="fill: #8c564b; stroke: #8c564b; stroke-linejoin: miter"/>
     <use xlink:href="#m8d4ab2c8aa" x="87.589109" y="354.455492" style="fill: #8c564b; stroke: #8c564b; stroke-linejoin: miter"/>
     <use xlink:href="#m8d4ab2c8aa" x="124.698218" y="317.910947" style="fill: #8c564b; stroke: #8c564b; stroke-linejoin: miter"/>
     <use xlink:href="#m8d4ab2c8aa" x="161.807327" y="281.366403" style="fill: #8c564b; stroke: #8c564b; stroke-linejoin: miter"/>
     <use xlink:href="#m8d4ab2c8aa" x="198.916436" y="244.821858" style="fill: #8c564b; stroke: #8c564b; stroke-linejoin: miter"/>
     <use xlink:href="#m8d4ab2c8aa" x="236.025546" y="208.277314" style="fill: #8c564b; stroke: #8c564b; stroke-linejoin: miter"/>
     <use xlink:href="#m8d4ab2c8aa" x="273.134655" y="171.732769" style="fill: #8c564b; stroke: #8c564b; stroke-linejoin: miter"/>
     <use xlink:href="#m8d4ab2c8aa" x="310.243764" y="135.188225" style="fill: #8c564b; stroke: #8c564b; stroke-linejoin: miter"/>
     <use xlink:href="#m8d4ab2c8aa" x="347.352873" y="98.64368" style="fill: #8c564b; stroke: #8c564b; stroke-linejoin: miter"/>
     <use xlink:href="#m8d4ab2c8aa" x="384.461982" y="62.099136" style="fill: #8c564b; stroke: #8c564b; stroke-linejoin: miter"/>
    </g>
   </g>
   <g id="patch_3">
    <path d="M 50.48 391 
L 50.48 25.92 
" style="fill: none; stroke: #000000; stroke-width: 0.8; stroke-linejoin: miter; stroke-linecap: square"/>
   </g>
   <g id="patch_4">
    <path d="M 421.2 391 
L 421.2 25.92 
" style="fill: none; stroke: #000000; stroke-width: 0.8; stroke-linejoin: miter; stroke-linecap: square"/>
   </g>
   <g id="patch_5">
    <path d="M 50.48 391 
L 421.2 391 
" style="fill: none; stroke: #000000; stroke-width: 0.8; stroke-linejoin: miter; stroke-linecap: square"/>
   </g>
   <g id="patch_6">
    <path d="M 50.48 25.92 
L 421.2 25.92 
" style="fill: none; stroke: #000000; stroke-width: 0.8; stroke-linejoin: miter; stroke-linecap: square"/>
   </g>
   <g id="text_13">
    <!-- Interval: 1.0 [ms] -->
    <g transform="translate(183.833125 19.92)scale(0.12 -0.12)">
     <defs>
      <path id="DejaVuSans-76" d="M 191 3500 
L 800 3500 
L 1894 563 
L 2988 3500 
L 3597 3500 
L 2284 0 
L 1503 0 
L 191 3500 
z
" transform="scale(0.015625)"/>
      <path id="DejaVuSans-6c" d="M 603 4863 
L 1178 4863 
L 1178 0 
L 603 0 
L 603 4863 
z
" transform="scale(0.015625)"/>
      <path id="DejaVuSans-3a" d="M 750 794 
L 1409 794 
L 1409 0 
L 750 0 
L 750 794 
z
M 750 3309 
L 1409 3309 
L 1409 2516 
L 750 2516 
L 750 3309 
z
" transform="scale(0.015625)"/>
      <path id="DejaVuSans-31" d="M 794 531 
L 1825 531 
L 1825 4091 
L 703 3866 
L 703 4441 
L 1819 4666 
L 2450 4666 
L 2450 531 
L 3481 531 
L 3481 0 
L 794 0 
L 794 531 
z
" transform="scale(0.015625)"/>
      <path id="DejaVuSans-2e" d="M 684 794 
L 1344 794 
L 1344 0 
L 684 0 
L 684 794 
z
" transform="scale(0.015625)"/>
     </defs>
     <use xlink:href="#DejaVuSans-49"/>
     <use xlink:href="#DejaVuSans-6e" x="29.492188"/>
     <use xlink:href="#DejaVuSans-74" x="92.871094"/>
     <use xlink:href="#DejaVuSans-65" x="132.080078"/>
     <use xlink:href="#DejaVuSans-72" x="193.603516"/>
     <use xlink:href="#DejaVuSans-76" x="234.716797"/>
     <use xlink:href="#DejaVuSans-61" x="293.896484"/>
     <use xlink:href="#DejaVuSans-6c" x="355.175781"/>
     <use xlink:href="#DejaVuSans-3a" x="382.958984"/>
     <use xlink:href="#DejaVuSans-20" x="416.650391"/>
     <use xlink:href="#DejaVuSans-31" x="448.4375"/>
     <use xlink:href="#DejaVuSans-2e" x="512.060547"/>
     <use xlink:href="#DejaVuSans-30" x="543.847656"/>
     <use xlink:href="#DejaVuSans-20" x="607.470703"/>
     <use xlink:href="#DejaVuSans-5b" x="639.257812"/>
     <use xlink:href="#DejaVuSans-6d" x="678.271484"/>
     <use xlink:href="#DejaVuSans-73" x="775.683594"/>
     <use xlink:href="#DejaVuSans-5d" x="827.783203"/>
    </g>
   </g>
   <g id="legend_1">
    <g id="patch_7">
     <path d="M 202.782812 386 
L 414.2 386 
Q 416.2 386 416.2 384 
L 416.2 296.93125 
Q 416.2 294.93125 414.2 294.93125 
L 202.782812 294.93125 
Q 200.782812 294.93125 200.782812 296.93125 
L 200.782812 384 
Q 200.782812 386 202.782812 386 
z
" style="fill: #ffffff; opacity: 0.8; stroke: #cccccc; stroke-linejoin: miter"/>
    </g>
    <g id="line2d_23">
     <path d="M 204.782812 303.029688 
L 214.782812 303.029688 
L 224.782812 303.029688 
" style="fill: none"/>
     <g>
      <use xlink:href="#ma872ed505a" x="214.782812" y="303.029688" style="fill: #1f77b4; stroke: #1f77b4; stroke-linejoin: miter"/>
     </g>
    </g>
    <g id="text_14">
     <!-- StdSleepTimer -->
     <g transform="translate(232.782812 306.529688)scale(0.1 -0.1)">
      <defs>
       <path id="DejaVuSans-53" d="M 3425 4513 
L 3425 3897 
Q 3066 4069 2747 4153 
Q 2428 4238 2131 4238 
Q 1616 4238 1336 4038 
Q 1056 3838 1056 3469 
Q 1056 3159 1242 3001 
Q 1428 2844 1947 2747 
L 2328 2669 
Q 3034 2534 3370 2195 
Q 3706 1856 3706 1288 
Q 3706 609 3251 259 
Q 2797 -91 1919 -91 
Q 1588 -91 1214 -16 
Q 841 59 441 206 
L 441 856 
Q 825 641 1194 531 
Q 1563 422 1919 422 
Q 2459 422 2753 634 
Q 3047 847 3047 1241 
Q 3047 1584 2836 1778 
Q 2625 1972 2144 2069 
L 1759 2144 
Q 1053 2284 737 2584 
Q 422 2884 422 3419 
Q 422 4038 858 4394 
Q 1294 4750 2059 4750 
Q 2388 4750 2728 4690 
Q 3069 4631 3425 4513 
z
" transform="scale(0.015625)"/>
       <path id="DejaVuSans-64" d="M 2906 2969 
L 2906 4863 
L 3481 4863 
L 3481 0 
L 2906 0 
L 2906 525 
Q 2725 213 2448 61 
Q 2172 -91 1784 -91 
Q 1150 -91 751 415 
Q 353 922 353 1747 
Q 353 2572 751 3078 
Q 1150 3584 1784 3584 
Q 2172 3584 2448 3432 
Q 2725 3281 2906 2969 
z
M 947 1747 
Q 947 1113 1208 752 
Q 1469 391 1925 391 
Q 2381 391 2643 752 
Q 2906 1113 2906 1747 
Q 2906 2381 2643 2742 
Q 2381 3103 1925 3103 
Q 1469 3103 1208 2742 
Q 947 2381 947 1747 
z
" transform="scale(0.015625)"/>
       <path id="DejaVuSans-70" d="M 1159 525 
L 1159 -1331 
L 581 -1331 
L 581 3500 
L 1159 3500 
L 1159 2969 
Q 1341 3281 1617 3432 
Q 1894 3584 2278 3584 
Q 2916 3584 3314 3078 
Q 3713 2572 3713 1747 
Q 3713 922 3314 415 
Q 2916 -91 2278 -91 
Q 1894 -91 1617 61 
Q 1341 213 1159 525 
z
M 3116 1747 
Q 3116 2381 2855 2742 
Q 2594 3103 2138 3103 
Q 1681 3103 1420 2742 
Q 1159 2381 1159 1747 
Q 1159 1113 1420 752 
Q 1681 391 2138 391 
Q 2594 391 2855 752 
Q 3116 1113 3116 1747 
z
" transform="scale(0.015625)"/>
      </defs>
      <use xlink:href="#DejaVuSans-53"/>
      <use xlink:href="#DejaVuSans-74" x="63.476562"/>
      <use xlink:href="#DejaVuSans-64" x="102.685547"/>
      <use xlink:href="#DejaVuSans-53" x="166.162109"/>
      <use xlink:href="#DejaVuSans-6c" x="229.638672"/>
      <use xlink:href="#DejaVuSans-65" x="257.421875"/>
      <use xlink:href="#DejaVuSans-65" x="318.945312"/>
      <use xlink:href="#DejaVuSans-70" x="380.46875"/>
      <use xlink:href="#DejaVuSans-54" x="443.945312"/>
      <use xlink:href="#DejaVuSans-69" x="501.904297"/>
      <use xlink:href="#DejaVuSans-6d" x="529.6875"/>
      <use xlink:href="#DejaVuSans-65" x="627.099609"/>
      <use xlink:href="#DejaVuSans-72" x="688.623047"/>
     </g>
    </g>
    <g id="line2d_24">
     <path d="M 204.782812 317.707812 
L 214.782812 317.707812 
L 224.782812 317.707812 
" style="fill: none"/>
     <g>
      <use xlink:href="#mcc7aaa0e89" x="214.782812" y="317.707812" style="fill: #ff7f0e; stroke: #ff7f0e"/>
     </g>
    </g>
    <g id="text_15">
     <!-- MultiMediaTimer -->
     <g transform="translate(232.782812 321.207812)scale(0.1 -0.1)">
      <defs>
       <path id="DejaVuSans-4d" d="M 628 4666 
L 1569 4666 
L 2759 1491 
L 3956 4666 
L 4897 4666 
L 4897 0 
L 4281 0 
L 4281 4097 
L 3078 897 
L 2444 897 
L 1241 4097 
L 1241 0 
L 628 0 
L 628 4666 
z
" transform="scale(0.015625)"/>
       <path id="DejaVuSans-75" d="M 544 1381 
L 544 3500 
L 1119 3500 
L 1119 1403 
Q 1119 906 1312 657 
Q 1506 409 1894 409 
Q 2359 409 2629 706 
Q 2900 1003 2900 1516 
L 2900 3500 
L 3475 3500 
L 3475 0 
L 2900 0 
L 2900 538 
Q 2691 219 2414 64 
Q 2138 -91 1772 -91 
Q 1169 -91 856 284 
Q 544 659 544 1381 
z
M 1991 3584 
L 1991 3584 
z
" transform="scale(0.015625)"/>
      </defs>
      <use xlink:href="#DejaVuSans-4d"/>
      <use xlink:href="#DejaVuSans-75" x="86.279297"/>
      <use xlink:href="#DejaVuSans-6c" x="149.658203"/>
      <use xlink:href="#DejaVuSans-74" x="177.441406"/>
      <use xlink:href="#DejaVuSans-69" x="216.650391"/>
      <use xlink:href="#DejaVuSans-4d" x="244.433594"/>
      <use xlink:href="#DejaVuSans-65" x="330.712891"/>
      <use xlink:href="#DejaVuSans-64" x="392.236328"/>
      <use xlink:href="#DejaVuSans-69" x="455.712891"/>
      <use xlink:href="#DejaVuSans-61" x="483.496094"/>
      <use xlink:href="#DejaVuSans-54" x="544.775391"/>
      <use xlink:href="#DejaVuSans-69" x="602.734375"/>
      <use xlink:href="#DejaVuSans-6d" x="630.517578"/>
      <use xlink:href="#DejaVuSans-65" x="727.929688"/>
      <use xlink:href="#DejaVuSans-72" x="789.453125"/>
     </g>
    </g>
    <g id="line2d_25">
     <path d="M 204.782812 332.385938 
L 214.782812 332.385938 
L 224.782812 332.385938 
" style="fill: none"/>
     <g>
      <use xlink:href="#ma2793c5511" x="214.782812" y="332.385938" style="fill: #2ca02c; stroke: #2ca02c; stroke-linejoin: miter"/>
     </g>
    </g>
    <g id="text_16">
     <!-- TimerQueueTimer -->
     <g transform="translate(232.782812 335.885938)scale(0.1 -0.1)">
      <defs>
       <path id="DejaVuSans-51" d="M 2522 4238 
Q 1834 4238 1429 3725 
Q 1025 3213 1025 2328 
Q 1025 1447 1429 934 
Q 1834 422 2522 422 
Q 3209 422 3611 934 
Q 4013 1447 4013 2328 
Q 4013 3213 3611 3725 
Q 3209 4238 2522 4238 
z
M 3406 84 
L 4238 -825 
L 3475 -825 
L 2784 -78 
Q 2681 -84 2626 -87 
Q 2572 -91 2522 -91 
Q 1538 -91 948 567 
Q 359 1225 359 2328 
Q 359 3434 948 4092 
Q 1538 4750 2522 4750 
Q 3503 4750 4090 4092 
Q 4678 3434 4678 2328 
Q 4678 1516 4351 937 
Q 4025 359 3406 84 
z
" transform="scale(0.015625)"/>
      </defs>
      <use xlink:href="#DejaVuSans-54"/>
      <use xlink:href="#DejaVuSans-69" x="57.958984"/>
      <use xlink:href="#DejaVuSans-6d" x="85.742188"/>
      <use xlink:href="#DejaVuSans-65" x="183.154297"/>
      <use xlink:href="#DejaVuSans-72" x="244.677734"/>
      <use xlink:href="#DejaVuSans-51" x="285.791016"/>
      <use xlink:href="#DejaVuSans-75" x="364.501953"/>
      <use xlink:href="#DejaVuSans-65" x="427.880859"/>
      <use xlink:href="#DejaVuSans-75" x="489.404297"/>
      <use xlink:href="#DejaVuSans-65" x="552.783203"/>
      <use xlink:href="#DejaVuSans-54" x="614.306641"/>
      <use xlink:href="#DejaVuSans-69" x="672.265625"/>
      <use xlink:href="#DejaVuSans-6d" x="700.048828"/>
      <use xlink:href="#DejaVuSans-65" x="797.460938"/>
      <use xlink:href="#DejaVuSans-72" x="858.984375"/>
     </g>
    </g>
    <g id="line2d_26">
     <path d="M 204.782812 347.064062 
L 214.782812 347.064062 
L 224.782812 347.064062 
" style="fill: none"/>
     <g>
      <use xlink:href="#m3d3f92c5b9" x="214.782812" y="347.064062" style="fill: #d62728; stroke: #d62728; stroke-linejoin: miter"/>
     </g>
    </g>
    <g id="text_17">
     <!-- ThreadPoolTimer -->
     <g transform="translate(232.782812 350.564062)scale(0.1 -0.1)">
      <defs>
       <path id="DejaVuSans-68" d="M 3513 2113 
L 3513 0 
L 2938 0 
L 2938 2094 
Q 2938 2591 2744 2837 
Q 2550 3084 2163 3084 
Q 1697 3084 1428 2787 
Q 1159 2491 1159 1978 
L 1159 0 
L 581 0 
L 581 4863 
L 1159 4863 
L 1159 2956 
Q 1366 3272 1645 3428 
Q 1925 3584 2291 3584 
Q 2894 3584 3203 3211 
Q 3513 2838 3513 2113 
z
" transform="scale(0.015625)"/>
       <path id="DejaVuSans-50" d="M 1259 4147 
L 1259 2394 
L 2053 2394 
Q 2494 2394 2734 2622 
Q 2975 2850 2975 3272 
Q 2975 3691 2734 3919 
Q 2494 4147 2053 4147 
L 1259 4147 
z
M 628 4666 
L 2053 4666 
Q 2838 4666 3239 4311 
Q 3641 3956 3641 3272 
Q 3641 2581 3239 2228 
Q 2838 1875 2053 1875 
L 1259 1875 
L 1259 0 
L 628 0 
L 628 4666 
z
" transform="scale(0.015625)"/>
      </defs>
      <use xlink:href="#DejaVuSans-54"/>
      <use xlink:href="#DejaVuSans-68" x="61.083984"/>
      <use xlink:href="#DejaVuSans-72" x="124.462891"/>
      <use xlink:href="#DejaVuSans-65" x="163.326172"/>
      <use xlink:href="#DejaVuSans-61" x="224.849609"/>
      <use xlink:href="#DejaVuSans-64" x="286.128906"/>
      <use xlink:href="#DejaVuSans-50" x="349.605469"/>
      <use xlink:href="#DejaVuSans-6f" x="406.283203"/>
      <use xlink:href="#DejaVuSans-6f" x="467.464844"/>
      <use xlink:href="#DejaVuSans-6c" x="528.646484"/>
      <use xlink:href="#DejaVuSans-54" x="556.429688"/>
      <use xlink:href="#DejaVuSans-69" x="614.388672"/>
      <use xlink:href="#DejaVuSans-6d" x="642.171875"/>
      <use xlink:href="#DejaVuSans-65" x="739.583984"/>
      <use xlink:href="#DejaVuSans-72" x="801.107422"/>
     </g>
    </g>
    <g id="line2d_27">
     <path d="M 204.782812 361.742188 
L 214.782812 361.742188 
L 224.782812 361.742188 
" style="fill: none"/>
     <g>
      <use xlink:href="#m4f7578b803" x="214.782812" y="361.742188" style="fill: #9467bd; stroke: #9467bd; stroke-linejoin: miter"/>
     </g>
    </g>
    <g id="text_18">
     <!-- WaitableTimer -->
     <g transform="translate(232.782812 365.242188)scale(0.1 -0.1)">
      <defs>
       <path id="DejaVuSans-57" d="M 213 4666 
L 850 4666 
L 1831 722 
L 2809 4666 
L 3519 4666 
L 4500 722 
L 5478 4666 
L 6119 4666 
L 4947 0 
L 4153 0 
L 3169 4050 
L 2175 0 
L 1381 0 
L 213 4666 
z
" transform="scale(0.015625)"/>
       <path id="DejaVuSans-62" d="M 3116 1747 
Q 3116 2381 2855 2742 
Q 2594 3103 2138 3103 
Q 1681 3103 1420 2742 
Q 1159 2381 1159 1747 
Q 1159 1113 1420 752 
Q 1681 391 2138 391 
Q 2594 391 2855 752 
Q 3116 1113 3116 1747 
z
M 1159 2969 
Q 1341 3281 1617 3432 
Q 1894 3584 2278 3584 
Q 2916 3584 3314 3078 
Q 3713 2572 3713 1747 
Q 3713 922 3314 415 
Q 2916 -91 2278 -91 
Q 1894 -91 1617 61 
Q 1341 213 1159 525 
L 1159 0 
L 581 0 
L 581 4863 
L 1159 4863 
L 1159 2969 
z
" transform="scale(0.015625)"/>
      </defs>
      <use xlink:href="#DejaVuSans-57"/>
      <use xlink:href="#DejaVuSans-61" x="92.501953"/>
      <use xlink:href="#DejaVuSans-69" x="153.78125"/>
      <use xlink:href="#DejaVuSans-74" x="181.564453"/>
      <use xlink:href="#DejaVuSans-61" x="220.773438"/>
      <use xlink:href="#DejaVuSans-62" x="282.052734"/>
      <use xlink:href="#DejaVuSans-6c" x="345.529297"/>
      <use xlink:href="#DejaVuSans-65" x="373.3125"/>
      <use xlink:href="#DejaVuSans-54" x="434.835938"/>
      <use xlink:href="#DejaVuSans-69" x="492.794922"/>
      <use xlink:href="#DejaVuSans-6d" x="520.578125"/>
      <use xlink:href="#DejaVuSans-65" x="617.990234"/>
      <use xlink:href="#DejaVuSans-72" x="679.513672"/>
     </g>
    </g>
    <g id="line2d_28">
     <path d="M 204.782812 376.420313 
L 214.782812 376.420313 
L 224.782812 376.420313 
" style="fill: none"/>
     <g>
      <use xlink:href="#m8d4ab2c8aa" x="214.782812" y="376.420313" style="fill: #8c564b; stroke: #8c564b; stroke-linejoin: miter"/>
     </g>
    </g>
    <g id="text_19">
     <!-- PerformanceCounterSoftSleepTimer -->
     <g transform="translate(232.782812 379.920313)scale(0.1 -0.1)">
      <defs>
       <path id="DejaVuSans-66" d="M 2375 4863 
L 2375 4384 
L 1825 4384 
Q 1516 4384 1395 4259 
Q 1275 4134 1275 3809 
L 1275 3500 
L 2222 3500 
L 2222 3053 
L 1275 3053 
L 1275 0 
L 697 0 
L 697 3053 
L 147 3053 
L 147 3500 
L 697 3500 
L 697 3744 
Q 697 4328 969 4595 
Q 1241 4863 1831 4863 
L 2375 4863 
z
" transform="scale(0.015625)"/>
       <path id="DejaVuSans-63" d="M 3122 3366 
L 3122 2828 
Q 2878 2963 2633 3030 
Q 2388 3097 2138 3097 
Q 1578 3097 1268 2742 
Q 959 2388 959 1747 
Q 959 1106 1268 751 
Q 1578 397 2138 397 
Q 2388 397 2633 464 
Q 2878 531 3122 666 
L 3122 134 
Q 2881 22 2623 -34 
Q 2366 -91 2075 -91 
Q 1284 -91 818 406 
Q 353 903 353 1747 
Q 353 2603 823 3093 
Q 1294 3584 2113 3584 
Q 2378 3584 2631 3529 
Q 2884 3475 3122 3366 
z
" transform="scale(0.015625)"/>
       <path id="DejaVuSans-43" d="M 4122 4306 
L 4122 3641 
Q 3803 3938 3442 4084 
Q 3081 4231 2675 4231 
Q 1875 4231 1450 3742 
Q 1025 3253 1025 2328 
Q 1025 1406 1450 917 
Q 1875 428 2675 428 
Q 3081 428 3442 575 
Q 3803 722 4122 1019 
L 4122 359 
Q 3791 134 3420 21 
Q 3050 -91 2638 -91 
Q 1578 -91 968 557 
Q 359 1206 359 2328 
Q 359 3453 968 4101 
Q 1578 4750 2638 4750 
Q 3056 4750 3426 4639 
Q 3797 4528 4122 4306 
z
" transform="scale(0.015625)"/>
      </defs>
      <use xlink:href="#DejaVuSans-50"/>
      <use xlink:href="#DejaVuSans-65" x="56.677734"/>
      <use xlink:href="#DejaVuSans-72" x="118.201172"/>
      <use xlink:href="#DejaVuSans-66" x="159.314453"/>
      <use xlink:href="#DejaVuSans-6f" x="194.519531"/>
      <use xlink:href="#DejaVuSans-72" x="255.701172"/>
      <use xlink:href="#DejaVuSans-6d" x="295.064453"/>
      <use xlink:href="#DejaVuSans-61" x="392.476562"/>
      <use xlink:href="#DejaVuSans-6e" x="453.755859"/>
      <use xlink:href="#DejaVuSans-63" x="517.134766"/>
      <use xlink:href="#DejaVuSans-65" x="572.115234"/>
      <use xlink:href="#DejaVuSans-43" x="633.638672"/>
      <use xlink:href="#DejaVuSans-6f" x="703.462891"/>
      <use xlink:href="#DejaVuSans-75" x="764.644531"/>
      <use xlink:href="#DejaVuSans-6e" x="828.023438"/>
      <use xlink:href="#DejaVuSans-74" x="891.402344"/>
      <use xlink:href="#DejaVuSans-65" x="930.611328"/>
      <use xlink:href="#DejaVuSans-72" x="992.134766"/>
      <use xlink:href="#DejaVuSans-53" x="1033.248047"/>
      <use xlink:href="#DejaVuSans-6f" x="1096.724609"/>
      <use xlink:href="#DejaVuSans-66" x="1157.90625"/>
      <use xlink:href="#DejaVuSans-74" x="1191.361328"/>
      <use xlink:href="#DejaVuSans-53" x="1230.570312"/>
      <use xlink:href="#DejaVuSans-6c" x="1294.046875"/>
      <use xlink:href="#DejaVuSans-65" x="1321.830078"/>
      <use xlink:href="#DejaVuSans-65" x="1383.353516"/>
      <use xlink:href="#DejaVuSans-70" x="1444.876953"/>
      <use xlink:href="#DejaVuSans-54" x="1508.353516"/>
      <use xlink:href="#DejaVuSans-69" x="1566.3125"/>
      <use xlink:href="#DejaVuSans-6d" x="1594.095703"/>
      <use xlink:href="#DejaVuSans-65" x="1691.507812"/>
      <use xlink:href="#DejaVuSans-72" x="1753.03125"/>
     </g>
    </g>
   </g>
  </g>
 </g>
 <defs>
  <clipPath id="p65832fc7b7">
   <rect x="50.48" y="25.92" width="370.72" height="365.08"/>
  </clipPath>
 </defs>
</svg>
