<?xml version="1.0" encoding="utf-8" standalone="no"?>
<!DOCTYPE svg PUBLIC "-//W3C//DTD SVG 1.1//EN"
  "http://www.w3.org/Graphics/SVG/1.1/DTD/svg11.dtd">
<svg xmlns:xlink="http://www.w3.org/1999/xlink" width="432pt" height="432pt" viewBox="0 0 432 432" xmlns="http://www.w3.org/2000/svg" version="1.1">
 <metadata>
  <rdf:RDF xmlns:dc="http://purl.org/dc/elements/1.1/" xmlns:cc="http://creativecommons.org/ns#" xmlns:rdf="http://www.w3.org/1999/02/22-rdf-syntax-ns#">
   <cc:Work>
    <dc:type rdf:resource="http://purl.org/dc/dcmitype/StillImage"/>
    <dc:date>2022-08-03T16:02:11.490254</dc:date>
    <dc:format>image/svg+xml</dc:format>
    <dc:creator>
     <cc:Agent>
      <dc:title>Matplotlib v3.5.1, https://matplotlib.org/</dc:title>
     </cc:Agent>
    </dc:creator>
   </cc:Work>
  </rdf:RDF>
 </metadata>
 <defs>
  <style type="text/css">*{stroke-linejoin: round; stroke-linecap: butt}</style>
 </defs>
 <g id="figure_1">
  <g id="patch_1">
   <path d="M 0 432 
L 432 432 
L 432 0 
L 0 0 
z
" style="fill: #ffffff"/>
  </g>
  <g id="axes_1">
   <g id="patch_2">
    <path d="M 63.2 391 
L 421.2 391 
L 421.2 25.92 
L 63.2 25.92 
z
" style="fill: #ffffff"/>
   </g>
   <g id="matplotlib.axis_1">
    <g id="xtick_1">
     <g id="line2d_1">
      <defs>
       <path id="me3f844fde9" d="M 0 0 
L 0 3.5 
" style="stroke: #000000; stroke-width: 0.8"/>
      </defs>
      <g>
       <use xlink:href="#me3f844fde9" x="63.2" y="391" style="stroke: #000000; stroke-width: 0.8"/>
      </g>
     </g>
     <g id="text_1">
      <!-- 0 -->
      <g transform="translate(60.01875 405.598437)scale(0.1 -0.1)">
       <defs>
        <path id="DejaVuSans-30" d="M 2034 4250 
Q 1547 4250 1301 3770 
Q 1056 3291 1056 2328 
Q 1056 1369 1301 889 
Q 1547 409 2034 409 
Q 2525 409 2770 889 
Q 3016 1369 3016 2328 
Q 3016 3291 2770 3770 
Q 2525 4250 2034 4250 
z
M 2034 4750 
Q 2819 4750 3233 4129 
Q 3647 3509 3647 2328 
Q 3647 1150 3233 529 
Q 2819 -91 2034 -91 
Q 1250 -91 836 529 
Q 422 1150 422 2328 
Q 422 3509 836 4129 
Q 1250 4750 2034 4750 
z
" transform="scale(0.015625)"/>
       </defs>
       <use xlink:href="#DejaVuSans-30"/>
      </g>
     </g>
    </g>
    <g id="xtick_2">
     <g id="line2d_2">
      <g>
       <use xlink:href="#me3f844fde9" x="134.871672" y="391" style="stroke: #000000; stroke-width: 0.8"/>
      </g>
     </g>
     <g id="text_2">
      <!-- 200 -->
      <g transform="translate(125.327922 405.598437)scale(0.1 -0.1)">
       <defs>
        <path id="DejaVuSans-32" d="M 1228 531 
L 3431 531 
L 3431 0 
L 469 0 
L 469 531 
Q 828 903 1448 1529 
Q 2069 2156 2228 2338 
Q 2531 2678 2651 2914 
Q 2772 3150 2772 3378 
Q 2772 3750 2511 3984 
Q 2250 4219 1831 4219 
Q 1534 4219 1204 4116 
Q 875 4013 500 3803 
L 500 4441 
Q 881 4594 1212 4672 
Q 1544 4750 1819 4750 
Q 2544 4750 2975 4387 
Q 3406 4025 3406 3419 
Q 3406 3131 3298 2873 
Q 3191 2616 2906 2266 
Q 2828 2175 2409 1742 
Q 1991 1309 1228 531 
z
" transform="scale(0.015625)"/>
       </defs>
       <use xlink:href="#DejaVuSans-32"/>
       <use xlink:href="#DejaVuSans-30" x="63.623047"/>
       <use xlink:href="#DejaVuSans-30" x="127.246094"/>
      </g>
     </g>
    </g>
    <g id="xtick_3">
     <g id="line2d_3">
      <g>
       <use xlink:href="#me3f844fde9" x="206.543343" y="391" style="stroke: #000000; stroke-width: 0.8"/>
      </g>
     </g>
     <g id="text_3">
      <!-- 400 -->
      <g transform="translate(196.999593 405.598437)scale(0.1 -0.1)">
       <defs>
        <path id="DejaVuSans-34" d="M 2419 4116 
L 825 1625 
L 2419 1625 
L 2419 4116 
z
M 2253 4666 
L 3047 4666 
L 3047 1625 
L 3713 1625 
L 3713 1100 
L 3047 1100 
L 3047 0 
L 2419 0 
L 2419 1100 
L 313 1100 
L 313 1709 
L 2253 4666 
z
" transform="scale(0.015625)"/>
       </defs>
       <use xlink:href="#DejaVuSans-34"/>
       <use xlink:href="#DejaVuSans-30" x="63.623047"/>
       <use xlink:href="#DejaVuSans-30" x="127.246094"/>
      </g>
     </g>
    </g>
    <g id="xtick_4">
     <g id="line2d_4">
      <g>
       <use xlink:href="#me3f844fde9" x="278.215015" y="391" style="stroke: #000000; stroke-width: 0.8"/>
      </g>
     </g>
     <g id="text_4">
      <!-- 600 -->
      <g transform="translate(268.671265 405.598437)scale(0.1 -0.1)">
       <defs>
        <path id="DejaVuSans-36" d="M 2113 2584 
Q 1688 2584 1439 2293 
Q 1191 2003 1191 1497 
Q 1191 994 1439 701 
Q 1688 409 2113 409 
Q 2538 409 2786 701 
Q 3034 994 3034 1497 
Q 3034 2003 2786 2293 
Q 2538 2584 2113 2584 
z
M 3366 4563 
L 3366 3988 
Q 3128 4100 2886 4159 
Q 2644 4219 2406 4219 
Q 1781 4219 1451 3797 
Q 1122 3375 1075 2522 
Q 1259 2794 1537 2939 
Q 1816 3084 2150 3084 
Q 2853 3084 3261 2657 
Q 3669 2231 3669 1497 
Q 3669 778 3244 343 
Q 2819 -91 2113 -91 
Q 1303 -91 875 529 
Q 447 1150 447 2328 
Q 447 3434 972 4092 
Q 1497 4750 2381 4750 
Q 2619 4750 2861 4703 
Q 3103 4656 3366 4563 
z
" transform="scale(0.015625)"/>
       </defs>
       <use xlink:href="#DejaVuSans-36"/>
       <use xlink:href="#DejaVuSans-30" x="63.623047"/>
       <use xlink:href="#DejaVuSans-30" x="127.246094"/>
      </g>
     </g>
    </g>
    <g id="xtick_5">
     <g id="line2d_5">
      <g>
       <use xlink:href="#me3f844fde9" x="349.886687" y="391" style="stroke: #000000; stroke-width: 0.8"/>
      </g>
     </g>
     <g id="text_5">
      <!-- 800 -->
      <g transform="translate(340.342937 405.598437)scale(0.1 -0.1)">
       <defs>
        <path id="DejaVuSans-38" d="M 2034 2216 
Q 1584 2216 1326 1975 
Q 1069 1734 1069 1313 
Q 1069 891 1326 650 
Q 1584 409 2034 409 
Q 2484 409 2743 651 
Q 3003 894 3003 1313 
Q 3003 1734 2745 1975 
Q 2488 2216 2034 2216 
z
M 1403 2484 
Q 997 2584 770 2862 
Q 544 3141 544 3541 
Q 544 4100 942 4425 
Q 1341 4750 2034 4750 
Q 2731 4750 3128 4425 
Q 3525 4100 3525 3541 
Q 3525 3141 3298 2862 
Q 3072 2584 2669 2484 
Q 3125 2378 3379 2068 
Q 3634 1759 3634 1313 
Q 3634 634 3220 271 
Q 2806 -91 2034 -91 
Q 1263 -91 848 271 
Q 434 634 434 1313 
Q 434 1759 690 2068 
Q 947 2378 1403 2484 
z
M 1172 3481 
Q 1172 3119 1398 2916 
Q 1625 2713 2034 2713 
Q 2441 2713 2670 2916 
Q 2900 3119 2900 3481 
Q 2900 3844 2670 4047 
Q 2441 4250 2034 4250 
Q 1625 4250 1398 4047 
Q 1172 3844 1172 3481 
z
" transform="scale(0.015625)"/>
       </defs>
       <use xlink:href="#DejaVuSans-38"/>
       <use xlink:href="#DejaVuSans-30" x="63.623047"/>
       <use xlink:href="#DejaVuSans-30" x="127.246094"/>
      </g>
     </g>
    </g>
    <g id="text_6">
     <!-- Iteration -->
     <g transform="translate(220.991406 419.276563)scale(0.1 -0.1)">
      <defs>
       <path id="DejaVuSans-49" d="M 628 4666 
L 1259 4666 
L 1259 0 
L 628 0 
L 628 4666 
z
" transform="scale(0.015625)"/>
       <path id="DejaVuSans-74" d="M 1172 4494 
L 1172 3500 
L 2356 3500 
L 2356 3053 
L 1172 3053 
L 1172 1153 
Q 1172 725 1289 603 
Q 1406 481 1766 481 
L 2356 481 
L 2356 0 
L 1766 0 
Q 1100 0 847 248 
Q 594 497 594 1153 
L 594 3053 
L 172 3053 
L 172 3500 
L 594 3500 
L 594 4494 
L 1172 4494 
z
" transform="scale(0.015625)"/>
       <path id="DejaVuSans-65" d="M 3597 1894 
L 3597 1613 
L 953 1613 
Q 991 1019 1311 708 
Q 1631 397 2203 397 
Q 2534 397 2845 478 
Q 3156 559 3463 722 
L 3463 178 
Q 3153 47 2828 -22 
Q 2503 -91 2169 -91 
Q 1331 -91 842 396 
Q 353 884 353 1716 
Q 353 2575 817 3079 
Q 1281 3584 2069 3584 
Q 2775 3584 3186 3129 
Q 3597 2675 3597 1894 
z
M 3022 2063 
Q 3016 2534 2758 2815 
Q 2500 3097 2075 3097 
Q 1594 3097 1305 2825 
Q 1016 2553 972 2059 
L 3022 2063 
z
" transform="scale(0.015625)"/>
       <path id="DejaVuSans-72" d="M 2631 2963 
Q 2534 3019 2420 3045 
Q 2306 3072 2169 3072 
Q 1681 3072 1420 2755 
Q 1159 2438 1159 1844 
L 1159 0 
L 581 0 
L 581 3500 
L 1159 3500 
L 1159 2956 
Q 1341 3275 1631 3429 
Q 1922 3584 2338 3584 
Q 2397 3584 2469 3576 
Q 2541 3569 2628 3553 
L 2631 2963 
z
" transform="scale(0.015625)"/>
       <path id="DejaVuSans-61" d="M 2194 1759 
Q 1497 1759 1228 1600 
Q 959 1441 959 1056 
Q 959 750 1161 570 
Q 1363 391 1709 391 
Q 2188 391 2477 730 
Q 2766 1069 2766 1631 
L 2766 1759 
L 2194 1759 
z
M 3341 1997 
L 3341 0 
L 2766 0 
L 2766 531 
Q 2569 213 2275 61 
Q 1981 -91 1556 -91 
Q 1019 -91 701 211 
Q 384 513 384 1019 
Q 384 1609 779 1909 
Q 1175 2209 1959 2209 
L 2766 2209 
L 2766 2266 
Q 2766 2663 2505 2880 
Q 2244 3097 1772 3097 
Q 1472 3097 1187 3025 
Q 903 2953 641 2809 
L 641 3341 
Q 956 3463 1253 3523 
Q 1550 3584 1831 3584 
Q 2591 3584 2966 3190 
Q 3341 2797 3341 1997 
z
" transform="scale(0.015625)"/>
       <path id="DejaVuSans-69" d="M 603 3500 
L 1178 3500 
L 1178 0 
L 603 0 
L 603 3500 
z
M 603 4863 
L 1178 4863 
L 1178 4134 
L 603 4134 
L 603 4863 
z
" transform="scale(0.015625)"/>
       <path id="DejaVuSans-6f" d="M 1959 3097 
Q 1497 3097 1228 2736 
Q 959 2375 959 1747 
Q 959 1119 1226 758 
Q 1494 397 1959 397 
Q 2419 397 2687 759 
Q 2956 1122 2956 1747 
Q 2956 2369 2687 2733 
Q 2419 3097 1959 3097 
z
M 1959 3584 
Q 2709 3584 3137 3096 
Q 3566 2609 3566 1747 
Q 3566 888 3137 398 
Q 2709 -91 1959 -91 
Q 1206 -91 779 398 
Q 353 888 353 1747 
Q 353 2609 779 3096 
Q 1206 3584 1959 3584 
z
" transform="scale(0.015625)"/>
       <path id="DejaVuSans-6e" d="M 3513 2113 
L 3513 0 
L 2938 0 
L 2938 2094 
Q 2938 2591 2744 2837 
Q 2550 3084 2163 3084 
Q 1697 3084 1428 2787 
Q 1159 2491 1159 1978 
L 1159 0 
L 581 0 
L 581 3500 
L 1159 3500 
L 1159 2956 
Q 1366 3272 1645 3428 
Q 1925 3584 2291 3584 
Q 2894 3584 3203 3211 
Q 3513 2838 3513 2113 
z
" transform="scale(0.015625)"/>
      </defs>
      <use xlink:href="#DejaVuSans-49"/>
      <use xlink:href="#DejaVuSans-74" x="29.492188"/>
      <use xlink:href="#DejaVuSans-65" x="68.701172"/>
      <use xlink:href="#DejaVuSans-72" x="130.224609"/>
      <use xlink:href="#DejaVuSans-61" x="171.337891"/>
      <use xlink:href="#DejaVuSans-74" x="232.617188"/>
      <use xlink:href="#DejaVuSans-69" x="271.826172"/>
      <use xlink:href="#DejaVuSans-6f" x="299.609375"/>
      <use xlink:href="#DejaVuSans-6e" x="360.791016"/>
     </g>
    </g>
   </g>
   <g id="matplotlib.axis_2">
    <g id="ytick_1">
     <g id="line2d_6">
      <defs>
       <path id="m32e823942a" d="M 0 0 
L -3.5 0 
" style="stroke: #000000; stroke-width: 0.8"/>
      </defs>
      <g>
       <use xlink:href="#m32e823942a" x="63.2" y="391" style="stroke: #000000; stroke-width: 0.8"/>
      </g>
     </g>
     <g id="text_7">
      <!-- 0 -->
      <g transform="translate(49.8375 394.799219)scale(0.1 -0.1)">
       <use xlink:href="#DejaVuSans-30"/>
      </g>
     </g>
    </g>
    <g id="ytick_2">
     <g id="line2d_7">
      <g>
       <use xlink:href="#m32e823942a" x="63.2" y="317.910911" style="stroke: #000000; stroke-width: 0.8"/>
      </g>
     </g>
     <g id="text_8">
      <!-- 20000 -->
      <g transform="translate(24.3875 321.71013)scale(0.1 -0.1)">
       <use xlink:href="#DejaVuSans-32"/>
       <use xlink:href="#DejaVuSans-30" x="63.623047"/>
       <use xlink:href="#DejaVuSans-30" x="127.246094"/>
       <use xlink:href="#DejaVuSans-30" x="190.869141"/>
       <use xlink:href="#DejaVuSans-30" x="254.492188"/>
      </g>
     </g>
    </g>
    <g id="ytick_3">
     <g id="line2d_8">
      <g>
       <use xlink:href="#m32e823942a" x="63.2" y="244.821822" style="stroke: #000000; stroke-width: 0.8"/>
      </g>
     </g>
     <g id="text_9">
      <!-- 40000 -->
      <g transform="translate(24.3875 248.621041)scale(0.1 -0.1)">
       <use xlink:href="#DejaVuSans-34"/>
       <use xlink:href="#DejaVuSans-30" x="63.623047"/>
       <use xlink:href="#DejaVuSans-30" x="127.246094"/>
       <use xlink:href="#DejaVuSans-30" x="190.869141"/>
       <use xlink:href="#DejaVuSans-30" x="254.492188"/>
      </g>
     </g>
    </g>
    <g id="ytick_4">
     <g id="line2d_9">
      <g>
       <use xlink:href="#m32e823942a" x="63.2" y="171.732733" style="stroke: #000000; stroke-width: 0.8"/>
      </g>
     </g>
     <g id="text_10">
      <!-- 60000 -->
      <g transform="translate(24.3875 175.531951)scale(0.1 -0.1)">
       <use xlink:href="#DejaVuSans-36"/>
       <use xlink:href="#DejaVuSans-30" x="63.623047"/>
       <use xlink:href="#DejaVuSans-30" x="127.246094"/>
       <use xlink:href="#DejaVuSans-30" x="190.869141"/>
       <use xlink:href="#DejaVuSans-30" x="254.492188"/>
      </g>
     </g>
    </g>
    <g id="ytick_5">
     <g id="line2d_10">
      <g>
       <use xlink:href="#m32e823942a" x="63.2" y="98.643644" style="stroke: #000000; stroke-width: 0.8"/>
      </g>
     </g>
     <g id="text_11">
      <!-- 80000 -->
      <g transform="translate(24.3875 102.442862)scale(0.1 -0.1)">
       <use xlink:href="#DejaVuSans-38"/>
       <use xlink:href="#DejaVuSans-30" x="63.623047"/>
       <use xlink:href="#DejaVuSans-30" x="127.246094"/>
       <use xlink:href="#DejaVuSans-30" x="190.869141"/>
       <use xlink:href="#DejaVuSans-30" x="254.492188"/>
      </g>
     </g>
    </g>
    <g id="text_12">
     <!-- Time [ms] -->
     <g transform="translate(18.307812 233.659219)rotate(-90)scale(0.1 -0.1)">
      <defs>
       <path id="DejaVuSans-54" d="M -19 4666 
L 3928 4666 
L 3928 4134 
L 2272 4134 
L 2272 0 
L 1638 0 
L 1638 4134 
L -19 4134 
L -19 4666 
z
" transform="scale(0.015625)"/>
       <path id="DejaVuSans-6d" d="M 3328 2828 
Q 3544 3216 3844 3400 
Q 4144 3584 4550 3584 
Q 5097 3584 5394 3201 
Q 5691 2819 5691 2113 
L 5691 0 
L 5113 0 
L 5113 2094 
Q 5113 2597 4934 2840 
Q 4756 3084 4391 3084 
Q 3944 3084 3684 2787 
Q 3425 2491 3425 1978 
L 3425 0 
L 2847 0 
L 2847 2094 
Q 2847 2600 2669 2842 
Q 2491 3084 2119 3084 
Q 1678 3084 1418 2786 
Q 1159 2488 1159 1978 
L 1159 0 
L 581 0 
L 581 3500 
L 1159 3500 
L 1159 2956 
Q 1356 3278 1631 3431 
Q 1906 3584 2284 3584 
Q 2666 3584 2933 3390 
Q 3200 3197 3328 2828 
z
" transform="scale(0.015625)"/>
       <path id="DejaVuSans-20" transform="scale(0.015625)"/>
       <path id="DejaVuSans-5b" d="M 550 4863 
L 1875 4863 
L 1875 4416 
L 1125 4416 
L 1125 -397 
L 1875 -397 
L 1875 -844 
L 550 -844 
L 550 4863 
z
" transform="scale(0.015625)"/>
       <path id="DejaVuSans-73" d="M 2834 3397 
L 2834 2853 
Q 2591 2978 2328 3040 
Q 2066 3103 1784 3103 
Q 1356 3103 1142 2972 
Q 928 2841 928 2578 
Q 928 2378 1081 2264 
Q 1234 2150 1697 2047 
L 1894 2003 
Q 2506 1872 2764 1633 
Q 3022 1394 3022 966 
Q 3022 478 2636 193 
Q 2250 -91 1575 -91 
Q 1294 -91 989 -36 
Q 684 19 347 128 
L 347 722 
Q 666 556 975 473 
Q 1284 391 1588 391 
Q 1994 391 2212 530 
Q 2431 669 2431 922 
Q 2431 1156 2273 1281 
Q 2116 1406 1581 1522 
L 1381 1569 
Q 847 1681 609 1914 
Q 372 2147 372 2553 
Q 372 3047 722 3315 
Q 1072 3584 1716 3584 
Q 2034 3584 2315 3537 
Q 2597 3491 2834 3397 
z
" transform="scale(0.015625)"/>
       <path id="DejaVuSans-5d" d="M 1947 4863 
L 1947 -844 
L 622 -844 
L 622 -397 
L 1369 -397 
L 1369 4416 
L 622 4416 
L 622 4863 
L 1947 4863 
z
" transform="scale(0.015625)"/>
      </defs>
      <use xlink:href="#DejaVuSans-54"/>
      <use xlink:href="#DejaVuSans-69" x="57.958984"/>
      <use xlink:href="#DejaVuSans-6d" x="85.742188"/>
      <use xlink:href="#DejaVuSans-65" x="183.154297"/>
      <use xlink:href="#DejaVuSans-20" x="244.677734"/>
      <use xlink:href="#DejaVuSans-5b" x="276.464844"/>
      <use xlink:href="#DejaVuSans-6d" x="315.478516"/>
      <use xlink:href="#DejaVuSans-73" x="412.890625"/>
      <use xlink:href="#DejaVuSans-5d" x="464.990234"/>
     </g>
    </g>
   </g>
   <g id="line2d_11">
    <path d="M 63.2 391 
L 64.991792 389.139998 
L 68.217017 385.887902 
L 69.65045 384.382624 
L 74.309109 379.684028 
L 76.100901 377.815317 
L 79.684484 374.20221 
L 81.117918 372.697774 
L 85.776577 367.978411 
L 87.568368 366.122639 
L 90.076877 363.569476 
L 95.452252 358.101625 
L 97.244044 356.243899 
L 99.394194 354.102127 
L 101.185986 352.239592 
L 104.052853 349.313341 
L 108.353153 344.956774 
L 109.786587 343.453257 
L 113.011812 340.206709 
L 114.445245 338.698549 
L 116.595395 336.550558 
L 118.387187 334.692112 
L 120.537337 332.538883 
L 122.329129 330.674361 
L 125.554354 327.411473 
L 126.987788 325.914244 
L 131.646446 321.208709 
L 133.438238 319.350816 
L 135.946747 316.808334 
L 141.322122 311.331132 
L 143.113914 309.467561 
L 145.622422 306.925418 
L 149.922723 302.561808 
L 150.997798 301.46456 
L 153.864665 298.552043 
L 155.298098 297.039148 
L 161.748549 290.508667 
L 163.54034 288.651477 
L 166.765566 285.398682 
L 168.198999 283.888609 
L 173.216016 278.805862 
L 175.007808 276.949225 
L 179.666466 272.241978 
L 181.0999 270.727235 
L 184.683483 267.110649 
L 186.475275 265.254243 
L 189.700501 262.002674 
L 190.775576 260.897746 
L 193.642442 257.991646 
L 195.075876 256.479785 
L 200.092893 251.413584 
L 201.526326 249.909267 
L 204.751552 246.658434 
L 206.184985 245.148872 
L 212.277077 238.984846 
L 213.352152 237.871979 
L 216.219019 234.960158 
L 217.652452 233.455203 
L 221.236036 229.851375 
L 223.027828 227.994132 
L 225.894695 225.086818 
L 227.328128 223.584566 
L 231.986787 218.8732 
L 233.778579 217.021866 
L 236.287087 214.485225 
L 238.078879 212.62777 
L 240.229029 210.433693 
L 244.170971 206.453671 
L 245.246046 205.338003 
L 248.112913 202.441038 
L 249.546346 200.928184 
L 253.12993 197.317928 
L 254.921722 195.459589 
L 301.866667 147.612498 
L 305.808609 143.592574 
L 307.242042 142.08978 
L 312.259059 137.025863 
L 314.409209 134.784663 
L 317.992793 131.171676 
L 319.426226 129.694582 
L 321.934735 127.14648 
L 323.00981 126.038365 
L 326.235035 122.773999 
L 327.668468 121.270415 
L 330.893694 118.018999 
L 332.685485 116.169797 
L 335.552352 113.263165 
L 336.627427 112.146051 
L 339.494294 109.25072 
L 340.569369 108.136109 
L 343.436236 105.232672 
L 344.86967 103.723948 
L 349.16997 99.360044 
L 353.47027 94.995209 
L 354.903704 93.493788 
L 358.487287 89.886127 
L 359.920721 88.376447 
L 363.145946 85.115856 
L 364.937738 83.256744 
L 368.162963 80.018454 
L 369.596396 78.506848 
L 371.388188 76.716722 
L 372.821622 75.25046 
L 374.613413 73.3964 
L 377.838639 70.146252 
L 379.272072 68.647283 
L 387.872673 59.902538 
L 389.664464 58.045522 
L 392.531331 55.150143 
L 393.606406 54.049743 
L 396.114915 51.499526 
L 397.18999 50.387693 
L 400.056857 47.481497 
L 401.131932 46.362158 
L 403.64044 43.825415 
L 404.715516 42.7162 
L 407.582382 39.818985 
L 408.657457 38.700975 
L 411.165966 36.160643 
L 412.241041 35.05035 
L 414.74955 32.491554 
L 416.541341 30.641099 
L 419.766567 27.390871 
L 421.2 25.89123 
L 421.2 25.89123 
" clip-path="url(#peb647abdd3)" style="fill: none; stroke: #1f77b4; stroke-width: 1.5; stroke-linecap: square"/>
   </g>
   <g id="line2d_12">
    <path d="M 63.2 391 
L 99.035836 354.447956 
L 134.871672 317.907056 
L 170.707508 281.373631 
L 206.543343 244.794506 
L 242.379179 208.259709 
L 278.215015 171.723597 
L 314.050851 135.18459 
L 349.886687 98.6009 
L 385.722523 62.063508 
" clip-path="url(#peb647abdd3)" style="fill: none"/>
    <defs>
     <path id="m082b07f0fd" d="M -5 5 
L 5 5 
L 5 -5 
L -5 -5 
z
" style="stroke: #1f77b4; stroke-linejoin: miter"/>
    </defs>
    <g clip-path="url(#peb647abdd3)">
     <use xlink:href="#m082b07f0fd" x="63.2" y="391" style="fill: #1f77b4; stroke: #1f77b4; stroke-linejoin: miter"/>
     <use xlink:href="#m082b07f0fd" x="99.035836" y="354.447956" style="fill: #1f77b4; stroke: #1f77b4; stroke-linejoin: miter"/>
     <use xlink:href="#m082b07f0fd" x="134.871672" y="317.907056" style="fill: #1f77b4; stroke: #1f77b4; stroke-linejoin: miter"/>
     <use xlink:href="#m082b07f0fd" x="170.707508" y="281.373631" style="fill: #1f77b4; stroke: #1f77b4; stroke-linejoin: miter"/>
     <use xlink:href="#m082b07f0fd" x="206.543343" y="244.794506" style="fill: #1f77b4; stroke: #1f77b4; stroke-linejoin: miter"/>
     <use xlink:href="#m082b07f0fd" x="242.379179" y="208.259709" style="fill: #1f77b4; stroke: #1f77b4; stroke-linejoin: miter"/>
     <use xlink:href="#m082b07f0fd" x="278.215015" y="171.723597" style="fill: #1f77b4; stroke: #1f77b4; stroke-linejoin: miter"/>
     <use xlink:href="#m082b07f0fd" x="314.050851" y="135.18459" style="fill: #1f77b4; stroke: #1f77b4; stroke-linejoin: miter"/>
     <use xlink:href="#m082b07f0fd" x="349.886687" y="98.6009" style="fill: #1f77b4; stroke: #1f77b4; stroke-linejoin: miter"/>
     <use xlink:href="#m082b07f0fd" x="385.722523" y="62.063508" style="fill: #1f77b4; stroke: #1f77b4; stroke-linejoin: miter"/>
    </g>
   </g>
   <g id="line2d_13">
    <path d="M 63.2 391 
L 330.176977 118.74211 
L 392.88969 54.790265 
L 411.524324 35.784982 
L 421.2 25.915872 
L 421.2 25.915872 
" clip-path="url(#peb647abdd3)" style="fill: none; stroke: #ff7f0e; stroke-width: 1.5; stroke-linecap: square"/>
   </g>
   <g id="line2d_14">
    <path d="M 63.2 391 
L 99.035836 354.455465 
L 134.871672 317.910955 
L 170.707508 281.365313 
L 206.543343 244.820783 
L 242.379179 208.276057 
L 278.215015 171.731457 
L 314.050851 135.187179 
L 349.886687 98.640774 
L 385.722523 62.09883 
" clip-path="url(#peb647abdd3)" style="fill: none"/>
    <defs>
     <path id="m9d0d6d7d48" d="M 0 4.5 
C 1.193414 4.5 2.338109 4.025852 3.181981 3.181981 
C 4.025852 2.338109 4.5 1.193414 4.5 0 
C 4.5 -1.193414 4.025852 -2.338109 3.181981 -3.181981 
C 2.338109 -4.025852 1.193414 -4.5 0 -4.5 
C -1.193414 -4.5 -2.338109 -4.025852 -3.181981 -3.181981 
C -4.025852 -2.338109 -4.5 -1.193414 -4.5 0 
C -4.5 1.193414 -4.025852 2.338109 -3.181981 3.181981 
C -2.338109 4.025852 -1.193414 4.5 0 4.5 
z
" style="stroke: #ff7f0e"/>
    </defs>
    <g clip-path="url(#peb647abdd3)">
     <use xlink:href="#m9d0d6d7d48" x="63.2" y="391" style="fill: #ff7f0e; stroke: #ff7f0e"/>
     <use xlink:href="#m9d0d6d7d48" x="99.035836" y="354.455465" style="fill: #ff7f0e; stroke: #ff7f0e"/>
     <use xlink:href="#m9d0d6d7d48" x="134.871672" y="317.910955" style="fill: #ff7f0e; stroke: #ff7f0e"/>
     <use xlink:href="#m9d0d6d7d48" x="170.707508" y="281.365313" style="fill: #ff7f0e; stroke: #ff7f0e"/>
     <use xlink:href="#m9d0d6d7d48" x="206.543343" y="244.820783" style="fill: #ff7f0e; stroke: #ff7f0e"/>
     <use xlink:href="#m9d0d6d7d48" x="242.379179" y="208.276057" style="fill: #ff7f0e; stroke: #ff7f0e"/>
     <use xlink:href="#m9d0d6d7d48" x="278.215015" y="171.731457" style="fill: #ff7f0e; stroke: #ff7f0e"/>
     <use xlink:href="#m9d0d6d7d48" x="314.050851" y="135.187179" style="fill: #ff7f0e; stroke: #ff7f0e"/>
     <use xlink:href="#m9d0d6d7d48" x="349.886687" y="98.640774" style="fill: #ff7f0e; stroke: #ff7f0e"/>
     <use xlink:href="#m9d0d6d7d48" x="385.722523" y="62.09883" style="fill: #ff7f0e; stroke: #ff7f0e"/>
    </g>
   </g>
   <g id="line2d_15">
    <path d="M 63.2 391 
L 64.991792 389.127827 
L 68.933734 385.15163 
L 70.367167 383.653072 
L 74.309109 379.637532 
L 143.472272 309.116292 
L 146.339139 306.213131 
L 147.772573 304.705874 
L 152.431231 299.991988 
L 153.506306 298.8943 
L 157.806607 294.51828 
L 159.24004 293.012012 
L 163.898699 288.293922 
L 165.332132 286.839899 
L 172.140941 279.883539 
L 175.007808 276.973186 
L 176.441241 275.462972 
L 180.024825 271.860153 
L 181.458258 270.347047 
L 183.966767 267.836002 
L 185.041842 266.716983 
L 188.267067 263.453991 
L 190.058859 261.593439 
L 194.359159 257.233951 
L 195.792593 255.731577 
L 201.884685 249.5703 
L 203.676476 247.689611 
L 208.335135 242.994512 
L 210.126927 241.115675 
L 212.635435 238.554529 
L 220.160961 230.928126 
L 221.236036 229.81491 
L 223.027828 228.009181 
L 224.461261 226.50628 
L 228.761562 222.154347 
L 230.553353 220.279947 
L 233.061862 217.723583 
L 236.645445 214.11746 
L 237.720521 213.005493 
L 242.020821 208.64029 
L 243.812613 206.780534 
L 246.679479 203.88512 
L 247.754555 202.768508 
L 250.621421 199.865971 
L 252.054855 198.35396 
L 254.921722 195.437384 
L 259.58038 190.719764 
L 261.372172 188.855264 
L 263.522322 186.70366 
L 264.955756 185.231406 
L 267.464264 182.682698 
L 271.406206 178.666239 
L 272.481281 177.556929 
L 274.98979 175.011648 
L 276.423223 173.557031 
L 278.215015 171.694028 
L 280.723524 169.162497 
L 281.798599 168.04701 
L 284.307107 165.50729 
L 286.098899 163.636491 
L 289.324124 160.373735 
L 292.190991 157.470285 
L 293.624424 156.005736 
L 295.416216 154.156005 
L 297.208008 152.351232 
L 298.9998 150.484675 
L 302.225025 147.241176 
L 303.658458 145.732037 
L 308.317117 141.022214 
L 310.108909 139.154899 
L 315.125926 134.083251 
L 316.201001 132.972882 
L 318.70951 130.414029 
L 321.576376 127.503672 
L 323.00981 125.996925 
L 330.535335 118.372954 
L 331.968769 116.864891 
L 336.627427 112.157354 
L 338.060861 110.654499 
L 341.286086 107.39794 
L 342.71952 105.920315 
L 345.228028 103.391223 
L 347.01982 101.538839 
L 350.245045 98.272177 
L 352.036837 96.416846 
L 355.262062 93.161228 
L 356.695495 91.645105 
L 360.279079 88.036804 
L 362.070871 86.177537 
L 364.579379 83.637789 
L 368.87968 79.265366 
L 370.313113 77.765646 
L 374.971772 73.046237 
L 376.763564 71.194304 
L 379.988789 67.940347 
L 381.422222 66.440203 
L 384.647447 63.186251 
L 386.439239 61.320438 
L 389.664464 58.070784 
L 391.097898 56.561042 
L 392.531331 55.138856 
L 393.964765 53.657176 
L 397.18999 50.403296 
L 398.623423 48.894232 
L 402.207007 45.275704 
L 403.998799 43.408877 
L 406.865666 40.497725 
L 411.165966 36.139863 
L 412.957758 34.279201 
L 416.8997 30.303854 
L 418.691491 28.434827 
L 420.483283 26.641088 
L 421.2 25.896545 
L 421.2 25.896545 
" clip-path="url(#peb647abdd3)" style="fill: none; stroke: #2ca02c; stroke-width: 1.5; stroke-linecap: square"/>
   </g>
   <g id="line2d_16">
    <path d="M 63.2 391 
L 99.035836 354.400042 
L 134.871672 317.899479 
L 170.707508 281.337145 
L 206.543343 244.792916 
L 242.379179 208.235534 
L 278.215015 171.694028 
L 314.050851 135.131315 
L 349.886687 98.630595 
L 385.722523 62.084318 
" clip-path="url(#peb647abdd3)" style="fill: none"/>
    <defs>
     <path id="m07c3469c4d" d="M 0 -4 
L -3.804226 -1.236068 
L -2.351141 3.236068 
L 2.351141 3.236068 
L 3.804226 -1.236068 
z
" style="stroke: #2ca02c; stroke-linejoin: miter"/>
    </defs>
    <g clip-path="url(#peb647abdd3)">
     <use xlink:href="#m07c3469c4d" x="63.2" y="391" style="fill: #2ca02c; stroke: #2ca02c; stroke-linejoin: miter"/>
     <use xlink:href="#m07c3469c4d" x="99.035836" y="354.400042" style="fill: #2ca02c; stroke: #2ca02c; stroke-linejoin: miter"/>
     <use xlink:href="#m07c3469c4d" x="134.871672" y="317.899479" style="fill: #2ca02c; stroke: #2ca02c; stroke-linejoin: miter"/>
     <use xlink:href="#m07c3469c4d" x="170.707508" y="281.337145" style="fill: #2ca02c; stroke: #2ca02c; stroke-linejoin: miter"/>
     <use xlink:href="#m07c3469c4d" x="206.543343" y="244.792916" style="fill: #2ca02c; stroke: #2ca02c; stroke-linejoin: miter"/>
     <use xlink:href="#m07c3469c4d" x="242.379179" y="208.235534" style="fill: #2ca02c; stroke: #2ca02c; stroke-linejoin: miter"/>
     <use xlink:href="#m07c3469c4d" x="278.215015" y="171.694028" style="fill: #2ca02c; stroke: #2ca02c; stroke-linejoin: miter"/>
     <use xlink:href="#m07c3469c4d" x="314.050851" y="135.131315" style="fill: #2ca02c; stroke: #2ca02c; stroke-linejoin: miter"/>
     <use xlink:href="#m07c3469c4d" x="349.886687" y="98.630595" style="fill: #2ca02c; stroke: #2ca02c; stroke-linejoin: miter"/>
     <use xlink:href="#m07c3469c4d" x="385.722523" y="62.084318" style="fill: #2ca02c; stroke: #2ca02c; stroke-linejoin: miter"/>
    </g>
   </g>
   <g id="line2d_17">
    <path d="M 63.2 391 
L 64.991792 389.140019 
L 69.292092 384.770728 
L 71.083884 382.908752 
L 73.592392 380.395352 
L 75.025826 378.932532 
L 76.817618 377.074249 
L 79.684484 374.180467 
L 81.117918 372.675491 
L 85.776577 367.968011 
L 86.851652 366.858943 
L 89.718519 363.946185 
L 91.151952 362.44003 
L 97.602402 355.907722 
L 99.394194 354.044553 
L 102.619419 350.79863 
L 104.052853 349.289386 
L 108.353153 344.928835 
L 114.445245 338.734193 
L 115.878679 337.233832 
L 120.178979 332.884424 
L 121.254054 331.778948 
L 125.195996 327.76567 
L 126.271071 326.65581 
L 128.062863 324.849026 
L 129.854655 322.984594 
L 132.721522 320.090252 
L 137.021822 315.707525 
L 138.455255 314.207473 
L 144.547347 308.039402 
L 145.980781 306.525768 
L 149.564364 302.919288 
L 150.997798 301.458469 
L 152.78959 299.598759 
L 154.93974 297.444568 
L 156.731532 295.577707 
L 159.24004 293.058696 
L 160.673473 291.547167 
L 163.898699 288.294508 
L 165.69049 286.43493 
L 169.990791 282.08684 
L 171.782583 280.236938 
L 173.932733 278.026478 
L 177.157958 274.775257 
L 178.591391 273.275915 
L 183.25005 268.563749 
L 185.041842 266.710286 
L 188.267067 263.45226 
L 189.700501 261.945961 
L 194.359159 257.24086 
L 195.792593 255.740911 
L 199.017818 252.489374 
L 200.092893 251.367772 
L 202.601401 248.802621 
L 206.184985 245.181699 
L 207.976777 243.310499 
L 211.56036 239.698602 
L 213.352152 237.839141 
L 216.935736 234.205382 
L 224.102903 226.903229 
L 225.177978 225.791632 
L 228.044845 222.883516 
L 229.478278 221.377156 
L 233.42022 217.41079 
L 234.495295 216.293275 
L 237.362162 213.37953 
L 238.437237 212.2583 
L 240.587387 210.10442 
L 241.662462 208.986841 
L 245.962763 204.619955 
L 247.754555 202.748541 
L 250.97978 199.497233 
L 252.413213 197.987462 
L 258.863664 191.450249 
L 259.938739 190.347006 
L 263.163964 187.078472 
L 264.955756 185.219607 
L 267.464264 182.686836 
L 268.539339 181.575496 
L 271.047848 179.029912 
L 272.481281 177.564009 
L 274.273073 175.696352 
L 277.13994 172.789924 
L 280.365165 169.519862 
L 281.798599 168.058404 
L 284.307107 165.508478 
L 286.098899 163.648241 
L 288.607407 161.093412 
L 293.266066 156.381263 
L 295.057858 154.522869 
L 297.566366 151.986237 
L 299.358158 150.120918 
L 302.225025 147.220099 
L 306.525325 142.855058 
L 308.317117 140.998652 
L 310.825626 138.459596 
L 312.259059 136.992907 
L 314.409209 134.796134 
L 315.842643 133.342821 
L 318.351151 130.793857 
L 319.784585 129.334004 
L 321.576376 127.478952 
L 325.876677 123.112226 
L 327.31011 121.646875 
L 330.176977 118.689717 
L 336.269069 112.523819 
L 337.702503 111.016578 
L 340.927728 107.759107 
L 342.71952 105.89988 
L 347.736537 100.834795 
L 349.16997 99.337191 
L 352.753554 95.705682 
L 354.186987 94.246963 
L 356.337137 92.020853 
L 358.487287 89.8706 
L 359.562362 88.748151 
L 362.429229 85.848003 
L 363.862663 84.335402 
L 366.72953 81.435196 
L 370.671471 77.436101 
L 372.104905 75.931453 
L 376.763564 71.221388 
L 378.196997 69.720849 
L 382.855656 65.00278 
L 384.647447 63.148415 
L 386.797598 60.994971 
L 388.589389 59.134899 
L 392.531331 55.147218 
L 394.323123 53.285173 
L 397.906707 49.670034 
L 399.698498 47.792919 
L 402.565365 44.890705 
L 405.790591 41.631751 
L 407.582382 39.76662 
L 410.807608 36.5082 
L 412.241041 35.004836 
L 416.8997 30.289326 
L 418.691491 28.424327 
L 421.2 25.880712 
L 421.2 25.880712 
" clip-path="url(#peb647abdd3)" style="fill: none; stroke: #d62728; stroke-width: 1.5; stroke-linecap: square"/>
   </g>
   <g id="line2d_18">
    <path d="M 63.2 391 
L 99.035836 354.39744 
L 134.871672 317.868409 
L 170.707508 281.340984 
L 206.543343 244.779385 
L 242.379179 208.238885 
L 278.215015 171.682395 
L 314.050851 135.142301 
L 349.886687 98.609181 
L 385.722523 62.046324 
" clip-path="url(#peb647abdd3)" style="fill: none"/>
    <defs>
     <path id="m4ef1430e91" d="M -0 3.5 
L 3.5 -3.5 
L -3.5 -3.5 
z
" style="stroke: #d62728; stroke-linejoin: miter"/>
    </defs>
    <g clip-path="url(#peb647abdd3)">
     <use xlink:href="#m4ef1430e91" x="63.2" y="391" style="fill: #d62728; stroke: #d62728; stroke-linejoin: miter"/>
     <use xlink:href="#m4ef1430e91" x="99.035836" y="354.39744" style="fill: #d62728; stroke: #d62728; stroke-linejoin: miter"/>
     <use xlink:href="#m4ef1430e91" x="134.871672" y="317.868409" style="fill: #d62728; stroke: #d62728; stroke-linejoin: miter"/>
     <use xlink:href="#m4ef1430e91" x="170.707508" y="281.340984" style="fill: #d62728; stroke: #d62728; stroke-linejoin: miter"/>
     <use xlink:href="#m4ef1430e91" x="206.543343" y="244.779385" style="fill: #d62728; stroke: #d62728; stroke-linejoin: miter"/>
     <use xlink:href="#m4ef1430e91" x="242.379179" y="208.238885" style="fill: #d62728; stroke: #d62728; stroke-linejoin: miter"/>
     <use xlink:href="#m4ef1430e91" x="278.215015" y="171.682395" style="fill: #d62728; stroke: #d62728; stroke-linejoin: miter"/>
     <use xlink:href="#m4ef1430e91" x="314.050851" y="135.142301" style="fill: #d62728; stroke: #d62728; stroke-linejoin: miter"/>
     <use xlink:href="#m4ef1430e91" x="349.886687" y="98.609181" style="fill: #d62728; stroke: #d62728; stroke-linejoin: miter"/>
     <use xlink:href="#m4ef1430e91" x="385.722523" y="62.046324" style="fill: #d62728; stroke: #d62728; stroke-linejoin: miter"/>
    </g>
   </g>
   <g id="line2d_19">
    <path d="M 63.2 391 
L 64.991792 389.131139 
L 69.65045 384.424811 
L 71.083884 382.922029 
L 76.817618 377.123507 
L 77.892693 376.005767 
L 80.042843 373.834412 
L 81.834635 371.964314 
L 89.718519 363.927901 
L 93.302102 360.290797 
L 96.527327 357.025481 
L 98.319119 355.162932 
L 100.469269 352.960641 
L 103.336136 350.066253 
L 104.76957 348.573527 
L 106.91972 346.427403 
L 108.353153 344.917336 
L 111.22002 342.009207 
L 118.387187 334.733082 
L 119.462262 333.616613 
L 122.329129 330.715339 
L 123.762563 329.2154 
L 126.987788 325.964594 
L 128.77958 324.095395 
L 131.646446 321.195741 
L 134.513313 318.272935 
L 136.305105 316.409493 
L 139.888689 312.798161 
L 141.322122 311.294519 
L 144.905706 307.692329 
L 146.339139 306.183676 
L 149.922723 302.526563 
L 158.523323 293.773779 
L 162.823624 289.411631 
L 164.615415 287.549348 
L 168.198999 283.938301 
L 169.632432 282.422492 
L 173.932733 278.06091 
L 179.666466 272.241325 
L 181.0999 270.746576 
L 185.4002 266.388145 
L 186.833634 264.880307 
L 191.850651 259.803187 
L 193.642442 257.946066 
L 197.226026 254.33121 
L 199.017818 252.473224 
L 201.526326 249.922762 
L 204.751552 246.662125 
L 206.543343 244.79642 
L 209.41021 241.909688 
L 210.485285 240.791256 
L 212.993794 238.245245 
L 217.294094 233.869609 
L 218.727528 232.372802 
L 221.952753 229.114475 
L 223.744545 227.254696 
L 226.611411 224.367204 
L 228.044845 222.856408 
L 233.061862 217.790526 
L 234.495295 216.283173 
L 238.437237 212.300755 
L 239.870671 210.792139 
L 245.246046 205.35857 
L 246.321121 204.241828 
L 249.187988 201.336989 
L 250.263063 200.219641 
L 252.771572 197.678655 
L 254.563363 195.811723 
L 257.43023 192.896495 
L 262.447247 187.820501 
L 263.522322 186.704016 
L 266.389189 183.806718 
L 267.822623 182.296991 
L 269.972773 180.143816 
L 271.047848 179.03889 
L 273.556356 176.480881 
L 275.348148 174.640845 
L 277.498298 172.430522 
L 281.081882 168.813844 
L 282.873674 166.944183 
L 286.098899 163.683104 
L 291.474274 158.222756 
L 292.907708 156.716555 
L 296.132933 153.454272 
L 297.566366 151.992269 
L 301.508308 147.987544 
L 302.941742 146.488335 
L 308.675475 140.678329 
L 310.108909 139.170857 
L 314.767568 134.461505 
L 316.559359 132.613551 
L 320.501301 128.619676 
L 322.293093 126.740301 
L 326.235035 122.776713 
L 328.026827 120.915662 
L 330.893694 118.015747 
L 332.327127 116.554199 
L 334.118919 114.689855 
L 337.702503 111.078738 
L 339.494294 109.208725 
L 341.644444 107.054036 
L 343.436236 105.199852 
L 345.228028 103.400465 
L 346.661461 101.897168 
L 350.245045 98.236804 
L 360.995796 87.310167 
L 362.787588 85.459311 
L 364.579379 83.657421 
L 366.371171 81.796026 
L 368.521321 79.645791 
L 370.313113 77.780271 
L 372.821622 75.220411 
L 378.913714 69.030593 
L 384.647447 63.203193 
L 386.080881 61.702795 
L 390.73954 56.985649 
L 392.172973 55.478503 
L 398.623423 48.954664 
L 400.415215 47.096085 
L 402.565365 44.936007 
L 404.357157 43.08578 
L 406.507307 40.91382 
L 408.299099 39.044441 
L 410.807608 36.53108 
L 412.241041 35.014388 
L 415.824625 31.395494 
L 417.616416 29.547353 
L 419.766567 27.394147 
L 421.2 25.933186 
L 421.2 25.933186 
" clip-path="url(#peb647abdd3)" style="fill: none; stroke: #9467bd; stroke-width: 1.5; stroke-linecap: square"/>
   </g>
   <g id="line2d_20">
    <path d="M 63.2 391 
L 99.035836 354.418714 
L 134.871672 317.86843 
L 170.707508 281.376626 
L 206.543343 244.79642 
L 242.379179 208.288061 
L 278.215015 171.730908 
L 314.050851 135.163115 
L 349.886687 98.643959 
L 385.722523 62.106179 
" clip-path="url(#peb647abdd3)" style="fill: none"/>
    <defs>
     <path id="mb2d0eb7722" d="M 0 -3 
L -3 3 
L 3 3 
z
" style="stroke: #9467bd; stroke-linejoin: miter"/>
    </defs>
    <g clip-path="url(#peb647abdd3)">
     <use xlink:href="#mb2d0eb7722" x="63.2" y="391" style="fill: #9467bd; stroke: #9467bd; stroke-linejoin: miter"/>
     <use xlink:href="#mb2d0eb7722" x="99.035836" y="354.418714" style="fill: #9467bd; stroke: #9467bd; stroke-linejoin: miter"/>
     <use xlink:href="#mb2d0eb7722" x="134.871672" y="317.86843" style="fill: #9467bd; stroke: #9467bd; stroke-linejoin: miter"/>
     <use xlink:href="#mb2d0eb7722" x="170.707508" y="281.376626" style="fill: #9467bd; stroke: #9467bd; stroke-linejoin: miter"/>
     <use xlink:href="#mb2d0eb7722" x="206.543343" y="244.79642" style="fill: #9467bd; stroke: #9467bd; stroke-linejoin: miter"/>
     <use xlink:href="#mb2d0eb7722" x="242.379179" y="208.288061" style="fill: #9467bd; stroke: #9467bd; stroke-linejoin: miter"/>
     <use xlink:href="#mb2d0eb7722" x="278.215015" y="171.730908" style="fill: #9467bd; stroke: #9467bd; stroke-linejoin: miter"/>
     <use xlink:href="#mb2d0eb7722" x="314.050851" y="135.163115" style="fill: #9467bd; stroke: #9467bd; stroke-linejoin: miter"/>
     <use xlink:href="#mb2d0eb7722" x="349.886687" y="98.643959" style="fill: #9467bd; stroke: #9467bd; stroke-linejoin: miter"/>
     <use xlink:href="#mb2d0eb7722" x="385.722523" y="62.106179" style="fill: #9467bd; stroke: #9467bd; stroke-linejoin: miter"/>
    </g>
   </g>
   <g id="line2d_21">
    <path d="M 63.2 391 
L 421.2 25.920001 
L 421.2 25.920001 
" clip-path="url(#peb647abdd3)" style="fill: none; stroke: #8c564b; stroke-width: 1.5; stroke-linecap: square"/>
   </g>
   <g id="line2d_22">
    <path d="M 63.2 391 
L 99.035836 354.455458 
L 134.871672 317.910914 
L 170.707508 281.366367 
L 206.543343 244.821824 
L 242.379179 208.277278 
L 278.215015 171.732734 
L 314.050851 135.188124 
L 349.886687 98.643647 
L 385.722523 62.099102 
" clip-path="url(#peb647abdd3)" style="fill: none"/>
    <defs>
     <path id="m5831b618b6" d="M -2.5 -0 
L 2.5 2.5 
L 2.5 -2.5 
z
" style="stroke: #8c564b; stroke-linejoin: miter"/>
    </defs>
    <g clip-path="url(#peb647abdd3)">
     <use xlink:href="#m5831b618b6" x="63.2" y="391" style="fill: #8c564b; stroke: #8c564b; stroke-linejoin: miter"/>
     <use xlink:href="#m5831b618b6" x="99.035836" y="354.455458" style="fill: #8c564b; stroke: #8c564b; stroke-linejoin: miter"/>
     <use xlink:href="#m5831b618b6" x="134.871672" y="317.910914" style="fill: #8c564b; stroke: #8c564b; stroke-linejoin: miter"/>
     <use xlink:href="#m5831b618b6" x="170.707508" y="281.366367" style="fill: #8c564b; stroke: #8c564b; stroke-linejoin: miter"/>
     <use xlink:href="#m5831b618b6" x="206.543343" y="244.821824" style="fill: #8c564b; stroke: #8c564b; stroke-linejoin: miter"/>
     <use xlink:href="#m5831b618b6" x="242.379179" y="208.277278" style="fill: #8c564b; stroke: #8c564b; stroke-linejoin: miter"/>
     <use xlink:href="#m5831b618b6" x="278.215015" y="171.732734" style="fill: #8c564b; stroke: #8c564b; stroke-linejoin: miter"/>
     <use xlink:href="#m5831b618b6" x="314.050851" y="135.188124" style="fill: #8c564b; stroke: #8c564b; stroke-linejoin: miter"/>
     <use xlink:href="#m5831b618b6" x="349.886687" y="98.643647" style="fill: #8c564b; stroke: #8c564b; stroke-linejoin: miter"/>
     <use xlink:href="#m5831b618b6" x="385.722523" y="62.099102" style="fill: #8c564b; stroke: #8c564b; stroke-linejoin: miter"/>
    </g>
   </g>
   <g id="patch_3">
    <path d="M 63.2 391 
L 63.2 25.92 
" style="fill: none; stroke: #000000; stroke-width: 0.8; stroke-linejoin: miter; stroke-linecap: square"/>
   </g>
   <g id="patch_4">
    <path d="M 421.2 391 
L 421.2 25.92 
" style="fill: none; stroke: #000000; stroke-width: 0.8; stroke-linejoin: miter; stroke-linecap: square"/>
   </g>
   <g id="patch_5">
    <path d="M 63.2 391 
L 421.2 391 
" style="fill: none; stroke: #000000; stroke-width: 0.8; stroke-linejoin: miter; stroke-linecap: square"/>
   </g>
   <g id="patch_6">
    <path d="M 63.2 25.92 
L 421.2 25.92 
" style="fill: none; stroke: #000000; stroke-width: 0.8; stroke-linejoin: miter; stroke-linecap: square"/>
   </g>
   <g id="text_13">
    <!-- Interval: 100.0 [ms] -->
    <g transform="translate(182.558125 19.92)scale(0.12 -0.12)">
     <defs>
      <path id="DejaVuSans-76" d="M 191 3500 
L 800 3500 
L 1894 563 
L 2988 3500 
L 3597 3500 
L 2284 0 
L 1503 0 
L 191 3500 
z
" transform="scale(0.015625)"/>
      <path id="DejaVuSans-6c" d="M 603 4863 
L 1178 4863 
L 1178 0 
L 603 0 
L 603 4863 
z
" transform="scale(0.015625)"/>
      <path id="DejaVuSans-3a" d="M 750 794 
L 1409 794 
L 1409 0 
L 750 0 
L 750 794 
z
M 750 3309 
L 1409 3309 
L 1409 2516 
L 750 2516 
L 750 3309 
z
" transform="scale(0.015625)"/>
      <path id="DejaVuSans-31" d="M 794 531 
L 1825 531 
L 1825 4091 
L 703 3866 
L 703 4441 
L 1819 4666 
L 2450 4666 
L 2450 531 
L 3481 531 
L 3481 0 
L 794 0 
L 794 531 
z
" transform="scale(0.015625)"/>
      <path id="DejaVuSans-2e" d="M 684 794 
L 1344 794 
L 1344 0 
L 684 0 
L 684 794 
z
" transform="scale(0.015625)"/>
     </defs>
     <use xlink:href="#DejaVuSans-49"/>
     <use xlink:href="#DejaVuSans-6e" x="29.492188"/>
     <use xlink:href="#DejaVuSans-74" x="92.871094"/>
     <use xlink:href="#DejaVuSans-65" x="132.080078"/>
     <use xlink:href="#DejaVuSans-72" x="193.603516"/>
     <use xlink:href="#DejaVuSans-76" x="234.716797"/>
     <use xlink:href="#DejaVuSans-61" x="293.896484"/>
     <use xlink:href="#DejaVuSans-6c" x="355.175781"/>
     <use xlink:href="#DejaVuSans-3a" x="382.958984"/>
     <use xlink:href="#DejaVuSans-20" x="416.650391"/>
     <use xlink:href="#DejaVuSans-31" x="448.4375"/>
     <use xlink:href="#DejaVuSans-30" x="512.060547"/>
     <use xlink:href="#DejaVuSans-30" x="575.683594"/>
     <use xlink:href="#DejaVuSans-2e" x="639.306641"/>
     <use xlink:href="#DejaVuSans-30" x="671.09375"/>
     <use xlink:href="#DejaVuSans-20" x="734.716797"/>
     <use xlink:href="#DejaVuSans-5b" x="766.503906"/>
     <use xlink:href="#DejaVuSans-6d" x="805.517578"/>
     <use xlink:href="#DejaVuSans-73" x="902.929688"/>
     <use xlink:href="#DejaVuSans-5d" x="955.029297"/>
    </g>
   </g>
   <g id="legend_1">
    <g id="patch_7">
     <path d="M 70.2 121.98875 
L 281.617188 121.98875 
Q 283.617188 121.98875 283.617188 119.98875 
L 283.617188 32.92 
Q 283.617188 30.92 281.617188 30.92 
L 70.2 30.92 
Q 68.2 30.92 68.2 32.92 
L 68.2 119.98875 
Q 68.2 121.98875 70.2 121.98875 
z
" style="fill: #ffffff; opacity: 0.8; stroke: #cccccc; stroke-linejoin: miter"/>
    </g>
    <g id="line2d_23">
     <path d="M 72.2 39.018438 
L 82.2 39.018438 
L 92.2 39.018438 
" style="fill: none"/>
     <g>
      <use xlink:href="#m082b07f0fd" x="82.2" y="39.018438" style="fill: #1f77b4; stroke: #1f77b4; stroke-linejoin: miter"/>
     </g>
    </g>
    <g id="text_14">
     <!-- StdSleepTimer -->
     <g transform="translate(100.2 42.518438)scale(0.1 -0.1)">
      <defs>
       <path id="DejaVuSans-53" d="M 3425 4513 
L 3425 3897 
Q 3066 4069 2747 4153 
Q 2428 4238 2131 4238 
Q 1616 4238 1336 4038 
Q 1056 3838 1056 3469 
Q 1056 3159 1242 3001 
Q 1428 2844 1947 2747 
L 2328 2669 
Q 3034 2534 3370 2195 
Q 3706 1856 3706 1288 
Q 3706 609 3251 259 
Q 2797 -91 1919 -91 
Q 1588 -91 1214 -16 
Q 841 59 441 206 
L 441 856 
Q 825 641 1194 531 
Q 1563 422 1919 422 
Q 2459 422 2753 634 
Q 3047 847 3047 1241 
Q 3047 1584 2836 1778 
Q 2625 1972 2144 2069 
L 1759 2144 
Q 1053 2284 737 2584 
Q 422 2884 422 3419 
Q 422 4038 858 4394 
Q 1294 4750 2059 4750 
Q 2388 4750 2728 4690 
Q 3069 4631 3425 4513 
z
" transform="scale(0.015625)"/>
       <path id="DejaVuSans-64" d="M 2906 2969 
L 2906 4863 
L 3481 4863 
L 3481 0 
L 2906 0 
L 2906 525 
Q 2725 213 2448 61 
Q 2172 -91 1784 -91 
Q 1150 -91 751 415 
Q 353 922 353 1747 
Q 353 2572 751 3078 
Q 1150 3584 1784 3584 
Q 2172 3584 2448 3432 
Q 2725 3281 2906 2969 
z
M 947 1747 
Q 947 1113 1208 752 
Q 1469 391 1925 391 
Q 2381 391 2643 752 
Q 2906 1113 2906 1747 
Q 2906 2381 2643 2742 
Q 2381 3103 1925 3103 
Q 1469 3103 1208 2742 
Q 947 2381 947 1747 
z
" transform="scale(0.015625)"/>
       <path id="DejaVuSans-70" d="M 1159 525 
L 1159 -1331 
L 581 -1331 
L 581 3500 
L 1159 3500 
L 1159 2969 
Q 1341 3281 1617 3432 
Q 1894 3584 2278 3584 
Q 2916 3584 3314 3078 
Q 3713 2572 3713 1747 
Q 3713 922 3314 415 
Q 2916 -91 2278 -91 
Q 1894 -91 1617 61 
Q 1341 213 1159 525 
z
M 3116 1747 
Q 3116 2381 2855 2742 
Q 2594 3103 2138 3103 
Q 1681 3103 1420 2742 
Q 1159 2381 1159 1747 
Q 1159 1113 1420 752 
Q 1681 391 2138 391 
Q 2594 391 2855 752 
Q 3116 1113 3116 1747 
z
" transform="scale(0.015625)"/>
      </defs>
      <use xlink:href="#DejaVuSans-53"/>
      <use xlink:href="#DejaVuSans-74" x="63.476562"/>
      <use xlink:href="#DejaVuSans-64" x="102.685547"/>
      <use xlink:href="#DejaVuSans-53" x="166.162109"/>
      <use xlink:href="#DejaVuSans-6c" x="229.638672"/>
      <use xlink:href="#DejaVuSans-65" x="257.421875"/>
      <use xlink:href="#DejaVuSans-65" x="318.945312"/>
      <use xlink:href="#DejaVuSans-70" x="380.46875"/>
      <use xlink:href="#DejaVuSans-54" x="443.945312"/>
      <use xlink:href="#DejaVuSans-69" x="501.904297"/>
      <use xlink:href="#DejaVuSans-6d" x="529.6875"/>
      <use xlink:href="#DejaVuSans-65" x="627.099609"/>
      <use xlink:href="#DejaVuSans-72" x="688.623047"/>
     </g>
    </g>
    <g id="line2d_24">
     <path d="M 72.2 53.696563 
L 82.2 53.696563 
L 92.2 53.696563 
" style="fill: none"/>
     <g>
      <use xlink:href="#m9d0d6d7d48" x="82.2" y="53.696563" style="fill: #ff7f0e; stroke: #ff7f0e"/>
     </g>
    </g>
    <g id="text_15">
     <!-- MultiMediaTimer -->
     <g transform="translate(100.2 57.196563)scale(0.1 -0.1)">
      <defs>
       <path id="DejaVuSans-4d" d="M 628 4666 
L 1569 4666 
L 2759 1491 
L 3956 4666 
L 4897 4666 
L 4897 0 
L 4281 0 
L 4281 4097 
L 3078 897 
L 2444 897 
L 1241 4097 
L 1241 0 
L 628 0 
L 628 4666 
z
" transform="scale(0.015625)"/>
       <path id="DejaVuSans-75" d="M 544 1381 
L 544 3500 
L 1119 3500 
L 1119 1403 
Q 1119 906 1312 657 
Q 1506 409 1894 409 
Q 2359 409 2629 706 
Q 2900 1003 2900 1516 
L 2900 3500 
L 3475 3500 
L 3475 0 
L 2900 0 
L 2900 538 
Q 2691 219 2414 64 
Q 2138 -91 1772 -91 
Q 1169 -91 856 284 
Q 544 659 544 1381 
z
M 1991 3584 
L 1991 3584 
z
" transform="scale(0.015625)"/>
      </defs>
      <use xlink:href="#DejaVuSans-4d"/>
      <use xlink:href="#DejaVuSans-75" x="86.279297"/>
      <use xlink:href="#DejaVuSans-6c" x="149.658203"/>
      <use xlink:href="#DejaVuSans-74" x="177.441406"/>
      <use xlink:href="#DejaVuSans-69" x="216.650391"/>
      <use xlink:href="#DejaVuSans-4d" x="244.433594"/>
      <use xlink:href="#DejaVuSans-65" x="330.712891"/>
      <use xlink:href="#DejaVuSans-64" x="392.236328"/>
      <use xlink:href="#DejaVuSans-69" x="455.712891"/>
      <use xlink:href="#DejaVuSans-61" x="483.496094"/>
      <use xlink:href="#DejaVuSans-54" x="544.775391"/>
      <use xlink:href="#DejaVuSans-69" x="602.734375"/>
      <use xlink:href="#DejaVuSans-6d" x="630.517578"/>
      <use xlink:href="#DejaVuSans-65" x="727.929688"/>
      <use xlink:href="#DejaVuSans-72" x="789.453125"/>
     </g>
    </g>
    <g id="line2d_25">
     <path d="M 72.2 68.374687 
L 82.2 68.374687 
L 92.2 68.374687 
" style="fill: none"/>
     <g>
      <use xlink:href="#m07c3469c4d" x="82.2" y="68.374687" style="fill: #2ca02c; stroke: #2ca02c; stroke-linejoin: miter"/>
     </g>
    </g>
    <g id="text_16">
     <!-- TimerQueueTimer -->
     <g transform="translate(100.2 71.874687)scale(0.1 -0.1)">
      <defs>
       <path id="DejaVuSans-51" d="M 2522 4238 
Q 1834 4238 1429 3725 
Q 1025 3213 1025 2328 
Q 1025 1447 1429 934 
Q 1834 422 2522 422 
Q 3209 422 3611 934 
Q 4013 1447 4013 2328 
Q 4013 3213 3611 3725 
Q 3209 4238 2522 4238 
z
M 3406 84 
L 4238 -825 
L 3475 -825 
L 2784 -78 
Q 2681 -84 2626 -87 
Q 2572 -91 2522 -91 
Q 1538 -91 948 567 
Q 359 1225 359 2328 
Q 359 3434 948 4092 
Q 1538 4750 2522 4750 
Q 3503 4750 4090 4092 
Q 4678 3434 4678 2328 
Q 4678 1516 4351 937 
Q 4025 359 3406 84 
z
" transform="scale(0.015625)"/>
      </defs>
      <use xlink:href="#DejaVuSans-54"/>
      <use xlink:href="#DejaVuSans-69" x="57.958984"/>
      <use xlink:href="#DejaVuSans-6d" x="85.742188"/>
      <use xlink:href="#DejaVuSans-65" x="183.154297"/>
      <use xlink:href="#DejaVuSans-72" x="244.677734"/>
      <use xlink:href="#DejaVuSans-51" x="285.791016"/>
      <use xlink:href="#DejaVuSans-75" x="364.501953"/>
      <use xlink:href="#DejaVuSans-65" x="427.880859"/>
      <use xlink:href="#DejaVuSans-75" x="489.404297"/>
      <use xlink:href="#DejaVuSans-65" x="552.783203"/>
      <use xlink:href="#DejaVuSans-54" x="614.306641"/>
      <use xlink:href="#DejaVuSans-69" x="672.265625"/>
      <use xlink:href="#DejaVuSans-6d" x="700.048828"/>
      <use xlink:href="#DejaVuSans-65" x="797.460938"/>
      <use xlink:href="#DejaVuSans-72" x="858.984375"/>
     </g>
    </g>
    <g id="line2d_26">
     <path d="M 72.2 83.052813 
L 82.2 83.052813 
L 92.2 83.052813 
" style="fill: none"/>
     <g>
      <use xlink:href="#m4ef1430e91" x="82.2" y="83.052813" style="fill: #d62728; stroke: #d62728; stroke-linejoin: miter"/>
     </g>
    </g>
    <g id="text_17">
     <!-- ThreadPoolTimer -->
     <g transform="translate(100.2 86.552813)scale(0.1 -0.1)">
      <defs>
       <path id="DejaVuSans-68" d="M 3513 2113 
L 3513 0 
L 2938 0 
L 2938 2094 
Q 2938 2591 2744 2837 
Q 2550 3084 2163 3084 
Q 1697 3084 1428 2787 
Q 1159 2491 1159 1978 
L 1159 0 
L 581 0 
L 581 4863 
L 1159 4863 
L 1159 2956 
Q 1366 3272 1645 3428 
Q 1925 3584 2291 3584 
Q 2894 3584 3203 3211 
Q 3513 2838 3513 2113 
z
" transform="scale(0.015625)"/>
       <path id="DejaVuSans-50" d="M 1259 4147 
L 1259 2394 
L 2053 2394 
Q 2494 2394 2734 2622 
Q 2975 2850 2975 3272 
Q 2975 3691 2734 3919 
Q 2494 4147 2053 4147 
L 1259 4147 
z
M 628 4666 
L 2053 4666 
Q 2838 4666 3239 4311 
Q 3641 3956 3641 3272 
Q 3641 2581 3239 2228 
Q 2838 1875 2053 1875 
L 1259 1875 
L 1259 0 
L 628 0 
L 628 4666 
z
" transform="scale(0.015625)"/>
      </defs>
      <use xlink:href="#DejaVuSans-54"/>
      <use xlink:href="#DejaVuSans-68" x="61.083984"/>
      <use xlink:href="#DejaVuSans-72" x="124.462891"/>
      <use xlink:href="#DejaVuSans-65" x="163.326172"/>
      <use xlink:href="#DejaVuSans-61" x="224.849609"/>
      <use xlink:href="#DejaVuSans-64" x="286.128906"/>
      <use xlink:href="#DejaVuSans-50" x="349.605469"/>
      <use xlink:href="#DejaVuSans-6f" x="406.283203"/>
      <use xlink:href="#DejaVuSans-6f" x="467.464844"/>
      <use xlink:href="#DejaVuSans-6c" x="528.646484"/>
      <use xlink:href="#DejaVuSans-54" x="556.429688"/>
      <use xlink:href="#DejaVuSans-69" x="614.388672"/>
      <use xlink:href="#DejaVuSans-6d" x="642.171875"/>
      <use xlink:href="#DejaVuSans-65" x="739.583984"/>
      <use xlink:href="#DejaVuSans-72" x="801.107422"/>
     </g>
    </g>
    <g id="line2d_27">
     <path d="M 72.2 97.730937 
L 82.2 97.730937 
L 92.2 97.730937 
" style="fill: none"/>
     <g>
      <use xlink:href="#mb2d0eb7722" x="82.2" y="97.730937" style="fill: #9467bd; stroke: #9467bd; stroke-linejoin: miter"/>
     </g>
    </g>
    <g id="text_18">
     <!-- WaitableTimer -->
     <g transform="translate(100.2 101.230937)scale(0.1 -0.1)">
      <defs>
       <path id="DejaVuSans-57" d="M 213 4666 
L 850 4666 
L 1831 722 
L 2809 4666 
L 3519 4666 
L 4500 722 
L 5478 4666 
L 6119 4666 
L 4947 0 
L 4153 0 
L 3169 4050 
L 2175 0 
L 1381 0 
L 213 4666 
z
" transform="scale(0.015625)"/>
       <path id="DejaVuSans-62" d="M 3116 1747 
Q 3116 2381 2855 2742 
Q 2594 3103 2138 3103 
Q 1681 3103 1420 2742 
Q 1159 2381 1159 1747 
Q 1159 1113 1420 752 
Q 1681 391 2138 391 
Q 2594 391 2855 752 
Q 3116 1113 3116 1747 
z
M 1159 2969 
Q 1341 3281 1617 3432 
Q 1894 3584 2278 3584 
Q 2916 3584 3314 3078 
Q 3713 2572 3713 1747 
Q 3713 922 3314 415 
Q 2916 -91 2278 -91 
Q 1894 -91 1617 61 
Q 1341 213 1159 525 
L 1159 0 
L 581 0 
L 581 4863 
L 1159 4863 
L 1159 2969 
z
" transform="scale(0.015625)"/>
      </defs>
      <use xlink:href="#DejaVuSans-57"/>
      <use xlink:href="#DejaVuSans-61" x="92.501953"/>
      <use xlink:href="#DejaVuSans-69" x="153.78125"/>
      <use xlink:href="#DejaVuSans-74" x="181.564453"/>
      <use xlink:href="#DejaVuSans-61" x="220.773438"/>
      <use xlink:href="#DejaVuSans-62" x="282.052734"/>
      <use xlink:href="#DejaVuSans-6c" x="345.529297"/>
      <use xlink:href="#DejaVuSans-65" x="373.3125"/>
      <use xlink:href="#DejaVuSans-54" x="434.835938"/>
      <use xlink:href="#DejaVuSans-69" x="492.794922"/>
      <use xlink:href="#DejaVuSans-6d" x="520.578125"/>
      <use xlink:href="#DejaVuSans-65" x="617.990234"/>
      <use xlink:href="#DejaVuSans-72" x="679.513672"/>
     </g>
    </g>
    <g id="line2d_28">
     <path d="M 72.2 112.409063 
L 82.2 112.409063 
L 92.2 112.409063 
" style="fill: none"/>
     <g>
      <use xlink:href="#m5831b618b6" x="82.2" y="112.409063" style="fill: #8c564b; stroke: #8c564b; stroke-linejoin: miter"/>
     </g>
    </g>
    <g id="text_19">
     <!-- PerformanceCounterSoftSleepTimer -->
     <g transform="translate(100.2 115.909063)scale(0.1 -0.1)">
      <defs>
       <path id="DejaVuSans-66" d="M 2375 4863 
L 2375 4384 
L 1825 4384 
Q 1516 4384 1395 4259 
Q 1275 4134 1275 3809 
L 1275 3500 
L 2222 3500 
L 2222 3053 
L 1275 3053 
L 1275 0 
L 697 0 
L 697 3053 
L 147 3053 
L 147 3500 
L 697 3500 
L 697 3744 
Q 697 4328 969 4595 
Q 1241 4863 1831 4863 
L 2375 4863 
z
" transform="scale(0.015625)"/>
       <path id="DejaVuSans-63" d="M 3122 3366 
L 3122 2828 
Q 2878 2963 2633 3030 
Q 2388 3097 2138 3097 
Q 1578 3097 1268 2742 
Q 959 2388 959 1747 
Q 959 1106 1268 751 
Q 1578 397 2138 397 
Q 2388 397 2633 464 
Q 2878 531 3122 666 
L 3122 134 
Q 2881 22 2623 -34 
Q 2366 -91 2075 -91 
Q 1284 -91 818 406 
Q 353 903 353 1747 
Q 353 2603 823 3093 
Q 1294 3584 2113 3584 
Q 2378 3584 2631 3529 
Q 2884 3475 3122 3366 
z
" transform="scale(0.015625)"/>
       <path id="DejaVuSans-43" d="M 4122 4306 
L 4122 3641 
Q 3803 3938 3442 4084 
Q 3081 4231 2675 4231 
Q 1875 4231 1450 3742 
Q 1025 3253 1025 2328 
Q 1025 1406 1450 917 
Q 1875 428 2675 428 
Q 3081 428 3442 575 
Q 3803 722 4122 1019 
L 4122 359 
Q 3791 134 3420 21 
Q 3050 -91 2638 -91 
Q 1578 -91 968 557 
Q 359 1206 359 2328 
Q 359 3453 968 4101 
Q 1578 4750 2638 4750 
Q 3056 4750 3426 4639 
Q 3797 4528 4122 4306 
z
" transform="scale(0.015625)"/>
      </defs>
      <use xlink:href="#DejaVuSans-50"/>
      <use xlink:href="#DejaVuSans-65" x="56.677734"/>
      <use xlink:href="#DejaVuSans-72" x="118.201172"/>
      <use xlink:href="#DejaVuSans-66" x="159.314453"/>
      <use xlink:href="#DejaVuSans-6f" x="194.519531"/>
      <use xlink:href="#DejaVuSans-72" x="255.701172"/>
      <use xlink:href="#DejaVuSans-6d" x="295.064453"/>
      <use xlink:href="#DejaVuSans-61" x="392.476562"/>
      <use xlink:href="#DejaVuSans-6e" x="453.755859"/>
      <use xlink:href="#DejaVuSans-63" x="517.134766"/>
      <use xlink:href="#DejaVuSans-65" x="572.115234"/>
      <use xlink:href="#DejaVuSans-43" x="633.638672"/>
      <use xlink:href="#DejaVuSans-6f" x="703.462891"/>
      <use xlink:href="#DejaVuSans-75" x="764.644531"/>
      <use xlink:href="#DejaVuSans-6e" x="828.023438"/>
      <use xlink:href="#DejaVuSans-74" x="891.402344"/>
      <use xlink:href="#DejaVuSans-65" x="930.611328"/>
      <use xlink:href="#DejaVuSans-72" x="992.134766"/>
      <use xlink:href="#DejaVuSans-53" x="1033.248047"/>
      <use xlink:href="#DejaVuSans-6f" x="1096.724609"/>
      <use xlink:href="#DejaVuSans-66" x="1157.90625"/>
      <use xlink:href="#DejaVuSans-74" x="1191.361328"/>
      <use xlink:href="#DejaVuSans-53" x="1230.570312"/>
      <use xlink:href="#DejaVuSans-6c" x="1294.046875"/>
      <use xlink:href="#DejaVuSans-65" x="1321.830078"/>
      <use xlink:href="#DejaVuSans-65" x="1383.353516"/>
      <use xlink:href="#DejaVuSans-70" x="1444.876953"/>
      <use xlink:href="#DejaVuSans-54" x="1508.353516"/>
      <use xlink:href="#DejaVuSans-69" x="1566.3125"/>
      <use xlink:href="#DejaVuSans-6d" x="1594.095703"/>
      <use xlink:href="#DejaVuSans-65" x="1691.507812"/>
      <use xlink:href="#DejaVuSans-72" x="1753.03125"/>
     </g>
    </g>
   </g>
  </g>
 </g>
 <defs>
  <clipPath id="peb647abdd3">
   <rect x="63.2" y="25.92" width="358" height="365.08"/>
  </clipPath>
 </defs>
</svg>
