<?xml version="1.0" encoding="utf-8" standalone="no"?>
<!DOCTYPE svg PUBLIC "-//W3C//DTD SVG 1.1//EN"
  "http://www.w3.org/Graphics/SVG/1.1/DTD/svg11.dtd">
<svg xmlns:xlink="http://www.w3.org/1999/xlink" width="432pt" height="432pt" viewBox="0 0 432 432" xmlns="http://www.w3.org/2000/svg" version="1.1">
 <metadata>
  <rdf:RDF xmlns:dc="http://purl.org/dc/elements/1.1/" xmlns:cc="http://creativecommons.org/ns#" xmlns:rdf="http://www.w3.org/1999/02/22-rdf-syntax-ns#">
   <cc:Work>
    <dc:type rdf:resource="http://purl.org/dc/dcmitype/StillImage"/>
    <dc:date>2022-08-03T16:02:11.339254</dc:date>
    <dc:format>image/svg+xml</dc:format>
    <dc:creator>
     <cc:Agent>
      <dc:title>Matplotlib v3.5.1, https://matplotlib.org/</dc:title>
     </cc:Agent>
    </dc:creator>
   </cc:Work>
  </rdf:RDF>
 </metadata>
 <defs>
  <style type="text/css">*{stroke-linejoin: round; stroke-linecap: butt}</style>
 </defs>
 <g id="figure_1">
  <g id="patch_1">
   <path d="M 0 432 
L 432 432 
L 432 0 
L 0 0 
z
" style="fill: #ffffff"/>
  </g>
  <g id="axes_1">
   <g id="patch_2">
    <path d="M 63.2 391 
L 421.2 391 
L 421.2 25.92 
L 63.2 25.92 
z
" style="fill: #ffffff"/>
   </g>
   <g id="matplotlib.axis_1">
    <g id="xtick_1">
     <g id="line2d_1">
      <defs>
       <path id="m6094c350a9" d="M 0 0 
L 0 3.5 
" style="stroke: #000000; stroke-width: 0.8"/>
      </defs>
      <g>
       <use xlink:href="#m6094c350a9" x="63.2" y="391" style="stroke: #000000; stroke-width: 0.8"/>
      </g>
     </g>
     <g id="text_1">
      <!-- 0 -->
      <g transform="translate(60.01875 405.598437)scale(0.1 -0.1)">
       <defs>
        <path id="DejaVuSans-30" d="M 2034 4250 
Q 1547 4250 1301 3770 
Q 1056 3291 1056 2328 
Q 1056 1369 1301 889 
Q 1547 409 2034 409 
Q 2525 409 2770 889 
Q 3016 1369 3016 2328 
Q 3016 3291 2770 3770 
Q 2525 4250 2034 4250 
z
M 2034 4750 
Q 2819 4750 3233 4129 
Q 3647 3509 3647 2328 
Q 3647 1150 3233 529 
Q 2819 -91 2034 -91 
Q 1250 -91 836 529 
Q 422 1150 422 2328 
Q 422 3509 836 4129 
Q 1250 4750 2034 4750 
z
" transform="scale(0.015625)"/>
       </defs>
       <use xlink:href="#DejaVuSans-30"/>
      </g>
     </g>
    </g>
    <g id="xtick_2">
     <g id="line2d_2">
      <g>
       <use xlink:href="#m6094c350a9" x="134.871672" y="391" style="stroke: #000000; stroke-width: 0.8"/>
      </g>
     </g>
     <g id="text_2">
      <!-- 200 -->
      <g transform="translate(125.327922 405.598437)scale(0.1 -0.1)">
       <defs>
        <path id="DejaVuSans-32" d="M 1228 531 
L 3431 531 
L 3431 0 
L 469 0 
L 469 531 
Q 828 903 1448 1529 
Q 2069 2156 2228 2338 
Q 2531 2678 2651 2914 
Q 2772 3150 2772 3378 
Q 2772 3750 2511 3984 
Q 2250 4219 1831 4219 
Q 1534 4219 1204 4116 
Q 875 4013 500 3803 
L 500 4441 
Q 881 4594 1212 4672 
Q 1544 4750 1819 4750 
Q 2544 4750 2975 4387 
Q 3406 4025 3406 3419 
Q 3406 3131 3298 2873 
Q 3191 2616 2906 2266 
Q 2828 2175 2409 1742 
Q 1991 1309 1228 531 
z
" transform="scale(0.015625)"/>
       </defs>
       <use xlink:href="#DejaVuSans-32"/>
       <use xlink:href="#DejaVuSans-30" x="63.623047"/>
       <use xlink:href="#DejaVuSans-30" x="127.246094"/>
      </g>
     </g>
    </g>
    <g id="xtick_3">
     <g id="line2d_3">
      <g>
       <use xlink:href="#m6094c350a9" x="206.543343" y="391" style="stroke: #000000; stroke-width: 0.8"/>
      </g>
     </g>
     <g id="text_3">
      <!-- 400 -->
      <g transform="translate(196.999593 405.598437)scale(0.1 -0.1)">
       <defs>
        <path id="DejaVuSans-34" d="M 2419 4116 
L 825 1625 
L 2419 1625 
L 2419 4116 
z
M 2253 4666 
L 3047 4666 
L 3047 1625 
L 3713 1625 
L 3713 1100 
L 3047 1100 
L 3047 0 
L 2419 0 
L 2419 1100 
L 313 1100 
L 313 1709 
L 2253 4666 
z
" transform="scale(0.015625)"/>
       </defs>
       <use xlink:href="#DejaVuSans-34"/>
       <use xlink:href="#DejaVuSans-30" x="63.623047"/>
       <use xlink:href="#DejaVuSans-30" x="127.246094"/>
      </g>
     </g>
    </g>
    <g id="xtick_4">
     <g id="line2d_4">
      <g>
       <use xlink:href="#m6094c350a9" x="278.215015" y="391" style="stroke: #000000; stroke-width: 0.8"/>
      </g>
     </g>
     <g id="text_4">
      <!-- 600 -->
      <g transform="translate(268.671265 405.598437)scale(0.1 -0.1)">
       <defs>
        <path id="DejaVuSans-36" d="M 2113 2584 
Q 1688 2584 1439 2293 
Q 1191 2003 1191 1497 
Q 1191 994 1439 701 
Q 1688 409 2113 409 
Q 2538 409 2786 701 
Q 3034 994 3034 1497 
Q 3034 2003 2786 2293 
Q 2538 2584 2113 2584 
z
M 3366 4563 
L 3366 3988 
Q 3128 4100 2886 4159 
Q 2644 4219 2406 4219 
Q 1781 4219 1451 3797 
Q 1122 3375 1075 2522 
Q 1259 2794 1537 2939 
Q 1816 3084 2150 3084 
Q 2853 3084 3261 2657 
Q 3669 2231 3669 1497 
Q 3669 778 3244 343 
Q 2819 -91 2113 -91 
Q 1303 -91 875 529 
Q 447 1150 447 2328 
Q 447 3434 972 4092 
Q 1497 4750 2381 4750 
Q 2619 4750 2861 4703 
Q 3103 4656 3366 4563 
z
" transform="scale(0.015625)"/>
       </defs>
       <use xlink:href="#DejaVuSans-36"/>
       <use xlink:href="#DejaVuSans-30" x="63.623047"/>
       <use xlink:href="#DejaVuSans-30" x="127.246094"/>
      </g>
     </g>
    </g>
    <g id="xtick_5">
     <g id="line2d_5">
      <g>
       <use xlink:href="#m6094c350a9" x="349.886687" y="391" style="stroke: #000000; stroke-width: 0.8"/>
      </g>
     </g>
     <g id="text_5">
      <!-- 800 -->
      <g transform="translate(340.342937 405.598437)scale(0.1 -0.1)">
       <defs>
        <path id="DejaVuSans-38" d="M 2034 2216 
Q 1584 2216 1326 1975 
Q 1069 1734 1069 1313 
Q 1069 891 1326 650 
Q 1584 409 2034 409 
Q 2484 409 2743 651 
Q 3003 894 3003 1313 
Q 3003 1734 2745 1975 
Q 2488 2216 2034 2216 
z
M 1403 2484 
Q 997 2584 770 2862 
Q 544 3141 544 3541 
Q 544 4100 942 4425 
Q 1341 4750 2034 4750 
Q 2731 4750 3128 4425 
Q 3525 4100 3525 3541 
Q 3525 3141 3298 2862 
Q 3072 2584 2669 2484 
Q 3125 2378 3379 2068 
Q 3634 1759 3634 1313 
Q 3634 634 3220 271 
Q 2806 -91 2034 -91 
Q 1263 -91 848 271 
Q 434 634 434 1313 
Q 434 1759 690 2068 
Q 947 2378 1403 2484 
z
M 1172 3481 
Q 1172 3119 1398 2916 
Q 1625 2713 2034 2713 
Q 2441 2713 2670 2916 
Q 2900 3119 2900 3481 
Q 2900 3844 2670 4047 
Q 2441 4250 2034 4250 
Q 1625 4250 1398 4047 
Q 1172 3844 1172 3481 
z
" transform="scale(0.015625)"/>
       </defs>
       <use xlink:href="#DejaVuSans-38"/>
       <use xlink:href="#DejaVuSans-30" x="63.623047"/>
       <use xlink:href="#DejaVuSans-30" x="127.246094"/>
      </g>
     </g>
    </g>
    <g id="text_6">
     <!-- Iteration -->
     <g transform="translate(220.991406 419.276563)scale(0.1 -0.1)">
      <defs>
       <path id="DejaVuSans-49" d="M 628 4666 
L 1259 4666 
L 1259 0 
L 628 0 
L 628 4666 
z
" transform="scale(0.015625)"/>
       <path id="DejaVuSans-74" d="M 1172 4494 
L 1172 3500 
L 2356 3500 
L 2356 3053 
L 1172 3053 
L 1172 1153 
Q 1172 725 1289 603 
Q 1406 481 1766 481 
L 2356 481 
L 2356 0 
L 1766 0 
Q 1100 0 847 248 
Q 594 497 594 1153 
L 594 3053 
L 172 3053 
L 172 3500 
L 594 3500 
L 594 4494 
L 1172 4494 
z
" transform="scale(0.015625)"/>
       <path id="DejaVuSans-65" d="M 3597 1894 
L 3597 1613 
L 953 1613 
Q 991 1019 1311 708 
Q 1631 397 2203 397 
Q 2534 397 2845 478 
Q 3156 559 3463 722 
L 3463 178 
Q 3153 47 2828 -22 
Q 2503 -91 2169 -91 
Q 1331 -91 842 396 
Q 353 884 353 1716 
Q 353 2575 817 3079 
Q 1281 3584 2069 3584 
Q 2775 3584 3186 3129 
Q 3597 2675 3597 1894 
z
M 3022 2063 
Q 3016 2534 2758 2815 
Q 2500 3097 2075 3097 
Q 1594 3097 1305 2825 
Q 1016 2553 972 2059 
L 3022 2063 
z
" transform="scale(0.015625)"/>
       <path id="DejaVuSans-72" d="M 2631 2963 
Q 2534 3019 2420 3045 
Q 2306 3072 2169 3072 
Q 1681 3072 1420 2755 
Q 1159 2438 1159 1844 
L 1159 0 
L 581 0 
L 581 3500 
L 1159 3500 
L 1159 2956 
Q 1341 3275 1631 3429 
Q 1922 3584 2338 3584 
Q 2397 3584 2469 3576 
Q 2541 3569 2628 3553 
L 2631 2963 
z
" transform="scale(0.015625)"/>
       <path id="DejaVuSans-61" d="M 2194 1759 
Q 1497 1759 1228 1600 
Q 959 1441 959 1056 
Q 959 750 1161 570 
Q 1363 391 1709 391 
Q 2188 391 2477 730 
Q 2766 1069 2766 1631 
L 2766 1759 
L 2194 1759 
z
M 3341 1997 
L 3341 0 
L 2766 0 
L 2766 531 
Q 2569 213 2275 61 
Q 1981 -91 1556 -91 
Q 1019 -91 701 211 
Q 384 513 384 1019 
Q 384 1609 779 1909 
Q 1175 2209 1959 2209 
L 2766 2209 
L 2766 2266 
Q 2766 2663 2505 2880 
Q 2244 3097 1772 3097 
Q 1472 3097 1187 3025 
Q 903 2953 641 2809 
L 641 3341 
Q 956 3463 1253 3523 
Q 1550 3584 1831 3584 
Q 2591 3584 2966 3190 
Q 3341 2797 3341 1997 
z
" transform="scale(0.015625)"/>
       <path id="DejaVuSans-69" d="M 603 3500 
L 1178 3500 
L 1178 0 
L 603 0 
L 603 3500 
z
M 603 4863 
L 1178 4863 
L 1178 4134 
L 603 4134 
L 603 4863 
z
" transform="scale(0.015625)"/>
       <path id="DejaVuSans-6f" d="M 1959 3097 
Q 1497 3097 1228 2736 
Q 959 2375 959 1747 
Q 959 1119 1226 758 
Q 1494 397 1959 397 
Q 2419 397 2687 759 
Q 2956 1122 2956 1747 
Q 2956 2369 2687 2733 
Q 2419 3097 1959 3097 
z
M 1959 3584 
Q 2709 3584 3137 3096 
Q 3566 2609 3566 1747 
Q 3566 888 3137 398 
Q 2709 -91 1959 -91 
Q 1206 -91 779 398 
Q 353 888 353 1747 
Q 353 2609 779 3096 
Q 1206 3584 1959 3584 
z
" transform="scale(0.015625)"/>
       <path id="DejaVuSans-6e" d="M 3513 2113 
L 3513 0 
L 2938 0 
L 2938 2094 
Q 2938 2591 2744 2837 
Q 2550 3084 2163 3084 
Q 1697 3084 1428 2787 
Q 1159 2491 1159 1978 
L 1159 0 
L 581 0 
L 581 3500 
L 1159 3500 
L 1159 2956 
Q 1366 3272 1645 3428 
Q 1925 3584 2291 3584 
Q 2894 3584 3203 3211 
Q 3513 2838 3513 2113 
z
" transform="scale(0.015625)"/>
      </defs>
      <use xlink:href="#DejaVuSans-49"/>
      <use xlink:href="#DejaVuSans-74" x="29.492188"/>
      <use xlink:href="#DejaVuSans-65" x="68.701172"/>
      <use xlink:href="#DejaVuSans-72" x="130.224609"/>
      <use xlink:href="#DejaVuSans-61" x="171.337891"/>
      <use xlink:href="#DejaVuSans-74" x="232.617188"/>
      <use xlink:href="#DejaVuSans-69" x="271.826172"/>
      <use xlink:href="#DejaVuSans-6f" x="299.609375"/>
      <use xlink:href="#DejaVuSans-6e" x="360.791016"/>
     </g>
    </g>
   </g>
   <g id="matplotlib.axis_2">
    <g id="ytick_1">
     <g id="line2d_6">
      <defs>
       <path id="ma2df2343f3" d="M 0 0 
L -3.5 0 
" style="stroke: #000000; stroke-width: 0.8"/>
      </defs>
      <g>
       <use xlink:href="#ma2df2343f3" x="63.2" y="391" style="stroke: #000000; stroke-width: 0.8"/>
      </g>
     </g>
     <g id="text_7">
      <!-- 0 -->
      <g transform="translate(49.8375 394.799219)scale(0.1 -0.1)">
       <use xlink:href="#DejaVuSans-30"/>
      </g>
     </g>
    </g>
    <g id="ytick_2">
     <g id="line2d_7">
      <g>
       <use xlink:href="#ma2df2343f3" x="63.2" y="336.183183" style="stroke: #000000; stroke-width: 0.8"/>
      </g>
     </g>
     <g id="text_8">
      <!-- 5000 -->
      <g transform="translate(30.75 339.982401)scale(0.1 -0.1)">
       <defs>
        <path id="DejaVuSans-35" d="M 691 4666 
L 3169 4666 
L 3169 4134 
L 1269 4134 
L 1269 2991 
Q 1406 3038 1543 3061 
Q 1681 3084 1819 3084 
Q 2600 3084 3056 2656 
Q 3513 2228 3513 1497 
Q 3513 744 3044 326 
Q 2575 -91 1722 -91 
Q 1428 -91 1123 -41 
Q 819 9 494 109 
L 494 744 
Q 775 591 1075 516 
Q 1375 441 1709 441 
Q 2250 441 2565 725 
Q 2881 1009 2881 1497 
Q 2881 1984 2565 2268 
Q 2250 2553 1709 2553 
Q 1456 2553 1204 2497 
Q 953 2441 691 2322 
L 691 4666 
z
" transform="scale(0.015625)"/>
       </defs>
       <use xlink:href="#DejaVuSans-35"/>
       <use xlink:href="#DejaVuSans-30" x="63.623047"/>
       <use xlink:href="#DejaVuSans-30" x="127.246094"/>
       <use xlink:href="#DejaVuSans-30" x="190.869141"/>
      </g>
     </g>
    </g>
    <g id="ytick_3">
     <g id="line2d_8">
      <g>
       <use xlink:href="#ma2df2343f3" x="63.2" y="281.366365" style="stroke: #000000; stroke-width: 0.8"/>
      </g>
     </g>
     <g id="text_9">
      <!-- 10000 -->
      <g transform="translate(24.3875 285.165584)scale(0.1 -0.1)">
       <defs>
        <path id="DejaVuSans-31" d="M 794 531 
L 1825 531 
L 1825 4091 
L 703 3866 
L 703 4441 
L 1819 4666 
L 2450 4666 
L 2450 531 
L 3481 531 
L 3481 0 
L 794 0 
L 794 531 
z
" transform="scale(0.015625)"/>
       </defs>
       <use xlink:href="#DejaVuSans-31"/>
       <use xlink:href="#DejaVuSans-30" x="63.623047"/>
       <use xlink:href="#DejaVuSans-30" x="127.246094"/>
       <use xlink:href="#DejaVuSans-30" x="190.869141"/>
       <use xlink:href="#DejaVuSans-30" x="254.492188"/>
      </g>
     </g>
    </g>
    <g id="ytick_4">
     <g id="line2d_9">
      <g>
       <use xlink:href="#ma2df2343f3" x="63.2" y="226.549548" style="stroke: #000000; stroke-width: 0.8"/>
      </g>
     </g>
     <g id="text_10">
      <!-- 15000 -->
      <g transform="translate(24.3875 230.348767)scale(0.1 -0.1)">
       <use xlink:href="#DejaVuSans-31"/>
       <use xlink:href="#DejaVuSans-35" x="63.623047"/>
       <use xlink:href="#DejaVuSans-30" x="127.246094"/>
       <use xlink:href="#DejaVuSans-30" x="190.869141"/>
       <use xlink:href="#DejaVuSans-30" x="254.492188"/>
      </g>
     </g>
    </g>
    <g id="ytick_5">
     <g id="line2d_10">
      <g>
       <use xlink:href="#ma2df2343f3" x="63.2" y="171.732731" style="stroke: #000000; stroke-width: 0.8"/>
      </g>
     </g>
     <g id="text_11">
      <!-- 20000 -->
      <g transform="translate(24.3875 175.531949)scale(0.1 -0.1)">
       <use xlink:href="#DejaVuSans-32"/>
       <use xlink:href="#DejaVuSans-30" x="63.623047"/>
       <use xlink:href="#DejaVuSans-30" x="127.246094"/>
       <use xlink:href="#DejaVuSans-30" x="190.869141"/>
       <use xlink:href="#DejaVuSans-30" x="254.492188"/>
      </g>
     </g>
    </g>
    <g id="ytick_6">
     <g id="line2d_11">
      <g>
       <use xlink:href="#ma2df2343f3" x="63.2" y="116.915913" style="stroke: #000000; stroke-width: 0.8"/>
      </g>
     </g>
     <g id="text_12">
      <!-- 25000 -->
      <g transform="translate(24.3875 120.715132)scale(0.1 -0.1)">
       <use xlink:href="#DejaVuSans-32"/>
       <use xlink:href="#DejaVuSans-35" x="63.623047"/>
       <use xlink:href="#DejaVuSans-30" x="127.246094"/>
       <use xlink:href="#DejaVuSans-30" x="190.869141"/>
       <use xlink:href="#DejaVuSans-30" x="254.492188"/>
      </g>
     </g>
    </g>
    <g id="ytick_7">
     <g id="line2d_12">
      <g>
       <use xlink:href="#ma2df2343f3" x="63.2" y="62.099096" style="stroke: #000000; stroke-width: 0.8"/>
      </g>
     </g>
     <g id="text_13">
      <!-- 30000 -->
      <g transform="translate(24.3875 65.898315)scale(0.1 -0.1)">
       <defs>
        <path id="DejaVuSans-33" d="M 2597 2516 
Q 3050 2419 3304 2112 
Q 3559 1806 3559 1356 
Q 3559 666 3084 287 
Q 2609 -91 1734 -91 
Q 1441 -91 1130 -33 
Q 819 25 488 141 
L 488 750 
Q 750 597 1062 519 
Q 1375 441 1716 441 
Q 2309 441 2620 675 
Q 2931 909 2931 1356 
Q 2931 1769 2642 2001 
Q 2353 2234 1838 2234 
L 1294 2234 
L 1294 2753 
L 1863 2753 
Q 2328 2753 2575 2939 
Q 2822 3125 2822 3475 
Q 2822 3834 2567 4026 
Q 2313 4219 1838 4219 
Q 1578 4219 1281 4162 
Q 984 4106 628 3988 
L 628 4550 
Q 988 4650 1302 4700 
Q 1616 4750 1894 4750 
Q 2613 4750 3031 4423 
Q 3450 4097 3450 3541 
Q 3450 3153 3228 2886 
Q 3006 2619 2597 2516 
z
" transform="scale(0.015625)"/>
       </defs>
       <use xlink:href="#DejaVuSans-33"/>
       <use xlink:href="#DejaVuSans-30" x="63.623047"/>
       <use xlink:href="#DejaVuSans-30" x="127.246094"/>
       <use xlink:href="#DejaVuSans-30" x="190.869141"/>
       <use xlink:href="#DejaVuSans-30" x="254.492188"/>
      </g>
     </g>
    </g>
    <g id="text_14">
     <!-- Time [ms] -->
     <g transform="translate(18.307812 233.659219)rotate(-90)scale(0.1 -0.1)">
      <defs>
       <path id="DejaVuSans-54" d="M -19 4666 
L 3928 4666 
L 3928 4134 
L 2272 4134 
L 2272 0 
L 1638 0 
L 1638 4134 
L -19 4134 
L -19 4666 
z
" transform="scale(0.015625)"/>
       <path id="DejaVuSans-6d" d="M 3328 2828 
Q 3544 3216 3844 3400 
Q 4144 3584 4550 3584 
Q 5097 3584 5394 3201 
Q 5691 2819 5691 2113 
L 5691 0 
L 5113 0 
L 5113 2094 
Q 5113 2597 4934 2840 
Q 4756 3084 4391 3084 
Q 3944 3084 3684 2787 
Q 3425 2491 3425 1978 
L 3425 0 
L 2847 0 
L 2847 2094 
Q 2847 2600 2669 2842 
Q 2491 3084 2119 3084 
Q 1678 3084 1418 2786 
Q 1159 2488 1159 1978 
L 1159 0 
L 581 0 
L 581 3500 
L 1159 3500 
L 1159 2956 
Q 1356 3278 1631 3431 
Q 1906 3584 2284 3584 
Q 2666 3584 2933 3390 
Q 3200 3197 3328 2828 
z
" transform="scale(0.015625)"/>
       <path id="DejaVuSans-20" transform="scale(0.015625)"/>
       <path id="DejaVuSans-5b" d="M 550 4863 
L 1875 4863 
L 1875 4416 
L 1125 4416 
L 1125 -397 
L 1875 -397 
L 1875 -844 
L 550 -844 
L 550 4863 
z
" transform="scale(0.015625)"/>
       <path id="DejaVuSans-73" d="M 2834 3397 
L 2834 2853 
Q 2591 2978 2328 3040 
Q 2066 3103 1784 3103 
Q 1356 3103 1142 2972 
Q 928 2841 928 2578 
Q 928 2378 1081 2264 
Q 1234 2150 1697 2047 
L 1894 2003 
Q 2506 1872 2764 1633 
Q 3022 1394 3022 966 
Q 3022 478 2636 193 
Q 2250 -91 1575 -91 
Q 1294 -91 989 -36 
Q 684 19 347 128 
L 347 722 
Q 666 556 975 473 
Q 1284 391 1588 391 
Q 1994 391 2212 530 
Q 2431 669 2431 922 
Q 2431 1156 2273 1281 
Q 2116 1406 1581 1522 
L 1381 1569 
Q 847 1681 609 1914 
Q 372 2147 372 2553 
Q 372 3047 722 3315 
Q 1072 3584 1716 3584 
Q 2034 3584 2315 3537 
Q 2597 3491 2834 3397 
z
" transform="scale(0.015625)"/>
       <path id="DejaVuSans-5d" d="M 1947 4863 
L 1947 -844 
L 622 -844 
L 622 -397 
L 1369 -397 
L 1369 4416 
L 622 4416 
L 622 4863 
L 1947 4863 
z
" transform="scale(0.015625)"/>
      </defs>
      <use xlink:href="#DejaVuSans-54"/>
      <use xlink:href="#DejaVuSans-69" x="57.958984"/>
      <use xlink:href="#DejaVuSans-6d" x="85.742188"/>
      <use xlink:href="#DejaVuSans-65" x="183.154297"/>
      <use xlink:href="#DejaVuSans-20" x="244.677734"/>
      <use xlink:href="#DejaVuSans-5b" x="276.464844"/>
      <use xlink:href="#DejaVuSans-6d" x="315.478516"/>
      <use xlink:href="#DejaVuSans-73" x="412.890625"/>
      <use xlink:href="#DejaVuSans-5d" x="464.990234"/>
     </g>
    </g>
   </g>
   <g id="line2d_13">
    <path d="M 63.2 391 
L 64.633433 389.623801 
L 65.35015 388.757654 
L 72.517317 381.583302 
L 73.234034 380.724618 
L 78.967768 374.997502 
L 79.684484 374.141946 
L 81.834635 372.083733 
L 82.551351 371.213767 
L 85.776577 368.055442 
L 86.493293 367.192925 
L 89.718519 364.045658 
L 90.435235 363.167181 
L 96.885686 356.733083 
L 97.602402 355.871399 
L 100.827628 352.715014 
L 101.544344 351.835077 
L 108.353153 345.039296 
L 109.06987 344.182574 
L 111.22002 342.112107 
L 111.936737 341.236958 
L 118.387187 334.81078 
L 119.103904 333.933657 
L 121.612412 331.51216 
L 122.329129 330.641623 
L 125.554354 327.493923 
L 126.271071 326.639562 
L 129.496296 323.469001 
L 130.213013 322.593706 
L 134.513313 318.243463 
L 144.547347 308.134208 
L 145.264064 307.252151 
L 159.598398 292.774055 
L 160.315115 291.907223 
L 162.823624 289.487372 
L 163.54034 288.592965 
L 171.424224 280.723139 
L 172.140941 279.871373 
L 175.007808 277.070543 
L 175.724525 276.199834 
L 182.891692 269.030649 
L 183.608408 268.17598 
L 186.116917 265.749506 
L 186.833634 264.878668 
L 188.983784 262.800848 
L 189.700501 261.946623 
L 192.925726 258.797967 
L 193.642442 257.926455 
L 196.150951 255.515795 
L 196.867668 254.633959 
L 203.676476 247.832482 
L 204.393193 246.954201 
L 210.843644 240.52085 
L 211.56036 239.658116 
L 214.068869 237.236183 
L 214.785586 236.347814 
L 220.877678 230.288729 
L 221.594394 229.422438 
L 228.403203 222.62737 
L 229.11992 221.761989 
L 231.628428 219.318672 
L 232.345145 218.444988 
L 237.362162 213.418152 
L 242.379179 208.369794 
L 243.095896 207.49377 
L 248.82963 201.753247 
L 249.904705 200.683843 
L 250.621421 199.811079 
L 253.846647 196.682641 
L 254.563363 195.801584 
L 261.730531 188.618055 
L 262.447247 187.764353 
L 265.314114 184.983912 
L 266.030831 184.100194 
L 272.122923 178.02228 
L 272.83964 177.152076 
L 276.423223 173.497079 
L 278.931732 171.022744 
L 280.006807 169.998067 
L 280.723524 169.134731 
L 283.59039 166.343153 
L 284.307107 165.460761 
L 291.474274 158.295862 
L 292.190991 157.448404 
L 294.699499 155.002575 
L 295.416216 154.120987 
L 302.583383 146.973761 
L 303.3001 146.129441 
L 305.808609 143.690011 
L 306.525325 142.792995 
L 313.692492 135.620351 
L 314.409209 134.777549 
L 317.992793 131.266342 
L 318.70951 130.39059 
L 320.85966 128.335257 
L 321.576376 127.469404 
L 324.801602 124.304652 
L 325.518318 123.446113 
L 328.026827 121.025706 
L 328.743544 120.145473 
L 333.043844 115.794667 
L 339.494294 109.334739 
L 340.211011 108.46754 
L 343.794595 104.805968 
L 350.603403 98.005826 
L 351.32012 97.122935 
L 358.487287 89.957976 
L 359.204004 89.090009 
L 361.354154 87.035443 
L 362.070871 86.160736 
L 368.87968 79.354487 
L 369.596396 78.479972 
L 374.971772 73.084408 
L 380.347147 67.661459 
L 402.923724 44.622009 
L 403.282082 44.283529 
L 403.998799 43.412418 
L 410.449249 36.974028 
L 411.165966 36.120322 
L 414.032833 33.322874 
L 414.74955 32.444409 
L 420.483283 26.722191 
L 421.2 26.011251 
L 421.2 26.011251 
" clip-path="url(#pc7feb04f16)" style="fill: none; stroke: #1f77b4; stroke-width: 1.5; stroke-linecap: square"/>
   </g>
   <g id="line2d_14">
    <path d="M 63.2 391 
L 99.035836 354.485608 
L 134.871672 317.884098 
L 170.707508 281.413873 
L 206.543343 244.89459 
L 242.379179 208.369794 
L 278.215015 171.719628 
L 314.050851 135.109091 
L 349.886687 98.709021 
L 385.722523 62.069473 
" clip-path="url(#pc7feb04f16)" style="fill: none"/>
    <defs>
     <path id="mc5481380c2" d="M -5 5 
L 5 5 
L 5 -5 
L -5 -5 
z
" style="stroke: #1f77b4; stroke-linejoin: miter"/>
    </defs>
    <g clip-path="url(#pc7feb04f16)">
     <use xlink:href="#mc5481380c2" x="63.2" y="391" style="fill: #1f77b4; stroke: #1f77b4; stroke-linejoin: miter"/>
     <use xlink:href="#mc5481380c2" x="99.035836" y="354.485608" style="fill: #1f77b4; stroke: #1f77b4; stroke-linejoin: miter"/>
     <use xlink:href="#mc5481380c2" x="134.871672" y="317.884098" style="fill: #1f77b4; stroke: #1f77b4; stroke-linejoin: miter"/>
     <use xlink:href="#mc5481380c2" x="170.707508" y="281.413873" style="fill: #1f77b4; stroke: #1f77b4; stroke-linejoin: miter"/>
     <use xlink:href="#mc5481380c2" x="206.543343" y="244.89459" style="fill: #1f77b4; stroke: #1f77b4; stroke-linejoin: miter"/>
     <use xlink:href="#mc5481380c2" x="242.379179" y="208.369794" style="fill: #1f77b4; stroke: #1f77b4; stroke-linejoin: miter"/>
     <use xlink:href="#mc5481380c2" x="278.215015" y="171.719628" style="fill: #1f77b4; stroke: #1f77b4; stroke-linejoin: miter"/>
     <use xlink:href="#mc5481380c2" x="314.050851" y="135.109091" style="fill: #1f77b4; stroke: #1f77b4; stroke-linejoin: miter"/>
     <use xlink:href="#mc5481380c2" x="349.886687" y="98.709021" style="fill: #1f77b4; stroke: #1f77b4; stroke-linejoin: miter"/>
     <use xlink:href="#mc5481380c2" x="385.722523" y="62.069473" style="fill: #1f77b4; stroke: #1f77b4; stroke-linejoin: miter"/>
    </g>
   </g>
   <g id="line2d_15">
    <path d="M 63.2 391 
L 366.371171 84.92479 
L 387.872673 63.213908 
L 421.2 29.56699 
L 421.2 29.56699 
" clip-path="url(#pc7feb04f16)" style="fill: none; stroke: #ff7f0e; stroke-width: 1.5; stroke-linecap: square"/>
   </g>
   <g id="line2d_16">
    <path d="M 63.2 391 
L 99.035836 354.816977 
L 134.871672 318.638287 
L 170.707508 282.462601 
L 206.543343 246.282594 
L 242.379179 210.099765 
L 278.215015 173.921744 
L 314.050851 137.742675 
L 349.886687 101.566309 
L 385.722523 65.388147 
" clip-path="url(#pc7feb04f16)" style="fill: none"/>
    <defs>
     <path id="m763fae22b2" d="M 0 4.5 
C 1.193414 4.5 2.338109 4.025852 3.181981 3.181981 
C 4.025852 2.338109 4.5 1.193414 4.5 0 
C 4.5 -1.193414 4.025852 -2.338109 3.181981 -3.181981 
C 2.338109 -4.025852 1.193414 -4.5 0 -4.5 
C -1.193414 -4.5 -2.338109 -4.025852 -3.181981 -3.181981 
C -4.025852 -2.338109 -4.5 -1.193414 -4.5 0 
C -4.5 1.193414 -4.025852 2.338109 -3.181981 3.181981 
C -2.338109 4.025852 -1.193414 4.5 0 4.5 
z
" style="stroke: #ff7f0e"/>
    </defs>
    <g clip-path="url(#pc7feb04f16)">
     <use xlink:href="#m763fae22b2" x="63.2" y="391" style="fill: #ff7f0e; stroke: #ff7f0e"/>
     <use xlink:href="#m763fae22b2" x="99.035836" y="354.816977" style="fill: #ff7f0e; stroke: #ff7f0e"/>
     <use xlink:href="#m763fae22b2" x="134.871672" y="318.638287" style="fill: #ff7f0e; stroke: #ff7f0e"/>
     <use xlink:href="#m763fae22b2" x="170.707508" y="282.462601" style="fill: #ff7f0e; stroke: #ff7f0e"/>
     <use xlink:href="#m763fae22b2" x="206.543343" y="246.282594" style="fill: #ff7f0e; stroke: #ff7f0e"/>
     <use xlink:href="#m763fae22b2" x="242.379179" y="210.099765" style="fill: #ff7f0e; stroke: #ff7f0e"/>
     <use xlink:href="#m763fae22b2" x="278.215015" y="173.921744" style="fill: #ff7f0e; stroke: #ff7f0e"/>
     <use xlink:href="#m763fae22b2" x="314.050851" y="137.742675" style="fill: #ff7f0e; stroke: #ff7f0e"/>
     <use xlink:href="#m763fae22b2" x="349.886687" y="101.566309" style="fill: #ff7f0e; stroke: #ff7f0e"/>
     <use xlink:href="#m763fae22b2" x="385.722523" y="65.388147" style="fill: #ff7f0e; stroke: #ff7f0e"/>
    </g>
   </g>
   <g id="line2d_17">
    <path d="M 63.2 391 
L 63.916717 390.142558 
L 68.217017 385.928432 
L 68.933734 385.05117 
L 74.309109 379.645645 
L 87.568368 366.388435 
L 88.285085 365.528606 
L 93.302102 360.604177 
L 94.018819 359.761219 
L 98.319119 355.542227 
L 99.035836 354.679362 
L 102.977778 350.832889 
L 103.694494 349.957408 
L 106.561361 347.213279 
L 107.278078 346.335969 
L 111.936737 341.785661 
L 112.653453 340.92101 
L 118.387187 335.18055 
L 121.254054 332.335584 
L 122.329129 331.301023 
L 123.045846 330.44737 
L 126.987788 326.592771 
L 127.704505 325.725483 
L 133.07988 320.43685 
L 133.796597 319.581639 
L 136.305105 317.066458 
L 141.68048 311.68243 
L 151.356156 301.994749 
L 152.072873 301.133087 
L 156.731532 296.570009 
L 157.448248 295.715811 
L 161.39019 291.864999 
L 162.106907 291.002898 
L 167.482282 285.71757 
L 168.198999 284.868646 
L 171.782583 281.372608 
L 172.499299 280.497542 
L 189.700501 263.279681 
L 190.417217 262.409997 
L 194.000801 258.945397 
L 194.717518 258.056327 
L 204.393193 248.444555 
L 205.10991 247.570683 
L 209.051852 243.747571 
L 209.768569 242.889295 
L 213.710511 239.041357 
L 214.427227 238.184996 
L 217.652452 235.058088 
L 218.369169 234.181462 
L 227.328128 225.299286 
L 228.044845 224.426306 
L 237.003804 215.519844 
L 237.720521 214.662551 
L 241.304104 211.178684 
L 242.020821 210.311006 
L 248.112913 204.299464 
L 248.82963 203.443895 
L 253.488288 198.866085 
L 254.205005 198.015099 
L 257.788589 194.544769 
L 258.505305 193.66376 
L 272.122923 180.07529 
L 272.83964 179.207979 
L 277.13994 175.010126 
L 277.856657 174.1546 
L 281.798599 170.306076 
L 282.515315 169.426528 
L 287.890691 164.15164 
L 288.607407 163.288447 
L 292.549349 159.444775 
L 293.266066 158.56786 
L 301.14995 150.756843 
L 301.866667 149.896644 
L 306.525325 145.333351 
L 307.242042 144.475356 
L 310.825626 140.993681 
L 311.542342 140.121534 
L 315.125926 136.655673 
L 315.842643 135.785538 
L 321.218018 130.508271 
L 321.934735 129.630323 
L 333.043844 118.563129 
L 333.760561 117.688959 
L 336.985786 114.58677 
L 337.702503 113.704383 
L 347.736537 103.734583 
L 348.453253 102.86067 
L 362.070871 89.265105 
L 362.787588 88.380862 
L 367.087888 84.199931 
L 367.804605 83.318121 
L 375.688488 75.511214 
L 376.405205 74.640213 
L 381.063864 70.066249 
L 381.780581 69.221831 
L 385.722523 65.385018 
L 386.439239 64.513142 
L 391.097898 59.953452 
L 391.814615 59.078373 
L 395.756557 55.256994 
L 396.473273 54.376753 
L 404.357157 46.571218 
L 405.073874 45.714735 
L 409.374174 41.499949 
L 410.090891 40.64341 
L 415.107908 35.710752 
L 415.824625 34.853631 
L 418.333133 32.41649 
L 419.766567 31.013782 
L 420.483283 30.130274 
L 421.2 29.441078 
L 421.2 29.441078 
" clip-path="url(#pc7feb04f16)" style="fill: none; stroke: #2ca02c; stroke-width: 1.5; stroke-linecap: square"/>
   </g>
   <g id="line2d_18">
    <path d="M 63.2 391 
L 99.035836 354.679362 
L 134.871672 318.543959 
L 170.707508 282.439834 
L 206.543343 246.168806 
L 242.379179 209.966123 
L 278.215015 173.813005 
L 314.050851 137.707325 
L 349.886687 101.438001 
L 385.722523 65.385018 
" clip-path="url(#pc7feb04f16)" style="fill: none"/>
    <defs>
     <path id="me123b579c4" d="M 0 -4 
L -3.804226 -1.236068 
L -2.351141 3.236068 
L 2.351141 3.236068 
L 3.804226 -1.236068 
z
" style="stroke: #2ca02c; stroke-linejoin: miter"/>
    </defs>
    <g clip-path="url(#pc7feb04f16)">
     <use xlink:href="#me123b579c4" x="63.2" y="391" style="fill: #2ca02c; stroke: #2ca02c; stroke-linejoin: miter"/>
     <use xlink:href="#me123b579c4" x="99.035836" y="354.679362" style="fill: #2ca02c; stroke: #2ca02c; stroke-linejoin: miter"/>
     <use xlink:href="#me123b579c4" x="134.871672" y="318.543959" style="fill: #2ca02c; stroke: #2ca02c; stroke-linejoin: miter"/>
     <use xlink:href="#me123b579c4" x="170.707508" y="282.439834" style="fill: #2ca02c; stroke: #2ca02c; stroke-linejoin: miter"/>
     <use xlink:href="#me123b579c4" x="206.543343" y="246.168806" style="fill: #2ca02c; stroke: #2ca02c; stroke-linejoin: miter"/>
     <use xlink:href="#me123b579c4" x="242.379179" y="209.966123" style="fill: #2ca02c; stroke: #2ca02c; stroke-linejoin: miter"/>
     <use xlink:href="#me123b579c4" x="278.215015" y="173.813005" style="fill: #2ca02c; stroke: #2ca02c; stroke-linejoin: miter"/>
     <use xlink:href="#me123b579c4" x="314.050851" y="137.707325" style="fill: #2ca02c; stroke: #2ca02c; stroke-linejoin: miter"/>
     <use xlink:href="#me123b579c4" x="349.886687" y="101.438001" style="fill: #2ca02c; stroke: #2ca02c; stroke-linejoin: miter"/>
     <use xlink:href="#me123b579c4" x="385.722523" y="65.385018" style="fill: #2ca02c; stroke: #2ca02c; stroke-linejoin: miter"/>
    </g>
   </g>
   <g id="line2d_19">
    <path d="M 63.2 391 
L 63.916717 390.14138 
L 67.5003 386.6525 
L 68.217017 385.773656 
L 73.234034 380.861699 
L 73.950751 379.988687 
L 78.967768 374.922279 
L 87.926727 366.034792 
L 88.643443 365.163536 
L 89.001802 364.943534 
L 89.718519 364.08616 
L 103.694494 350.103589 
L 104.411211 349.249123 
L 108.711512 345.039132 
L 109.428228 344.169946 
L 112.295095 341.426368 
L 113.011812 340.554453 
L 121.970771 331.659702 
L 122.687487 330.800551 
L 126.629429 326.953705 
L 127.346146 326.094849 
L 131.646446 321.883721 
L 132.004805 321.529119 
L 132.721522 320.655845 
L 141.68048 311.758327 
L 142.397197 310.878844 
L 147.772573 305.611716 
L 148.489289 304.732761 
L 161.39019 291.855892 
L 162.106907 291.004947 
L 166.407207 286.793081 
L 167.123924 285.925843 
L 170.707508 282.460102 
L 171.424224 281.581519 
L 173.932733 279.109403 
L 176.082883 277.032208 
L 176.7996 276.147089 
L 190.417217 262.553075 
L 191.133934 261.706924 
L 194.717518 258.221887 
L 195.434234 257.345522 
L 201.167968 251.578774 
L 218.727528 233.975776 
L 219.444244 233.111835 
L 222.669469 229.99344 
L 223.386186 229.124326 
L 231.986787 220.571117 
L 232.345145 220.220921 
L 233.061862 219.343361 
L 247.396196 205.02546 
L 248.112913 204.172942 
L 250.97978 201.413473 
L 251.696496 200.524476 
L 264.955756 187.293369 
L 265.672472 186.442643 
L 273.197998 178.979921 
L 273.914715 178.10636 
L 297.566366 154.379431 
L 298.283083 153.501105 
L 317.992793 133.763198 
L 318.70951 132.902856 
L 322.651451 129.048838 
L 323.368168 128.1934 
L 327.668468 123.98959 
L 328.385185 123.111903 
L 333.043844 118.559652 
L 333.760561 117.686823 
L 336.985786 114.587962 
L 337.702503 113.712901 
L 347.378178 104.093717 
L 348.094895 103.232414 
L 352.395195 99.023356 
L 353.111912 98.162448 
L 357.770571 93.597469 
L 358.487287 92.740001 
L 363.145946 88.178145 
L 363.862663 87.31827 
L 367.446246 83.828673 
L 368.162963 82.95 
L 376.405205 74.779317 
L 377.121922 73.918598 
L 386.080881 65.020888 
L 386.797598 64.158914 
L 392.172973 58.861174 
L 392.88969 57.997772 
L 397.548348 53.434958 
L 398.265065 52.572562 
L 402.565365 48.370798 
L 403.282082 47.514643 
L 407.940741 42.955709 
L 408.657457 42.060149 
L 414.032833 36.803241 
L 414.74955 35.934481 
L 417.616416 33.178631 
L 418.333133 32.303322 
L 421.2 29.467668 
L 421.2 29.467668 
" clip-path="url(#pc7feb04f16)" style="fill: none; stroke: #d62728; stroke-width: 1.5; stroke-linecap: square"/>
   </g>
   <g id="line2d_20">
    <path d="M 63.2 391 
L 99.035836 354.814261 
L 134.871672 318.583785 
L 170.707508 282.460102 
L 206.543343 246.171538 
L 242.379179 210.071301 
L 278.215015 173.907069 
L 314.050851 137.603748 
L 349.886687 101.46524 
L 385.722523 65.362972 
" clip-path="url(#pc7feb04f16)" style="fill: none"/>
    <defs>
     <path id="mf8b9a67df5" d="M -0 3.5 
L 3.5 -3.5 
L -3.5 -3.5 
z
" style="stroke: #d62728; stroke-linejoin: miter"/>
    </defs>
    <g clip-path="url(#pc7feb04f16)">
     <use xlink:href="#mf8b9a67df5" x="63.2" y="391" style="fill: #d62728; stroke: #d62728; stroke-linejoin: miter"/>
     <use xlink:href="#mf8b9a67df5" x="99.035836" y="354.814261" style="fill: #d62728; stroke: #d62728; stroke-linejoin: miter"/>
     <use xlink:href="#mf8b9a67df5" x="134.871672" y="318.583785" style="fill: #d62728; stroke: #d62728; stroke-linejoin: miter"/>
     <use xlink:href="#mf8b9a67df5" x="170.707508" y="282.460102" style="fill: #d62728; stroke: #d62728; stroke-linejoin: miter"/>
     <use xlink:href="#mf8b9a67df5" x="206.543343" y="246.171538" style="fill: #d62728; stroke: #d62728; stroke-linejoin: miter"/>
     <use xlink:href="#mf8b9a67df5" x="242.379179" y="210.071301" style="fill: #d62728; stroke: #d62728; stroke-linejoin: miter"/>
     <use xlink:href="#mf8b9a67df5" x="278.215015" y="173.907069" style="fill: #d62728; stroke: #d62728; stroke-linejoin: miter"/>
     <use xlink:href="#mf8b9a67df5" x="314.050851" y="137.603748" style="fill: #d62728; stroke: #d62728; stroke-linejoin: miter"/>
     <use xlink:href="#mf8b9a67df5" x="349.886687" y="101.46524" style="fill: #d62728; stroke: #d62728; stroke-linejoin: miter"/>
     <use xlink:href="#mf8b9a67df5" x="385.722523" y="65.362972" style="fill: #d62728; stroke: #d62728; stroke-linejoin: miter"/>
    </g>
   </g>
   <g id="line2d_21">
    <path d="M 63.2 391 
L 64.275075 389.971632 
L 64.991792 389.105817 
L 70.008809 384.138993 
L 70.725526 383.26312 
L 77.892693 376.087914 
L 78.609409 375.225954 
L 80.75956 373.162949 
L 81.476276 372.290776 
L 88.643443 365.133262 
L 89.36016 364.258988 
L 91.868669 361.846358 
L 92.585385 360.963408 
L 98.677477 354.871601 
L 99.035836 354.521003 
L 99.752553 353.656711 
L 102.619419 350.881209 
L 103.336136 350.002258 
L 110.144945 343.203415 
L 110.861662 342.329508 
L 118.028829 335.157492 
L 118.745546 334.292704 
L 120.895696 332.233823 
L 121.612412 331.358009 
L 125.195996 327.850142 
L 125.912713 326.984843 
L 132.363163 320.552883 
L 133.07988 319.661028 
L 139.53033 313.239559 
L 140.247047 312.362086 
L 153.506306 298.989195 
L 154.223023 298.121357 
L 158.164965 294.235742 
L 158.881682 293.379044 
L 161.748549 290.575984 
L 162.465265 289.689569 
L 173.574374 278.517448 
L 174.291091 277.640302 
L 179.666466 272.240654 
L 184.325125 267.524036 
L 185.041842 266.819841 
L 185.758559 265.953995 
L 192.925726 258.786017 
L 193.642442 257.927355 
L 196.150951 255.500559 
L 196.867668 254.622443 
L 203.676476 247.823424 
L 204.393193 246.957553 
L 208.335135 243.076637 
L 209.051852 242.198135 
L 211.918719 239.424489 
L 212.635435 238.547583 
L 219.802603 231.381391 
L 220.519319 230.506454 
L 223.027828 228.095522 
L 223.744545 227.21709 
L 227.328128 223.708551 
L 228.044845 222.854876 
L 230.553353 220.418633 
L 231.27007 219.548513 
L 234.495295 216.395604 
L 235.212012 215.501794 
L 243.095896 207.624203 
L 243.812613 206.756862 
L 247.754555 202.766067 
L 254.205005 196.292931 
L 254.921722 195.422896 
L 257.43023 193.010911 
L 258.146947 192.133636 
L 266.389189 183.875314 
L 267.105906 183.024606 
L 269.256056 180.945531 
L 269.972773 180.065329 
L 277.498298 172.534705 
L 278.215015 171.674525 
L 281.081882 168.891797 
L 281.798599 168.005145 
L 286.815616 162.94364 
L 295.774575 153.902335 
L 296.491291 153.036246 
L 303.658458 145.866547 
L 304.375175 144.991265 
L 311.542342 137.83121 
L 312.259059 136.963241 
L 314.409209 134.894768 
L 315.125926 134.022464 
L 318.70951 130.511335 
L 319.426226 129.656732 
L 321.934735 127.221145 
L 322.651451 126.346179 
L 328.743544 120.259188 
L 333.402202 115.537665 
L 334.118919 114.662683 
L 340.927728 107.856923 
L 341.644444 107.009787 
L 343.794595 104.938087 
L 344.511311 104.063514 
L 351.32012 97.254219 
L 352.036837 96.39536 
L 354.903704 93.605386 
L 355.62042 92.727286 
L 362.787588 85.567089 
L 363.504304 84.708312 
L 366.371171 81.907695 
L 367.087888 81.029596 
L 374.255055 73.866975 
L 374.613413 73.506265 
L 375.33013 72.643032 
L 377.838639 70.213002 
L 378.555355 69.337517 
L 385.005806 62.866688 
L 385.722523 62.167697 
L 386.439239 61.311544 
L 392.172973 55.588077 
L 392.88969 54.731574 
L 395.756557 51.941965 
L 396.473273 51.05312 
L 399.34014 48.291148 
L 400.056857 47.418118 
L 403.282082 44.257739 
L 403.998799 43.398685 
L 406.865666 40.614678 
L 407.582382 39.72203 
L 414.391191 32.936954 
L 415.107908 32.073251 
L 418.333133 28.925179 
L 419.04985 28.040059 
L 421.2 25.952711 
L 421.2 25.952711 
" clip-path="url(#pc7feb04f16)" style="fill: none; stroke: #9467bd; stroke-width: 1.5; stroke-linecap: square"/>
   </g>
   <g id="line2d_22">
    <path d="M 63.2 391 
L 99.035836 354.521003 
L 134.871672 317.911197 
L 170.707508 281.354534 
L 206.543343 244.865592 
L 242.379179 208.334811 
L 278.215015 171.674525 
L 314.050851 135.247624 
L 349.886687 98.662345 
L 385.722523 62.167697 
" clip-path="url(#pc7feb04f16)" style="fill: none"/>
    <defs>
     <path id="m8621faa43b" d="M 0 -3 
L -3 3 
L 3 3 
z
" style="stroke: #9467bd; stroke-linejoin: miter"/>
    </defs>
    <g clip-path="url(#pc7feb04f16)">
     <use xlink:href="#m8621faa43b" x="63.2" y="391" style="fill: #9467bd; stroke: #9467bd; stroke-linejoin: miter"/>
     <use xlink:href="#m8621faa43b" x="99.035836" y="354.521003" style="fill: #9467bd; stroke: #9467bd; stroke-linejoin: miter"/>
     <use xlink:href="#m8621faa43b" x="134.871672" y="317.911197" style="fill: #9467bd; stroke: #9467bd; stroke-linejoin: miter"/>
     <use xlink:href="#m8621faa43b" x="170.707508" y="281.354534" style="fill: #9467bd; stroke: #9467bd; stroke-linejoin: miter"/>
     <use xlink:href="#m8621faa43b" x="206.543343" y="244.865592" style="fill: #9467bd; stroke: #9467bd; stroke-linejoin: miter"/>
     <use xlink:href="#m8621faa43b" x="242.379179" y="208.334811" style="fill: #9467bd; stroke: #9467bd; stroke-linejoin: miter"/>
     <use xlink:href="#m8621faa43b" x="278.215015" y="171.674525" style="fill: #9467bd; stroke: #9467bd; stroke-linejoin: miter"/>
     <use xlink:href="#m8621faa43b" x="314.050851" y="135.247624" style="fill: #9467bd; stroke: #9467bd; stroke-linejoin: miter"/>
     <use xlink:href="#m8621faa43b" x="349.886687" y="98.662345" style="fill: #9467bd; stroke: #9467bd; stroke-linejoin: miter"/>
     <use xlink:href="#m8621faa43b" x="385.722523" y="62.167697" style="fill: #9467bd; stroke: #9467bd; stroke-linejoin: miter"/>
    </g>
   </g>
   <g id="line2d_23">
    <path d="M 63.2 391 
L 421.2 25.920366 
L 421.2 25.920366 
" clip-path="url(#pc7feb04f16)" style="fill: none; stroke: #8c564b; stroke-width: 1.5; stroke-linecap: square"/>
   </g>
   <g id="line2d_24">
    <path d="M 63.2 391 
L 99.035836 354.455494 
L 134.871672 317.910988 
L 170.707508 281.366478 
L 206.543343 244.821971 
L 242.379179 208.277463 
L 278.215015 171.732954 
L 314.050851 135.188446 
L 349.886687 98.643937 
L 385.722523 62.099429 
" clip-path="url(#pc7feb04f16)" style="fill: none"/>
    <defs>
     <path id="mfafd5c49cc" d="M -2.5 -0 
L 2.5 2.5 
L 2.5 -2.5 
z
" style="stroke: #8c564b; stroke-linejoin: miter"/>
    </defs>
    <g clip-path="url(#pc7feb04f16)">
     <use xlink:href="#mfafd5c49cc" x="63.2" y="391" style="fill: #8c564b; stroke: #8c564b; stroke-linejoin: miter"/>
     <use xlink:href="#mfafd5c49cc" x="99.035836" y="354.455494" style="fill: #8c564b; stroke: #8c564b; stroke-linejoin: miter"/>
     <use xlink:href="#mfafd5c49cc" x="134.871672" y="317.910988" style="fill: #8c564b; stroke: #8c564b; stroke-linejoin: miter"/>
     <use xlink:href="#mfafd5c49cc" x="170.707508" y="281.366478" style="fill: #8c564b; stroke: #8c564b; stroke-linejoin: miter"/>
     <use xlink:href="#mfafd5c49cc" x="206.543343" y="244.821971" style="fill: #8c564b; stroke: #8c564b; stroke-linejoin: miter"/>
     <use xlink:href="#mfafd5c49cc" x="242.379179" y="208.277463" style="fill: #8c564b; stroke: #8c564b; stroke-linejoin: miter"/>
     <use xlink:href="#mfafd5c49cc" x="278.215015" y="171.732954" style="fill: #8c564b; stroke: #8c564b; stroke-linejoin: miter"/>
     <use xlink:href="#mfafd5c49cc" x="314.050851" y="135.188446" style="fill: #8c564b; stroke: #8c564b; stroke-linejoin: miter"/>
     <use xlink:href="#mfafd5c49cc" x="349.886687" y="98.643937" style="fill: #8c564b; stroke: #8c564b; stroke-linejoin: miter"/>
     <use xlink:href="#mfafd5c49cc" x="385.722523" y="62.099429" style="fill: #8c564b; stroke: #8c564b; stroke-linejoin: miter"/>
    </g>
   </g>
   <g id="patch_3">
    <path d="M 63.2 391 
L 63.2 25.92 
" style="fill: none; stroke: #000000; stroke-width: 0.8; stroke-linejoin: miter; stroke-linecap: square"/>
   </g>
   <g id="patch_4">
    <path d="M 421.2 391 
L 421.2 25.92 
" style="fill: none; stroke: #000000; stroke-width: 0.8; stroke-linejoin: miter; stroke-linecap: square"/>
   </g>
   <g id="patch_5">
    <path d="M 63.2 391 
L 421.2 391 
" style="fill: none; stroke: #000000; stroke-width: 0.8; stroke-linejoin: miter; stroke-linecap: square"/>
   </g>
   <g id="patch_6">
    <path d="M 63.2 25.92 
L 421.2 25.92 
" style="fill: none; stroke: #000000; stroke-width: 0.8; stroke-linejoin: miter; stroke-linecap: square"/>
   </g>
   <g id="text_15">
    <!-- Interval: 33.333333 [ms] -->
    <g transform="translate(167.288125 19.92)scale(0.12 -0.12)">
     <defs>
      <path id="DejaVuSans-76" d="M 191 3500 
L 800 3500 
L 1894 563 
L 2988 3500 
L 3597 3500 
L 2284 0 
L 1503 0 
L 191 3500 
z
" transform="scale(0.015625)"/>
      <path id="DejaVuSans-6c" d="M 603 4863 
L 1178 4863 
L 1178 0 
L 603 0 
L 603 4863 
z
" transform="scale(0.015625)"/>
      <path id="DejaVuSans-3a" d="M 750 794 
L 1409 794 
L 1409 0 
L 750 0 
L 750 794 
z
M 750 3309 
L 1409 3309 
L 1409 2516 
L 750 2516 
L 750 3309 
z
" transform="scale(0.015625)"/>
      <path id="DejaVuSans-2e" d="M 684 794 
L 1344 794 
L 1344 0 
L 684 0 
L 684 794 
z
" transform="scale(0.015625)"/>
     </defs>
     <use xlink:href="#DejaVuSans-49"/>
     <use xlink:href="#DejaVuSans-6e" x="29.492188"/>
     <use xlink:href="#DejaVuSans-74" x="92.871094"/>
     <use xlink:href="#DejaVuSans-65" x="132.080078"/>
     <use xlink:href="#DejaVuSans-72" x="193.603516"/>
     <use xlink:href="#DejaVuSans-76" x="234.716797"/>
     <use xlink:href="#DejaVuSans-61" x="293.896484"/>
     <use xlink:href="#DejaVuSans-6c" x="355.175781"/>
     <use xlink:href="#DejaVuSans-3a" x="382.958984"/>
     <use xlink:href="#DejaVuSans-20" x="416.650391"/>
     <use xlink:href="#DejaVuSans-33" x="448.4375"/>
     <use xlink:href="#DejaVuSans-33" x="512.060547"/>
     <use xlink:href="#DejaVuSans-2e" x="575.683594"/>
     <use xlink:href="#DejaVuSans-33" x="607.470703"/>
     <use xlink:href="#DejaVuSans-33" x="671.09375"/>
     <use xlink:href="#DejaVuSans-33" x="734.716797"/>
     <use xlink:href="#DejaVuSans-33" x="798.339844"/>
     <use xlink:href="#DejaVuSans-33" x="861.962891"/>
     <use xlink:href="#DejaVuSans-33" x="925.585938"/>
     <use xlink:href="#DejaVuSans-20" x="989.208984"/>
     <use xlink:href="#DejaVuSans-5b" x="1020.996094"/>
     <use xlink:href="#DejaVuSans-6d" x="1060.009766"/>
     <use xlink:href="#DejaVuSans-73" x="1157.421875"/>
     <use xlink:href="#DejaVuSans-5d" x="1209.521484"/>
    </g>
   </g>
   <g id="legend_1">
    <g id="patch_7">
     <path d="M 70.2 121.98875 
L 281.617188 121.98875 
Q 283.617188 121.98875 283.617188 119.98875 
L 283.617188 32.92 
Q 283.617188 30.92 281.617188 30.92 
L 70.2 30.92 
Q 68.2 30.92 68.2 32.92 
L 68.2 119.98875 
Q 68.2 121.98875 70.2 121.98875 
z
" style="fill: #ffffff; opacity: 0.8; stroke: #cccccc; stroke-linejoin: miter"/>
    </g>
    <g id="line2d_25">
     <path d="M 72.2 39.018438 
L 82.2 39.018438 
L 92.2 39.018438 
" style="fill: none"/>
     <g>
      <use xlink:href="#mc5481380c2" x="82.2" y="39.018438" style="fill: #1f77b4; stroke: #1f77b4; stroke-linejoin: miter"/>
     </g>
    </g>
    <g id="text_16">
     <!-- StdSleepTimer -->
     <g transform="translate(100.2 42.518438)scale(0.1 -0.1)">
      <defs>
       <path id="DejaVuSans-53" d="M 3425 4513 
L 3425 3897 
Q 3066 4069 2747 4153 
Q 2428 4238 2131 4238 
Q 1616 4238 1336 4038 
Q 1056 3838 1056 3469 
Q 1056 3159 1242 3001 
Q 1428 2844 1947 2747 
L 2328 2669 
Q 3034 2534 3370 2195 
Q 3706 1856 3706 1288 
Q 3706 609 3251 259 
Q 2797 -91 1919 -91 
Q 1588 -91 1214 -16 
Q 841 59 441 206 
L 441 856 
Q 825 641 1194 531 
Q 1563 422 1919 422 
Q 2459 422 2753 634 
Q 3047 847 3047 1241 
Q 3047 1584 2836 1778 
Q 2625 1972 2144 2069 
L 1759 2144 
Q 1053 2284 737 2584 
Q 422 2884 422 3419 
Q 422 4038 858 4394 
Q 1294 4750 2059 4750 
Q 2388 4750 2728 4690 
Q 3069 4631 3425 4513 
z
" transform="scale(0.015625)"/>
       <path id="DejaVuSans-64" d="M 2906 2969 
L 2906 4863 
L 3481 4863 
L 3481 0 
L 2906 0 
L 2906 525 
Q 2725 213 2448 61 
Q 2172 -91 1784 -91 
Q 1150 -91 751 415 
Q 353 922 353 1747 
Q 353 2572 751 3078 
Q 1150 3584 1784 3584 
Q 2172 3584 2448 3432 
Q 2725 3281 2906 2969 
z
M 947 1747 
Q 947 1113 1208 752 
Q 1469 391 1925 391 
Q 2381 391 2643 752 
Q 2906 1113 2906 1747 
Q 2906 2381 2643 2742 
Q 2381 3103 1925 3103 
Q 1469 3103 1208 2742 
Q 947 2381 947 1747 
z
" transform="scale(0.015625)"/>
       <path id="DejaVuSans-70" d="M 1159 525 
L 1159 -1331 
L 581 -1331 
L 581 3500 
L 1159 3500 
L 1159 2969 
Q 1341 3281 1617 3432 
Q 1894 3584 2278 3584 
Q 2916 3584 3314 3078 
Q 3713 2572 3713 1747 
Q 3713 922 3314 415 
Q 2916 -91 2278 -91 
Q 1894 -91 1617 61 
Q 1341 213 1159 525 
z
M 3116 1747 
Q 3116 2381 2855 2742 
Q 2594 3103 2138 3103 
Q 1681 3103 1420 2742 
Q 1159 2381 1159 1747 
Q 1159 1113 1420 752 
Q 1681 391 2138 391 
Q 2594 391 2855 752 
Q 3116 1113 3116 1747 
z
" transform="scale(0.015625)"/>
      </defs>
      <use xlink:href="#DejaVuSans-53"/>
      <use xlink:href="#DejaVuSans-74" x="63.476562"/>
      <use xlink:href="#DejaVuSans-64" x="102.685547"/>
      <use xlink:href="#DejaVuSans-53" x="166.162109"/>
      <use xlink:href="#DejaVuSans-6c" x="229.638672"/>
      <use xlink:href="#DejaVuSans-65" x="257.421875"/>
      <use xlink:href="#DejaVuSans-65" x="318.945312"/>
      <use xlink:href="#DejaVuSans-70" x="380.46875"/>
      <use xlink:href="#DejaVuSans-54" x="443.945312"/>
      <use xlink:href="#DejaVuSans-69" x="501.904297"/>
      <use xlink:href="#DejaVuSans-6d" x="529.6875"/>
      <use xlink:href="#DejaVuSans-65" x="627.099609"/>
      <use xlink:href="#DejaVuSans-72" x="688.623047"/>
     </g>
    </g>
    <g id="line2d_26">
     <path d="M 72.2 53.696563 
L 82.2 53.696563 
L 92.2 53.696563 
" style="fill: none"/>
     <g>
      <use xlink:href="#m763fae22b2" x="82.2" y="53.696563" style="fill: #ff7f0e; stroke: #ff7f0e"/>
     </g>
    </g>
    <g id="text_17">
     <!-- MultiMediaTimer -->
     <g transform="translate(100.2 57.196563)scale(0.1 -0.1)">
      <defs>
       <path id="DejaVuSans-4d" d="M 628 4666 
L 1569 4666 
L 2759 1491 
L 3956 4666 
L 4897 4666 
L 4897 0 
L 4281 0 
L 4281 4097 
L 3078 897 
L 2444 897 
L 1241 4097 
L 1241 0 
L 628 0 
L 628 4666 
z
" transform="scale(0.015625)"/>
       <path id="DejaVuSans-75" d="M 544 1381 
L 544 3500 
L 1119 3500 
L 1119 1403 
Q 1119 906 1312 657 
Q 1506 409 1894 409 
Q 2359 409 2629 706 
Q 2900 1003 2900 1516 
L 2900 3500 
L 3475 3500 
L 3475 0 
L 2900 0 
L 2900 538 
Q 2691 219 2414 64 
Q 2138 -91 1772 -91 
Q 1169 -91 856 284 
Q 544 659 544 1381 
z
M 1991 3584 
L 1991 3584 
z
" transform="scale(0.015625)"/>
      </defs>
      <use xlink:href="#DejaVuSans-4d"/>
      <use xlink:href="#DejaVuSans-75" x="86.279297"/>
      <use xlink:href="#DejaVuSans-6c" x="149.658203"/>
      <use xlink:href="#DejaVuSans-74" x="177.441406"/>
      <use xlink:href="#DejaVuSans-69" x="216.650391"/>
      <use xlink:href="#DejaVuSans-4d" x="244.433594"/>
      <use xlink:href="#DejaVuSans-65" x="330.712891"/>
      <use xlink:href="#DejaVuSans-64" x="392.236328"/>
      <use xlink:href="#DejaVuSans-69" x="455.712891"/>
      <use xlink:href="#DejaVuSans-61" x="483.496094"/>
      <use xlink:href="#DejaVuSans-54" x="544.775391"/>
      <use xlink:href="#DejaVuSans-69" x="602.734375"/>
      <use xlink:href="#DejaVuSans-6d" x="630.517578"/>
      <use xlink:href="#DejaVuSans-65" x="727.929688"/>
      <use xlink:href="#DejaVuSans-72" x="789.453125"/>
     </g>
    </g>
    <g id="line2d_27">
     <path d="M 72.2 68.374687 
L 82.2 68.374687 
L 92.2 68.374687 
" style="fill: none"/>
     <g>
      <use xlink:href="#me123b579c4" x="82.2" y="68.374687" style="fill: #2ca02c; stroke: #2ca02c; stroke-linejoin: miter"/>
     </g>
    </g>
    <g id="text_18">
     <!-- TimerQueueTimer -->
     <g transform="translate(100.2 71.874687)scale(0.1 -0.1)">
      <defs>
       <path id="DejaVuSans-51" d="M 2522 4238 
Q 1834 4238 1429 3725 
Q 1025 3213 1025 2328 
Q 1025 1447 1429 934 
Q 1834 422 2522 422 
Q 3209 422 3611 934 
Q 4013 1447 4013 2328 
Q 4013 3213 3611 3725 
Q 3209 4238 2522 4238 
z
M 3406 84 
L 4238 -825 
L 3475 -825 
L 2784 -78 
Q 2681 -84 2626 -87 
Q 2572 -91 2522 -91 
Q 1538 -91 948 567 
Q 359 1225 359 2328 
Q 359 3434 948 4092 
Q 1538 4750 2522 4750 
Q 3503 4750 4090 4092 
Q 4678 3434 4678 2328 
Q 4678 1516 4351 937 
Q 4025 359 3406 84 
z
" transform="scale(0.015625)"/>
      </defs>
      <use xlink:href="#DejaVuSans-54"/>
      <use xlink:href="#DejaVuSans-69" x="57.958984"/>
      <use xlink:href="#DejaVuSans-6d" x="85.742188"/>
      <use xlink:href="#DejaVuSans-65" x="183.154297"/>
      <use xlink:href="#DejaVuSans-72" x="244.677734"/>
      <use xlink:href="#DejaVuSans-51" x="285.791016"/>
      <use xlink:href="#DejaVuSans-75" x="364.501953"/>
      <use xlink:href="#DejaVuSans-65" x="427.880859"/>
      <use xlink:href="#DejaVuSans-75" x="489.404297"/>
      <use xlink:href="#DejaVuSans-65" x="552.783203"/>
      <use xlink:href="#DejaVuSans-54" x="614.306641"/>
      <use xlink:href="#DejaVuSans-69" x="672.265625"/>
      <use xlink:href="#DejaVuSans-6d" x="700.048828"/>
      <use xlink:href="#DejaVuSans-65" x="797.460938"/>
      <use xlink:href="#DejaVuSans-72" x="858.984375"/>
     </g>
    </g>
    <g id="line2d_28">
     <path d="M 72.2 83.052813 
L 82.2 83.052813 
L 92.2 83.052813 
" style="fill: none"/>
     <g>
      <use xlink:href="#mf8b9a67df5" x="82.2" y="83.052813" style="fill: #d62728; stroke: #d62728; stroke-linejoin: miter"/>
     </g>
    </g>
    <g id="text_19">
     <!-- ThreadPoolTimer -->
     <g transform="translate(100.2 86.552813)scale(0.1 -0.1)">
      <defs>
       <path id="DejaVuSans-68" d="M 3513 2113 
L 3513 0 
L 2938 0 
L 2938 2094 
Q 2938 2591 2744 2837 
Q 2550 3084 2163 3084 
Q 1697 3084 1428 2787 
Q 1159 2491 1159 1978 
L 1159 0 
L 581 0 
L 581 4863 
L 1159 4863 
L 1159 2956 
Q 1366 3272 1645 3428 
Q 1925 3584 2291 3584 
Q 2894 3584 3203 3211 
Q 3513 2838 3513 2113 
z
" transform="scale(0.015625)"/>
       <path id="DejaVuSans-50" d="M 1259 4147 
L 1259 2394 
L 2053 2394 
Q 2494 2394 2734 2622 
Q 2975 2850 2975 3272 
Q 2975 3691 2734 3919 
Q 2494 4147 2053 4147 
L 1259 4147 
z
M 628 4666 
L 2053 4666 
Q 2838 4666 3239 4311 
Q 3641 3956 3641 3272 
Q 3641 2581 3239 2228 
Q 2838 1875 2053 1875 
L 1259 1875 
L 1259 0 
L 628 0 
L 628 4666 
z
" transform="scale(0.015625)"/>
      </defs>
      <use xlink:href="#DejaVuSans-54"/>
      <use xlink:href="#DejaVuSans-68" x="61.083984"/>
      <use xlink:href="#DejaVuSans-72" x="124.462891"/>
      <use xlink:href="#DejaVuSans-65" x="163.326172"/>
      <use xlink:href="#DejaVuSans-61" x="224.849609"/>
      <use xlink:href="#DejaVuSans-64" x="286.128906"/>
      <use xlink:href="#DejaVuSans-50" x="349.605469"/>
      <use xlink:href="#DejaVuSans-6f" x="406.283203"/>
      <use xlink:href="#DejaVuSans-6f" x="467.464844"/>
      <use xlink:href="#DejaVuSans-6c" x="528.646484"/>
      <use xlink:href="#DejaVuSans-54" x="556.429688"/>
      <use xlink:href="#DejaVuSans-69" x="614.388672"/>
      <use xlink:href="#DejaVuSans-6d" x="642.171875"/>
      <use xlink:href="#DejaVuSans-65" x="739.583984"/>
      <use xlink:href="#DejaVuSans-72" x="801.107422"/>
     </g>
    </g>
    <g id="line2d_29">
     <path d="M 72.2 97.730937 
L 82.2 97.730937 
L 92.2 97.730937 
" style="fill: none"/>
     <g>
      <use xlink:href="#m8621faa43b" x="82.2" y="97.730937" style="fill: #9467bd; stroke: #9467bd; stroke-linejoin: miter"/>
     </g>
    </g>
    <g id="text_20">
     <!-- WaitableTimer -->
     <g transform="translate(100.2 101.230937)scale(0.1 -0.1)">
      <defs>
       <path id="DejaVuSans-57" d="M 213 4666 
L 850 4666 
L 1831 722 
L 2809 4666 
L 3519 4666 
L 4500 722 
L 5478 4666 
L 6119 4666 
L 4947 0 
L 4153 0 
L 3169 4050 
L 2175 0 
L 1381 0 
L 213 4666 
z
" transform="scale(0.015625)"/>
       <path id="DejaVuSans-62" d="M 3116 1747 
Q 3116 2381 2855 2742 
Q 2594 3103 2138 3103 
Q 1681 3103 1420 2742 
Q 1159 2381 1159 1747 
Q 1159 1113 1420 752 
Q 1681 391 2138 391 
Q 2594 391 2855 752 
Q 3116 1113 3116 1747 
z
M 1159 2969 
Q 1341 3281 1617 3432 
Q 1894 3584 2278 3584 
Q 2916 3584 3314 3078 
Q 3713 2572 3713 1747 
Q 3713 922 3314 415 
Q 2916 -91 2278 -91 
Q 1894 -91 1617 61 
Q 1341 213 1159 525 
L 1159 0 
L 581 0 
L 581 4863 
L 1159 4863 
L 1159 2969 
z
" transform="scale(0.015625)"/>
      </defs>
      <use xlink:href="#DejaVuSans-57"/>
      <use xlink:href="#DejaVuSans-61" x="92.501953"/>
      <use xlink:href="#DejaVuSans-69" x="153.78125"/>
      <use xlink:href="#DejaVuSans-74" x="181.564453"/>
      <use xlink:href="#DejaVuSans-61" x="220.773438"/>
      <use xlink:href="#DejaVuSans-62" x="282.052734"/>
      <use xlink:href="#DejaVuSans-6c" x="345.529297"/>
      <use xlink:href="#DejaVuSans-65" x="373.3125"/>
      <use xlink:href="#DejaVuSans-54" x="434.835938"/>
      <use xlink:href="#DejaVuSans-69" x="492.794922"/>
      <use xlink:href="#DejaVuSans-6d" x="520.578125"/>
      <use xlink:href="#DejaVuSans-65" x="617.990234"/>
      <use xlink:href="#DejaVuSans-72" x="679.513672"/>
     </g>
    </g>
    <g id="line2d_30">
     <path d="M 72.2 112.409063 
L 82.2 112.409063 
L 92.2 112.409063 
" style="fill: none"/>
     <g>
      <use xlink:href="#mfafd5c49cc" x="82.2" y="112.409063" style="fill: #8c564b; stroke: #8c564b; stroke-linejoin: miter"/>
     </g>
    </g>
    <g id="text_21">
     <!-- PerformanceCounterSoftSleepTimer -->
     <g transform="translate(100.2 115.909063)scale(0.1 -0.1)">
      <defs>
       <path id="DejaVuSans-66" d="M 2375 4863 
L 2375 4384 
L 1825 4384 
Q 1516 4384 1395 4259 
Q 1275 4134 1275 3809 
L 1275 3500 
L 2222 3500 
L 2222 3053 
L 1275 3053 
L 1275 0 
L 697 0 
L 697 3053 
L 147 3053 
L 147 3500 
L 697 3500 
L 697 3744 
Q 697 4328 969 4595 
Q 1241 4863 1831 4863 
L 2375 4863 
z
" transform="scale(0.015625)"/>
       <path id="DejaVuSans-63" d="M 3122 3366 
L 3122 2828 
Q 2878 2963 2633 3030 
Q 2388 3097 2138 3097 
Q 1578 3097 1268 2742 
Q 959 2388 959 1747 
Q 959 1106 1268 751 
Q 1578 397 2138 397 
Q 2388 397 2633 464 
Q 2878 531 3122 666 
L 3122 134 
Q 2881 22 2623 -34 
Q 2366 -91 2075 -91 
Q 1284 -91 818 406 
Q 353 903 353 1747 
Q 353 2603 823 3093 
Q 1294 3584 2113 3584 
Q 2378 3584 2631 3529 
Q 2884 3475 3122 3366 
z
" transform="scale(0.015625)"/>
       <path id="DejaVuSans-43" d="M 4122 4306 
L 4122 3641 
Q 3803 3938 3442 4084 
Q 3081 4231 2675 4231 
Q 1875 4231 1450 3742 
Q 1025 3253 1025 2328 
Q 1025 1406 1450 917 
Q 1875 428 2675 428 
Q 3081 428 3442 575 
Q 3803 722 4122 1019 
L 4122 359 
Q 3791 134 3420 21 
Q 3050 -91 2638 -91 
Q 1578 -91 968 557 
Q 359 1206 359 2328 
Q 359 3453 968 4101 
Q 1578 4750 2638 4750 
Q 3056 4750 3426 4639 
Q 3797 4528 4122 4306 
z
" transform="scale(0.015625)"/>
      </defs>
      <use xlink:href="#DejaVuSans-50"/>
      <use xlink:href="#DejaVuSans-65" x="56.677734"/>
      <use xlink:href="#DejaVuSans-72" x="118.201172"/>
      <use xlink:href="#DejaVuSans-66" x="159.314453"/>
      <use xlink:href="#DejaVuSans-6f" x="194.519531"/>
      <use xlink:href="#DejaVuSans-72" x="255.701172"/>
      <use xlink:href="#DejaVuSans-6d" x="295.064453"/>
      <use xlink:href="#DejaVuSans-61" x="392.476562"/>
      <use xlink:href="#DejaVuSans-6e" x="453.755859"/>
      <use xlink:href="#DejaVuSans-63" x="517.134766"/>
      <use xlink:href="#DejaVuSans-65" x="572.115234"/>
      <use xlink:href="#DejaVuSans-43" x="633.638672"/>
      <use xlink:href="#DejaVuSans-6f" x="703.462891"/>
      <use xlink:href="#DejaVuSans-75" x="764.644531"/>
      <use xlink:href="#DejaVuSans-6e" x="828.023438"/>
      <use xlink:href="#DejaVuSans-74" x="891.402344"/>
      <use xlink:href="#DejaVuSans-65" x="930.611328"/>
      <use xlink:href="#DejaVuSans-72" x="992.134766"/>
      <use xlink:href="#DejaVuSans-53" x="1033.248047"/>
      <use xlink:href="#DejaVuSans-6f" x="1096.724609"/>
      <use xlink:href="#DejaVuSans-66" x="1157.90625"/>
      <use xlink:href="#DejaVuSans-74" x="1191.361328"/>
      <use xlink:href="#DejaVuSans-53" x="1230.570312"/>
      <use xlink:href="#DejaVuSans-6c" x="1294.046875"/>
      <use xlink:href="#DejaVuSans-65" x="1321.830078"/>
      <use xlink:href="#DejaVuSans-65" x="1383.353516"/>
      <use xlink:href="#DejaVuSans-70" x="1444.876953"/>
      <use xlink:href="#DejaVuSans-54" x="1508.353516"/>
      <use xlink:href="#DejaVuSans-69" x="1566.3125"/>
      <use xlink:href="#DejaVuSans-6d" x="1594.095703"/>
      <use xlink:href="#DejaVuSans-65" x="1691.507812"/>
      <use xlink:href="#DejaVuSans-72" x="1753.03125"/>
     </g>
    </g>
   </g>
  </g>
 </g>
 <defs>
  <clipPath id="pc7feb04f16">
   <rect x="63.2" y="25.92" width="358" height="365.08"/>
  </clipPath>
 </defs>
</svg>
