<?xml version="1.0" encoding="utf-8" standalone="no"?>
<!DOCTYPE svg PUBLIC "-//W3C//DTD SVG 1.1//EN"
  "http://www.w3.org/Graphics/SVG/1.1/DTD/svg11.dtd">
<svg xmlns:xlink="http://www.w3.org/1999/xlink" width="432pt" height="432pt" viewBox="0 0 432 432" xmlns="http://www.w3.org/2000/svg" version="1.1">
 <metadata>
  <rdf:RDF xmlns:dc="http://purl.org/dc/elements/1.1/" xmlns:cc="http://creativecommons.org/ns#" xmlns:rdf="http://www.w3.org/1999/02/22-rdf-syntax-ns#">
   <cc:Work>
    <dc:type rdf:resource="http://purl.org/dc/dcmitype/StillImage"/>
    <dc:date>2022-08-03T16:02:10.868254</dc:date>
    <dc:format>image/svg+xml</dc:format>
    <dc:creator>
     <cc:Agent>
      <dc:title>Matplotlib v3.5.1, https://matplotlib.org/</dc:title>
     </cc:Agent>
    </dc:creator>
   </cc:Work>
  </rdf:RDF>
 </metadata>
 <defs>
  <style type="text/css">*{stroke-linejoin: round; stroke-linecap: butt}</style>
 </defs>
 <g id="figure_1">
  <g id="patch_1">
   <path d="M 0 432 
L 432 432 
L 432 0 
L 0 0 
z
" style="fill: #ffffff"/>
  </g>
  <g id="axes_1">
   <g id="patch_2">
    <path d="M 69.56 391 
L 421.2 391 
L 421.2 25.92 
L 69.56 25.92 
z
" style="fill: #ffffff"/>
   </g>
   <g id="matplotlib.axis_1">
    <g id="xtick_1">
     <g id="line2d_1">
      <defs>
       <path id="mb9c3f37dcf" d="M 0 0 
L 0 3.5 
" style="stroke: #000000; stroke-width: 0.8"/>
      </defs>
      <g>
       <use xlink:href="#mb9c3f37dcf" x="69.56" y="391" style="stroke: #000000; stroke-width: 0.8"/>
      </g>
     </g>
     <g id="text_1">
      <!-- 0 -->
      <g transform="translate(66.37875 405.598437)scale(0.1 -0.1)">
       <defs>
        <path id="DejaVuSans-30" d="M 2034 4250 
Q 1547 4250 1301 3770 
Q 1056 3291 1056 2328 
Q 1056 1369 1301 889 
Q 1547 409 2034 409 
Q 2525 409 2770 889 
Q 3016 1369 3016 2328 
Q 3016 3291 2770 3770 
Q 2525 4250 2034 4250 
z
M 2034 4750 
Q 2819 4750 3233 4129 
Q 3647 3509 3647 2328 
Q 3647 1150 3233 529 
Q 2819 -91 2034 -91 
Q 1250 -91 836 529 
Q 422 1150 422 2328 
Q 422 3509 836 4129 
Q 1250 4750 2034 4750 
z
" transform="scale(0.015625)"/>
       </defs>
       <use xlink:href="#DejaVuSans-30"/>
      </g>
     </g>
    </g>
    <g id="xtick_2">
     <g id="line2d_2">
      <g>
       <use xlink:href="#mb9c3f37dcf" x="139.958398" y="391" style="stroke: #000000; stroke-width: 0.8"/>
      </g>
     </g>
     <g id="text_2">
      <!-- 200 -->
      <g transform="translate(130.414648 405.598437)scale(0.1 -0.1)">
       <defs>
        <path id="DejaVuSans-32" d="M 1228 531 
L 3431 531 
L 3431 0 
L 469 0 
L 469 531 
Q 828 903 1448 1529 
Q 2069 2156 2228 2338 
Q 2531 2678 2651 2914 
Q 2772 3150 2772 3378 
Q 2772 3750 2511 3984 
Q 2250 4219 1831 4219 
Q 1534 4219 1204 4116 
Q 875 4013 500 3803 
L 500 4441 
Q 881 4594 1212 4672 
Q 1544 4750 1819 4750 
Q 2544 4750 2975 4387 
Q 3406 4025 3406 3419 
Q 3406 3131 3298 2873 
Q 3191 2616 2906 2266 
Q 2828 2175 2409 1742 
Q 1991 1309 1228 531 
z
" transform="scale(0.015625)"/>
       </defs>
       <use xlink:href="#DejaVuSans-32"/>
       <use xlink:href="#DejaVuSans-30" x="63.623047"/>
       <use xlink:href="#DejaVuSans-30" x="127.246094"/>
      </g>
     </g>
    </g>
    <g id="xtick_3">
     <g id="line2d_3">
      <g>
       <use xlink:href="#mb9c3f37dcf" x="210.356797" y="391" style="stroke: #000000; stroke-width: 0.8"/>
      </g>
     </g>
     <g id="text_3">
      <!-- 400 -->
      <g transform="translate(200.813047 405.598437)scale(0.1 -0.1)">
       <defs>
        <path id="DejaVuSans-34" d="M 2419 4116 
L 825 1625 
L 2419 1625 
L 2419 4116 
z
M 2253 4666 
L 3047 4666 
L 3047 1625 
L 3713 1625 
L 3713 1100 
L 3047 1100 
L 3047 0 
L 2419 0 
L 2419 1100 
L 313 1100 
L 313 1709 
L 2253 4666 
z
" transform="scale(0.015625)"/>
       </defs>
       <use xlink:href="#DejaVuSans-34"/>
       <use xlink:href="#DejaVuSans-30" x="63.623047"/>
       <use xlink:href="#DejaVuSans-30" x="127.246094"/>
      </g>
     </g>
    </g>
    <g id="xtick_4">
     <g id="line2d_4">
      <g>
       <use xlink:href="#mb9c3f37dcf" x="280.755195" y="391" style="stroke: #000000; stroke-width: 0.8"/>
      </g>
     </g>
     <g id="text_4">
      <!-- 600 -->
      <g transform="translate(271.211445 405.598437)scale(0.1 -0.1)">
       <defs>
        <path id="DejaVuSans-36" d="M 2113 2584 
Q 1688 2584 1439 2293 
Q 1191 2003 1191 1497 
Q 1191 994 1439 701 
Q 1688 409 2113 409 
Q 2538 409 2786 701 
Q 3034 994 3034 1497 
Q 3034 2003 2786 2293 
Q 2538 2584 2113 2584 
z
M 3366 4563 
L 3366 3988 
Q 3128 4100 2886 4159 
Q 2644 4219 2406 4219 
Q 1781 4219 1451 3797 
Q 1122 3375 1075 2522 
Q 1259 2794 1537 2939 
Q 1816 3084 2150 3084 
Q 2853 3084 3261 2657 
Q 3669 2231 3669 1497 
Q 3669 778 3244 343 
Q 2819 -91 2113 -91 
Q 1303 -91 875 529 
Q 447 1150 447 2328 
Q 447 3434 972 4092 
Q 1497 4750 2381 4750 
Q 2619 4750 2861 4703 
Q 3103 4656 3366 4563 
z
" transform="scale(0.015625)"/>
       </defs>
       <use xlink:href="#DejaVuSans-36"/>
       <use xlink:href="#DejaVuSans-30" x="63.623047"/>
       <use xlink:href="#DejaVuSans-30" x="127.246094"/>
      </g>
     </g>
    </g>
    <g id="xtick_5">
     <g id="line2d_5">
      <g>
       <use xlink:href="#mb9c3f37dcf" x="351.153594" y="391" style="stroke: #000000; stroke-width: 0.8"/>
      </g>
     </g>
     <g id="text_5">
      <!-- 800 -->
      <g transform="translate(341.609844 405.598437)scale(0.1 -0.1)">
       <defs>
        <path id="DejaVuSans-38" d="M 2034 2216 
Q 1584 2216 1326 1975 
Q 1069 1734 1069 1313 
Q 1069 891 1326 650 
Q 1584 409 2034 409 
Q 2484 409 2743 651 
Q 3003 894 3003 1313 
Q 3003 1734 2745 1975 
Q 2488 2216 2034 2216 
z
M 1403 2484 
Q 997 2584 770 2862 
Q 544 3141 544 3541 
Q 544 4100 942 4425 
Q 1341 4750 2034 4750 
Q 2731 4750 3128 4425 
Q 3525 4100 3525 3541 
Q 3525 3141 3298 2862 
Q 3072 2584 2669 2484 
Q 3125 2378 3379 2068 
Q 3634 1759 3634 1313 
Q 3634 634 3220 271 
Q 2806 -91 2034 -91 
Q 1263 -91 848 271 
Q 434 634 434 1313 
Q 434 1759 690 2068 
Q 947 2378 1403 2484 
z
M 1172 3481 
Q 1172 3119 1398 2916 
Q 1625 2713 2034 2713 
Q 2441 2713 2670 2916 
Q 2900 3119 2900 3481 
Q 2900 3844 2670 4047 
Q 2441 4250 2034 4250 
Q 1625 4250 1398 4047 
Q 1172 3844 1172 3481 
z
" transform="scale(0.015625)"/>
       </defs>
       <use xlink:href="#DejaVuSans-38"/>
       <use xlink:href="#DejaVuSans-30" x="63.623047"/>
       <use xlink:href="#DejaVuSans-30" x="127.246094"/>
      </g>
     </g>
    </g>
    <g id="text_6">
     <!-- Iteration -->
     <g transform="translate(224.171406 419.276563)scale(0.1 -0.1)">
      <defs>
       <path id="DejaVuSans-49" d="M 628 4666 
L 1259 4666 
L 1259 0 
L 628 0 
L 628 4666 
z
" transform="scale(0.015625)"/>
       <path id="DejaVuSans-74" d="M 1172 4494 
L 1172 3500 
L 2356 3500 
L 2356 3053 
L 1172 3053 
L 1172 1153 
Q 1172 725 1289 603 
Q 1406 481 1766 481 
L 2356 481 
L 2356 0 
L 1766 0 
Q 1100 0 847 248 
Q 594 497 594 1153 
L 594 3053 
L 172 3053 
L 172 3500 
L 594 3500 
L 594 4494 
L 1172 4494 
z
" transform="scale(0.015625)"/>
       <path id="DejaVuSans-65" d="M 3597 1894 
L 3597 1613 
L 953 1613 
Q 991 1019 1311 708 
Q 1631 397 2203 397 
Q 2534 397 2845 478 
Q 3156 559 3463 722 
L 3463 178 
Q 3153 47 2828 -22 
Q 2503 -91 2169 -91 
Q 1331 -91 842 396 
Q 353 884 353 1716 
Q 353 2575 817 3079 
Q 1281 3584 2069 3584 
Q 2775 3584 3186 3129 
Q 3597 2675 3597 1894 
z
M 3022 2063 
Q 3016 2534 2758 2815 
Q 2500 3097 2075 3097 
Q 1594 3097 1305 2825 
Q 1016 2553 972 2059 
L 3022 2063 
z
" transform="scale(0.015625)"/>
       <path id="DejaVuSans-72" d="M 2631 2963 
Q 2534 3019 2420 3045 
Q 2306 3072 2169 3072 
Q 1681 3072 1420 2755 
Q 1159 2438 1159 1844 
L 1159 0 
L 581 0 
L 581 3500 
L 1159 3500 
L 1159 2956 
Q 1341 3275 1631 3429 
Q 1922 3584 2338 3584 
Q 2397 3584 2469 3576 
Q 2541 3569 2628 3553 
L 2631 2963 
z
" transform="scale(0.015625)"/>
       <path id="DejaVuSans-61" d="M 2194 1759 
Q 1497 1759 1228 1600 
Q 959 1441 959 1056 
Q 959 750 1161 570 
Q 1363 391 1709 391 
Q 2188 391 2477 730 
Q 2766 1069 2766 1631 
L 2766 1759 
L 2194 1759 
z
M 3341 1997 
L 3341 0 
L 2766 0 
L 2766 531 
Q 2569 213 2275 61 
Q 1981 -91 1556 -91 
Q 1019 -91 701 211 
Q 384 513 384 1019 
Q 384 1609 779 1909 
Q 1175 2209 1959 2209 
L 2766 2209 
L 2766 2266 
Q 2766 2663 2505 2880 
Q 2244 3097 1772 3097 
Q 1472 3097 1187 3025 
Q 903 2953 641 2809 
L 641 3341 
Q 956 3463 1253 3523 
Q 1550 3584 1831 3584 
Q 2591 3584 2966 3190 
Q 3341 2797 3341 1997 
z
" transform="scale(0.015625)"/>
       <path id="DejaVuSans-69" d="M 603 3500 
L 1178 3500 
L 1178 0 
L 603 0 
L 603 3500 
z
M 603 4863 
L 1178 4863 
L 1178 4134 
L 603 4134 
L 603 4863 
z
" transform="scale(0.015625)"/>
       <path id="DejaVuSans-6f" d="M 1959 3097 
Q 1497 3097 1228 2736 
Q 959 2375 959 1747 
Q 959 1119 1226 758 
Q 1494 397 1959 397 
Q 2419 397 2687 759 
Q 2956 1122 2956 1747 
Q 2956 2369 2687 2733 
Q 2419 3097 1959 3097 
z
M 1959 3584 
Q 2709 3584 3137 3096 
Q 3566 2609 3566 1747 
Q 3566 888 3137 398 
Q 2709 -91 1959 -91 
Q 1206 -91 779 398 
Q 353 888 353 1747 
Q 353 2609 779 3096 
Q 1206 3584 1959 3584 
z
" transform="scale(0.015625)"/>
       <path id="DejaVuSans-6e" d="M 3513 2113 
L 3513 0 
L 2938 0 
L 2938 2094 
Q 2938 2591 2744 2837 
Q 2550 3084 2163 3084 
Q 1697 3084 1428 2787 
Q 1159 2491 1159 1978 
L 1159 0 
L 581 0 
L 581 3500 
L 1159 3500 
L 1159 2956 
Q 1366 3272 1645 3428 
Q 1925 3584 2291 3584 
Q 2894 3584 3203 3211 
Q 3513 2838 3513 2113 
z
" transform="scale(0.015625)"/>
      </defs>
      <use xlink:href="#DejaVuSans-49"/>
      <use xlink:href="#DejaVuSans-74" x="29.492188"/>
      <use xlink:href="#DejaVuSans-65" x="68.701172"/>
      <use xlink:href="#DejaVuSans-72" x="130.224609"/>
      <use xlink:href="#DejaVuSans-61" x="171.337891"/>
      <use xlink:href="#DejaVuSans-74" x="232.617188"/>
      <use xlink:href="#DejaVuSans-69" x="271.826172"/>
      <use xlink:href="#DejaVuSans-6f" x="299.609375"/>
      <use xlink:href="#DejaVuSans-6e" x="360.791016"/>
     </g>
    </g>
   </g>
   <g id="matplotlib.axis_2">
    <g id="ytick_1">
     <g id="line2d_6">
      <defs>
       <path id="m900ee62628" d="M 0 0 
L -3.5 0 
" style="stroke: #000000; stroke-width: 0.8"/>
      </defs>
      <g>
       <use xlink:href="#m900ee62628" x="69.56" y="391" style="stroke: #000000; stroke-width: 0.8"/>
      </g>
     </g>
     <g id="text_7">
      <!-- 0 -->
      <g transform="translate(56.1975 394.799219)scale(0.1 -0.1)">
       <use xlink:href="#DejaVuSans-30"/>
      </g>
     </g>
    </g>
    <g id="ytick_2">
     <g id="line2d_7">
      <g>
       <use xlink:href="#m900ee62628" x="69.56" y="317.910911" style="stroke: #000000; stroke-width: 0.8"/>
      </g>
     </g>
     <g id="text_8">
      <!-- 100000 -->
      <g transform="translate(24.385 321.71013)scale(0.1 -0.1)">
       <defs>
        <path id="DejaVuSans-31" d="M 794 531 
L 1825 531 
L 1825 4091 
L 703 3866 
L 703 4441 
L 1819 4666 
L 2450 4666 
L 2450 531 
L 3481 531 
L 3481 0 
L 794 0 
L 794 531 
z
" transform="scale(0.015625)"/>
       </defs>
       <use xlink:href="#DejaVuSans-31"/>
       <use xlink:href="#DejaVuSans-30" x="63.623047"/>
       <use xlink:href="#DejaVuSans-30" x="127.246094"/>
       <use xlink:href="#DejaVuSans-30" x="190.869141"/>
       <use xlink:href="#DejaVuSans-30" x="254.492188"/>
       <use xlink:href="#DejaVuSans-30" x="318.115234"/>
      </g>
     </g>
    </g>
    <g id="ytick_3">
     <g id="line2d_8">
      <g>
       <use xlink:href="#m900ee62628" x="69.56" y="244.821822" style="stroke: #000000; stroke-width: 0.8"/>
      </g>
     </g>
     <g id="text_9">
      <!-- 200000 -->
      <g transform="translate(24.385 248.621041)scale(0.1 -0.1)">
       <use xlink:href="#DejaVuSans-32"/>
       <use xlink:href="#DejaVuSans-30" x="63.623047"/>
       <use xlink:href="#DejaVuSans-30" x="127.246094"/>
       <use xlink:href="#DejaVuSans-30" x="190.869141"/>
       <use xlink:href="#DejaVuSans-30" x="254.492188"/>
       <use xlink:href="#DejaVuSans-30" x="318.115234"/>
      </g>
     </g>
    </g>
    <g id="ytick_4">
     <g id="line2d_9">
      <g>
       <use xlink:href="#m900ee62628" x="69.56" y="171.732733" style="stroke: #000000; stroke-width: 0.8"/>
      </g>
     </g>
     <g id="text_10">
      <!-- 300000 -->
      <g transform="translate(24.385 175.531951)scale(0.1 -0.1)">
       <defs>
        <path id="DejaVuSans-33" d="M 2597 2516 
Q 3050 2419 3304 2112 
Q 3559 1806 3559 1356 
Q 3559 666 3084 287 
Q 2609 -91 1734 -91 
Q 1441 -91 1130 -33 
Q 819 25 488 141 
L 488 750 
Q 750 597 1062 519 
Q 1375 441 1716 441 
Q 2309 441 2620 675 
Q 2931 909 2931 1356 
Q 2931 1769 2642 2001 
Q 2353 2234 1838 2234 
L 1294 2234 
L 1294 2753 
L 1863 2753 
Q 2328 2753 2575 2939 
Q 2822 3125 2822 3475 
Q 2822 3834 2567 4026 
Q 2313 4219 1838 4219 
Q 1578 4219 1281 4162 
Q 984 4106 628 3988 
L 628 4550 
Q 988 4650 1302 4700 
Q 1616 4750 1894 4750 
Q 2613 4750 3031 4423 
Q 3450 4097 3450 3541 
Q 3450 3153 3228 2886 
Q 3006 2619 2597 2516 
z
" transform="scale(0.015625)"/>
       </defs>
       <use xlink:href="#DejaVuSans-33"/>
       <use xlink:href="#DejaVuSans-30" x="63.623047"/>
       <use xlink:href="#DejaVuSans-30" x="127.246094"/>
       <use xlink:href="#DejaVuSans-30" x="190.869141"/>
       <use xlink:href="#DejaVuSans-30" x="254.492188"/>
       <use xlink:href="#DejaVuSans-30" x="318.115234"/>
      </g>
     </g>
    </g>
    <g id="ytick_5">
     <g id="line2d_10">
      <g>
       <use xlink:href="#m900ee62628" x="69.56" y="98.643644" style="stroke: #000000; stroke-width: 0.8"/>
      </g>
     </g>
     <g id="text_11">
      <!-- 400000 -->
      <g transform="translate(24.385 102.442862)scale(0.1 -0.1)">
       <use xlink:href="#DejaVuSans-34"/>
       <use xlink:href="#DejaVuSans-30" x="63.623047"/>
       <use xlink:href="#DejaVuSans-30" x="127.246094"/>
       <use xlink:href="#DejaVuSans-30" x="190.869141"/>
       <use xlink:href="#DejaVuSans-30" x="254.492188"/>
       <use xlink:href="#DejaVuSans-30" x="318.115234"/>
      </g>
     </g>
    </g>
    <g id="text_12">
     <!-- Time [us] -->
     <g transform="translate(18.305312 231.957656)rotate(-90)scale(0.1 -0.1)">
      <defs>
       <path id="DejaVuSans-54" d="M -19 4666 
L 3928 4666 
L 3928 4134 
L 2272 4134 
L 2272 0 
L 1638 0 
L 1638 4134 
L -19 4134 
L -19 4666 
z
" transform="scale(0.015625)"/>
       <path id="DejaVuSans-6d" d="M 3328 2828 
Q 3544 3216 3844 3400 
Q 4144 3584 4550 3584 
Q 5097 3584 5394 3201 
Q 5691 2819 5691 2113 
L 5691 0 
L 5113 0 
L 5113 2094 
Q 5113 2597 4934 2840 
Q 4756 3084 4391 3084 
Q 3944 3084 3684 2787 
Q 3425 2491 3425 1978 
L 3425 0 
L 2847 0 
L 2847 2094 
Q 2847 2600 2669 2842 
Q 2491 3084 2119 3084 
Q 1678 3084 1418 2786 
Q 1159 2488 1159 1978 
L 1159 0 
L 581 0 
L 581 3500 
L 1159 3500 
L 1159 2956 
Q 1356 3278 1631 3431 
Q 1906 3584 2284 3584 
Q 2666 3584 2933 3390 
Q 3200 3197 3328 2828 
z
" transform="scale(0.015625)"/>
       <path id="DejaVuSans-20" transform="scale(0.015625)"/>
       <path id="DejaVuSans-5b" d="M 550 4863 
L 1875 4863 
L 1875 4416 
L 1125 4416 
L 1125 -397 
L 1875 -397 
L 1875 -844 
L 550 -844 
L 550 4863 
z
" transform="scale(0.015625)"/>
       <path id="DejaVuSans-75" d="M 544 1381 
L 544 3500 
L 1119 3500 
L 1119 1403 
Q 1119 906 1312 657 
Q 1506 409 1894 409 
Q 2359 409 2629 706 
Q 2900 1003 2900 1516 
L 2900 3500 
L 3475 3500 
L 3475 0 
L 2900 0 
L 2900 538 
Q 2691 219 2414 64 
Q 2138 -91 1772 -91 
Q 1169 -91 856 284 
Q 544 659 544 1381 
z
M 1991 3584 
L 1991 3584 
z
" transform="scale(0.015625)"/>
       <path id="DejaVuSans-73" d="M 2834 3397 
L 2834 2853 
Q 2591 2978 2328 3040 
Q 2066 3103 1784 3103 
Q 1356 3103 1142 2972 
Q 928 2841 928 2578 
Q 928 2378 1081 2264 
Q 1234 2150 1697 2047 
L 1894 2003 
Q 2506 1872 2764 1633 
Q 3022 1394 3022 966 
Q 3022 478 2636 193 
Q 2250 -91 1575 -91 
Q 1294 -91 989 -36 
Q 684 19 347 128 
L 347 722 
Q 666 556 975 473 
Q 1284 391 1588 391 
Q 1994 391 2212 530 
Q 2431 669 2431 922 
Q 2431 1156 2273 1281 
Q 2116 1406 1581 1522 
L 1381 1569 
Q 847 1681 609 1914 
Q 372 2147 372 2553 
Q 372 3047 722 3315 
Q 1072 3584 1716 3584 
Q 2034 3584 2315 3537 
Q 2597 3491 2834 3397 
z
" transform="scale(0.015625)"/>
       <path id="DejaVuSans-5d" d="M 1947 4863 
L 1947 -844 
L 622 -844 
L 622 -397 
L 1369 -397 
L 1369 4416 
L 622 4416 
L 622 4863 
L 1947 4863 
z
" transform="scale(0.015625)"/>
      </defs>
      <use xlink:href="#DejaVuSans-54"/>
      <use xlink:href="#DejaVuSans-69" x="57.958984"/>
      <use xlink:href="#DejaVuSans-6d" x="85.742188"/>
      <use xlink:href="#DejaVuSans-65" x="183.154297"/>
      <use xlink:href="#DejaVuSans-20" x="244.677734"/>
      <use xlink:href="#DejaVuSans-5b" x="276.464844"/>
      <use xlink:href="#DejaVuSans-75" x="315.478516"/>
      <use xlink:href="#DejaVuSans-73" x="378.857422"/>
      <use xlink:href="#DejaVuSans-5d" x="430.957031"/>
     </g>
    </g>
   </g>
   <g id="line2d_11">
    <path d="M 69.56 391 
L 78.711792 390.997807 
L 79.063784 379.476774 
L 89.623544 379.474362 
L 89.975536 368.578606 
L 100.183303 368.576341 
L 100.535295 356.800519 
L 111.447047 356.795841 
L 111.799039 345.401545 
L 122.358799 345.397086 
L 122.710791 333.955866 
L 133.622543 333.950896 
L 133.974535 322.67325 
L 144.534294 322.668791 
L 144.886286 310.983527 
L 155.798038 310.977753 
L 156.15003 299.264861 
L 167.061782 299.259964 
L 167.413774 287.704141 
L 177.973534 287.701802 
L 178.325526 276.025454 
L 189.237277 276.023992 
L 189.589269 264.354442 
L 200.501021 264.352761 
L 200.853013 252.6827 
L 211.764765 252.680288 
L 212.116757 241.013953 
L 223.028509 241.012126 
L 223.380501 229.371154 
L 234.292252 229.369619 
L 234.644244 217.718195 
L 245.555996 217.71666 
L 245.907988 206.04521 
L 256.81974 206.043675 
L 257.171732 194.379022 
L 268.083483 194.377414 
L 268.435475 182.720727 
L 279.347227 182.719265 
L 279.699219 171.02947 
L 290.610971 171.027935 
L 290.962963 159.401873 
L 301.522723 159.400265 
L 301.874715 147.745917 
L 312.786466 147.744528 
L 313.138458 136.790813 
L 323.346226 136.789132 
L 323.698218 125.127475 
L 334.60997 125.11198 
L 334.961962 114.186185 
L 345.16973 114.18443 
L 345.521722 103.237658 
L 355.729489 103.235904 
L 356.081481 91.579876 
L 366.993233 91.578268 
L 367.345225 79.907913 
L 378.256977 79.90594 
L 378.608969 68.280243 
L 389.520721 68.278928 
L 389.872713 56.58767 
L 400.784464 56.585916 
L 401.136456 45.683509 
L 411.344224 45.682266 
L 411.696216 34.021048 
L 421.2 34.01966 
L 421.2 34.01966 
" clip-path="url(#p1748a81555)" style="fill: none; stroke: #1f77b4; stroke-width: 1.5; stroke-linecap: square"/>
   </g>
   <g id="line2d_12">
    <path d="M 69.56 391 
L 104.759199 356.79818 
L 139.958398 322.670399 
L 175.157598 287.702313 
L 210.356797 252.680507 
L 245.555996 217.71666 
L 280.755195 171.028812 
L 315.954394 136.789936 
L 351.153594 103.23627 
L 386.352793 68.279147 
" clip-path="url(#p1748a81555)" style="fill: none"/>
    <defs>
     <path id="mf957f89d0a" d="M -5 5 
L 5 5 
L 5 -5 
L -5 -5 
z
" style="stroke: #1f77b4; stroke-linejoin: miter"/>
    </defs>
    <g clip-path="url(#p1748a81555)">
     <use xlink:href="#mf957f89d0a" x="69.56" y="391" style="fill: #1f77b4; stroke: #1f77b4; stroke-linejoin: miter"/>
     <use xlink:href="#mf957f89d0a" x="104.759199" y="356.79818" style="fill: #1f77b4; stroke: #1f77b4; stroke-linejoin: miter"/>
     <use xlink:href="#mf957f89d0a" x="139.958398" y="322.670399" style="fill: #1f77b4; stroke: #1f77b4; stroke-linejoin: miter"/>
     <use xlink:href="#mf957f89d0a" x="175.157598" y="287.702313" style="fill: #1f77b4; stroke: #1f77b4; stroke-linejoin: miter"/>
     <use xlink:href="#mf957f89d0a" x="210.356797" y="252.680507" style="fill: #1f77b4; stroke: #1f77b4; stroke-linejoin: miter"/>
     <use xlink:href="#mf957f89d0a" x="245.555996" y="217.71666" style="fill: #1f77b4; stroke: #1f77b4; stroke-linejoin: miter"/>
     <use xlink:href="#mf957f89d0a" x="280.755195" y="171.028812" style="fill: #1f77b4; stroke: #1f77b4; stroke-linejoin: miter"/>
     <use xlink:href="#mf957f89d0a" x="315.954394" y="136.789936" style="fill: #1f77b4; stroke: #1f77b4; stroke-linejoin: miter"/>
     <use xlink:href="#mf957f89d0a" x="351.153594" y="103.23627" style="fill: #1f77b4; stroke: #1f77b4; stroke-linejoin: miter"/>
     <use xlink:href="#mf957f89d0a" x="386.352793" y="68.279147" style="fill: #1f77b4; stroke: #1f77b4; stroke-linejoin: miter"/>
    </g>
   </g>
   <g id="line2d_13">
    <path d="M 69.56 391 
L 70.263984 388.935014 
L 70.615976 388.926682 
L 71.31996 387.252284 
L 72.023944 385.979291 
L 72.727928 383.898664 
L 73.07992 383.890405 
L 74.487888 380.084145 
L 74.83988 380.076251 
L 75.543864 378.620024 
L 76.247848 376.544513 
L 76.59984 376.536327 
L 76.951832 375.260922 
L 77.655816 373.879027 
L 78.007808 372.894809 
L 78.3598 372.886989 
L 79.415776 370.353502 
L 80.11976 368.405824 
L 80.471752 368.397638 
L 81.175736 366.434976 
L 81.527728 366.426937 
L 81.87972 365.484307 
L 82.583704 364.170311 
L 84.343664 360.407977 
L 85.39964 357.612831 
L 85.751632 357.60501 
L 87.1596 354.14892 
L 87.511592 353.523716 
L 87.863584 352.53789 
L 88.215576 352.529777 
L 89.623544 348.868672 
L 89.975536 348.860924 
L 91.031512 345.941527 
L 91.383504 345.933195 
L 92.439479 343.262373 
L 92.791471 342.738105 
L 93.495455 341.021608 
L 93.847447 340.042433 
L 94.199439 340.034393 
L 94.551431 339.058727 
L 94.903423 338.525981 
L 95.959399 335.595108 
L 96.311391 335.586922 
L 96.663383 334.875181 
L 97.719359 332.204798 
L 98.071351 331.667301 
L 98.423343 330.620592 
L 98.775335 330.612698 
L 99.831311 327.509555 
L 100.183303 327.501734 
L 100.887287 325.419645 
L 101.239279 325.411313 
L 102.295255 322.315333 
L 102.647247 322.307585 
L 103.351231 320.587872 
L 104.055215 319.354201 
L 104.759199 317.286072 
L 105.111191 317.277667 
L 105.463183 316.590118 
L 106.167167 314.420834 
L 106.519159 314.413452 
L 107.575135 311.408613 
L 107.927127 311.400354 
L 108.631111 309.367016 
L 108.983103 309.357587 
L 109.335095 307.898364 
L 109.687087 307.890324 
L 110.743063 304.785938 
L 111.095055 304.777971 
L 111.799039 302.715762 
L 112.151031 302.707942 
L 112.855015 300.641567 
L 113.207007 300.6336 
L 113.910991 298.569711 
L 114.966967 296.451297 
L 115.318959 295.402541 
L 115.670951 295.393551 
L 116.022943 294.728221 
L 117.078919 291.6204 
L 117.430911 291.61236 
L 118.134895 289.909385 
L 118.486887 289.141072 
L 118.838879 288.105253 
L 119.190871 288.097287 
L 119.542863 287.075867 
L 120.246847 285.624171 
L 120.950831 283.578335 
L 121.302823 283.57066 
L 122.006807 281.503555 
L 122.358799 281.495076 
L 123.062783 279.437326 
L 123.414775 279.429067 
L 124.470751 276.333525 
L 124.822743 276.325193 
L 125.526727 274.334246 
L 125.878719 274.326571 
L 126.230711 273.283152 
L 126.582703 272.6244 
L 127.286687 270.561533 
L 127.638679 270.553493 
L 128.342663 268.484268 
L 128.694655 268.476302 
L 129.750631 265.403125 
L 130.102623 265.395377 
L 130.454615 264.383239 
L 131.510591 262.186181 
L 131.862583 261.15219 
L 132.214575 261.144223 
L 133.270551 258.043419 
L 133.622543 258.035233 
L 134.326527 255.969443 
L 134.678519 255.961038 
L 135.030511 254.553488 
L 135.382503 254.545156 
L 136.438478 251.444643 
L 136.79047 251.4358 
L 137.142462 250.785526 
L 137.846446 248.715278 
L 138.198438 248.706872 
L 139.254414 245.611696 
L 139.606406 245.603437 
L 140.31039 243.542836 
L 140.662382 243.53465 
L 141.366366 241.477777 
L 142.07035 240.243814 
L 142.422342 239.259157 
L 142.774334 239.251702 
L 143.478318 236.798613 
L 143.83031 236.79072 
L 144.182302 235.571594 
L 144.534294 235.563919 
L 145.238278 233.110757 
L 145.59027 233.102279 
L 145.942262 231.883737 
L 146.294254 231.875625 
L 146.998238 229.44797 
L 147.35023 229.420489 
L 147.702222 228.215323 
L 148.054214 228.207356 
L 148.758198 225.762526 
L 149.11019 225.754121 
L 149.462182 224.527174 
L 149.814174 224.519573 
L 150.518158 222.069261 
L 150.87015 222.061514 
L 151.222142 220.829744 
L 151.574134 220.821777 
L 152.278118 218.375631 
L 152.63011 218.367811 
L 153.334094 216.605779 
L 155.446046 212.043923 
L 155.798038 212.035957 
L 156.502022 209.577825 
L 156.854014 209.569785 
L 157.206006 208.346127 
L 157.557998 208.338014 
L 157.90999 207.115526 
L 158.613974 205.919862 
L 158.965966 204.694816 
L 159.317958 204.686995 
L 160.021942 202.245308 
L 160.373934 202.237195 
L 160.725926 201.018434 
L 161.077918 201.010175 
L 161.42991 199.790245 
L 161.781902 199.782352 
L 162.485886 197.337887 
L 162.837878 197.329555 
L 163.541862 194.688554 
L 163.893854 194.681172 
L 164.245846 193.64528 
L 164.597838 193.639725 
L 164.94983 192.414679 
L 165.301822 192.406639 
L 166.005806 189.95757 
L 166.357798 189.949165 
L 166.70979 188.732232 
L 167.061782 188.724192 
L 167.765766 186.263794 
L 168.117758 186.255096 
L 168.46975 184.816995 
L 168.821742 184.808882 
L 169.173734 183.59056 
L 169.525726 183.583178 
L 170.22971 181.373037 
L 170.581702 181.364998 
L 171.285686 178.917683 
L 171.637678 178.909716 
L 171.98967 177.694464 
L 172.341662 177.68657 
L 173.045646 175.237866 
L 173.397638 175.229607 
L 173.74963 174.012089 
L 174.101622 174.003611 
L 174.453614 172.784339 
L 175.50959 171.054905 
L 175.861582 169.814583 
L 176.213574 169.806616 
L 176.917558 167.363248 
L 177.26955 167.355208 
L 177.621542 166.133889 
L 177.973534 166.126288 
L 178.325526 164.916152 
L 179.02951 163.687232 
L 179.381502 162.459408 
L 179.733493 162.451369 
L 180.085485 161.227784 
L 180.437477 160.897129 
L 181.141461 158.436293 
L 181.493453 158.42818 
L 181.845445 157.210881 
L 182.197437 157.202914 
L 182.901421 154.759107 
L 183.253413 154.750995 
L 183.605405 153.530407 
L 183.957397 153.52244 
L 184.661381 151.066939 
L 185.013373 151.059045 
L 185.365365 149.833049 
L 185.717357 149.824498 
L 186.069349 149.094118 
L 186.773333 146.836762 
L 187.125325 146.828722 
L 187.477317 145.604041 
L 187.829309 145.596148 
L 188.533293 143.144082 
L 188.885285 143.135896 
L 189.237277 141.908364 
L 189.589269 141.900617 
L 189.941261 140.446144 
L 190.293253 140.438177 
L 190.645245 139.224387 
L 191.701221 137.489983 
L 192.405205 135.322526 
L 192.757197 135.314705 
L 193.461181 132.861251 
L 193.813173 132.853577 
L 194.165165 131.631235 
L 194.517157 131.622976 
L 195.221141 129.167621 
L 195.573133 129.1598 
L 195.925125 127.943598 
L 196.277117 127.935412 
L 196.629109 127.367875 
L 196.981101 125.752021 
L 197.333093 125.743982 
L 198.037077 123.291404 
L 198.389069 123.283218 
L 198.741061 122.055175 
L 199.093053 122.047135 
L 199.445045 120.826109 
L 199.797037 120.817923 
L 200.501021 118.136942 
L 200.853013 118.128902 
L 201.205005 116.906122 
L 201.556997 116.898155 
L 201.908989 116.357077 
L 202.612973 113.940898 
L 202.964965 113.932712 
L 203.316957 112.71132 
L 203.668949 112.703134 
L 204.372933 110.245148 
L 204.724925 110.237473 
L 205.076917 109.021636 
L 205.428909 109.01367 
L 206.132893 106.565551 
L 206.484885 106.557657 
L 206.836877 105.343867 
L 207.188869 105.336192 
L 207.540861 103.934124 
L 207.892853 103.926377 
L 208.596837 101.604702 
L 208.948829 101.596443 
L 209.300821 100.372274 
L 209.652813 100.364088 
L 210.356797 97.907856 
L 210.708789 97.899231 
L 211.060781 96.457841 
L 211.412773 96.449436 
L 211.764765 95.226436 
L 212.116757 95.21847 
L 212.820741 92.773201 
L 213.172733 92.764796 
L 213.524725 91.543039 
L 213.876717 91.535145 
L 214.580701 89.092361 
L 214.932693 89.084687 
L 215.284685 87.864757 
L 215.636677 87.856937 
L 216.340661 85.400851 
L 216.692653 85.392592 
L 217.044645 84.17712 
L 217.396637 84.169227 
L 218.100621 81.713726 
L 218.452613 81.705028 
L 218.804605 80.6581 
L 219.156597 80.650206 
L 219.860581 78.202087 
L 220.212573 78.193755 
L 220.564565 76.972729 
L 220.916557 76.964762 
L 221.620541 74.284366 
L 221.972533 74.27618 
L 222.324525 73.049818 
L 222.676517 73.041924 
L 223.028509 71.810666 
L 223.380501 71.802772 
L 224.084484 69.567196 
L 224.436476 69.561641 
L 225.14046 67.106871 
L 225.492452 67.098831 
L 225.844444 65.875832 
L 226.196436 65.86823 
L 226.90042 63.415214 
L 227.252412 63.407248 
L 227.604404 62.18571 
L 227.956396 62.177743 
L 228.66038 59.973741 
L 229.012372 59.965775 
L 229.364364 59.386398 
L 229.716356 57.770983 
L 230.068348 57.762943 
L 230.42034 56.538335 
L 230.772332 56.530295 
L 231.476316 54.085027 
L 231.828308 54.065439 
L 232.1803 52.620394 
L 232.532292 52.612062 
L 232.884284 51.386943 
L 233.236276 51.378611 
L 233.94026 48.942332 
L 234.292252 48.934439 
L 234.644244 48.357839 
L 234.996236 47.201935 
L 235.70022 45.747023 
L 236.052212 44.570728 
L 236.404204 44.562395 
L 236.756196 43.346193 
L 237.108188 43.338153 
L 237.812172 40.883164 
L 238.164164 40.87527 
L 238.516156 39.652928 
L 238.868148 39.645181 
L 239.572132 37.196038 
L 239.924124 37.187706 
L 240.276116 36.640561 
L 240.628108 35.018495 
L 240.9801 35.01009 
L 241.332092 33.788918 
L 241.684084 33.780732 
L 242.388068 31.101651 
L 242.74006 31.093246 
L 243.092052 29.8739 
L 243.444044 29.866153 
L 243.796036 28.644103 
L 244.148028 28.635698 
L 244.852012 26.195619 
L 245.204004 26.187725 
L 245.907988 24.96129 
L 246.25998 23.491396 
L 246.611972 23.483575 
L 247.315956 21.02939 
L 247.667948 21.021423 
L 248.01994 19.806244 
L 248.371932 19.798131 
L 249.075916 17.33766 
L 249.427908 17.329766 
L 249.7799 15.865792 
L 250.131892 15.857898 
L 250.483884 14.875946 
L 250.835876 14.867906 
L 251.53986 12.191969 
L 251.891852 12.183783 
L 252.243844 10.959906 
L 252.595836 10.951574 
L 253.29982 8.267742 
L 254.003804 8.256998 
L 254.707788 5.802155 
L 255.05978 5.79375 
L 255.411772 4.564538 
L 255.763764 4.556644 
L 256.115756 3.341976 
L 257.171732 1.608084 
L 257.875716 -0.546509 
L 258.227708 -0.554695 
L 258.355596 -1 
L 258.355596 -1 
" clip-path="url(#p1748a81555)" style="fill: none; stroke: #ff7f0e; stroke-width: 1.5; stroke-linecap: square"/>
   </g>
   <g id="line2d_14">
    <path d="M 69.56 391 
L 104.759199 317.286072 
L 139.958398 244.572515 
L 175.157598 171.790765 
L 210.356797 97.907856 
L 245.555996 25.633856 
L 258.289164 -1 
" clip-path="url(#p1748a81555)" style="fill: none"/>
    <defs>
     <path id="m6d2336cfe3" d="M 0 4.5 
C 1.193414 4.5 2.338109 4.025852 3.181981 3.181981 
C 4.025852 2.338109 4.5 1.193414 4.5 0 
C 4.5 -1.193414 4.025852 -2.338109 3.181981 -3.181981 
C 2.338109 -4.025852 1.193414 -4.5 0 -4.5 
C -1.193414 -4.5 -2.338109 -4.025852 -3.181981 -3.181981 
C -4.025852 -2.338109 -4.5 -1.193414 -4.5 0 
C -4.5 1.193414 -4.025852 2.338109 -3.181981 3.181981 
C -2.338109 4.025852 -1.193414 4.5 0 4.5 
z
" style="stroke: #ff7f0e"/>
    </defs>
    <g clip-path="url(#p1748a81555)">
     <use xlink:href="#m6d2336cfe3" x="69.56" y="391" style="fill: #ff7f0e; stroke: #ff7f0e"/>
     <use xlink:href="#m6d2336cfe3" x="104.759199" y="317.286072" style="fill: #ff7f0e; stroke: #ff7f0e"/>
     <use xlink:href="#m6d2336cfe3" x="139.958398" y="244.572515" style="fill: #ff7f0e; stroke: #ff7f0e"/>
     <use xlink:href="#m6d2336cfe3" x="175.157598" y="171.790765" style="fill: #ff7f0e; stroke: #ff7f0e"/>
     <use xlink:href="#m6d2336cfe3" x="210.356797" y="97.907856" style="fill: #ff7f0e; stroke: #ff7f0e"/>
     <use xlink:href="#m6d2336cfe3" x="245.555996" y="25.633856" style="fill: #ff7f0e; stroke: #ff7f0e"/>
     <use xlink:href="#m6d2336cfe3" x="258.289164" y="-1" style="fill: #ff7f0e; stroke: #ff7f0e"/>
    </g>
   </g>
   <g id="line2d_15">
    <path d="M 69.56 391 
L 81.481084 -1 
L 81.481084 -1 
" clip-path="url(#p1748a81555)" style="fill: none; stroke: #2ca02c; stroke-width: 1.5; stroke-linecap: square"/>
   </g>
   <g id="line2d_16">
    <path d="M 69.56 391 
L 81.495376 -1 
" clip-path="url(#p1748a81555)" style="fill: none"/>
    <defs>
     <path id="m82186cf96b" d="M 0 -4 
L -3.804226 -1.236068 
L -2.351141 3.236068 
L 2.351141 3.236068 
L 3.804226 -1.236068 
z
" style="stroke: #2ca02c; stroke-linejoin: miter"/>
    </defs>
    <g clip-path="url(#p1748a81555)">
     <use xlink:href="#m82186cf96b" x="69.56" y="391" style="fill: #2ca02c; stroke: #2ca02c; stroke-linejoin: miter"/>
     <use xlink:href="#m82186cf96b" x="81.495376" y="-1" style="fill: #2ca02c; stroke: #2ca02c; stroke-linejoin: miter"/>
    </g>
   </g>
   <g id="line2d_17">
    <path d="M 69.56 391 
L 81.175736 8.497535 
L 81.460442 -1 
L 81.460442 -1 
" clip-path="url(#p1748a81555)" style="fill: none; stroke: #d62728; stroke-width: 1.5; stroke-linecap: square"/>
   </g>
   <g id="line2d_18">
    <path d="M 69.56 391 
L 81.457898 -1 
" clip-path="url(#p1748a81555)" style="fill: none"/>
    <defs>
     <path id="m01a3267165" d="M -0 3.5 
L 3.5 -3.5 
L -3.5 -3.5 
z
" style="stroke: #d62728; stroke-linejoin: miter"/>
    </defs>
    <g clip-path="url(#p1748a81555)">
     <use xlink:href="#m01a3267165" x="69.56" y="391" style="fill: #d62728; stroke: #d62728; stroke-linejoin: miter"/>
     <use xlink:href="#m01a3267165" x="81.457898" y="-1" style="fill: #d62728; stroke: #d62728; stroke-linejoin: miter"/>
    </g>
   </g>
   <g id="line2d_19">
    <path d="M 69.56 391 
L 75.543864 390.96996 
L 76.59984 390.965794 
L 76.951832 379.707663 
L 82.935696 379.677623 
L 87.511592 379.659862 
L 87.863584 368.454209 
L 95.959399 368.35912 
L 98.423343 368.349764 
L 98.775335 356.937488 
L 104.759199 356.907667 
L 109.335095 356.890053 
L 109.687087 345.407245 
L 115.318959 345.378448 
L 120.598839 345.357983 
L 120.950831 334.163147 
L 126.934695 334.130403 
L 131.510591 334.1095 
L 131.862583 322.555503 
L 138.198438 322.524221 
L 142.422342 322.507703 
L 142.774334 311.279684 
L 147.702222 311.252422 
L 153.334094 311.218728 
L 153.686086 299.835029 
L 159.317958 299.806159 
L 164.597838 299.785621 
L 164.94983 288.177539 
L 169.525726 288.150934 
L 175.50959 288.127619 
L 175.861582 276.839959 
L 181.493453 276.811016 
L 186.773333 276.790332 
L 187.125325 265.457137 
L 192.757197 265.414892 
L 197.685085 265.395304 
L 198.037077 254.172109 
L 204.020941 254.142142 
L 208.596837 254.124528 
L 208.948829 242.470838 
L 209.652813 242.40038 
L 219.860581 242.357477 
L 220.212573 231.169876 
L 225.492452 231.137352 
L 230.42034 231.118422 
L 230.772332 219.867306 
L 235.70022 219.838363 
L 241.332092 219.81629 
L 241.684084 208.310167 
L 247.315956 208.281005 
L 252.595836 208.260394 
L 252.947828 196.997584 
L 258.5797 196.956435 
L 263.507588 196.936263 
L 263.85958 185.54584 
L 269.843443 185.512877 
L 274.419339 185.495189 
L 274.771331 174.33485 
L 279.699219 174.305907 
L 285.331091 174.284346 
L 285.683083 162.653679 
L 292.018939 162.622543 
L 296.594835 162.604636 
L 296.946827 151.090108 
L 301.522723 151.061019 
L 307.858579 151.036461 
L 308.210571 139.589613 
L 313.138458 139.559062 
L 318.77033 139.534723 
L 319.122322 128.098839 
L 324.754194 128.055789 
L 329.682082 128.036348 
L 330.034074 116.914893 
L 335.665946 116.883172 
L 340.593834 116.862122 
L 340.945826 105.42251 
L 348.337658 105.33378 
L 351.857578 105.320405 
L 352.20957 93.72504 
L 358.545425 93.682283 
L 363.121321 93.664011 
L 363.473313 81.720523 
L 369.105185 81.691287 
L 374.737057 81.669361 
L 375.089049 70.024441 
L 380.720921 69.995498 
L 385.648809 69.962462 
L 386.000801 58.535275 
L 391.280681 58.504285 
L 396.912553 58.479362 
L 397.264545 46.915864 
L 406.064344 46.799799 
L 408.176296 46.791613 
L 408.528288 35.140919 
L 414.16016 35.112195 
L 419.44004 35.091657 
L 419.792032 23.499362 
L 421.2 23.486864 
L 421.2 23.486864 
" clip-path="url(#p1748a81555)" style="fill: none; stroke: #9467bd; stroke-width: 1.5; stroke-linecap: square"/>
   </g>
   <g id="line2d_20">
    <path d="M 69.56 391 
L 104.759199 356.907667 
L 139.958398 322.517205 
L 175.157598 288.129007 
L 210.356797 242.397384 
L 245.555996 208.287802 
L 280.755195 174.302033 
L 315.954394 139.547075 
L 351.153594 105.323036 
L 386.352793 58.52592 
" clip-path="url(#p1748a81555)" style="fill: none"/>
    <defs>
     <path id="m2f1b308127" d="M 0 -3 
L -3 3 
L 3 3 
z
" style="stroke: #9467bd; stroke-linejoin: miter"/>
    </defs>
    <g clip-path="url(#p1748a81555)">
     <use xlink:href="#m2f1b308127" x="69.56" y="391" style="fill: #9467bd; stroke: #9467bd; stroke-linejoin: miter"/>
     <use xlink:href="#m2f1b308127" x="104.759199" y="356.907667" style="fill: #9467bd; stroke: #9467bd; stroke-linejoin: miter"/>
     <use xlink:href="#m2f1b308127" x="139.958398" y="322.517205" style="fill: #9467bd; stroke: #9467bd; stroke-linejoin: miter"/>
     <use xlink:href="#m2f1b308127" x="175.157598" y="288.129007" style="fill: #9467bd; stroke: #9467bd; stroke-linejoin: miter"/>
     <use xlink:href="#m2f1b308127" x="210.356797" y="242.397384" style="fill: #9467bd; stroke: #9467bd; stroke-linejoin: miter"/>
     <use xlink:href="#m2f1b308127" x="245.555996" y="208.287802" style="fill: #9467bd; stroke: #9467bd; stroke-linejoin: miter"/>
     <use xlink:href="#m2f1b308127" x="280.755195" y="174.302033" style="fill: #9467bd; stroke: #9467bd; stroke-linejoin: miter"/>
     <use xlink:href="#m2f1b308127" x="315.954394" y="139.547075" style="fill: #9467bd; stroke: #9467bd; stroke-linejoin: miter"/>
     <use xlink:href="#m2f1b308127" x="351.153594" y="105.323036" style="fill: #9467bd; stroke: #9467bd; stroke-linejoin: miter"/>
     <use xlink:href="#m2f1b308127" x="386.352793" y="58.52592" style="fill: #9467bd; stroke: #9467bd; stroke-linejoin: miter"/>
    </g>
   </g>
   <g id="line2d_21">
    <path d="M 69.56 391 
L 421.2 25.920073 
L 421.2 25.920073 
" clip-path="url(#p1748a81555)" style="fill: none; stroke: #8c564b; stroke-width: 1.5; stroke-linecap: square"/>
   </g>
   <g id="line2d_22">
    <path d="M 69.56 391 
L 104.759199 354.455529 
L 139.958398 317.910984 
L 175.157598 281.366439 
L 210.356797 244.821895 
L 245.555996 208.27735 
L 280.755195 171.732806 
L 315.954394 135.188261 
L 351.153594 98.643717 
L 386.352793 62.099172 
" clip-path="url(#p1748a81555)" style="fill: none"/>
    <defs>
     <path id="m7deab323fb" d="M -2.5 -0 
L 2.5 2.5 
L 2.5 -2.5 
z
" style="stroke: #8c564b; stroke-linejoin: miter"/>
    </defs>
    <g clip-path="url(#p1748a81555)">
     <use xlink:href="#m7deab323fb" x="69.56" y="391" style="fill: #8c564b; stroke: #8c564b; stroke-linejoin: miter"/>
     <use xlink:href="#m7deab323fb" x="104.759199" y="354.455529" style="fill: #8c564b; stroke: #8c564b; stroke-linejoin: miter"/>
     <use xlink:href="#m7deab323fb" x="139.958398" y="317.910984" style="fill: #8c564b; stroke: #8c564b; stroke-linejoin: miter"/>
     <use xlink:href="#m7deab323fb" x="175.157598" y="281.366439" style="fill: #8c564b; stroke: #8c564b; stroke-linejoin: miter"/>
     <use xlink:href="#m7deab323fb" x="210.356797" y="244.821895" style="fill: #8c564b; stroke: #8c564b; stroke-linejoin: miter"/>
     <use xlink:href="#m7deab323fb" x="245.555996" y="208.27735" style="fill: #8c564b; stroke: #8c564b; stroke-linejoin: miter"/>
     <use xlink:href="#m7deab323fb" x="280.755195" y="171.732806" style="fill: #8c564b; stroke: #8c564b; stroke-linejoin: miter"/>
     <use xlink:href="#m7deab323fb" x="315.954394" y="135.188261" style="fill: #8c564b; stroke: #8c564b; stroke-linejoin: miter"/>
     <use xlink:href="#m7deab323fb" x="351.153594" y="98.643717" style="fill: #8c564b; stroke: #8c564b; stroke-linejoin: miter"/>
     <use xlink:href="#m7deab323fb" x="386.352793" y="62.099172" style="fill: #8c564b; stroke: #8c564b; stroke-linejoin: miter"/>
    </g>
   </g>
   <g id="patch_3">
    <path d="M 69.56 391 
L 69.56 25.92 
" style="fill: none; stroke: #000000; stroke-width: 0.8; stroke-linejoin: miter; stroke-linecap: square"/>
   </g>
   <g id="patch_4">
    <path d="M 421.2 391 
L 421.2 25.92 
" style="fill: none; stroke: #000000; stroke-width: 0.8; stroke-linejoin: miter; stroke-linecap: square"/>
   </g>
   <g id="patch_5">
    <path d="M 69.56 391 
L 421.2 391 
" style="fill: none; stroke: #000000; stroke-width: 0.8; stroke-linejoin: miter; stroke-linecap: square"/>
   </g>
   <g id="patch_6">
    <path d="M 69.56 25.92 
L 421.2 25.92 
" style="fill: none; stroke: #000000; stroke-width: 0.8; stroke-linejoin: miter; stroke-linecap: square"/>
   </g>
   <g id="text_13">
    <!-- Interval: 500.0 [us] -->
    <g transform="translate(187.78 19.92)scale(0.12 -0.12)">
     <defs>
      <path id="DejaVuSans-76" d="M 191 3500 
L 800 3500 
L 1894 563 
L 2988 3500 
L 3597 3500 
L 2284 0 
L 1503 0 
L 191 3500 
z
" transform="scale(0.015625)"/>
      <path id="DejaVuSans-6c" d="M 603 4863 
L 1178 4863 
L 1178 0 
L 603 0 
L 603 4863 
z
" transform="scale(0.015625)"/>
      <path id="DejaVuSans-3a" d="M 750 794 
L 1409 794 
L 1409 0 
L 750 0 
L 750 794 
z
M 750 3309 
L 1409 3309 
L 1409 2516 
L 750 2516 
L 750 3309 
z
" transform="scale(0.015625)"/>
      <path id="DejaVuSans-35" d="M 691 4666 
L 3169 4666 
L 3169 4134 
L 1269 4134 
L 1269 2991 
Q 1406 3038 1543 3061 
Q 1681 3084 1819 3084 
Q 2600 3084 3056 2656 
Q 3513 2228 3513 1497 
Q 3513 744 3044 326 
Q 2575 -91 1722 -91 
Q 1428 -91 1123 -41 
Q 819 9 494 109 
L 494 744 
Q 775 591 1075 516 
Q 1375 441 1709 441 
Q 2250 441 2565 725 
Q 2881 1009 2881 1497 
Q 2881 1984 2565 2268 
Q 2250 2553 1709 2553 
Q 1456 2553 1204 2497 
Q 953 2441 691 2322 
L 691 4666 
z
" transform="scale(0.015625)"/>
      <path id="DejaVuSans-2e" d="M 684 794 
L 1344 794 
L 1344 0 
L 684 0 
L 684 794 
z
" transform="scale(0.015625)"/>
     </defs>
     <use xlink:href="#DejaVuSans-49"/>
     <use xlink:href="#DejaVuSans-6e" x="29.492188"/>
     <use xlink:href="#DejaVuSans-74" x="92.871094"/>
     <use xlink:href="#DejaVuSans-65" x="132.080078"/>
     <use xlink:href="#DejaVuSans-72" x="193.603516"/>
     <use xlink:href="#DejaVuSans-76" x="234.716797"/>
     <use xlink:href="#DejaVuSans-61" x="293.896484"/>
     <use xlink:href="#DejaVuSans-6c" x="355.175781"/>
     <use xlink:href="#DejaVuSans-3a" x="382.958984"/>
     <use xlink:href="#DejaVuSans-20" x="416.650391"/>
     <use xlink:href="#DejaVuSans-35" x="448.4375"/>
     <use xlink:href="#DejaVuSans-30" x="512.060547"/>
     <use xlink:href="#DejaVuSans-30" x="575.683594"/>
     <use xlink:href="#DejaVuSans-2e" x="639.306641"/>
     <use xlink:href="#DejaVuSans-30" x="671.09375"/>
     <use xlink:href="#DejaVuSans-20" x="734.716797"/>
     <use xlink:href="#DejaVuSans-5b" x="766.503906"/>
     <use xlink:href="#DejaVuSans-75" x="805.517578"/>
     <use xlink:href="#DejaVuSans-73" x="868.896484"/>
     <use xlink:href="#DejaVuSans-5d" x="920.996094"/>
    </g>
   </g>
   <g id="legend_1">
    <g id="patch_7">
     <path d="M 202.782812 386 
L 414.2 386 
Q 416.2 386 416.2 384 
L 416.2 296.93125 
Q 416.2 294.93125 414.2 294.93125 
L 202.782812 294.93125 
Q 200.782812 294.93125 200.782812 296.93125 
L 200.782812 384 
Q 200.782812 386 202.782812 386 
z
" style="fill: #ffffff; opacity: 0.8; stroke: #cccccc; stroke-linejoin: miter"/>
    </g>
    <g id="line2d_23">
     <path d="M 204.782812 303.029688 
L 214.782812 303.029688 
L 224.782812 303.029688 
" style="fill: none"/>
     <g>
      <use xlink:href="#mf957f89d0a" x="214.782812" y="303.029688" style="fill: #1f77b4; stroke: #1f77b4; stroke-linejoin: miter"/>
     </g>
    </g>
    <g id="text_14">
     <!-- StdSleepTimer -->
     <g transform="translate(232.782812 306.529688)scale(0.1 -0.1)">
      <defs>
       <path id="DejaVuSans-53" d="M 3425 4513 
L 3425 3897 
Q 3066 4069 2747 4153 
Q 2428 4238 2131 4238 
Q 1616 4238 1336 4038 
Q 1056 3838 1056 3469 
Q 1056 3159 1242 3001 
Q 1428 2844 1947 2747 
L 2328 2669 
Q 3034 2534 3370 2195 
Q 3706 1856 3706 1288 
Q 3706 609 3251 259 
Q 2797 -91 1919 -91 
Q 1588 -91 1214 -16 
Q 841 59 441 206 
L 441 856 
Q 825 641 1194 531 
Q 1563 422 1919 422 
Q 2459 422 2753 634 
Q 3047 847 3047 1241 
Q 3047 1584 2836 1778 
Q 2625 1972 2144 2069 
L 1759 2144 
Q 1053 2284 737 2584 
Q 422 2884 422 3419 
Q 422 4038 858 4394 
Q 1294 4750 2059 4750 
Q 2388 4750 2728 4690 
Q 3069 4631 3425 4513 
z
" transform="scale(0.015625)"/>
       <path id="DejaVuSans-64" d="M 2906 2969 
L 2906 4863 
L 3481 4863 
L 3481 0 
L 2906 0 
L 2906 525 
Q 2725 213 2448 61 
Q 2172 -91 1784 -91 
Q 1150 -91 751 415 
Q 353 922 353 1747 
Q 353 2572 751 3078 
Q 1150 3584 1784 3584 
Q 2172 3584 2448 3432 
Q 2725 3281 2906 2969 
z
M 947 1747 
Q 947 1113 1208 752 
Q 1469 391 1925 391 
Q 2381 391 2643 752 
Q 2906 1113 2906 1747 
Q 2906 2381 2643 2742 
Q 2381 3103 1925 3103 
Q 1469 3103 1208 2742 
Q 947 2381 947 1747 
z
" transform="scale(0.015625)"/>
       <path id="DejaVuSans-70" d="M 1159 525 
L 1159 -1331 
L 581 -1331 
L 581 3500 
L 1159 3500 
L 1159 2969 
Q 1341 3281 1617 3432 
Q 1894 3584 2278 3584 
Q 2916 3584 3314 3078 
Q 3713 2572 3713 1747 
Q 3713 922 3314 415 
Q 2916 -91 2278 -91 
Q 1894 -91 1617 61 
Q 1341 213 1159 525 
z
M 3116 1747 
Q 3116 2381 2855 2742 
Q 2594 3103 2138 3103 
Q 1681 3103 1420 2742 
Q 1159 2381 1159 1747 
Q 1159 1113 1420 752 
Q 1681 391 2138 391 
Q 2594 391 2855 752 
Q 3116 1113 3116 1747 
z
" transform="scale(0.015625)"/>
      </defs>
      <use xlink:href="#DejaVuSans-53"/>
      <use xlink:href="#DejaVuSans-74" x="63.476562"/>
      <use xlink:href="#DejaVuSans-64" x="102.685547"/>
      <use xlink:href="#DejaVuSans-53" x="166.162109"/>
      <use xlink:href="#DejaVuSans-6c" x="229.638672"/>
      <use xlink:href="#DejaVuSans-65" x="257.421875"/>
      <use xlink:href="#DejaVuSans-65" x="318.945312"/>
      <use xlink:href="#DejaVuSans-70" x="380.46875"/>
      <use xlink:href="#DejaVuSans-54" x="443.945312"/>
      <use xlink:href="#DejaVuSans-69" x="501.904297"/>
      <use xlink:href="#DejaVuSans-6d" x="529.6875"/>
      <use xlink:href="#DejaVuSans-65" x="627.099609"/>
      <use xlink:href="#DejaVuSans-72" x="688.623047"/>
     </g>
    </g>
    <g id="line2d_24">
     <path d="M 204.782812 317.707812 
L 214.782812 317.707812 
L 224.782812 317.707812 
" style="fill: none"/>
     <g>
      <use xlink:href="#m6d2336cfe3" x="214.782812" y="317.707812" style="fill: #ff7f0e; stroke: #ff7f0e"/>
     </g>
    </g>
    <g id="text_15">
     <!-- MultiMediaTimer -->
     <g transform="translate(232.782812 321.207812)scale(0.1 -0.1)">
      <defs>
       <path id="DejaVuSans-4d" d="M 628 4666 
L 1569 4666 
L 2759 1491 
L 3956 4666 
L 4897 4666 
L 4897 0 
L 4281 0 
L 4281 4097 
L 3078 897 
L 2444 897 
L 1241 4097 
L 1241 0 
L 628 0 
L 628 4666 
z
" transform="scale(0.015625)"/>
      </defs>
      <use xlink:href="#DejaVuSans-4d"/>
      <use xlink:href="#DejaVuSans-75" x="86.279297"/>
      <use xlink:href="#DejaVuSans-6c" x="149.658203"/>
      <use xlink:href="#DejaVuSans-74" x="177.441406"/>
      <use xlink:href="#DejaVuSans-69" x="216.650391"/>
      <use xlink:href="#DejaVuSans-4d" x="244.433594"/>
      <use xlink:href="#DejaVuSans-65" x="330.712891"/>
      <use xlink:href="#DejaVuSans-64" x="392.236328"/>
      <use xlink:href="#DejaVuSans-69" x="455.712891"/>
      <use xlink:href="#DejaVuSans-61" x="483.496094"/>
      <use xlink:href="#DejaVuSans-54" x="544.775391"/>
      <use xlink:href="#DejaVuSans-69" x="602.734375"/>
      <use xlink:href="#DejaVuSans-6d" x="630.517578"/>
      <use xlink:href="#DejaVuSans-65" x="727.929688"/>
      <use xlink:href="#DejaVuSans-72" x="789.453125"/>
     </g>
    </g>
    <g id="line2d_25">
     <path d="M 204.782812 332.385938 
L 214.782812 332.385938 
L 224.782812 332.385938 
" style="fill: none"/>
     <g>
      <use xlink:href="#m82186cf96b" x="214.782812" y="332.385938" style="fill: #2ca02c; stroke: #2ca02c; stroke-linejoin: miter"/>
     </g>
    </g>
    <g id="text_16">
     <!-- TimerQueueTimer -->
     <g transform="translate(232.782812 335.885938)scale(0.1 -0.1)">
      <defs>
       <path id="DejaVuSans-51" d="M 2522 4238 
Q 1834 4238 1429 3725 
Q 1025 3213 1025 2328 
Q 1025 1447 1429 934 
Q 1834 422 2522 422 
Q 3209 422 3611 934 
Q 4013 1447 4013 2328 
Q 4013 3213 3611 3725 
Q 3209 4238 2522 4238 
z
M 3406 84 
L 4238 -825 
L 3475 -825 
L 2784 -78 
Q 2681 -84 2626 -87 
Q 2572 -91 2522 -91 
Q 1538 -91 948 567 
Q 359 1225 359 2328 
Q 359 3434 948 4092 
Q 1538 4750 2522 4750 
Q 3503 4750 4090 4092 
Q 4678 3434 4678 2328 
Q 4678 1516 4351 937 
Q 4025 359 3406 84 
z
" transform="scale(0.015625)"/>
      </defs>
      <use xlink:href="#DejaVuSans-54"/>
      <use xlink:href="#DejaVuSans-69" x="57.958984"/>
      <use xlink:href="#DejaVuSans-6d" x="85.742188"/>
      <use xlink:href="#DejaVuSans-65" x="183.154297"/>
      <use xlink:href="#DejaVuSans-72" x="244.677734"/>
      <use xlink:href="#DejaVuSans-51" x="285.791016"/>
      <use xlink:href="#DejaVuSans-75" x="364.501953"/>
      <use xlink:href="#DejaVuSans-65" x="427.880859"/>
      <use xlink:href="#DejaVuSans-75" x="489.404297"/>
      <use xlink:href="#DejaVuSans-65" x="552.783203"/>
      <use xlink:href="#DejaVuSans-54" x="614.306641"/>
      <use xlink:href="#DejaVuSans-69" x="672.265625"/>
      <use xlink:href="#DejaVuSans-6d" x="700.048828"/>
      <use xlink:href="#DejaVuSans-65" x="797.460938"/>
      <use xlink:href="#DejaVuSans-72" x="858.984375"/>
     </g>
    </g>
    <g id="line2d_26">
     <path d="M 204.782812 347.064062 
L 214.782812 347.064062 
L 224.782812 347.064062 
" style="fill: none"/>
     <g>
      <use xlink:href="#m01a3267165" x="214.782812" y="347.064062" style="fill: #d62728; stroke: #d62728; stroke-linejoin: miter"/>
     </g>
    </g>
    <g id="text_17">
     <!-- ThreadPoolTimer -->
     <g transform="translate(232.782812 350.564062)scale(0.1 -0.1)">
      <defs>
       <path id="DejaVuSans-68" d="M 3513 2113 
L 3513 0 
L 2938 0 
L 2938 2094 
Q 2938 2591 2744 2837 
Q 2550 3084 2163 3084 
Q 1697 3084 1428 2787 
Q 1159 2491 1159 1978 
L 1159 0 
L 581 0 
L 581 4863 
L 1159 4863 
L 1159 2956 
Q 1366 3272 1645 3428 
Q 1925 3584 2291 3584 
Q 2894 3584 3203 3211 
Q 3513 2838 3513 2113 
z
" transform="scale(0.015625)"/>
       <path id="DejaVuSans-50" d="M 1259 4147 
L 1259 2394 
L 2053 2394 
Q 2494 2394 2734 2622 
Q 2975 2850 2975 3272 
Q 2975 3691 2734 3919 
Q 2494 4147 2053 4147 
L 1259 4147 
z
M 628 4666 
L 2053 4666 
Q 2838 4666 3239 4311 
Q 3641 3956 3641 3272 
Q 3641 2581 3239 2228 
Q 2838 1875 2053 1875 
L 1259 1875 
L 1259 0 
L 628 0 
L 628 4666 
z
" transform="scale(0.015625)"/>
      </defs>
      <use xlink:href="#DejaVuSans-54"/>
      <use xlink:href="#DejaVuSans-68" x="61.083984"/>
      <use xlink:href="#DejaVuSans-72" x="124.462891"/>
      <use xlink:href="#DejaVuSans-65" x="163.326172"/>
      <use xlink:href="#DejaVuSans-61" x="224.849609"/>
      <use xlink:href="#DejaVuSans-64" x="286.128906"/>
      <use xlink:href="#DejaVuSans-50" x="349.605469"/>
      <use xlink:href="#DejaVuSans-6f" x="406.283203"/>
      <use xlink:href="#DejaVuSans-6f" x="467.464844"/>
      <use xlink:href="#DejaVuSans-6c" x="528.646484"/>
      <use xlink:href="#DejaVuSans-54" x="556.429688"/>
      <use xlink:href="#DejaVuSans-69" x="614.388672"/>
      <use xlink:href="#DejaVuSans-6d" x="642.171875"/>
      <use xlink:href="#DejaVuSans-65" x="739.583984"/>
      <use xlink:href="#DejaVuSans-72" x="801.107422"/>
     </g>
    </g>
    <g id="line2d_27">
     <path d="M 204.782812 361.742188 
L 214.782812 361.742188 
L 224.782812 361.742188 
" style="fill: none"/>
     <g>
      <use xlink:href="#m2f1b308127" x="214.782812" y="361.742188" style="fill: #9467bd; stroke: #9467bd; stroke-linejoin: miter"/>
     </g>
    </g>
    <g id="text_18">
     <!-- WaitableTimer -->
     <g transform="translate(232.782812 365.242188)scale(0.1 -0.1)">
      <defs>
       <path id="DejaVuSans-57" d="M 213 4666 
L 850 4666 
L 1831 722 
L 2809 4666 
L 3519 4666 
L 4500 722 
L 5478 4666 
L 6119 4666 
L 4947 0 
L 4153 0 
L 3169 4050 
L 2175 0 
L 1381 0 
L 213 4666 
z
" transform="scale(0.015625)"/>
       <path id="DejaVuSans-62" d="M 3116 1747 
Q 3116 2381 2855 2742 
Q 2594 3103 2138 3103 
Q 1681 3103 1420 2742 
Q 1159 2381 1159 1747 
Q 1159 1113 1420 752 
Q 1681 391 2138 391 
Q 2594 391 2855 752 
Q 3116 1113 3116 1747 
z
M 1159 2969 
Q 1341 3281 1617 3432 
Q 1894 3584 2278 3584 
Q 2916 3584 3314 3078 
Q 3713 2572 3713 1747 
Q 3713 922 3314 415 
Q 2916 -91 2278 -91 
Q 1894 -91 1617 61 
Q 1341 213 1159 525 
L 1159 0 
L 581 0 
L 581 4863 
L 1159 4863 
L 1159 2969 
z
" transform="scale(0.015625)"/>
      </defs>
      <use xlink:href="#DejaVuSans-57"/>
      <use xlink:href="#DejaVuSans-61" x="92.501953"/>
      <use xlink:href="#DejaVuSans-69" x="153.78125"/>
      <use xlink:href="#DejaVuSans-74" x="181.564453"/>
      <use xlink:href="#DejaVuSans-61" x="220.773438"/>
      <use xlink:href="#DejaVuSans-62" x="282.052734"/>
      <use xlink:href="#DejaVuSans-6c" x="345.529297"/>
      <use xlink:href="#DejaVuSans-65" x="373.3125"/>
      <use xlink:href="#DejaVuSans-54" x="434.835938"/>
      <use xlink:href="#DejaVuSans-69" x="492.794922"/>
      <use xlink:href="#DejaVuSans-6d" x="520.578125"/>
      <use xlink:href="#DejaVuSans-65" x="617.990234"/>
      <use xlink:href="#DejaVuSans-72" x="679.513672"/>
     </g>
    </g>
    <g id="line2d_28">
     <path d="M 204.782812 376.420313 
L 214.782812 376.420313 
L 224.782812 376.420313 
" style="fill: none"/>
     <g>
      <use xlink:href="#m7deab323fb" x="214.782812" y="376.420313" style="fill: #8c564b; stroke: #8c564b; stroke-linejoin: miter"/>
     </g>
    </g>
    <g id="text_19">
     <!-- PerformanceCounterSoftSleepTimer -->
     <g transform="translate(232.782812 379.920313)scale(0.1 -0.1)">
      <defs>
       <path id="DejaVuSans-66" d="M 2375 4863 
L 2375 4384 
L 1825 4384 
Q 1516 4384 1395 4259 
Q 1275 4134 1275 3809 
L 1275 3500 
L 2222 3500 
L 2222 3053 
L 1275 3053 
L 1275 0 
L 697 0 
L 697 3053 
L 147 3053 
L 147 3500 
L 697 3500 
L 697 3744 
Q 697 4328 969 4595 
Q 1241 4863 1831 4863 
L 2375 4863 
z
" transform="scale(0.015625)"/>
       <path id="DejaVuSans-63" d="M 3122 3366 
L 3122 2828 
Q 2878 2963 2633 3030 
Q 2388 3097 2138 3097 
Q 1578 3097 1268 2742 
Q 959 2388 959 1747 
Q 959 1106 1268 751 
Q 1578 397 2138 397 
Q 2388 397 2633 464 
Q 2878 531 3122 666 
L 3122 134 
Q 2881 22 2623 -34 
Q 2366 -91 2075 -91 
Q 1284 -91 818 406 
Q 353 903 353 1747 
Q 353 2603 823 3093 
Q 1294 3584 2113 3584 
Q 2378 3584 2631 3529 
Q 2884 3475 3122 3366 
z
" transform="scale(0.015625)"/>
       <path id="DejaVuSans-43" d="M 4122 4306 
L 4122 3641 
Q 3803 3938 3442 4084 
Q 3081 4231 2675 4231 
Q 1875 4231 1450 3742 
Q 1025 3253 1025 2328 
Q 1025 1406 1450 917 
Q 1875 428 2675 428 
Q 3081 428 3442 575 
Q 3803 722 4122 1019 
L 4122 359 
Q 3791 134 3420 21 
Q 3050 -91 2638 -91 
Q 1578 -91 968 557 
Q 359 1206 359 2328 
Q 359 3453 968 4101 
Q 1578 4750 2638 4750 
Q 3056 4750 3426 4639 
Q 3797 4528 4122 4306 
z
" transform="scale(0.015625)"/>
      </defs>
      <use xlink:href="#DejaVuSans-50"/>
      <use xlink:href="#DejaVuSans-65" x="56.677734"/>
      <use xlink:href="#DejaVuSans-72" x="118.201172"/>
      <use xlink:href="#DejaVuSans-66" x="159.314453"/>
      <use xlink:href="#DejaVuSans-6f" x="194.519531"/>
      <use xlink:href="#DejaVuSans-72" x="255.701172"/>
      <use xlink:href="#DejaVuSans-6d" x="295.064453"/>
      <use xlink:href="#DejaVuSans-61" x="392.476562"/>
      <use xlink:href="#DejaVuSans-6e" x="453.755859"/>
      <use xlink:href="#DejaVuSans-63" x="517.134766"/>
      <use xlink:href="#DejaVuSans-65" x="572.115234"/>
      <use xlink:href="#DejaVuSans-43" x="633.638672"/>
      <use xlink:href="#DejaVuSans-6f" x="703.462891"/>
      <use xlink:href="#DejaVuSans-75" x="764.644531"/>
      <use xlink:href="#DejaVuSans-6e" x="828.023438"/>
      <use xlink:href="#DejaVuSans-74" x="891.402344"/>
      <use xlink:href="#DejaVuSans-65" x="930.611328"/>
      <use xlink:href="#DejaVuSans-72" x="992.134766"/>
      <use xlink:href="#DejaVuSans-53" x="1033.248047"/>
      <use xlink:href="#DejaVuSans-6f" x="1096.724609"/>
      <use xlink:href="#DejaVuSans-66" x="1157.90625"/>
      <use xlink:href="#DejaVuSans-74" x="1191.361328"/>
      <use xlink:href="#DejaVuSans-53" x="1230.570312"/>
      <use xlink:href="#DejaVuSans-6c" x="1294.046875"/>
      <use xlink:href="#DejaVuSans-65" x="1321.830078"/>
      <use xlink:href="#DejaVuSans-65" x="1383.353516"/>
      <use xlink:href="#DejaVuSans-70" x="1444.876953"/>
      <use xlink:href="#DejaVuSans-54" x="1508.353516"/>
      <use xlink:href="#DejaVuSans-69" x="1566.3125"/>
      <use xlink:href="#DejaVuSans-6d" x="1594.095703"/>
      <use xlink:href="#DejaVuSans-65" x="1691.507812"/>
      <use xlink:href="#DejaVuSans-72" x="1753.03125"/>
     </g>
    </g>
   </g>
  </g>
 </g>
 <defs>
  <clipPath id="p1748a81555">
   <rect x="69.56" y="25.92" width="351.64" height="365.08"/>
  </clipPath>
 </defs>
</svg>
